{
	"asset":{
		"generator":"Khronos glTF Blender I/O v5.0.21",
		"version":"2.0"
	},
	"scene":0,
	"scenes":[
		{
			"name":"Scene",
			"nodes":[
				34
			]
		}
	],
	"nodes":[
		{
			"name":"mixamorig:HeadTop_End",
			"rotation":[
				0,
				4.172936137960739e-26,
				7.144052547578581e-26,
				1
			],
			"translation":[
				2.328305881427184e-10,
				1.358947992324829,
				0.09206333011388779
			]
		},
		{
			"children":[
				0
			],
			"name":"mixamorig:Head",
			"rotation":[
				-6.837588273356232e-09,
				-8.212933436173633e-25,
				-2.4721865389688407e-25,
				1
			],
			"translation":[
				4.6566123179658803e-10,
				0.5026030540466309,
				0.0340493768453598
			]
		},
		{
			"children":[
				1
			],
			"name":"mixamorig:Neck",
			"rotation":[
				0.0015698678325861692,
				-5.9942329713187055e-21,
				-9.257723696014592e-24,
				0.9999988079071045
			],
			"scale":[
				1,
				1,
				0.9999999403953552
			],
			"translation":[
				4.6566125955216364e-10,
				0.5493759512901306,
				-3.4458935260772705e-08
			]
		},
		{
			"name":"mixamorig:LeftHandIndex4",
			"rotation":[
				-2.6831634386326186e-05,
				-3.026798367500305e-09,
				-1.9398139556869864e-06,
				1
			],
			"scale":[
				1,
				1.0000001192092896,
				1
			],
			"translation":[
				-0.0020674467086791992,
				0.0214616097509861,
				-0.005165824666619301
			]
		},
		{
			"children":[
				3
			],
			"name":"mixamorig:LeftHandIndex3",
			"rotation":[
				-2.93925404548645e-06,
				-3.67872416973114e-08,
				4.2164174374192953e-07,
				1
			],
			"translation":[
				0.021354995667934418,
				0.04016073793172836,
				0.0053251562640070915
			]
		},
		{
			"children":[
				4
			],
			"name":"mixamorig:LeftHandIndex2",
			"rotation":[
				9.258976206183434e-06,
				3.748573362827301e-08,
				9.996583685278893e-07,
				1
			],
			"translation":[
				-1.1175870895385742e-07,
				0.044600244611501694,
				-1.6391277313232422e-07
			]
		},
		{
			"children":[
				5
			],
			"name":"mixamorig:LeftHandIndex1",
			"rotation":[
				0.09000315517187119,
				-0.0005751647404395044,
				-0.0063732098788022995,
				0.9959209561347961
			],
			"scale":[
				1,
				1,
				0.9999999403953552
			],
			"translation":[
				4.023313522338867e-07,
				0.06614545732736588,
				8.57282429933548e-07
			]
		},
		{
			"children":[
				6
			],
			"name":"mixamorig:LeftHand",
			"rotation":[
				-0.021154657006263733,
				-0.0029758657328784466,
				0.13927359879016876,
				0.9900234937667847
			],
			"scale":[
				0.9999999403953552,
				0.9999999403953552,
				0.9999999403953552
			],
			"translation":[
				4.470348358154297e-08,
				0.8250715136528015,
				-4.284083843231201e-08
			]
		},
		{
			"children":[
				7
			],
			"name":"mixamorig:LeftForeArm",
			"rotation":[
				-0.09973254799842834,
				-0.01179969497025013,
				0.11689963936805725,
				0.988053023815155
			],
			"scale":[
				0.9999999403953552,
				0.9999998807907104,
				0.9999999403953552
			],
			"translation":[
				1.862645149230957e-09,
				0.4775169789791107,
				-2.5657936930656433e-07
			]
		},
		{
			"children":[
				8
			],
			"name":"mixamorig:LeftArm",
			"rotation":[
				-0.057153187692165375,
				0.008525010198354721,
				-0.14728297293186188,
				0.987405002117157
			],
			"scale":[
				1,
				1.0000001192092896,
				1
			],
			"translation":[
				-2.0489096641540527e-08,
				0.6394312977790833,
				-3.961031325161457e-07
			]
		},
		{
			"children":[
				9
			],
			"name":"mixamorig:LeftShoulder",
			"rotation":[
				0.5549971461296082,
				0.44417715072631836,
				-0.5166367292404175,
				0.4772540032863617
			],
			"scale":[
				0.9999998211860657,
				0.9999998807907104,
				1
			],
			"translation":[
				0.3159744441509247,
				0.4995793402194977,
				0.02262755297124386
			]
		},
		{
			"name":"mixamorig:RightHandIndex4",
			"rotation":[
				-3.725290298461914e-08,
				2.421438694000244e-08,
				1.862645149230957e-09,
				1
			],
			"translation":[
				2.905726432800293e-07,
				0.0003886371850967407,
				-3.650784492492676e-07
			]
		},
		{
			"children":[
				11
			],
			"name":"mixamorig:RightHandIndex3",
			"rotation":[
				-7.450580596923828e-09,
				-2.2351741790771484e-08,
				-3.725290298461914e-09,
				1
			],
			"translation":[
				6.258487701416016e-07,
				0.0003886967897415161,
				-3.3527612686157227e-07
			]
		},
		{
			"children":[
				12
			],
			"name":"mixamorig:RightHandIndex2",
			"rotation":[
				1.9781291484832764e-06,
				0,
				2.130866050720215e-06,
				1
			],
			"translation":[
				1.7136335372924805e-07,
				0.0002597719430923462,
				-7.450580596923828e-09
			]
		},
		{
			"children":[
				13
			],
			"name":"mixamorig:RightHandIndex1",
			"rotation":[
				0.8943749070167542,
				-0.10369937866926193,
				0.3371310532093048,
				0.27510473132133484
			],
			"scale":[
				0.9999995827674866,
				0.9999998807907104,
				0.9999995231628418
			],
			"translation":[
				-1.337612047791481e-07,
				0.17217475175857544,
				2.08965502679348e-07
			]
		},
		{
			"children":[
				14
			],
			"name":"mixamorig:RightHand",
			"rotation":[
				0.022579988464713097,
				0.0009886383777484298,
				0.04373665153980255,
				0.9987874031066895
			],
			"scale":[
				0.9999999403953552,
				0.9999998807907104,
				1
			],
			"translation":[
				1.3248063623905182e-07,
				0.8249191045761108,
				1.0489020496606827e-06
			]
		},
		{
			"children":[
				15
			],
			"name":"mixamorig:RightForeArm",
			"rotation":[
				-0.09706684947013855,
				0.005342581309378147,
				-0.05469691753387451,
				0.9937593936920166
			],
			"scale":[
				1,
				0.9999999403953552,
				1
			],
			"translation":[
				3.725290298461914e-09,
				0.46857836842536926,
				-3.848690539598465e-07
			]
		},
		{
			"children":[
				16
			],
			"name":"mixamorig:RightArm",
			"rotation":[
				-0.05982297658920288,
				-0.004089758265763521,
				0.06808456778526306,
				0.9958759546279907
			],
			"scale":[
				0.9999999403953552,
				1,
				1
			],
			"translation":[
				8.381903171539307e-09,
				0.6380186080932617,
				2.2290623746812344e-07
			]
		},
		{
			"children":[
				17
			],
			"name":"mixamorig:RightShoulder",
			"rotation":[
				0.5430284142494202,
				-0.454998642206192,
				0.5292917490005493,
				0.4668475389480591
			],
			"scale":[
				1,
				1.0000001192092896,
				1.0000001192092896
			],
			"translation":[
				-0.3159743845462799,
				0.49962571263313293,
				0.00808694213628769
			]
		},
		{
			"children":[
				2,
				10,
				18
			],
			"name":"mixamorig:Spine2",
			"rotation":[
				1.641456037759781e-08,
				-1.3877784499092007e-17,
				6.220010465486634e-26,
				1
			],
			"translation":[
				-3.165870343657673e-17,
				0.48833370208740234,
				-1.5832483768463135e-08
			]
		},
		{
			"children":[
				19
			],
			"name":"mixamorig:Spine1",
			"rotation":[
				2.270098775625229e-08,
				-1.1641530794914701e-10,
				-2.650035840099144e-18,
				1
			],
			"translation":[
				-2.0645590792511825e-10,
				0.42729252576828003,
				3.2587297305042284e-09
			]
		},
		{
			"children":[
				20
			],
			"name":"mixamorig:Spine",
			"rotation":[
				-0.001569884130731225,
				1.1641516223237502e-10,
				-1.8275849854743759e-13,
				0.9999988079071045
			],
			"scale":[
				1,
				0.9999999403953552,
				0.9999999403953552
			],
			"translation":[
				-4.656612873077393e-10,
				0.36624884605407715,
				-0.0011499663814902306
			]
		},
		{
			"name":"mixamorig:LeftToe_End",
			"rotation":[
				1.121661625802517e-07,
				2.069864422082901e-07,
				-1.9124126993119717e-07,
				1
			],
			"translation":[
				-2.0908191800117493e-07,
				0.29055795073509216,
				5.21540641784668e-08
			]
		},
		{
			"children":[
				22
			],
			"name":"mixamorig:LeftToeBase",
			"rotation":[
				0.3550579845905304,
				-0.06361744552850723,
				0.024226434528827667,
				0.93236243724823
			],
			"scale":[
				1,
				1,
				0.9999999403953552
			],
			"translation":[
				2.3748725652694702e-07,
				0.6144599914550781,
				7.450580596923828e-08
			]
		},
		{
			"children":[
				23
			],
			"name":"mixamorig:LeftFoot",
			"rotation":[
				0.46349069476127625,
				-0.12623633444309235,
				0.06690582633018494,
				0.8745080828666687
			],
			"scale":[
				0.9999999403953552,
				1,
				0.9999999403953552
			],
			"translation":[
				1.0960502550005913e-07,
				0.37275657057762146,
				-1.210719347000122e-08
			]
		},
		{
			"children":[
				24
			],
			"name":"mixamorig:LeftLeg",
			"rotation":[
				-0.06984367221593857,
				-0.0032095802016556263,
				0.04579153284430504,
				0.9965012073516846
			],
			"scale":[
				1,
				1,
				1.0000001192092896
			],
			"translation":[
				2.5051122065633535e-08,
				0.5540105700492859,
				4.28105408900592e-08
			]
		},
		{
			"children":[
				25
			],
			"name":"mixamorig:LeftUpLeg",
			"rotation":[
				0.00024587620282545686,
				-0.021830976009368896,
				0.999698281288147,
				0.011256515979766846
			],
			"scale":[
				1.0000003576278687,
				1,
				1.0000011920928955
			],
			"translation":[
				0.6764740347862244,
				-0.20319248735904694,
				0.03202325850725174
			]
		},
		{
			"name":"mixamorig:RightToe_End",
			"rotation":[
				2.339438651688397e-07,
				-6.609479896724224e-08,
				3.1086528906598687e-07,
				1
			],
			"scale":[
				1.0000001192092896,
				1,
				1
			],
			"translation":[
				6.548361852765083e-08,
				0.27839788794517517,
				9.825453162193298e-08
			]
		},
		{
			"children":[
				27
			],
			"name":"mixamorig:RightToeBase",
			"rotation":[
				0.35955876111984253,
				0.07028629630804062,
				-0.027172090485692024,
				0.9300748109817505
			],
			"scale":[
				1,
				0.9999999403953552,
				1
			],
			"translation":[
				-3.096647560596466e-07,
				0.6072694063186646,
				5.587935447692871e-08
			]
		},
		{
			"children":[
				28
			],
			"name":"mixamorig:RightFoot",
			"rotation":[
				0.4574354887008667,
				0.12898313999176025,
				-0.06725640594959259,
				0.8772643208503723
			],
			"scale":[
				1,
				0.9999998807907104,
				0.9999998807907104
			],
			"translation":[
				3.474997356534004e-08,
				0.3726511299610138,
				1.3504177331924438e-08
			]
		},
		{
			"children":[
				29
			],
			"name":"mixamorig:RightLeg",
			"rotation":[
				-0.07579973340034485,
				0.0034902875777333975,
				-0.04584725573658943,
				0.9960623979568481
			],
			"scale":[
				0.9999999403953552,
				1,
				1
			],
			"translation":[
				-2.3400934878736734e-07,
				0.5537339448928833,
				6.659928430963191e-08
			]
		},
		{
			"children":[
				30
			],
			"name":"mixamorig:RightUpLeg",
			"rotation":[
				0.0001700746506685391,
				0.015071719884872437,
				-0.9998229742050171,
				0.01126327458769083
			],
			"scale":[
				1.0000003576278687,
				1.000000238418579,
				1.0000004768371582
			],
			"translation":[
				-0.6764740347862244,
				-0.20319248735904694,
				0.029358454048633575
			]
		},
		{
			"children":[
				21,
				26,
				31
			],
			"name":"mixamorig:Hips",
			"rotation":[
				5.523086343828254e-08,
				0,
				0,
				1
			],
			"translation":[
				-0.0038624554872512817,
				1.6023041009902954,
				-0.1183098778128624
			]
		},
		{
			"mesh":0,
			"name":"material",
			"skin":0
		},
		{
			"children":[
				33,
				32
			],
			"name":"Armature"
		}
	],
	"animations":[
		{
			"channels":[
				{
					"sampler":0,
					"target":{
						"node":32,
						"path":"translation"
					}
				},
				{
					"sampler":1,
					"target":{
						"node":32,
						"path":"rotation"
					}
				},
				{
					"sampler":2,
					"target":{
						"node":32,
						"path":"scale"
					}
				},
				{
					"sampler":3,
					"target":{
						"node":21,
						"path":"translation"
					}
				},
				{
					"sampler":4,
					"target":{
						"node":21,
						"path":"rotation"
					}
				},
				{
					"sampler":5,
					"target":{
						"node":21,
						"path":"scale"
					}
				},
				{
					"sampler":6,
					"target":{
						"node":20,
						"path":"translation"
					}
				},
				{
					"sampler":7,
					"target":{
						"node":20,
						"path":"rotation"
					}
				},
				{
					"sampler":8,
					"target":{
						"node":20,
						"path":"scale"
					}
				},
				{
					"sampler":9,
					"target":{
						"node":19,
						"path":"translation"
					}
				},
				{
					"sampler":10,
					"target":{
						"node":19,
						"path":"rotation"
					}
				},
				{
					"sampler":11,
					"target":{
						"node":19,
						"path":"scale"
					}
				},
				{
					"sampler":12,
					"target":{
						"node":2,
						"path":"translation"
					}
				},
				{
					"sampler":13,
					"target":{
						"node":2,
						"path":"rotation"
					}
				},
				{
					"sampler":14,
					"target":{
						"node":2,
						"path":"scale"
					}
				},
				{
					"sampler":15,
					"target":{
						"node":1,
						"path":"translation"
					}
				},
				{
					"sampler":16,
					"target":{
						"node":1,
						"path":"rotation"
					}
				},
				{
					"sampler":17,
					"target":{
						"node":1,
						"path":"scale"
					}
				},
				{
					"sampler":18,
					"target":{
						"node":0,
						"path":"translation"
					}
				},
				{
					"sampler":19,
					"target":{
						"node":0,
						"path":"rotation"
					}
				},
				{
					"sampler":20,
					"target":{
						"node":0,
						"path":"scale"
					}
				},
				{
					"sampler":21,
					"target":{
						"node":10,
						"path":"translation"
					}
				},
				{
					"sampler":22,
					"target":{
						"node":10,
						"path":"rotation"
					}
				},
				{
					"sampler":23,
					"target":{
						"node":10,
						"path":"scale"
					}
				},
				{
					"sampler":24,
					"target":{
						"node":9,
						"path":"translation"
					}
				},
				{
					"sampler":25,
					"target":{
						"node":9,
						"path":"rotation"
					}
				},
				{
					"sampler":26,
					"target":{
						"node":9,
						"path":"scale"
					}
				},
				{
					"sampler":27,
					"target":{
						"node":8,
						"path":"translation"
					}
				},
				{
					"sampler":28,
					"target":{
						"node":8,
						"path":"rotation"
					}
				},
				{
					"sampler":29,
					"target":{
						"node":8,
						"path":"scale"
					}
				},
				{
					"sampler":30,
					"target":{
						"node":7,
						"path":"translation"
					}
				},
				{
					"sampler":31,
					"target":{
						"node":7,
						"path":"rotation"
					}
				},
				{
					"sampler":32,
					"target":{
						"node":7,
						"path":"scale"
					}
				},
				{
					"sampler":33,
					"target":{
						"node":6,
						"path":"translation"
					}
				},
				{
					"sampler":34,
					"target":{
						"node":6,
						"path":"rotation"
					}
				},
				{
					"sampler":35,
					"target":{
						"node":6,
						"path":"scale"
					}
				},
				{
					"sampler":36,
					"target":{
						"node":5,
						"path":"translation"
					}
				},
				{
					"sampler":37,
					"target":{
						"node":5,
						"path":"rotation"
					}
				},
				{
					"sampler":38,
					"target":{
						"node":5,
						"path":"scale"
					}
				},
				{
					"sampler":39,
					"target":{
						"node":4,
						"path":"translation"
					}
				},
				{
					"sampler":40,
					"target":{
						"node":4,
						"path":"rotation"
					}
				},
				{
					"sampler":41,
					"target":{
						"node":4,
						"path":"scale"
					}
				},
				{
					"sampler":42,
					"target":{
						"node":3,
						"path":"translation"
					}
				},
				{
					"sampler":43,
					"target":{
						"node":3,
						"path":"rotation"
					}
				},
				{
					"sampler":44,
					"target":{
						"node":3,
						"path":"scale"
					}
				},
				{
					"sampler":45,
					"target":{
						"node":18,
						"path":"translation"
					}
				},
				{
					"sampler":46,
					"target":{
						"node":18,
						"path":"rotation"
					}
				},
				{
					"sampler":47,
					"target":{
						"node":18,
						"path":"scale"
					}
				},
				{
					"sampler":48,
					"target":{
						"node":17,
						"path":"translation"
					}
				},
				{
					"sampler":49,
					"target":{
						"node":17,
						"path":"rotation"
					}
				},
				{
					"sampler":50,
					"target":{
						"node":17,
						"path":"scale"
					}
				},
				{
					"sampler":51,
					"target":{
						"node":16,
						"path":"translation"
					}
				},
				{
					"sampler":52,
					"target":{
						"node":16,
						"path":"rotation"
					}
				},
				{
					"sampler":53,
					"target":{
						"node":16,
						"path":"scale"
					}
				},
				{
					"sampler":54,
					"target":{
						"node":15,
						"path":"translation"
					}
				},
				{
					"sampler":55,
					"target":{
						"node":15,
						"path":"rotation"
					}
				},
				{
					"sampler":56,
					"target":{
						"node":15,
						"path":"scale"
					}
				},
				{
					"sampler":57,
					"target":{
						"node":14,
						"path":"translation"
					}
				},
				{
					"sampler":58,
					"target":{
						"node":14,
						"path":"rotation"
					}
				},
				{
					"sampler":59,
					"target":{
						"node":14,
						"path":"scale"
					}
				},
				{
					"sampler":60,
					"target":{
						"node":13,
						"path":"translation"
					}
				},
				{
					"sampler":61,
					"target":{
						"node":13,
						"path":"rotation"
					}
				},
				{
					"sampler":62,
					"target":{
						"node":13,
						"path":"scale"
					}
				},
				{
					"sampler":63,
					"target":{
						"node":12,
						"path":"translation"
					}
				},
				{
					"sampler":64,
					"target":{
						"node":12,
						"path":"rotation"
					}
				},
				{
					"sampler":65,
					"target":{
						"node":12,
						"path":"scale"
					}
				},
				{
					"sampler":66,
					"target":{
						"node":11,
						"path":"translation"
					}
				},
				{
					"sampler":67,
					"target":{
						"node":11,
						"path":"rotation"
					}
				},
				{
					"sampler":68,
					"target":{
						"node":11,
						"path":"scale"
					}
				},
				{
					"sampler":69,
					"target":{
						"node":26,
						"path":"translation"
					}
				},
				{
					"sampler":70,
					"target":{
						"node":26,
						"path":"rotation"
					}
				},
				{
					"sampler":71,
					"target":{
						"node":26,
						"path":"scale"
					}
				},
				{
					"sampler":72,
					"target":{
						"node":25,
						"path":"translation"
					}
				},
				{
					"sampler":73,
					"target":{
						"node":25,
						"path":"rotation"
					}
				},
				{
					"sampler":74,
					"target":{
						"node":25,
						"path":"scale"
					}
				},
				{
					"sampler":75,
					"target":{
						"node":24,
						"path":"translation"
					}
				},
				{
					"sampler":76,
					"target":{
						"node":24,
						"path":"rotation"
					}
				},
				{
					"sampler":77,
					"target":{
						"node":24,
						"path":"scale"
					}
				},
				{
					"sampler":78,
					"target":{
						"node":23,
						"path":"translation"
					}
				},
				{
					"sampler":79,
					"target":{
						"node":23,
						"path":"rotation"
					}
				},
				{
					"sampler":80,
					"target":{
						"node":23,
						"path":"scale"
					}
				},
				{
					"sampler":81,
					"target":{
						"node":22,
						"path":"translation"
					}
				},
				{
					"sampler":82,
					"target":{
						"node":22,
						"path":"rotation"
					}
				},
				{
					"sampler":83,
					"target":{
						"node":22,
						"path":"scale"
					}
				},
				{
					"sampler":84,
					"target":{
						"node":31,
						"path":"translation"
					}
				},
				{
					"sampler":85,
					"target":{
						"node":31,
						"path":"rotation"
					}
				},
				{
					"sampler":86,
					"target":{
						"node":31,
						"path":"scale"
					}
				},
				{
					"sampler":87,
					"target":{
						"node":30,
						"path":"translation"
					}
				},
				{
					"sampler":88,
					"target":{
						"node":30,
						"path":"rotation"
					}
				},
				{
					"sampler":89,
					"target":{
						"node":30,
						"path":"scale"
					}
				},
				{
					"sampler":90,
					"target":{
						"node":29,
						"path":"translation"
					}
				},
				{
					"sampler":91,
					"target":{
						"node":29,
						"path":"rotation"
					}
				},
				{
					"sampler":92,
					"target":{
						"node":29,
						"path":"scale"
					}
				},
				{
					"sampler":93,
					"target":{
						"node":28,
						"path":"translation"
					}
				},
				{
					"sampler":94,
					"target":{
						"node":28,
						"path":"rotation"
					}
				},
				{
					"sampler":95,
					"target":{
						"node":28,
						"path":"scale"
					}
				},
				{
					"sampler":96,
					"target":{
						"node":27,
						"path":"translation"
					}
				},
				{
					"sampler":97,
					"target":{
						"node":27,
						"path":"rotation"
					}
				},
				{
					"sampler":98,
					"target":{
						"node":27,
						"path":"scale"
					}
				}
			],
			"name":"mixamo.com",
			"samplers":[
				{
					"input":7,
					"interpolation":"LINEAR",
					"output":8
				},
				{
					"input":7,
					"interpolation":"LINEAR",
					"output":9
				},
				{
					"input":10,
					"interpolation":"STEP",
					"output":11
				},
				{
					"input":10,
					"interpolation":"LINEAR",
					"output":12
				},
				{
					"input":7,
					"interpolation":"LINEAR",
					"output":13
				},
				{
					"input":10,
					"interpolation":"LINEAR",
					"output":14
				},
				{
					"input":10,
					"interpolation":"LINEAR",
					"output":15
				},
				{
					"input":7,
					"interpolation":"LINEAR",
					"output":16
				},
				{
					"input":10,
					"interpolation":"STEP",
					"output":17
				},
				{
					"input":10,
					"interpolation":"LINEAR",
					"output":18
				},
				{
					"input":7,
					"interpolation":"LINEAR",
					"output":19
				},
				{
					"input":10,
					"interpolation":"LINEAR",
					"output":20
				},
				{
					"input":10,
					"interpolation":"LINEAR",
					"output":21
				},
				{
					"input":7,
					"interpolation":"LINEAR",
					"output":22
				},
				{
					"input":10,
					"interpolation":"LINEAR",
					"output":23
				},
				{
					"input":10,
					"interpolation":"LINEAR",
					"output":24
				},
				{
					"input":7,
					"interpolation":"LINEAR",
					"output":25
				},
				{
					"input":10,
					"interpolation":"STEP",
					"output":26
				},
				{
					"input":10,
					"interpolation":"STEP",
					"output":27
				},
				{
					"input":10,
					"interpolation":"STEP",
					"output":28
				},
				{
					"input":10,
					"interpolation":"STEP",
					"output":29
				},
				{
					"input":10,
					"interpolation":"LINEAR",
					"output":30
				},
				{
					"input":7,
					"interpolation":"LINEAR",
					"output":31
				},
				{
					"input":10,
					"interpolation":"LINEAR",
					"output":32
				},
				{
					"input":10,
					"interpolation":"LINEAR",
					"output":33
				},
				{
					"input":7,
					"interpolation":"LINEAR",
					"output":34
				},
				{
					"input":10,
					"interpolation":"LINEAR",
					"output":35
				},
				{
					"input":10,
					"interpolation":"LINEAR",
					"output":36
				},
				{
					"input":7,
					"interpolation":"LINEAR",
					"output":37
				},
				{
					"input":10,
					"interpolation":"LINEAR",
					"output":38
				},
				{
					"input":10,
					"interpolation":"LINEAR",
					"output":39
				},
				{
					"input":7,
					"interpolation":"LINEAR",
					"output":40
				},
				{
					"input":10,
					"interpolation":"LINEAR",
					"output":41
				},
				{
					"input":10,
					"interpolation":"LINEAR",
					"output":42
				},
				{
					"input":7,
					"interpolation":"LINEAR",
					"output":43
				},
				{
					"input":10,
					"interpolation":"STEP",
					"output":44
				},
				{
					"input":10,
					"interpolation":"LINEAR",
					"output":45
				},
				{
					"input":7,
					"interpolation":"LINEAR",
					"output":46
				},
				{
					"input":10,
					"interpolation":"STEP",
					"output":47
				},
				{
					"input":10,
					"interpolation":"LINEAR",
					"output":48
				},
				{
					"input":7,
					"interpolation":"LINEAR",
					"output":49
				},
				{
					"input":10,
					"interpolation":"LINEAR",
					"output":50
				},
				{
					"input":10,
					"interpolation":"STEP",
					"output":51
				},
				{
					"input":10,
					"interpolation":"STEP",
					"output":52
				},
				{
					"input":10,
					"interpolation":"STEP",
					"output":53
				},
				{
					"input":10,
					"interpolation":"LINEAR",
					"output":54
				},
				{
					"input":7,
					"interpolation":"LINEAR",
					"output":55
				},
				{
					"input":10,
					"interpolation":"LINEAR",
					"output":56
				},
				{
					"input":10,
					"interpolation":"LINEAR",
					"output":57
				},
				{
					"input":7,
					"interpolation":"LINEAR",
					"output":58
				},
				{
					"input":10,
					"interpolation":"STEP",
					"output":59
				},
				{
					"input":10,
					"interpolation":"LINEAR",
					"output":60
				},
				{
					"input":7,
					"interpolation":"LINEAR",
					"output":61
				},
				{
					"input":10,
					"interpolation":"LINEAR",
					"output":62
				},
				{
					"input":10,
					"interpolation":"LINEAR",
					"output":63
				},
				{
					"input":7,
					"interpolation":"LINEAR",
					"output":64
				},
				{
					"input":10,
					"interpolation":"LINEAR",
					"output":65
				},
				{
					"input":10,
					"interpolation":"LINEAR",
					"output":66
				},
				{
					"input":7,
					"interpolation":"LINEAR",
					"output":67
				},
				{
					"input":10,
					"interpolation":"STEP",
					"output":68
				},
				{
					"input":10,
					"interpolation":"LINEAR",
					"output":69
				},
				{
					"input":10,
					"interpolation":"LINEAR",
					"output":70
				},
				{
					"input":10,
					"interpolation":"STEP",
					"output":71
				},
				{
					"input":10,
					"interpolation":"LINEAR",
					"output":72
				},
				{
					"input":10,
					"interpolation":"LINEAR",
					"output":73
				},
				{
					"input":10,
					"interpolation":"STEP",
					"output":74
				},
				{
					"input":10,
					"interpolation":"STEP",
					"output":75
				},
				{
					"input":10,
					"interpolation":"STEP",
					"output":76
				},
				{
					"input":10,
					"interpolation":"STEP",
					"output":77
				},
				{
					"input":10,
					"interpolation":"LINEAR",
					"output":78
				},
				{
					"input":7,
					"interpolation":"LINEAR",
					"output":79
				},
				{
					"input":10,
					"interpolation":"STEP",
					"output":80
				},
				{
					"input":10,
					"interpolation":"LINEAR",
					"output":81
				},
				{
					"input":7,
					"interpolation":"LINEAR",
					"output":82
				},
				{
					"input":10,
					"interpolation":"STEP",
					"output":83
				},
				{
					"input":10,
					"interpolation":"LINEAR",
					"output":84
				},
				{
					"input":7,
					"interpolation":"LINEAR",
					"output":85
				},
				{
					"input":10,
					"interpolation":"STEP",
					"output":86
				},
				{
					"input":10,
					"interpolation":"LINEAR",
					"output":87
				},
				{
					"input":7,
					"interpolation":"LINEAR",
					"output":88
				},
				{
					"input":10,
					"interpolation":"STEP",
					"output":89
				},
				{
					"input":10,
					"interpolation":"STEP",
					"output":90
				},
				{
					"input":10,
					"interpolation":"STEP",
					"output":91
				},
				{
					"input":10,
					"interpolation":"STEP",
					"output":71
				},
				{
					"input":10,
					"interpolation":"LINEAR",
					"output":92
				},
				{
					"input":7,
					"interpolation":"LINEAR",
					"output":93
				},
				{
					"input":10,
					"interpolation":"STEP",
					"output":94
				},
				{
					"input":10,
					"interpolation":"LINEAR",
					"output":95
				},
				{
					"input":7,
					"interpolation":"LINEAR",
					"output":96
				},
				{
					"input":10,
					"interpolation":"STEP",
					"output":97
				},
				{
					"input":10,
					"interpolation":"LINEAR",
					"output":98
				},
				{
					"input":7,
					"interpolation":"LINEAR",
					"output":99
				},
				{
					"input":10,
					"interpolation":"LINEAR",
					"output":100
				},
				{
					"input":10,
					"interpolation":"LINEAR",
					"output":101
				},
				{
					"input":7,
					"interpolation":"LINEAR",
					"output":102
				},
				{
					"input":10,
					"interpolation":"LINEAR",
					"output":103
				},
				{
					"input":10,
					"interpolation":"STEP",
					"output":104
				},
				{
					"input":10,
					"interpolation":"STEP",
					"output":105
				},
				{
					"input":10,
					"interpolation":"STEP",
					"output":26
				}
			]
		},
		{
			"channels":[
				{
					"sampler":0,
					"target":{
						"node":32,
						"path":"translation"
					}
				},
				{
					"sampler":1,
					"target":{
						"node":32,
						"path":"rotation"
					}
				},
				{
					"sampler":2,
					"target":{
						"node":32,
						"path":"scale"
					}
				},
				{
					"sampler":3,
					"target":{
						"node":21,
						"path":"translation"
					}
				},
				{
					"sampler":4,
					"target":{
						"node":21,
						"path":"rotation"
					}
				},
				{
					"sampler":5,
					"target":{
						"node":21,
						"path":"scale"
					}
				},
				{
					"sampler":6,
					"target":{
						"node":20,
						"path":"translation"
					}
				},
				{
					"sampler":7,
					"target":{
						"node":20,
						"path":"rotation"
					}
				},
				{
					"sampler":8,
					"target":{
						"node":20,
						"path":"scale"
					}
				},
				{
					"sampler":9,
					"target":{
						"node":19,
						"path":"translation"
					}
				},
				{
					"sampler":10,
					"target":{
						"node":19,
						"path":"rotation"
					}
				},
				{
					"sampler":11,
					"target":{
						"node":19,
						"path":"scale"
					}
				},
				{
					"sampler":12,
					"target":{
						"node":2,
						"path":"translation"
					}
				},
				{
					"sampler":13,
					"target":{
						"node":2,
						"path":"rotation"
					}
				},
				{
					"sampler":14,
					"target":{
						"node":2,
						"path":"scale"
					}
				},
				{
					"sampler":15,
					"target":{
						"node":1,
						"path":"translation"
					}
				},
				{
					"sampler":16,
					"target":{
						"node":1,
						"path":"rotation"
					}
				},
				{
					"sampler":17,
					"target":{
						"node":1,
						"path":"scale"
					}
				},
				{
					"sampler":18,
					"target":{
						"node":0,
						"path":"translation"
					}
				},
				{
					"sampler":19,
					"target":{
						"node":0,
						"path":"rotation"
					}
				},
				{
					"sampler":20,
					"target":{
						"node":0,
						"path":"scale"
					}
				},
				{
					"sampler":21,
					"target":{
						"node":10,
						"path":"translation"
					}
				},
				{
					"sampler":22,
					"target":{
						"node":10,
						"path":"rotation"
					}
				},
				{
					"sampler":23,
					"target":{
						"node":10,
						"path":"scale"
					}
				},
				{
					"sampler":24,
					"target":{
						"node":9,
						"path":"translation"
					}
				},
				{
					"sampler":25,
					"target":{
						"node":9,
						"path":"rotation"
					}
				},
				{
					"sampler":26,
					"target":{
						"node":9,
						"path":"scale"
					}
				},
				{
					"sampler":27,
					"target":{
						"node":8,
						"path":"translation"
					}
				},
				{
					"sampler":28,
					"target":{
						"node":8,
						"path":"rotation"
					}
				},
				{
					"sampler":29,
					"target":{
						"node":8,
						"path":"scale"
					}
				},
				{
					"sampler":30,
					"target":{
						"node":7,
						"path":"translation"
					}
				},
				{
					"sampler":31,
					"target":{
						"node":7,
						"path":"rotation"
					}
				},
				{
					"sampler":32,
					"target":{
						"node":7,
						"path":"scale"
					}
				},
				{
					"sampler":33,
					"target":{
						"node":6,
						"path":"translation"
					}
				},
				{
					"sampler":34,
					"target":{
						"node":6,
						"path":"rotation"
					}
				},
				{
					"sampler":35,
					"target":{
						"node":6,
						"path":"scale"
					}
				},
				{
					"sampler":36,
					"target":{
						"node":5,
						"path":"translation"
					}
				},
				{
					"sampler":37,
					"target":{
						"node":5,
						"path":"rotation"
					}
				},
				{
					"sampler":38,
					"target":{
						"node":5,
						"path":"scale"
					}
				},
				{
					"sampler":39,
					"target":{
						"node":4,
						"path":"translation"
					}
				},
				{
					"sampler":40,
					"target":{
						"node":4,
						"path":"rotation"
					}
				},
				{
					"sampler":41,
					"target":{
						"node":4,
						"path":"scale"
					}
				},
				{
					"sampler":42,
					"target":{
						"node":3,
						"path":"translation"
					}
				},
				{
					"sampler":43,
					"target":{
						"node":3,
						"path":"rotation"
					}
				},
				{
					"sampler":44,
					"target":{
						"node":3,
						"path":"scale"
					}
				},
				{
					"sampler":45,
					"target":{
						"node":18,
						"path":"translation"
					}
				},
				{
					"sampler":46,
					"target":{
						"node":18,
						"path":"rotation"
					}
				},
				{
					"sampler":47,
					"target":{
						"node":18,
						"path":"scale"
					}
				},
				{
					"sampler":48,
					"target":{
						"node":17,
						"path":"translation"
					}
				},
				{
					"sampler":49,
					"target":{
						"node":17,
						"path":"rotation"
					}
				},
				{
					"sampler":50,
					"target":{
						"node":17,
						"path":"scale"
					}
				},
				{
					"sampler":51,
					"target":{
						"node":16,
						"path":"translation"
					}
				},
				{
					"sampler":52,
					"target":{
						"node":16,
						"path":"rotation"
					}
				},
				{
					"sampler":53,
					"target":{
						"node":16,
						"path":"scale"
					}
				},
				{
					"sampler":54,
					"target":{
						"node":15,
						"path":"translation"
					}
				},
				{
					"sampler":55,
					"target":{
						"node":15,
						"path":"rotation"
					}
				},
				{
					"sampler":56,
					"target":{
						"node":15,
						"path":"scale"
					}
				},
				{
					"sampler":57,
					"target":{
						"node":14,
						"path":"translation"
					}
				},
				{
					"sampler":58,
					"target":{
						"node":14,
						"path":"rotation"
					}
				},
				{
					"sampler":59,
					"target":{
						"node":14,
						"path":"scale"
					}
				},
				{
					"sampler":60,
					"target":{
						"node":13,
						"path":"translation"
					}
				},
				{
					"sampler":61,
					"target":{
						"node":13,
						"path":"rotation"
					}
				},
				{
					"sampler":62,
					"target":{
						"node":13,
						"path":"scale"
					}
				},
				{
					"sampler":63,
					"target":{
						"node":12,
						"path":"translation"
					}
				},
				{
					"sampler":64,
					"target":{
						"node":12,
						"path":"rotation"
					}
				},
				{
					"sampler":65,
					"target":{
						"node":12,
						"path":"scale"
					}
				},
				{
					"sampler":66,
					"target":{
						"node":11,
						"path":"translation"
					}
				},
				{
					"sampler":67,
					"target":{
						"node":11,
						"path":"rotation"
					}
				},
				{
					"sampler":68,
					"target":{
						"node":11,
						"path":"scale"
					}
				},
				{
					"sampler":69,
					"target":{
						"node":26,
						"path":"translation"
					}
				},
				{
					"sampler":70,
					"target":{
						"node":26,
						"path":"rotation"
					}
				},
				{
					"sampler":71,
					"target":{
						"node":26,
						"path":"scale"
					}
				},
				{
					"sampler":72,
					"target":{
						"node":25,
						"path":"translation"
					}
				},
				{
					"sampler":73,
					"target":{
						"node":25,
						"path":"rotation"
					}
				},
				{
					"sampler":74,
					"target":{
						"node":25,
						"path":"scale"
					}
				},
				{
					"sampler":75,
					"target":{
						"node":24,
						"path":"translation"
					}
				},
				{
					"sampler":76,
					"target":{
						"node":24,
						"path":"rotation"
					}
				},
				{
					"sampler":77,
					"target":{
						"node":24,
						"path":"scale"
					}
				},
				{
					"sampler":78,
					"target":{
						"node":23,
						"path":"translation"
					}
				},
				{
					"sampler":79,
					"target":{
						"node":23,
						"path":"rotation"
					}
				},
				{
					"sampler":80,
					"target":{
						"node":23,
						"path":"scale"
					}
				},
				{
					"sampler":81,
					"target":{
						"node":22,
						"path":"translation"
					}
				},
				{
					"sampler":82,
					"target":{
						"node":22,
						"path":"rotation"
					}
				},
				{
					"sampler":83,
					"target":{
						"node":22,
						"path":"scale"
					}
				},
				{
					"sampler":84,
					"target":{
						"node":31,
						"path":"translation"
					}
				},
				{
					"sampler":85,
					"target":{
						"node":31,
						"path":"rotation"
					}
				},
				{
					"sampler":86,
					"target":{
						"node":31,
						"path":"scale"
					}
				},
				{
					"sampler":87,
					"target":{
						"node":30,
						"path":"translation"
					}
				},
				{
					"sampler":88,
					"target":{
						"node":30,
						"path":"rotation"
					}
				},
				{
					"sampler":89,
					"target":{
						"node":30,
						"path":"scale"
					}
				},
				{
					"sampler":90,
					"target":{
						"node":29,
						"path":"translation"
					}
				},
				{
					"sampler":91,
					"target":{
						"node":29,
						"path":"rotation"
					}
				},
				{
					"sampler":92,
					"target":{
						"node":29,
						"path":"scale"
					}
				},
				{
					"sampler":93,
					"target":{
						"node":28,
						"path":"translation"
					}
				},
				{
					"sampler":94,
					"target":{
						"node":28,
						"path":"rotation"
					}
				},
				{
					"sampler":95,
					"target":{
						"node":28,
						"path":"scale"
					}
				},
				{
					"sampler":96,
					"target":{
						"node":27,
						"path":"translation"
					}
				},
				{
					"sampler":97,
					"target":{
						"node":27,
						"path":"rotation"
					}
				},
				{
					"sampler":98,
					"target":{
						"node":27,
						"path":"scale"
					}
				}
			],
			"name":"mixamo.com.001",
			"samplers":[
				{
					"input":7,
					"interpolation":"LINEAR",
					"output":106
				},
				{
					"input":7,
					"interpolation":"LINEAR",
					"output":107
				},
				{
					"input":10,
					"interpolation":"LINEAR",
					"output":108
				},
				{
					"input":10,
					"interpolation":"LINEAR",
					"output":109
				},
				{
					"input":7,
					"interpolation":"LINEAR",
					"output":110
				},
				{
					"input":10,
					"interpolation":"LINEAR",
					"output":111
				},
				{
					"input":10,
					"interpolation":"LINEAR",
					"output":112
				},
				{
					"input":7,
					"interpolation":"LINEAR",
					"output":113
				},
				{
					"input":10,
					"interpolation":"STEP",
					"output":114
				},
				{
					"input":10,
					"interpolation":"LINEAR",
					"output":115
				},
				{
					"input":7,
					"interpolation":"LINEAR",
					"output":116
				},
				{
					"input":10,
					"interpolation":"LINEAR",
					"output":117
				},
				{
					"input":10,
					"interpolation":"LINEAR",
					"output":118
				},
				{
					"input":7,
					"interpolation":"LINEAR",
					"output":119
				},
				{
					"input":10,
					"interpolation":"LINEAR",
					"output":120
				},
				{
					"input":10,
					"interpolation":"LINEAR",
					"output":121
				},
				{
					"input":7,
					"interpolation":"LINEAR",
					"output":122
				},
				{
					"input":10,
					"interpolation":"LINEAR",
					"output":123
				},
				{
					"input":10,
					"interpolation":"LINEAR",
					"output":124
				},
				{
					"input":10,
					"interpolation":"LINEAR",
					"output":125
				},
				{
					"input":10,
					"interpolation":"LINEAR",
					"output":126
				},
				{
					"input":10,
					"interpolation":"LINEAR",
					"output":127
				},
				{
					"input":7,
					"interpolation":"LINEAR",
					"output":128
				},
				{
					"input":10,
					"interpolation":"LINEAR",
					"output":129
				},
				{
					"input":10,
					"interpolation":"LINEAR",
					"output":130
				},
				{
					"input":7,
					"interpolation":"LINEAR",
					"output":131
				},
				{
					"input":10,
					"interpolation":"STEP",
					"output":132
				},
				{
					"input":10,
					"interpolation":"LINEAR",
					"output":133
				},
				{
					"input":7,
					"interpolation":"LINEAR",
					"output":134
				},
				{
					"input":10,
					"interpolation":"LINEAR",
					"output":135
				},
				{
					"input":10,
					"interpolation":"LINEAR",
					"output":136
				},
				{
					"input":7,
					"interpolation":"LINEAR",
					"output":137
				},
				{
					"input":10,
					"interpolation":"LINEAR",
					"output":138
				},
				{
					"input":10,
					"interpolation":"LINEAR",
					"output":139
				},
				{
					"input":7,
					"interpolation":"LINEAR",
					"output":140
				},
				{
					"input":10,
					"interpolation":"LINEAR",
					"output":141
				},
				{
					"input":10,
					"interpolation":"LINEAR",
					"output":142
				},
				{
					"input":7,
					"interpolation":"LINEAR",
					"output":143
				},
				{
					"input":10,
					"interpolation":"STEP",
					"output":144
				},
				{
					"input":10,
					"interpolation":"LINEAR",
					"output":145
				},
				{
					"input":7,
					"interpolation":"LINEAR",
					"output":146
				},
				{
					"input":10,
					"interpolation":"STEP",
					"output":147
				},
				{
					"input":10,
					"interpolation":"LINEAR",
					"output":148
				},
				{
					"input":10,
					"interpolation":"LINEAR",
					"output":149
				},
				{
					"input":10,
					"interpolation":"LINEAR",
					"output":150
				},
				{
					"input":10,
					"interpolation":"LINEAR",
					"output":151
				},
				{
					"input":7,
					"interpolation":"LINEAR",
					"output":152
				},
				{
					"input":10,
					"interpolation":"LINEAR",
					"output":153
				},
				{
					"input":10,
					"interpolation":"LINEAR",
					"output":154
				},
				{
					"input":7,
					"interpolation":"LINEAR",
					"output":155
				},
				{
					"input":10,
					"interpolation":"STEP",
					"output":156
				},
				{
					"input":10,
					"interpolation":"LINEAR",
					"output":157
				},
				{
					"input":7,
					"interpolation":"LINEAR",
					"output":158
				},
				{
					"input":10,
					"interpolation":"LINEAR",
					"output":159
				},
				{
					"input":10,
					"interpolation":"LINEAR",
					"output":160
				},
				{
					"input":7,
					"interpolation":"LINEAR",
					"output":161
				},
				{
					"input":10,
					"interpolation":"LINEAR",
					"output":162
				},
				{
					"input":10,
					"interpolation":"LINEAR",
					"output":163
				},
				{
					"input":7,
					"interpolation":"LINEAR",
					"output":164
				},
				{
					"input":10,
					"interpolation":"LINEAR",
					"output":165
				},
				{
					"input":10,
					"interpolation":"LINEAR",
					"output":166
				},
				{
					"input":10,
					"interpolation":"LINEAR",
					"output":167
				},
				{
					"input":10,
					"interpolation":"STEP",
					"output":168
				},
				{
					"input":10,
					"interpolation":"LINEAR",
					"output":169
				},
				{
					"input":10,
					"interpolation":"LINEAR",
					"output":170
				},
				{
					"input":10,
					"interpolation":"STEP",
					"output":171
				},
				{
					"input":10,
					"interpolation":"LINEAR",
					"output":172
				},
				{
					"input":10,
					"interpolation":"LINEAR",
					"output":173
				},
				{
					"input":10,
					"interpolation":"STEP",
					"output":174
				},
				{
					"input":10,
					"interpolation":"LINEAR",
					"output":175
				},
				{
					"input":7,
					"interpolation":"LINEAR",
					"output":176
				},
				{
					"input":10,
					"interpolation":"LINEAR",
					"output":177
				},
				{
					"input":10,
					"interpolation":"LINEAR",
					"output":178
				},
				{
					"input":7,
					"interpolation":"LINEAR",
					"output":179
				},
				{
					"input":10,
					"interpolation":"STEP",
					"output":180
				},
				{
					"input":10,
					"interpolation":"LINEAR",
					"output":181
				},
				{
					"input":7,
					"interpolation":"LINEAR",
					"output":182
				},
				{
					"input":10,
					"interpolation":"LINEAR",
					"output":183
				},
				{
					"input":10,
					"interpolation":"LINEAR",
					"output":184
				},
				{
					"input":7,
					"interpolation":"LINEAR",
					"output":185
				},
				{
					"input":10,
					"interpolation":"LINEAR",
					"output":186
				},
				{
					"input":10,
					"interpolation":"LINEAR",
					"output":187
				},
				{
					"input":10,
					"interpolation":"LINEAR",
					"output":188
				},
				{
					"input":10,
					"interpolation":"LINEAR",
					"output":189
				},
				{
					"input":10,
					"interpolation":"LINEAR",
					"output":190
				},
				{
					"input":7,
					"interpolation":"LINEAR",
					"output":191
				},
				{
					"input":10,
					"interpolation":"LINEAR",
					"output":192
				},
				{
					"input":10,
					"interpolation":"LINEAR",
					"output":193
				},
				{
					"input":7,
					"interpolation":"LINEAR",
					"output":194
				},
				{
					"input":10,
					"interpolation":"STEP",
					"output":195
				},
				{
					"input":10,
					"interpolation":"LINEAR",
					"output":196
				},
				{
					"input":7,
					"interpolation":"LINEAR",
					"output":197
				},
				{
					"input":10,
					"interpolation":"LINEAR",
					"output":198
				},
				{
					"input":10,
					"interpolation":"LINEAR",
					"output":199
				},
				{
					"input":7,
					"interpolation":"LINEAR",
					"output":200
				},
				{
					"input":10,
					"interpolation":"LINEAR",
					"output":201
				},
				{
					"input":10,
					"interpolation":"LINEAR",
					"output":202
				},
				{
					"input":10,
					"interpolation":"LINEAR",
					"output":203
				},
				{
					"input":10,
					"interpolation":"LINEAR",
					"output":204
				}
			]
		}
	],
	"materials":[
		{
			"doubleSided":true,
			"name":"\u30de\u30c6\u30ea\u30a2\u30eb.001",
			"pbrMetallicRoughness":{
				"baseColorTexture":{
					"index":0
				},
				"metallicFactor":0,
				"roughnessFactor":0.5
			}
		}
	],
	"meshes":[
		{
			"name":"materialmesh.001",
			"primitives":[
				{
					"attributes":{
						"POSITION":0,
						"NORMAL":1,
						"TEXCOORD_0":2,
						"JOINTS_0":3,
						"WEIGHTS_0":4
					},
					"indices":5,
					"material":0
				}
			]
		}
	],
	"textures":[
		{
			"sampler":0,
			"source":0
		}
	],
	"images":[
		{
			"mimeType":"image/jpeg",
			"name":"texture_pbr_20250901",
			"uri":"texture_pbr_20250901_2k.jpg"
		}
	],
	"skins":[
		{
			"inverseBindMatrices":6,
			"joints":[
				32,
				21,
				20,
				19,
				2,
				1,
				0,
				10,
				9,
				8,
				7,
				6,
				5,
				4,
				3,
				18,
				17,
				16,
				15,
				14,
				13,
				12,
				11,
				26,
				25,
				24,
				23,
				22,
				31,
				30,
				29,
				28,
				27
			],
			"name":"Armature"
		}
	],
	"accessors":[
		{
			"bufferView":0,
			"componentType":5126,
			"count":13747,
			"max":[
				2.3986048698425293,
				5.516465663909912,
				1.3656564950942993
			],
			"min":[
				-2.4104673862457275,
				0.00023954619246069342,
				-1.1224271059036255
			],
			"type":"VEC3"
		},
		{
			"bufferView":1,
			"componentType":5126,
			"count":13747,
			"type":"VEC3"
		},
		{
			"bufferView":2,
			"componentType":5126,
			"count":13747,
			"type":"VEC2"
		},
		{
			"bufferView":3,
			"componentType":5121,
			"count":13747,
			"type":"VEC4"
		},
		{
			"bufferView":4,
			"componentType":5126,
			"count":13747,
			"type":"VEC4"
		},
		{
			"bufferView":5,
			"componentType":5123,
			"count":37995,
			"type":"SCALAR"
		},
		{
			"bufferView":6,
			"componentType":5126,
			"count":33,
			"type":"MAT4"
		},
		{
			"bufferView":7,
			"componentType":5126,
			"count":44,
			"max":[
				1.4666666666666666
			],
			"min":[
				0.03333333333333333
			],
			"type":"SCALAR"
		},
		{
			"bufferView":8,
			"componentType":5126,
			"count":44,
			"type":"VEC3"
		},
		{
			"bufferView":9,
			"componentType":5126,
			"count":44,
			"type":"VEC4"
		},
		{
			"bufferView":10,
			"componentType":5126,
			"count":2,
			"max":[
				1.4666666666666666
			],
			"min":[
				0.03333333333333333
			],
			"type":"SCALAR"
		},
		{
			"bufferView":11,
			"componentType":5126,
			"count":2,
			"type":"VEC3"
		},
		{
			"bufferView":12,
			"componentType":5126,
			"count":2,
			"type":"VEC3"
		},
		{
			"bufferView":13,
			"componentType":5126,
			"count":44,
			"type":"VEC4"
		},
		{
			"bufferView":14,
			"componentType":5126,
			"count":2,
			"type":"VEC3"
		},
		{
			"bufferView":15,
			"componentType":5126,
			"count":2,
			"type":"VEC3"
		},
		{
			"bufferView":16,
			"componentType":5126,
			"count":44,
			"type":"VEC4"
		},
		{
			"bufferView":17,
			"componentType":5126,
			"count":2,
			"type":"VEC3"
		},
		{
			"bufferView":18,
			"componentType":5126,
			"count":2,
			"type":"VEC3"
		},
		{
			"bufferView":19,
			"componentType":5126,
			"count":44,
			"type":"VEC4"
		},
		{
			"bufferView":20,
			"componentType":5126,
			"count":2,
			"type":"VEC3"
		},
		{
			"bufferView":21,
			"componentType":5126,
			"count":2,
			"type":"VEC3"
		},
		{
			"bufferView":22,
			"componentType":5126,
			"count":44,
			"type":"VEC4"
		},
		{
			"bufferView":23,
			"componentType":5126,
			"count":2,
			"type":"VEC3"
		},
		{
			"bufferView":24,
			"componentType":5126,
			"count":2,
			"type":"VEC3"
		},
		{
			"bufferView":25,
			"componentType":5126,
			"count":44,
			"type":"VEC4"
		},
		{
			"bufferView":26,
			"componentType":5126,
			"count":2,
			"type":"VEC3"
		},
		{
			"bufferView":27,
			"componentType":5126,
			"count":2,
			"type":"VEC3"
		},
		{
			"bufferView":28,
			"componentType":5126,
			"count":2,
			"type":"VEC4"
		},
		{
			"bufferView":29,
			"componentType":5126,
			"count":2,
			"type":"VEC3"
		},
		{
			"bufferView":30,
			"componentType":5126,
			"count":2,
			"type":"VEC3"
		},
		{
			"bufferView":31,
			"componentType":5126,
			"count":44,
			"type":"VEC4"
		},
		{
			"bufferView":32,
			"componentType":5126,
			"count":2,
			"type":"VEC3"
		},
		{
			"bufferView":33,
			"componentType":5126,
			"count":2,
			"type":"VEC3"
		},
		{
			"bufferView":34,
			"componentType":5126,
			"count":44,
			"type":"VEC4"
		},
		{
			"bufferView":35,
			"componentType":5126,
			"count":2,
			"type":"VEC3"
		},
		{
			"bufferView":36,
			"componentType":5126,
			"count":2,
			"type":"VEC3"
		},
		{
			"bufferView":37,
			"componentType":5126,
			"count":44,
			"type":"VEC4"
		},
		{
			"bufferView":38,
			"componentType":5126,
			"count":2,
			"type":"VEC3"
		},
		{
			"bufferView":39,
			"componentType":5126,
			"count":2,
			"type":"VEC3"
		},
		{
			"bufferView":40,
			"componentType":5126,
			"count":44,
			"type":"VEC4"
		},
		{
			"bufferView":41,
			"componentType":5126,
			"count":2,
			"type":"VEC3"
		},
		{
			"bufferView":42,
			"componentType":5126,
			"count":2,
			"type":"VEC3"
		},
		{
			"bufferView":43,
			"componentType":5126,
			"count":44,
			"type":"VEC4"
		},
		{
			"bufferView":44,
			"componentType":5126,
			"count":2,
			"type":"VEC3"
		},
		{
			"bufferView":45,
			"componentType":5126,
			"count":2,
			"type":"VEC3"
		},
		{
			"bufferView":46,
			"componentType":5126,
			"count":44,
			"type":"VEC4"
		},
		{
			"bufferView":47,
			"componentType":5126,
			"count":2,
			"type":"VEC3"
		},
		{
			"bufferView":48,
			"componentType":5126,
			"count":2,
			"type":"VEC3"
		},
		{
			"bufferView":49,
			"componentType":5126,
			"count":44,
			"type":"VEC4"
		},
		{
			"bufferView":50,
			"componentType":5126,
			"count":2,
			"type":"VEC3"
		},
		{
			"bufferView":51,
			"componentType":5126,
			"count":2,
			"type":"VEC3"
		},
		{
			"bufferView":52,
			"componentType":5126,
			"count":2,
			"type":"VEC4"
		},
		{
			"bufferView":53,
			"componentType":5126,
			"count":2,
			"type":"VEC3"
		},
		{
			"bufferView":54,
			"componentType":5126,
			"count":2,
			"type":"VEC3"
		},
		{
			"bufferView":55,
			"componentType":5126,
			"count":44,
			"type":"VEC4"
		},
		{
			"bufferView":56,
			"componentType":5126,
			"count":2,
			"type":"VEC3"
		},
		{
			"bufferView":57,
			"componentType":5126,
			"count":2,
			"type":"VEC3"
		},
		{
			"bufferView":58,
			"componentType":5126,
			"count":44,
			"type":"VEC4"
		},
		{
			"bufferView":59,
			"componentType":5126,
			"count":2,
			"type":"VEC3"
		},
		{
			"bufferView":60,
			"componentType":5126,
			"count":2,
			"type":"VEC3"
		},
		{
			"bufferView":61,
			"componentType":5126,
			"count":44,
			"type":"VEC4"
		},
		{
			"bufferView":62,
			"componentType":5126,
			"count":2,
			"type":"VEC3"
		},
		{
			"bufferView":63,
			"componentType":5126,
			"count":2,
			"type":"VEC3"
		},
		{
			"bufferView":64,
			"componentType":5126,
			"count":44,
			"type":"VEC4"
		},
		{
			"bufferView":65,
			"componentType":5126,
			"count":2,
			"type":"VEC3"
		},
		{
			"bufferView":66,
			"componentType":5126,
			"count":2,
			"type":"VEC3"
		},
		{
			"bufferView":67,
			"componentType":5126,
			"count":44,
			"type":"VEC4"
		},
		{
			"bufferView":68,
			"componentType":5126,
			"count":2,
			"type":"VEC3"
		},
		{
			"bufferView":69,
			"componentType":5126,
			"count":2,
			"type":"VEC3"
		},
		{
			"bufferView":70,
			"componentType":5126,
			"count":2,
			"type":"VEC4"
		},
		{
			"bufferView":71,
			"componentType":5126,
			"count":2,
			"type":"VEC3"
		},
		{
			"bufferView":72,
			"componentType":5126,
			"count":2,
			"type":"VEC3"
		},
		{
			"bufferView":73,
			"componentType":5126,
			"count":2,
			"type":"VEC4"
		},
		{
			"bufferView":74,
			"componentType":5126,
			"count":2,
			"type":"VEC3"
		},
		{
			"bufferView":75,
			"componentType":5126,
			"count":2,
			"type":"VEC3"
		},
		{
			"bufferView":76,
			"componentType":5126,
			"count":2,
			"type":"VEC4"
		},
		{
			"bufferView":77,
			"componentType":5126,
			"count":2,
			"type":"VEC3"
		},
		{
			"bufferView":78,
			"componentType":5126,
			"count":2,
			"type":"VEC3"
		},
		{
			"bufferView":79,
			"componentType":5126,
			"count":44,
			"type":"VEC4"
		},
		{
			"bufferView":80,
			"componentType":5126,
			"count":2,
			"type":"VEC3"
		},
		{
			"bufferView":81,
			"componentType":5126,
			"count":2,
			"type":"VEC3"
		},
		{
			"bufferView":82,
			"componentType":5126,
			"count":44,
			"type":"VEC4"
		},
		{
			"bufferView":83,
			"componentType":5126,
			"count":2,
			"type":"VEC3"
		},
		{
			"bufferView":84,
			"componentType":5126,
			"count":2,
			"type":"VEC3"
		},
		{
			"bufferView":85,
			"componentType":5126,
			"count":44,
			"type":"VEC4"
		},
		{
			"bufferView":86,
			"componentType":5126,
			"count":2,
			"type":"VEC3"
		},
		{
			"bufferView":87,
			"componentType":5126,
			"count":2,
			"type":"VEC3"
		},
		{
			"bufferView":88,
			"componentType":5126,
			"count":44,
			"type":"VEC4"
		},
		{
			"bufferView":89,
			"componentType":5126,
			"count":2,
			"type":"VEC3"
		},
		{
			"bufferView":90,
			"componentType":5126,
			"count":2,
			"type":"VEC3"
		},
		{
			"bufferView":91,
			"componentType":5126,
			"count":2,
			"type":"VEC4"
		},
		{
			"bufferView":92,
			"componentType":5126,
			"count":2,
			"type":"VEC3"
		},
		{
			"bufferView":93,
			"componentType":5126,
			"count":44,
			"type":"VEC4"
		},
		{
			"bufferView":94,
			"componentType":5126,
			"count":2,
			"type":"VEC3"
		},
		{
			"bufferView":95,
			"componentType":5126,
			"count":2,
			"type":"VEC3"
		},
		{
			"bufferView":96,
			"componentType":5126,
			"count":44,
			"type":"VEC4"
		},
		{
			"bufferView":97,
			"componentType":5126,
			"count":2,
			"type":"VEC3"
		},
		{
			"bufferView":98,
			"componentType":5126,
			"count":2,
			"type":"VEC3"
		},
		{
			"bufferView":99,
			"componentType":5126,
			"count":44,
			"type":"VEC4"
		},
		{
			"bufferView":100,
			"componentType":5126,
			"count":2,
			"type":"VEC3"
		},
		{
			"bufferView":101,
			"componentType":5126,
			"count":2,
			"type":"VEC3"
		},
		{
			"bufferView":102,
			"componentType":5126,
			"count":44,
			"type":"VEC4"
		},
		{
			"bufferView":103,
			"componentType":5126,
			"count":2,
			"type":"VEC3"
		},
		{
			"bufferView":104,
			"componentType":5126,
			"count":2,
			"type":"VEC3"
		},
		{
			"bufferView":105,
			"componentType":5126,
			"count":2,
			"type":"VEC4"
		},
		{
			"bufferView":106,
			"componentType":5126,
			"count":44,
			"type":"VEC3"
		},
		{
			"bufferView":107,
			"componentType":5126,
			"count":44,
			"type":"VEC4"
		},
		{
			"bufferView":108,
			"componentType":5126,
			"count":2,
			"type":"VEC3"
		},
		{
			"bufferView":109,
			"componentType":5126,
			"count":2,
			"type":"VEC3"
		},
		{
			"bufferView":110,
			"componentType":5126,
			"count":44,
			"type":"VEC4"
		},
		{
			"bufferView":111,
			"componentType":5126,
			"count":2,
			"type":"VEC3"
		},
		{
			"bufferView":112,
			"componentType":5126,
			"count":2,
			"type":"VEC3"
		},
		{
			"bufferView":113,
			"componentType":5126,
			"count":44,
			"type":"VEC4"
		},
		{
			"bufferView":114,
			"componentType":5126,
			"count":2,
			"type":"VEC3"
		},
		{
			"bufferView":115,
			"componentType":5126,
			"count":2,
			"type":"VEC3"
		},
		{
			"bufferView":116,
			"componentType":5126,
			"count":44,
			"type":"VEC4"
		},
		{
			"bufferView":117,
			"componentType":5126,
			"count":2,
			"type":"VEC3"
		},
		{
			"bufferView":118,
			"componentType":5126,
			"count":2,
			"type":"VEC3"
		},
		{
			"bufferView":119,
			"componentType":5126,
			"count":44,
			"type":"VEC4"
		},
		{
			"bufferView":120,
			"componentType":5126,
			"count":2,
			"type":"VEC3"
		},
		{
			"bufferView":121,
			"componentType":5126,
			"count":2,
			"type":"VEC3"
		},
		{
			"bufferView":122,
			"componentType":5126,
			"count":44,
			"type":"VEC4"
		},
		{
			"bufferView":123,
			"componentType":5126,
			"count":2,
			"type":"VEC3"
		},
		{
			"bufferView":124,
			"componentType":5126,
			"count":2,
			"type":"VEC3"
		},
		{
			"bufferView":125,
			"componentType":5126,
			"count":2,
			"type":"VEC4"
		},
		{
			"bufferView":126,
			"componentType":5126,
			"count":2,
			"type":"VEC3"
		},
		{
			"bufferView":127,
			"componentType":5126,
			"count":2,
			"type":"VEC3"
		},
		{
			"bufferView":128,
			"componentType":5126,
			"count":44,
			"type":"VEC4"
		},
		{
			"bufferView":129,
			"componentType":5126,
			"count":2,
			"type":"VEC3"
		},
		{
			"bufferView":130,
			"componentType":5126,
			"count":2,
			"type":"VEC3"
		},
		{
			"bufferView":131,
			"componentType":5126,
			"count":44,
			"type":"VEC4"
		},
		{
			"bufferView":132,
			"componentType":5126,
			"count":2,
			"type":"VEC3"
		},
		{
			"bufferView":133,
			"componentType":5126,
			"count":2,
			"type":"VEC3"
		},
		{
			"bufferView":134,
			"componentType":5126,
			"count":44,
			"type":"VEC4"
		},
		{
			"bufferView":135,
			"componentType":5126,
			"count":2,
			"type":"VEC3"
		},
		{
			"bufferView":136,
			"componentType":5126,
			"count":2,
			"type":"VEC3"
		},
		{
			"bufferView":137,
			"componentType":5126,
			"count":44,
			"type":"VEC4"
		},
		{
			"bufferView":138,
			"componentType":5126,
			"count":2,
			"type":"VEC3"
		},
		{
			"bufferView":139,
			"componentType":5126,
			"count":2,
			"type":"VEC3"
		},
		{
			"bufferView":140,
			"componentType":5126,
			"count":44,
			"type":"VEC4"
		},
		{
			"bufferView":141,
			"componentType":5126,
			"count":2,
			"type":"VEC3"
		},
		{
			"bufferView":142,
			"componentType":5126,
			"count":2,
			"type":"VEC3"
		},
		{
			"bufferView":143,
			"componentType":5126,
			"count":44,
			"type":"VEC4"
		},
		{
			"bufferView":144,
			"componentType":5126,
			"count":2,
			"type":"VEC3"
		},
		{
			"bufferView":145,
			"componentType":5126,
			"count":2,
			"type":"VEC3"
		},
		{
			"bufferView":146,
			"componentType":5126,
			"count":44,
			"type":"VEC4"
		},
		{
			"bufferView":147,
			"componentType":5126,
			"count":2,
			"type":"VEC3"
		},
		{
			"bufferView":148,
			"componentType":5126,
			"count":2,
			"type":"VEC3"
		},
		{
			"bufferView":149,
			"componentType":5126,
			"count":2,
			"type":"VEC4"
		},
		{
			"bufferView":150,
			"componentType":5126,
			"count":2,
			"type":"VEC3"
		},
		{
			"bufferView":151,
			"componentType":5126,
			"count":2,
			"type":"VEC3"
		},
		{
			"bufferView":152,
			"componentType":5126,
			"count":44,
			"type":"VEC4"
		},
		{
			"bufferView":153,
			"componentType":5126,
			"count":2,
			"type":"VEC3"
		},
		{
			"bufferView":154,
			"componentType":5126,
			"count":2,
			"type":"VEC3"
		},
		{
			"bufferView":155,
			"componentType":5126,
			"count":44,
			"type":"VEC4"
		},
		{
			"bufferView":156,
			"componentType":5126,
			"count":2,
			"type":"VEC3"
		},
		{
			"bufferView":157,
			"componentType":5126,
			"count":2,
			"type":"VEC3"
		},
		{
			"bufferView":158,
			"componentType":5126,
			"count":44,
			"type":"VEC4"
		},
		{
			"bufferView":159,
			"componentType":5126,
			"count":2,
			"type":"VEC3"
		},
		{
			"bufferView":160,
			"componentType":5126,
			"count":2,
			"type":"VEC3"
		},
		{
			"bufferView":161,
			"componentType":5126,
			"count":44,
			"type":"VEC4"
		},
		{
			"bufferView":162,
			"componentType":5126,
			"count":2,
			"type":"VEC3"
		},
		{
			"bufferView":163,
			"componentType":5126,
			"count":2,
			"type":"VEC3"
		},
		{
			"bufferView":164,
			"componentType":5126,
			"count":44,
			"type":"VEC4"
		},
		{
			"bufferView":165,
			"componentType":5126,
			"count":2,
			"type":"VEC3"
		},
		{
			"bufferView":166,
			"componentType":5126,
			"count":2,
			"type":"VEC3"
		},
		{
			"bufferView":167,
			"componentType":5126,
			"count":2,
			"type":"VEC4"
		},
		{
			"bufferView":168,
			"componentType":5126,
			"count":2,
			"type":"VEC3"
		},
		{
			"bufferView":169,
			"componentType":5126,
			"count":2,
			"type":"VEC3"
		},
		{
			"bufferView":170,
			"componentType":5126,
			"count":2,
			"type":"VEC4"
		},
		{
			"bufferView":171,
			"componentType":5126,
			"count":2,
			"type":"VEC3"
		},
		{
			"bufferView":172,
			"componentType":5126,
			"count":2,
			"type":"VEC3"
		},
		{
			"bufferView":173,
			"componentType":5126,
			"count":2,
			"type":"VEC4"
		},
		{
			"bufferView":174,
			"componentType":5126,
			"count":2,
			"type":"VEC3"
		},
		{
			"bufferView":175,
			"componentType":5126,
			"count":2,
			"type":"VEC3"
		},
		{
			"bufferView":176,
			"componentType":5126,
			"count":44,
			"type":"VEC4"
		},
		{
			"bufferView":177,
			"componentType":5126,
			"count":2,
			"type":"VEC3"
		},
		{
			"bufferView":178,
			"componentType":5126,
			"count":2,
			"type":"VEC3"
		},
		{
			"bufferView":179,
			"componentType":5126,
			"count":44,
			"type":"VEC4"
		},
		{
			"bufferView":180,
			"componentType":5126,
			"count":2,
			"type":"VEC3"
		},
		{
			"bufferView":181,
			"componentType":5126,
			"count":2,
			"type":"VEC3"
		},
		{
			"bufferView":182,
			"componentType":5126,
			"count":44,
			"type":"VEC4"
		},
		{
			"bufferView":183,
			"componentType":5126,
			"count":2,
			"type":"VEC3"
		},
		{
			"bufferView":184,
			"componentType":5126,
			"count":2,
			"type":"VEC3"
		},
		{
			"bufferView":185,
			"componentType":5126,
			"count":44,
			"type":"VEC4"
		},
		{
			"bufferView":186,
			"componentType":5126,
			"count":2,
			"type":"VEC3"
		},
		{
			"bufferView":187,
			"componentType":5126,
			"count":2,
			"type":"VEC3"
		},
		{
			"bufferView":188,
			"componentType":5126,
			"count":2,
			"type":"VEC4"
		},
		{
			"bufferView":189,
			"componentType":5126,
			"count":2,
			"type":"VEC3"
		},
		{
			"bufferView":190,
			"componentType":5126,
			"count":2,
			"type":"VEC3"
		},
		{
			"bufferView":191,
			"componentType":5126,
			"count":44,
			"type":"VEC4"
		},
		{
			"bufferView":192,
			"componentType":5126,
			"count":2,
			"type":"VEC3"
		},
		{
			"bufferView":193,
			"componentType":5126,
			"count":2,
			"type":"VEC3"
		},
		{
			"bufferView":194,
			"componentType":5126,
			"count":44,
			"type":"VEC4"
		},
		{
			"bufferView":195,
			"componentType":5126,
			"count":2,
			"type":"VEC3"
		},
		{
			"bufferView":196,
			"componentType":5126,
			"count":2,
			"type":"VEC3"
		},
		{
			"bufferView":197,
			"componentType":5126,
			"count":44,
			"type":"VEC4"
		},
		{
			"bufferView":198,
			"componentType":5126,
			"count":2,
			"type":"VEC3"
		},
		{
			"bufferView":199,
			"componentType":5126,
			"count":2,
			"type":"VEC3"
		},
		{
			"bufferView":200,
			"componentType":5126,
			"count":44,
			"type":"VEC4"
		},
		{
			"bufferView":201,
			"componentType":5126,
			"count":2,
			"type":"VEC3"
		},
		{
			"bufferView":202,
			"componentType":5126,
			"count":2,
			"type":"VEC3"
		},
		{
			"bufferView":203,
			"componentType":5126,
			"count":2,
			"type":"VEC4"
		},
		{
			"bufferView":204,
			"componentType":5126,
			"count":2,
			"type":"VEC3"
		}
	],
	"bufferViews":[
		{
			"buffer":0,
			"byteLength":164964,
			"byteOffset":0,
			"target":34962
		},
		{
			"buffer":0,
			"byteLength":164964,
			"byteOffset":164964,
			"target":34962
		},
		{
			"buffer":0,
			"byteLength":109976,
			"byteOffset":329928,
			"target":34962
		},
		{
			"buffer":0,
			"byteLength":54988,
			"byteOffset":439904,
			"target":34962
		},
		{
			"buffer":0,
			"byteLength":219952,
			"byteOffset":494892,
			"target":34962
		},
		{
			"buffer":0,
			"byteLength":75990,
			"byteOffset":714844,
			"target":34963
		},
		{
			"buffer":0,
			"byteLength":2112,
			"byteOffset":790836
		},
		{
			"buffer":0,
			"byteLength":176,
			"byteOffset":792948
		},
		{
			"buffer":0,
			"byteLength":528,
			"byteOffset":793124
		},
		{
			"buffer":0,
			"byteLength":704,
			"byteOffset":793652
		},
		{
			"buffer":0,
			"byteLength":8,
			"byteOffset":794356
		},
		{
			"buffer":0,
			"byteLength":24,
			"byteOffset":794364
		},
		{
			"buffer":0,
			"byteLength":24,
			"byteOffset":794388
		},
		{
			"buffer":0,
			"byteLength":704,
			"byteOffset":794412
		},
		{
			"buffer":0,
			"byteLength":24,
			"byteOffset":795116
		},
		{
			"buffer":0,
			"byteLength":24,
			"byteOffset":795140
		},
		{
			"buffer":0,
			"byteLength":704,
			"byteOffset":795164
		},
		{
			"buffer":0,
			"byteLength":24,
			"byteOffset":795868
		},
		{
			"buffer":0,
			"byteLength":24,
			"byteOffset":795892
		},
		{
			"buffer":0,
			"byteLength":704,
			"byteOffset":795916
		},
		{
			"buffer":0,
			"byteLength":24,
			"byteOffset":796620
		},
		{
			"buffer":0,
			"byteLength":24,
			"byteOffset":796644
		},
		{
			"buffer":0,
			"byteLength":704,
			"byteOffset":796668
		},
		{
			"buffer":0,
			"byteLength":24,
			"byteOffset":797372
		},
		{
			"buffer":0,
			"byteLength":24,
			"byteOffset":797396
		},
		{
			"buffer":0,
			"byteLength":704,
			"byteOffset":797420
		},
		{
			"buffer":0,
			"byteLength":24,
			"byteOffset":798124
		},
		{
			"buffer":0,
			"byteLength":24,
			"byteOffset":798148
		},
		{
			"buffer":0,
			"byteLength":32,
			"byteOffset":798172
		},
		{
			"buffer":0,
			"byteLength":24,
			"byteOffset":798204
		},
		{
			"buffer":0,
			"byteLength":24,
			"byteOffset":798228
		},
		{
			"buffer":0,
			"byteLength":704,
			"byteOffset":798252
		},
		{
			"buffer":0,
			"byteLength":24,
			"byteOffset":798956
		},
		{
			"buffer":0,
			"byteLength":24,
			"byteOffset":798980
		},
		{
			"buffer":0,
			"byteLength":704,
			"byteOffset":799004
		},
		{
			"buffer":0,
			"byteLength":24,
			"byteOffset":799708
		},
		{
			"buffer":0,
			"byteLength":24,
			"byteOffset":799732
		},
		{
			"buffer":0,
			"byteLength":704,
			"byteOffset":799756
		},
		{
			"buffer":0,
			"byteLength":24,
			"byteOffset":800460
		},
		{
			"buffer":0,
			"byteLength":24,
			"byteOffset":800484
		},
		{
			"buffer":0,
			"byteLength":704,
			"byteOffset":800508
		},
		{
			"buffer":0,
			"byteLength":24,
			"byteOffset":801212
		},
		{
			"buffer":0,
			"byteLength":24,
			"byteOffset":801236
		},
		{
			"buffer":0,
			"byteLength":704,
			"byteOffset":801260
		},
		{
			"buffer":0,
			"byteLength":24,
			"byteOffset":801964
		},
		{
			"buffer":0,
			"byteLength":24,
			"byteOffset":801988
		},
		{
			"buffer":0,
			"byteLength":704,
			"byteOffset":802012
		},
		{
			"buffer":0,
			"byteLength":24,
			"byteOffset":802716
		},
		{
			"buffer":0,
			"byteLength":24,
			"byteOffset":802740
		},
		{
			"buffer":0,
			"byteLength":704,
			"byteOffset":802764
		},
		{
			"buffer":0,
			"byteLength":24,
			"byteOffset":803468
		},
		{
			"buffer":0,
			"byteLength":24,
			"byteOffset":803492
		},
		{
			"buffer":0,
			"byteLength":32,
			"byteOffset":803516
		},
		{
			"buffer":0,
			"byteLength":24,
			"byteOffset":803548
		},
		{
			"buffer":0,
			"byteLength":24,
			"byteOffset":803572
		},
		{
			"buffer":0,
			"byteLength":704,
			"byteOffset":803596
		},
		{
			"buffer":0,
			"byteLength":24,
			"byteOffset":804300
		},
		{
			"buffer":0,
			"byteLength":24,
			"byteOffset":804324
		},
		{
			"buffer":0,
			"byteLength":704,
			"byteOffset":804348
		},
		{
			"buffer":0,
			"byteLength":24,
			"byteOffset":805052
		},
		{
			"buffer":0,
			"byteLength":24,
			"byteOffset":805076
		},
		{
			"buffer":0,
			"byteLength":704,
			"byteOffset":805100
		},
		{
			"buffer":0,
			"byteLength":24,
			"byteOffset":805804
		},
		{
			"buffer":0,
			"byteLength":24,
			"byteOffset":805828
		},
		{
			"buffer":0,
			"byteLength":704,
			"byteOffset":805852
		},
		{
			"buffer":0,
			"byteLength":24,
			"byteOffset":806556
		},
		{
			"buffer":0,
			"byteLength":24,
			"byteOffset":806580
		},
		{
			"buffer":0,
			"byteLength":704,
			"byteOffset":806604
		},
		{
			"buffer":0,
			"byteLength":24,
			"byteOffset":807308
		},
		{
			"buffer":0,
			"byteLength":24,
			"byteOffset":807332
		},
		{
			"buffer":0,
			"byteLength":32,
			"byteOffset":807356
		},
		{
			"buffer":0,
			"byteLength":24,
			"byteOffset":807388
		},
		{
			"buffer":0,
			"byteLength":24,
			"byteOffset":807412
		},
		{
			"buffer":0,
			"byteLength":32,
			"byteOffset":807436
		},
		{
			"buffer":0,
			"byteLength":24,
			"byteOffset":807468
		},
		{
			"buffer":0,
			"byteLength":24,
			"byteOffset":807492
		},
		{
			"buffer":0,
			"byteLength":32,
			"byteOffset":807516
		},
		{
			"buffer":0,
			"byteLength":24,
			"byteOffset":807548
		},
		{
			"buffer":0,
			"byteLength":24,
			"byteOffset":807572
		},
		{
			"buffer":0,
			"byteLength":704,
			"byteOffset":807596
		},
		{
			"buffer":0,
			"byteLength":24,
			"byteOffset":808300
		},
		{
			"buffer":0,
			"byteLength":24,
			"byteOffset":808324
		},
		{
			"buffer":0,
			"byteLength":704,
			"byteOffset":808348
		},
		{
			"buffer":0,
			"byteLength":24,
			"byteOffset":809052
		},
		{
			"buffer":0,
			"byteLength":24,
			"byteOffset":809076
		},
		{
			"buffer":0,
			"byteLength":704,
			"byteOffset":809100
		},
		{
			"buffer":0,
			"byteLength":24,
			"byteOffset":809804
		},
		{
			"buffer":0,
			"byteLength":24,
			"byteOffset":809828
		},
		{
			"buffer":0,
			"byteLength":704,
			"byteOffset":809852
		},
		{
			"buffer":0,
			"byteLength":24,
			"byteOffset":810556
		},
		{
			"buffer":0,
			"byteLength":24,
			"byteOffset":810580
		},
		{
			"buffer":0,
			"byteLength":32,
			"byteOffset":810604
		},
		{
			"buffer":0,
			"byteLength":24,
			"byteOffset":810636
		},
		{
			"buffer":0,
			"byteLength":704,
			"byteOffset":810660
		},
		{
			"buffer":0,
			"byteLength":24,
			"byteOffset":811364
		},
		{
			"buffer":0,
			"byteLength":24,
			"byteOffset":811388
		},
		{
			"buffer":0,
			"byteLength":704,
			"byteOffset":811412
		},
		{
			"buffer":0,
			"byteLength":24,
			"byteOffset":812116
		},
		{
			"buffer":0,
			"byteLength":24,
			"byteOffset":812140
		},
		{
			"buffer":0,
			"byteLength":704,
			"byteOffset":812164
		},
		{
			"buffer":0,
			"byteLength":24,
			"byteOffset":812868
		},
		{
			"buffer":0,
			"byteLength":24,
			"byteOffset":812892
		},
		{
			"buffer":0,
			"byteLength":704,
			"byteOffset":812916
		},
		{
			"buffer":0,
			"byteLength":24,
			"byteOffset":813620
		},
		{
			"buffer":0,
			"byteLength":24,
			"byteOffset":813644
		},
		{
			"buffer":0,
			"byteLength":32,
			"byteOffset":813668
		},
		{
			"buffer":0,
			"byteLength":528,
			"byteOffset":813700
		},
		{
			"buffer":0,
			"byteLength":704,
			"byteOffset":814228
		},
		{
			"buffer":0,
			"byteLength":24,
			"byteOffset":814932
		},
		{
			"buffer":0,
			"byteLength":24,
			"byteOffset":814956
		},
		{
			"buffer":0,
			"byteLength":704,
			"byteOffset":814980
		},
		{
			"buffer":0,
			"byteLength":24,
			"byteOffset":815684
		},
		{
			"buffer":0,
			"byteLength":24,
			"byteOffset":815708
		},
		{
			"buffer":0,
			"byteLength":704,
			"byteOffset":815732
		},
		{
			"buffer":0,
			"byteLength":24,
			"byteOffset":816436
		},
		{
			"buffer":0,
			"byteLength":24,
			"byteOffset":816460
		},
		{
			"buffer":0,
			"byteLength":704,
			"byteOffset":816484
		},
		{
			"buffer":0,
			"byteLength":24,
			"byteOffset":817188
		},
		{
			"buffer":0,
			"byteLength":24,
			"byteOffset":817212
		},
		{
			"buffer":0,
			"byteLength":704,
			"byteOffset":817236
		},
		{
			"buffer":0,
			"byteLength":24,
			"byteOffset":817940
		},
		{
			"buffer":0,
			"byteLength":24,
			"byteOffset":817964
		},
		{
			"buffer":0,
			"byteLength":704,
			"byteOffset":817988
		},
		{
			"buffer":0,
			"byteLength":24,
			"byteOffset":818692
		},
		{
			"buffer":0,
			"byteLength":24,
			"byteOffset":818716
		},
		{
			"buffer":0,
			"byteLength":32,
			"byteOffset":818740
		},
		{
			"buffer":0,
			"byteLength":24,
			"byteOffset":818772
		},
		{
			"buffer":0,
			"byteLength":24,
			"byteOffset":818796
		},
		{
			"buffer":0,
			"byteLength":704,
			"byteOffset":818820
		},
		{
			"buffer":0,
			"byteLength":24,
			"byteOffset":819524
		},
		{
			"buffer":0,
			"byteLength":24,
			"byteOffset":819548
		},
		{
			"buffer":0,
			"byteLength":704,
			"byteOffset":819572
		},
		{
			"buffer":0,
			"byteLength":24,
			"byteOffset":820276
		},
		{
			"buffer":0,
			"byteLength":24,
			"byteOffset":820300
		},
		{
			"buffer":0,
			"byteLength":704,
			"byteOffset":820324
		},
		{
			"buffer":0,
			"byteLength":24,
			"byteOffset":821028
		},
		{
			"buffer":0,
			"byteLength":24,
			"byteOffset":821052
		},
		{
			"buffer":0,
			"byteLength":704,
			"byteOffset":821076
		},
		{
			"buffer":0,
			"byteLength":24,
			"byteOffset":821780
		},
		{
			"buffer":0,
			"byteLength":24,
			"byteOffset":821804
		},
		{
			"buffer":0,
			"byteLength":704,
			"byteOffset":821828
		},
		{
			"buffer":0,
			"byteLength":24,
			"byteOffset":822532
		},
		{
			"buffer":0,
			"byteLength":24,
			"byteOffset":822556
		},
		{
			"buffer":0,
			"byteLength":704,
			"byteOffset":822580
		},
		{
			"buffer":0,
			"byteLength":24,
			"byteOffset":823284
		},
		{
			"buffer":0,
			"byteLength":24,
			"byteOffset":823308
		},
		{
			"buffer":0,
			"byteLength":704,
			"byteOffset":823332
		},
		{
			"buffer":0,
			"byteLength":24,
			"byteOffset":824036
		},
		{
			"buffer":0,
			"byteLength":24,
			"byteOffset":824060
		},
		{
			"buffer":0,
			"byteLength":32,
			"byteOffset":824084
		},
		{
			"buffer":0,
			"byteLength":24,
			"byteOffset":824116
		},
		{
			"buffer":0,
			"byteLength":24,
			"byteOffset":824140
		},
		{
			"buffer":0,
			"byteLength":704,
			"byteOffset":824164
		},
		{
			"buffer":0,
			"byteLength":24,
			"byteOffset":824868
		},
		{
			"buffer":0,
			"byteLength":24,
			"byteOffset":824892
		},
		{
			"buffer":0,
			"byteLength":704,
			"byteOffset":824916
		},
		{
			"buffer":0,
			"byteLength":24,
			"byteOffset":825620
		},
		{
			"buffer":0,
			"byteLength":24,
			"byteOffset":825644
		},
		{
			"buffer":0,
			"byteLength":704,
			"byteOffset":825668
		},
		{
			"buffer":0,
			"byteLength":24,
			"byteOffset":826372
		},
		{
			"buffer":0,
			"byteLength":24,
			"byteOffset":826396
		},
		{
			"buffer":0,
			"byteLength":704,
			"byteOffset":826420
		},
		{
			"buffer":0,
			"byteLength":24,
			"byteOffset":827124
		},
		{
			"buffer":0,
			"byteLength":24,
			"byteOffset":827148
		},
		{
			"buffer":0,
			"byteLength":704,
			"byteOffset":827172
		},
		{
			"buffer":0,
			"byteLength":24,
			"byteOffset":827876
		},
		{
			"buffer":0,
			"byteLength":24,
			"byteOffset":827900
		},
		{
			"buffer":0,
			"byteLength":32,
			"byteOffset":827924
		},
		{
			"buffer":0,
			"byteLength":24,
			"byteOffset":827956
		},
		{
			"buffer":0,
			"byteLength":24,
			"byteOffset":827980
		},
		{
			"buffer":0,
			"byteLength":32,
			"byteOffset":828004
		},
		{
			"buffer":0,
			"byteLength":24,
			"byteOffset":828036
		},
		{
			"buffer":0,
			"byteLength":24,
			"byteOffset":828060
		},
		{
			"buffer":0,
			"byteLength":32,
			"byteOffset":828084
		},
		{
			"buffer":0,
			"byteLength":24,
			"byteOffset":828116
		},
		{
			"buffer":0,
			"byteLength":24,
			"byteOffset":828140
		},
		{
			"buffer":0,
			"byteLength":704,
			"byteOffset":828164
		},
		{
			"buffer":0,
			"byteLength":24,
			"byteOffset":828868
		},
		{
			"buffer":0,
			"byteLength":24,
			"byteOffset":828892
		},
		{
			"buffer":0,
			"byteLength":704,
			"byteOffset":828916
		},
		{
			"buffer":0,
			"byteLength":24,
			"byteOffset":829620
		},
		{
			"buffer":0,
			"byteLength":24,
			"byteOffset":829644
		},
		{
			"buffer":0,
			"byteLength":704,
			"byteOffset":829668
		},
		{
			"buffer":0,
			"byteLength":24,
			"byteOffset":830372
		},
		{
			"buffer":0,
			"byteLength":24,
			"byteOffset":830396
		},
		{
			"buffer":0,
			"byteLength":704,
			"byteOffset":830420
		},
		{
			"buffer":0,
			"byteLength":24,
			"byteOffset":831124
		},
		{
			"buffer":0,
			"byteLength":24,
			"byteOffset":831148
		},
		{
			"buffer":0,
			"byteLength":32,
			"byteOffset":831172
		},
		{
			"buffer":0,
			"byteLength":24,
			"byteOffset":831204
		},
		{
			"buffer":0,
			"byteLength":24,
			"byteOffset":831228
		},
		{
			"buffer":0,
			"byteLength":704,
			"byteOffset":831252
		},
		{
			"buffer":0,
			"byteLength":24,
			"byteOffset":831956
		},
		{
			"buffer":0,
			"byteLength":24,
			"byteOffset":831980
		},
		{
			"buffer":0,
			"byteLength":704,
			"byteOffset":832004
		},
		{
			"buffer":0,
			"byteLength":24,
			"byteOffset":832708
		},
		{
			"buffer":0,
			"byteLength":24,
			"byteOffset":832732
		},
		{
			"buffer":0,
			"byteLength":704,
			"byteOffset":832756
		},
		{
			"buffer":0,
			"byteLength":24,
			"byteOffset":833460
		},
		{
			"buffer":0,
			"byteLength":24,
			"byteOffset":833484
		},
		{
			"buffer":0,
			"byteLength":704,
			"byteOffset":833508
		},
		{
			"buffer":0,
			"byteLength":24,
			"byteOffset":834212
		},
		{
			"buffer":0,
			"byteLength":24,
			"byteOffset":834236
		},
		{
			"buffer":0,
			"byteLength":32,
			"byteOffset":834260
		},
		{
			"buffer":0,
			"byteLength":24,
			"byteOffset":834292
		}
	],
	"samplers":[
		{
			"magFilter":9729,
			"minFilter":9987
		}
	],
	"buffers":[
		{
			"byteLength":834316,
			"uri":"enemy2_walk.bin"
		}
	]
}
