{
	"asset":{
		"generator":"Khronos glTF Blender I/O v5.0.21",
		"version":"2.0"
	},
	"scene":0,
	"scenes":[
		{
			"name":"Scene",
			"nodes":[
				34
			]
		}
	],
	"nodes":[
		{
			"name":"mixamorig:HeadTop_End",
			"translation":[
				0,
				1.3589491844177246,
				0.09206334501504898
			]
		},
		{
			"children":[
				0
			],
			"name":"mixamorig:Head",
			"rotation":[
				-1.3675176546712464e-09,
				0,
				0,
				1
			],
			"translation":[
				0,
				0.5026035308837891,
				0.03404935449361801
			]
		},
		{
			"children":[
				1
			],
			"name":"mixamorig:Neck",
			"rotation":[
				0.00156990229152143,
				0,
				0,
				0.9999988079071045
			],
			"scale":[
				1,
				0.9999998807907104,
				0.9999999403953552
			],
			"translation":[
				2.3283064365386963e-10,
				0.5493757128715515,
				-1.30385160446167e-08
			]
		},
		{
			"name":"mixamorig:LeftHandIndex4",
			"rotation":[
				-2.448679879307747e-06,
				-2.7939675018018306e-09,
				4.61921445094049e-07,
				1
			],
			"scale":[
				1,
				1,
				1.0000001192092896
			],
			"translation":[
				-0.0020673349499702454,
				0.02146139368414879,
				-0.00516557227820158
			]
		},
		{
			"children":[
				3
			],
			"name":"mixamorig:LeftHandIndex3",
			"rotation":[
				7.473863661289215e-08,
				0,
				-6.477494025602937e-07,
				1
			],
			"translation":[
				0.02135484665632248,
				0.04015953093767166,
				0.005324912257492542
			]
		},
		{
			"children":[
				4
			],
			"name":"mixamorig:LeftHandIndex2",
			"rotation":[
				-7.310882210731506e-08,
				1.3969838619232178e-09,
				6.990885594859719e-07,
				1
			],
			"translation":[
				8.940696716308594e-08,
				0.04460038244724274,
				-6.752088665962219e-08
			]
		},
		{
			"children":[
				5
			],
			"name":"mixamorig:LeftHandIndex1",
			"rotation":[
				0.0900036096572876,
				-0.0005754062440246344,
				-0.006369915325194597,
				0.9959208965301514
			],
			"scale":[
				1,
				1,
				0.9999999403953552
			],
			"translation":[
				-5.960464477539063e-08,
				0.06614537537097931,
				1.4668330550193787e-07
			]
		},
		{
			"children":[
				6
			],
			"name":"mixamorig:LeftHand",
			"rotation":[
				-0.021146582439541817,
				-0.0029747961089015007,
				0.13927142322063446,
				0.9900239706039429
			],
			"scale":[
				0.9999999403953552,
				0.9999999403953552,
				0.9999998807907104
			],
			"translation":[
				-2.60770320892334e-08,
				0.8250709772109985,
				-6.472691893577576e-08
			]
		},
		{
			"children":[
				7
			],
			"name":"mixamorig:LeftForeArm",
			"rotation":[
				-0.09973245859146118,
				-0.011799651198089123,
				0.11689960956573486,
				0.988053023815155
			],
			"scale":[
				0.9999998807907104,
				1,
				0.9999999403953552
			],
			"translation":[
				1.1175870895385742e-08,
				0.4775168299674988,
				2.789311110973358e-07
			]
		},
		{
			"children":[
				8
			],
			"name":"mixamorig:LeftArm",
			"rotation":[
				-0.05715348944067955,
				0.008525023236870766,
				-0.14728297293186188,
				0.9874049425125122
			],
			"scale":[
				0.9999999403953552,
				0.9999998807907104,
				0.9999999403953552
			],
			"translation":[
				-9.313225746154785e-09,
				0.639431357383728,
				4.988396540284157e-08
			]
		},
		{
			"children":[
				9
			],
			"name":"mixamorig:LeftShoulder",
			"rotation":[
				0.5549970269203186,
				0.4441772997379303,
				-0.5166367888450623,
				0.47725406289100647
			],
			"scale":[
				1.0000001192092896,
				1.0000001192092896,
				1
			],
			"translation":[
				0.31597450375556946,
				0.49957984685897827,
				0.022627592086791992
			]
		},
		{
			"name":"mixamorig:RightHandIndex4",
			"rotation":[
				-1.3709068298339844e-06,
				3.725291186640334e-09,
				-3.1478703022003174e-07,
				1
			],
			"scale":[
				0.9999999403953552,
				1,
				1
			],
			"translation":[
				4.3958425521850586e-07,
				0.00038910284638404846,
				5.960464477539063e-08
			]
		},
		{
			"children":[
				11
			],
			"name":"mixamorig:RightHandIndex3",
			"rotation":[
				1.4193356037139893e-06,
				9.313226634333205e-09,
				3.371387720108032e-07,
				1
			],
			"scale":[
				1,
				1,
				0.9999999403953552
			],
			"translation":[
				1.6391277313232422e-07,
				0.0003888048231601715,
				-4.76837158203125e-07
			]
		},
		{
			"children":[
				12
			],
			"name":"mixamorig:RightHandIndex2",
			"rotation":[
				7.450580596923828e-09,
				1.4901159417490817e-08,
				5.587935003603661e-09,
				1
			],
			"scale":[
				1.0000001192092896,
				1,
				1
			],
			"translation":[
				1.4901161193847656e-08,
				0.00025957077741622925,
				5.21540641784668e-08
			]
		},
		{
			"children":[
				13
			],
			"name":"mixamorig:RightHandIndex1",
			"rotation":[
				0.8943749666213989,
				-0.10369933396577835,
				0.33713069558143616,
				0.2751050889492035
			],
			"scale":[
				1,
				0.9999999403953552,
				1
			],
			"translation":[
				1.816079020500183e-08,
				0.17217479646205902,
				-4.4587068259716034e-08
			]
		},
		{
			"children":[
				14
			],
			"name":"mixamorig:RightHand",
			"rotation":[
				0.022579902783036232,
				0.000988782849162817,
				0.04373675584793091,
				0.9987874031066895
			],
			"scale":[
				0.9999999403953552,
				0.9999999403953552,
				1.0000001192092896
			],
			"translation":[
				1.7462298274040222e-09,
				0.8249198794364929,
				-2.8638169169425964e-07
			]
		},
		{
			"children":[
				15
			],
			"name":"mixamorig:RightForeArm",
			"rotation":[
				-0.09706603735685349,
				0.005342495162039995,
				-0.05469696223735809,
				0.9937594532966614
			],
			"scale":[
				0.9999999403953552,
				1.0000001192092896,
				0.9999999403953552
			],
			"translation":[
				7.450580596923828e-09,
				0.46857842803001404,
				-7.078051567077637e-08
			]
		},
		{
			"children":[
				16
			],
			"name":"mixamorig:RightArm",
			"rotation":[
				-0.059823229908943176,
				-0.004089885391294956,
				0.06808458268642426,
				0.9958759546279907
			],
			"scale":[
				0.9999998807907104,
				0.9999999403953552,
				0.9999998807907104
			],
			"translation":[
				6.51925802230835e-09,
				0.6380186080932617,
				3.2013485906645656e-07
			]
		},
		{
			"children":[
				17
			],
			"name":"mixamorig:RightShoulder",
			"rotation":[
				0.5430284738540649,
				-0.45499861240386963,
				0.5292916893959045,
				0.4668474793434143
			],
			"scale":[
				0.9999999403953552,
				0.9999998807907104,
				1
			],
			"translation":[
				-0.3159744441509247,
				0.4996257424354553,
				0.008087001740932465
			]
		},
		{
			"children":[
				2,
				10,
				18
			],
			"name":"mixamorig:Spine2",
			"rotation":[
				7.101334631443024e-09,
				0,
				0,
				1
			],
			"translation":[
				2.3283064365386963e-10,
				0.48833397030830383,
				9.313225746154785e-10
			]
		},
		{
			"children":[
				19
			],
			"name":"mixamorig:Spine1",
			"rotation":[
				-2.3283064365386963e-09,
				0,
				0,
				1
			],
			"translation":[
				2.3283064365386963e-10,
				0.4272923469543457,
				5.122274160385132e-09
			]
		},
		{
			"children":[
				20
			],
			"name":"mixamorig:Spine",
			"rotation":[
				-0.0015699064824730158,
				0,
				0,
				0.9999988079071045
			],
			"scale":[
				1,
				0.9999999403953552,
				0.9999999403953552
			],
			"translation":[
				0,
				0.36624884605407715,
				-0.0011499680113047361
			]
		},
		{
			"name":"mixamorig:LeftToe_End",
			"rotation":[
				4.598405212163925e-09,
				8.800998330116272e-08,
				-2.1464078514554785e-08,
				1
			],
			"scale":[
				0.9999999403953552,
				0.9999999403953552,
				1
			],
			"translation":[
				-1.1420343071222305e-07,
				0.2905581295490265,
				-3.725290298461914e-09
			]
		},
		{
			"children":[
				22
			],
			"name":"mixamorig:LeftToeBase",
			"rotation":[
				0.355057954788208,
				-0.06361733376979828,
				0.02422655001282692,
				0.9323624968528748
			],
			"scale":[
				1,
				1,
				0.9999999403953552
			],
			"translation":[
				9.73232090473175e-08,
				0.6144603490829468,
				1.1175870895385742e-08
			]
		},
		{
			"children":[
				23
			],
			"name":"mixamorig:LeftFoot",
			"rotation":[
				0.4634910523891449,
				-0.12623609602451324,
				0.06690573692321777,
				0.8745079636573792
			],
			"scale":[
				1,
				1,
				0.9999999403953552
			],
			"translation":[
				-9.604264050722122e-09,
				0.3727569878101349,
				-3.026798367500305e-08
			]
		},
		{
			"children":[
				24
			],
			"name":"mixamorig:LeftLeg",
			"rotation":[
				-0.06984379142522812,
				-0.0032098947558552027,
				0.045791205018758774,
				0.9965012073516846
			],
			"translation":[
				4.650792106986046e-08,
				0.5540103316307068,
				-1.1737029126379639e-08
			]
		},
		{
			"children":[
				25
			],
			"name":"mixamorig:LeftUpLeg",
			"rotation":[
				0.00024545888300053775,
				-0.021830879151821136,
				0.999698281288147,
				0.011256420984864235
			],
			"scale":[
				1.000000238418579,
				0.9999995827674866,
				1.0000011920928955
			],
			"translation":[
				0.6764740347862244,
				-0.203192338347435,
				0.03202328085899353
			]
		},
		{
			"name":"mixamorig:RightToe_End",
			"rotation":[
				-5.73345459997654e-09,
				3.841705620288849e-08,
				-9.64246211765385e-08,
				1
			],
			"scale":[
				1.0000001192092896,
				1,
				1
			],
			"translation":[
				1.3812677934765816e-07,
				0.27839770913124084,
				-6.752088665962219e-09
			]
		},
		{
			"children":[
				27
			],
			"name":"mixamorig:RightToeBase",
			"rotation":[
				0.35955899953842163,
				0.07028619945049286,
				-0.027172164991497993,
				0.9300746321678162
			],
			"scale":[
				1,
				0.9999999403953552,
				0.9999998807907104
			],
			"translation":[
				-4.423782229423523e-08,
				0.6072695851325989,
				8.195638656616211e-08
			]
		},
		{
			"children":[
				28
			],
			"name":"mixamorig:RightFoot",
			"rotation":[
				0.4574355483055115,
				0.1289830058813095,
				-0.06725627928972244,
				0.8772643208503723
			],
			"scale":[
				0.9999999403953552,
				1.0000001192092896,
				0.9999998807907104
			],
			"translation":[
				4.71482053399086e-09,
				0.37265124917030334,
				-2.421438694000244e-08
			]
		},
		{
			"children":[
				29
			],
			"name":"mixamorig:RightLeg",
			"rotation":[
				-0.07579971849918365,
				0.003490469651296735,
				-0.04584748297929764,
				0.9960623383522034
			],
			"scale":[
				1,
				1,
				1.0000001192092896
			],
			"translation":[
				-3.929744707420468e-08,
				0.5537340044975281,
				-1.164740126569086e-08
			]
		},
		{
			"children":[
				30
			],
			"name":"mixamorig:RightUpLeg",
			"rotation":[
				0.00016976168262772262,
				0.01507166400551796,
				-0.9998229742050171,
				0.011263393796980381
			],
			"scale":[
				1.000000238418579,
				0.9999999403953552,
				1.0000003576278687
			],
			"translation":[
				-0.6764740347862244,
				-0.203192338347435,
				0.02935846336185932
			]
		},
		{
			"children":[
				21,
				26,
				31
			],
			"name":"mixamorig:Hips",
			"rotation":[
				-4.863542102384599e-08,
				0,
				0,
				1
			],
			"translation":[
				-0.0038624554872512817,
				1.6023039817810059,
				-0.11831019818782806
			]
		},
		{
			"mesh":0,
			"name":"material",
			"skin":0
		},
		{
			"children":[
				33,
				32
			],
			"name":"Armature"
		}
	],
	"animations":[
		{
			"channels":[
				{
					"sampler":0,
					"target":{
						"node":32,
						"path":"translation"
					}
				},
				{
					"sampler":1,
					"target":{
						"node":32,
						"path":"rotation"
					}
				},
				{
					"sampler":2,
					"target":{
						"node":32,
						"path":"scale"
					}
				},
				{
					"sampler":3,
					"target":{
						"node":21,
						"path":"translation"
					}
				},
				{
					"sampler":4,
					"target":{
						"node":21,
						"path":"rotation"
					}
				},
				{
					"sampler":5,
					"target":{
						"node":21,
						"path":"scale"
					}
				},
				{
					"sampler":6,
					"target":{
						"node":20,
						"path":"translation"
					}
				},
				{
					"sampler":7,
					"target":{
						"node":20,
						"path":"rotation"
					}
				},
				{
					"sampler":8,
					"target":{
						"node":20,
						"path":"scale"
					}
				},
				{
					"sampler":9,
					"target":{
						"node":19,
						"path":"translation"
					}
				},
				{
					"sampler":10,
					"target":{
						"node":19,
						"path":"rotation"
					}
				},
				{
					"sampler":11,
					"target":{
						"node":19,
						"path":"scale"
					}
				},
				{
					"sampler":12,
					"target":{
						"node":2,
						"path":"translation"
					}
				},
				{
					"sampler":13,
					"target":{
						"node":2,
						"path":"rotation"
					}
				},
				{
					"sampler":14,
					"target":{
						"node":2,
						"path":"scale"
					}
				},
				{
					"sampler":15,
					"target":{
						"node":1,
						"path":"translation"
					}
				},
				{
					"sampler":16,
					"target":{
						"node":1,
						"path":"rotation"
					}
				},
				{
					"sampler":17,
					"target":{
						"node":1,
						"path":"scale"
					}
				},
				{
					"sampler":18,
					"target":{
						"node":0,
						"path":"translation"
					}
				},
				{
					"sampler":19,
					"target":{
						"node":0,
						"path":"rotation"
					}
				},
				{
					"sampler":20,
					"target":{
						"node":0,
						"path":"scale"
					}
				},
				{
					"sampler":21,
					"target":{
						"node":10,
						"path":"translation"
					}
				},
				{
					"sampler":22,
					"target":{
						"node":10,
						"path":"rotation"
					}
				},
				{
					"sampler":23,
					"target":{
						"node":10,
						"path":"scale"
					}
				},
				{
					"sampler":24,
					"target":{
						"node":9,
						"path":"translation"
					}
				},
				{
					"sampler":25,
					"target":{
						"node":9,
						"path":"rotation"
					}
				},
				{
					"sampler":26,
					"target":{
						"node":9,
						"path":"scale"
					}
				},
				{
					"sampler":27,
					"target":{
						"node":8,
						"path":"translation"
					}
				},
				{
					"sampler":28,
					"target":{
						"node":8,
						"path":"rotation"
					}
				},
				{
					"sampler":29,
					"target":{
						"node":8,
						"path":"scale"
					}
				},
				{
					"sampler":30,
					"target":{
						"node":7,
						"path":"translation"
					}
				},
				{
					"sampler":31,
					"target":{
						"node":7,
						"path":"rotation"
					}
				},
				{
					"sampler":32,
					"target":{
						"node":7,
						"path":"scale"
					}
				},
				{
					"sampler":33,
					"target":{
						"node":6,
						"path":"translation"
					}
				},
				{
					"sampler":34,
					"target":{
						"node":6,
						"path":"rotation"
					}
				},
				{
					"sampler":35,
					"target":{
						"node":6,
						"path":"scale"
					}
				},
				{
					"sampler":36,
					"target":{
						"node":5,
						"path":"translation"
					}
				},
				{
					"sampler":37,
					"target":{
						"node":5,
						"path":"rotation"
					}
				},
				{
					"sampler":38,
					"target":{
						"node":5,
						"path":"scale"
					}
				},
				{
					"sampler":39,
					"target":{
						"node":4,
						"path":"translation"
					}
				},
				{
					"sampler":40,
					"target":{
						"node":4,
						"path":"rotation"
					}
				},
				{
					"sampler":41,
					"target":{
						"node":4,
						"path":"scale"
					}
				},
				{
					"sampler":42,
					"target":{
						"node":3,
						"path":"translation"
					}
				},
				{
					"sampler":43,
					"target":{
						"node":3,
						"path":"rotation"
					}
				},
				{
					"sampler":44,
					"target":{
						"node":3,
						"path":"scale"
					}
				},
				{
					"sampler":45,
					"target":{
						"node":18,
						"path":"translation"
					}
				},
				{
					"sampler":46,
					"target":{
						"node":18,
						"path":"rotation"
					}
				},
				{
					"sampler":47,
					"target":{
						"node":18,
						"path":"scale"
					}
				},
				{
					"sampler":48,
					"target":{
						"node":17,
						"path":"translation"
					}
				},
				{
					"sampler":49,
					"target":{
						"node":17,
						"path":"rotation"
					}
				},
				{
					"sampler":50,
					"target":{
						"node":17,
						"path":"scale"
					}
				},
				{
					"sampler":51,
					"target":{
						"node":16,
						"path":"translation"
					}
				},
				{
					"sampler":52,
					"target":{
						"node":16,
						"path":"rotation"
					}
				},
				{
					"sampler":53,
					"target":{
						"node":16,
						"path":"scale"
					}
				},
				{
					"sampler":54,
					"target":{
						"node":15,
						"path":"translation"
					}
				},
				{
					"sampler":55,
					"target":{
						"node":15,
						"path":"rotation"
					}
				},
				{
					"sampler":56,
					"target":{
						"node":15,
						"path":"scale"
					}
				},
				{
					"sampler":57,
					"target":{
						"node":14,
						"path":"translation"
					}
				},
				{
					"sampler":58,
					"target":{
						"node":14,
						"path":"rotation"
					}
				},
				{
					"sampler":59,
					"target":{
						"node":14,
						"path":"scale"
					}
				},
				{
					"sampler":60,
					"target":{
						"node":13,
						"path":"translation"
					}
				},
				{
					"sampler":61,
					"target":{
						"node":13,
						"path":"rotation"
					}
				},
				{
					"sampler":62,
					"target":{
						"node":13,
						"path":"scale"
					}
				},
				{
					"sampler":63,
					"target":{
						"node":12,
						"path":"translation"
					}
				},
				{
					"sampler":64,
					"target":{
						"node":12,
						"path":"rotation"
					}
				},
				{
					"sampler":65,
					"target":{
						"node":12,
						"path":"scale"
					}
				},
				{
					"sampler":66,
					"target":{
						"node":11,
						"path":"translation"
					}
				},
				{
					"sampler":67,
					"target":{
						"node":11,
						"path":"rotation"
					}
				},
				{
					"sampler":68,
					"target":{
						"node":11,
						"path":"scale"
					}
				},
				{
					"sampler":69,
					"target":{
						"node":26,
						"path":"translation"
					}
				},
				{
					"sampler":70,
					"target":{
						"node":26,
						"path":"rotation"
					}
				},
				{
					"sampler":71,
					"target":{
						"node":26,
						"path":"scale"
					}
				},
				{
					"sampler":72,
					"target":{
						"node":25,
						"path":"translation"
					}
				},
				{
					"sampler":73,
					"target":{
						"node":25,
						"path":"rotation"
					}
				},
				{
					"sampler":74,
					"target":{
						"node":25,
						"path":"scale"
					}
				},
				{
					"sampler":75,
					"target":{
						"node":24,
						"path":"translation"
					}
				},
				{
					"sampler":76,
					"target":{
						"node":24,
						"path":"rotation"
					}
				},
				{
					"sampler":77,
					"target":{
						"node":24,
						"path":"scale"
					}
				},
				{
					"sampler":78,
					"target":{
						"node":23,
						"path":"translation"
					}
				},
				{
					"sampler":79,
					"target":{
						"node":23,
						"path":"rotation"
					}
				},
				{
					"sampler":80,
					"target":{
						"node":23,
						"path":"scale"
					}
				},
				{
					"sampler":81,
					"target":{
						"node":22,
						"path":"translation"
					}
				},
				{
					"sampler":82,
					"target":{
						"node":22,
						"path":"rotation"
					}
				},
				{
					"sampler":83,
					"target":{
						"node":22,
						"path":"scale"
					}
				},
				{
					"sampler":84,
					"target":{
						"node":31,
						"path":"translation"
					}
				},
				{
					"sampler":85,
					"target":{
						"node":31,
						"path":"rotation"
					}
				},
				{
					"sampler":86,
					"target":{
						"node":31,
						"path":"scale"
					}
				},
				{
					"sampler":87,
					"target":{
						"node":30,
						"path":"translation"
					}
				},
				{
					"sampler":88,
					"target":{
						"node":30,
						"path":"rotation"
					}
				},
				{
					"sampler":89,
					"target":{
						"node":30,
						"path":"scale"
					}
				},
				{
					"sampler":90,
					"target":{
						"node":29,
						"path":"translation"
					}
				},
				{
					"sampler":91,
					"target":{
						"node":29,
						"path":"rotation"
					}
				},
				{
					"sampler":92,
					"target":{
						"node":29,
						"path":"scale"
					}
				},
				{
					"sampler":93,
					"target":{
						"node":28,
						"path":"translation"
					}
				},
				{
					"sampler":94,
					"target":{
						"node":28,
						"path":"rotation"
					}
				},
				{
					"sampler":95,
					"target":{
						"node":28,
						"path":"scale"
					}
				},
				{
					"sampler":96,
					"target":{
						"node":27,
						"path":"translation"
					}
				},
				{
					"sampler":97,
					"target":{
						"node":27,
						"path":"rotation"
					}
				},
				{
					"sampler":98,
					"target":{
						"node":27,
						"path":"scale"
					}
				}
			],
			"name":"mixamo.com",
			"samplers":[
				{
					"input":7,
					"interpolation":"LINEAR",
					"output":8
				},
				{
					"input":7,
					"interpolation":"LINEAR",
					"output":9
				},
				{
					"input":10,
					"interpolation":"STEP",
					"output":11
				},
				{
					"input":10,
					"interpolation":"LINEAR",
					"output":12
				},
				{
					"input":7,
					"interpolation":"LINEAR",
					"output":13
				},
				{
					"input":10,
					"interpolation":"LINEAR",
					"output":14
				},
				{
					"input":10,
					"interpolation":"LINEAR",
					"output":15
				},
				{
					"input":7,
					"interpolation":"LINEAR",
					"output":16
				},
				{
					"input":10,
					"interpolation":"STEP",
					"output":17
				},
				{
					"input":10,
					"interpolation":"LINEAR",
					"output":18
				},
				{
					"input":7,
					"interpolation":"LINEAR",
					"output":19
				},
				{
					"input":10,
					"interpolation":"LINEAR",
					"output":20
				},
				{
					"input":10,
					"interpolation":"LINEAR",
					"output":21
				},
				{
					"input":7,
					"interpolation":"LINEAR",
					"output":22
				},
				{
					"input":10,
					"interpolation":"STEP",
					"output":23
				},
				{
					"input":10,
					"interpolation":"LINEAR",
					"output":24
				},
				{
					"input":7,
					"interpolation":"LINEAR",
					"output":25
				},
				{
					"input":10,
					"interpolation":"STEP",
					"output":26
				},
				{
					"input":10,
					"interpolation":"STEP",
					"output":27
				},
				{
					"input":10,
					"interpolation":"STEP",
					"output":28
				},
				{
					"input":10,
					"interpolation":"STEP",
					"output":26
				},
				{
					"input":10,
					"interpolation":"LINEAR",
					"output":29
				},
				{
					"input":7,
					"interpolation":"LINEAR",
					"output":30
				},
				{
					"input":10,
					"interpolation":"STEP",
					"output":31
				},
				{
					"input":10,
					"interpolation":"LINEAR",
					"output":32
				},
				{
					"input":7,
					"interpolation":"LINEAR",
					"output":33
				},
				{
					"input":10,
					"interpolation":"STEP",
					"output":34
				},
				{
					"input":10,
					"interpolation":"LINEAR",
					"output":35
				},
				{
					"input":7,
					"interpolation":"LINEAR",
					"output":36
				},
				{
					"input":10,
					"interpolation":"STEP",
					"output":37
				},
				{
					"input":10,
					"interpolation":"LINEAR",
					"output":38
				},
				{
					"input":7,
					"interpolation":"LINEAR",
					"output":39
				},
				{
					"input":10,
					"interpolation":"LINEAR",
					"output":40
				},
				{
					"input":10,
					"interpolation":"LINEAR",
					"output":41
				},
				{
					"input":7,
					"interpolation":"LINEAR",
					"output":42
				},
				{
					"input":10,
					"interpolation":"STEP",
					"output":43
				},
				{
					"input":10,
					"interpolation":"LINEAR",
					"output":44
				},
				{
					"input":7,
					"interpolation":"LINEAR",
					"output":45
				},
				{
					"input":10,
					"interpolation":"LINEAR",
					"output":46
				},
				{
					"input":10,
					"interpolation":"LINEAR",
					"output":47
				},
				{
					"input":7,
					"interpolation":"LINEAR",
					"output":48
				},
				{
					"input":10,
					"interpolation":"LINEAR",
					"output":49
				},
				{
					"input":10,
					"interpolation":"STEP",
					"output":50
				},
				{
					"input":10,
					"interpolation":"STEP",
					"output":51
				},
				{
					"input":10,
					"interpolation":"STEP",
					"output":52
				},
				{
					"input":10,
					"interpolation":"LINEAR",
					"output":53
				},
				{
					"input":7,
					"interpolation":"LINEAR",
					"output":54
				},
				{
					"input":10,
					"interpolation":"LINEAR",
					"output":55
				},
				{
					"input":10,
					"interpolation":"LINEAR",
					"output":56
				},
				{
					"input":7,
					"interpolation":"LINEAR",
					"output":57
				},
				{
					"input":10,
					"interpolation":"STEP",
					"output":58
				},
				{
					"input":10,
					"interpolation":"LINEAR",
					"output":59
				},
				{
					"input":7,
					"interpolation":"LINEAR",
					"output":60
				},
				{
					"input":10,
					"interpolation":"LINEAR",
					"output":61
				},
				{
					"input":10,
					"interpolation":"LINEAR",
					"output":62
				},
				{
					"input":7,
					"interpolation":"LINEAR",
					"output":63
				},
				{
					"input":10,
					"interpolation":"STEP",
					"output":64
				},
				{
					"input":10,
					"interpolation":"LINEAR",
					"output":65
				},
				{
					"input":7,
					"interpolation":"LINEAR",
					"output":66
				},
				{
					"input":10,
					"interpolation":"LINEAR",
					"output":67
				},
				{
					"input":10,
					"interpolation":"LINEAR",
					"output":68
				},
				{
					"input":7,
					"interpolation":"LINEAR",
					"output":69
				},
				{
					"input":10,
					"interpolation":"LINEAR",
					"output":70
				},
				{
					"input":10,
					"interpolation":"LINEAR",
					"output":71
				},
				{
					"input":7,
					"interpolation":"LINEAR",
					"output":72
				},
				{
					"input":10,
					"interpolation":"STEP",
					"output":73
				},
				{
					"input":10,
					"interpolation":"STEP",
					"output":74
				},
				{
					"input":10,
					"interpolation":"STEP",
					"output":75
				},
				{
					"input":10,
					"interpolation":"STEP",
					"output":76
				},
				{
					"input":10,
					"interpolation":"LINEAR",
					"output":77
				},
				{
					"input":7,
					"interpolation":"LINEAR",
					"output":78
				},
				{
					"input":10,
					"interpolation":"STEP",
					"output":79
				},
				{
					"input":10,
					"interpolation":"LINEAR",
					"output":80
				},
				{
					"input":7,
					"interpolation":"LINEAR",
					"output":81
				},
				{
					"input":10,
					"interpolation":"STEP",
					"output":82
				},
				{
					"input":10,
					"interpolation":"LINEAR",
					"output":83
				},
				{
					"input":7,
					"interpolation":"LINEAR",
					"output":84
				},
				{
					"input":10,
					"interpolation":"STEP",
					"output":85
				},
				{
					"input":10,
					"interpolation":"LINEAR",
					"output":86
				},
				{
					"input":7,
					"interpolation":"LINEAR",
					"output":87
				},
				{
					"input":10,
					"interpolation":"LINEAR",
					"output":88
				},
				{
					"input":10,
					"interpolation":"STEP",
					"output":89
				},
				{
					"input":10,
					"interpolation":"STEP",
					"output":90
				},
				{
					"input":10,
					"interpolation":"STEP",
					"output":91
				},
				{
					"input":10,
					"interpolation":"LINEAR",
					"output":92
				},
				{
					"input":7,
					"interpolation":"LINEAR",
					"output":93
				},
				{
					"input":10,
					"interpolation":"STEP",
					"output":94
				},
				{
					"input":10,
					"interpolation":"LINEAR",
					"output":95
				},
				{
					"input":7,
					"interpolation":"LINEAR",
					"output":96
				},
				{
					"input":10,
					"interpolation":"LINEAR",
					"output":97
				},
				{
					"input":10,
					"interpolation":"LINEAR",
					"output":98
				},
				{
					"input":7,
					"interpolation":"LINEAR",
					"output":99
				},
				{
					"input":10,
					"interpolation":"LINEAR",
					"output":100
				},
				{
					"input":10,
					"interpolation":"LINEAR",
					"output":101
				},
				{
					"input":7,
					"interpolation":"LINEAR",
					"output":102
				},
				{
					"input":10,
					"interpolation":"STEP",
					"output":103
				},
				{
					"input":10,
					"interpolation":"STEP",
					"output":104
				},
				{
					"input":10,
					"interpolation":"STEP",
					"output":105
				},
				{
					"input":10,
					"interpolation":"STEP",
					"output":106
				}
			]
		}
	],
	"materials":[
		{
			"doubleSided":true,
			"name":"\u30de\u30c6\u30ea\u30a2\u30eb",
			"pbrMetallicRoughness":{
				"baseColorTexture":{
					"index":0
				},
				"metallicFactor":0,
				"roughnessFactor":0.5
			}
		}
	],
	"meshes":[
		{
			"name":"materialmesh",
			"primitives":[
				{
					"attributes":{
						"POSITION":0,
						"NORMAL":1,
						"TEXCOORD_0":2,
						"JOINTS_0":3,
						"WEIGHTS_0":4
					},
					"indices":5,
					"material":0
				}
			]
		}
	],
	"textures":[
		{
			"sampler":0,
			"source":0
		}
	],
	"images":[
		{
			"mimeType":"image/jpeg",
			"name":"texture_pbr_20250901",
			"uri":"texture_pbr_20250901_2k.jpg"
		}
	],
	"skins":[
		{
			"inverseBindMatrices":6,
			"joints":[
				32,
				21,
				20,
				19,
				2,
				1,
				0,
				10,
				9,
				8,
				7,
				6,
				5,
				4,
				3,
				18,
				17,
				16,
				15,
				14,
				13,
				12,
				11,
				26,
				25,
				24,
				23,
				22,
				31,
				30,
				29,
				28,
				27
			],
			"name":"Armature"
		}
	],
	"accessors":[
		{
			"bufferView":0,
			"componentType":5126,
			"count":35024,
			"max":[
				2.401365041732788,
				5.519000053405762,
				1.360884666442871
			],
			"min":[
				-2.409090042114258,
				2.5537165715405763e-09,
				-1.1246403455734253
			],
			"type":"VEC3"
		},
		{
			"bufferView":1,
			"componentType":5126,
			"count":35024,
			"type":"VEC3"
		},
		{
			"bufferView":2,
			"componentType":5126,
			"count":35024,
			"type":"VEC2"
		},
		{
			"bufferView":3,
			"componentType":5121,
			"count":35024,
			"type":"VEC4"
		},
		{
			"bufferView":4,
			"componentType":5126,
			"count":35024,
			"type":"VEC4"
		},
		{
			"bufferView":5,
			"componentType":5123,
			"count":150000,
			"type":"SCALAR"
		},
		{
			"bufferView":6,
			"componentType":5126,
			"count":33,
			"type":"MAT4"
		},
		{
			"bufferView":7,
			"componentType":5126,
			"count":20,
			"max":[
				0.6666666666666666
			],
			"min":[
				0.03333333333333333
			],
			"type":"SCALAR"
		},
		{
			"bufferView":8,
			"componentType":5126,
			"count":20,
			"type":"VEC3"
		},
		{
			"bufferView":9,
			"componentType":5126,
			"count":20,
			"type":"VEC4"
		},
		{
			"bufferView":10,
			"componentType":5126,
			"count":2,
			"max":[
				0.6666666666666666
			],
			"min":[
				0.03333333333333333
			],
			"type":"SCALAR"
		},
		{
			"bufferView":11,
			"componentType":5126,
			"count":2,
			"type":"VEC3"
		},
		{
			"bufferView":12,
			"componentType":5126,
			"count":2,
			"type":"VEC3"
		},
		{
			"bufferView":13,
			"componentType":5126,
			"count":20,
			"type":"VEC4"
		},
		{
			"bufferView":14,
			"componentType":5126,
			"count":2,
			"type":"VEC3"
		},
		{
			"bufferView":15,
			"componentType":5126,
			"count":2,
			"type":"VEC3"
		},
		{
			"bufferView":16,
			"componentType":5126,
			"count":20,
			"type":"VEC4"
		},
		{
			"bufferView":17,
			"componentType":5126,
			"count":2,
			"type":"VEC3"
		},
		{
			"bufferView":18,
			"componentType":5126,
			"count":2,
			"type":"VEC3"
		},
		{
			"bufferView":19,
			"componentType":5126,
			"count":20,
			"type":"VEC4"
		},
		{
			"bufferView":20,
			"componentType":5126,
			"count":2,
			"type":"VEC3"
		},
		{
			"bufferView":21,
			"componentType":5126,
			"count":2,
			"type":"VEC3"
		},
		{
			"bufferView":22,
			"componentType":5126,
			"count":20,
			"type":"VEC4"
		},
		{
			"bufferView":23,
			"componentType":5126,
			"count":2,
			"type":"VEC3"
		},
		{
			"bufferView":24,
			"componentType":5126,
			"count":2,
			"type":"VEC3"
		},
		{
			"bufferView":25,
			"componentType":5126,
			"count":20,
			"type":"VEC4"
		},
		{
			"bufferView":26,
			"componentType":5126,
			"count":2,
			"type":"VEC3"
		},
		{
			"bufferView":27,
			"componentType":5126,
			"count":2,
			"type":"VEC3"
		},
		{
			"bufferView":28,
			"componentType":5126,
			"count":2,
			"type":"VEC4"
		},
		{
			"bufferView":29,
			"componentType":5126,
			"count":2,
			"type":"VEC3"
		},
		{
			"bufferView":30,
			"componentType":5126,
			"count":20,
			"type":"VEC4"
		},
		{
			"bufferView":31,
			"componentType":5126,
			"count":2,
			"type":"VEC3"
		},
		{
			"bufferView":32,
			"componentType":5126,
			"count":2,
			"type":"VEC3"
		},
		{
			"bufferView":33,
			"componentType":5126,
			"count":20,
			"type":"VEC4"
		},
		{
			"bufferView":34,
			"componentType":5126,
			"count":2,
			"type":"VEC3"
		},
		{
			"bufferView":35,
			"componentType":5126,
			"count":2,
			"type":"VEC3"
		},
		{
			"bufferView":36,
			"componentType":5126,
			"count":20,
			"type":"VEC4"
		},
		{
			"bufferView":37,
			"componentType":5126,
			"count":2,
			"type":"VEC3"
		},
		{
			"bufferView":38,
			"componentType":5126,
			"count":2,
			"type":"VEC3"
		},
		{
			"bufferView":39,
			"componentType":5126,
			"count":20,
			"type":"VEC4"
		},
		{
			"bufferView":40,
			"componentType":5126,
			"count":2,
			"type":"VEC3"
		},
		{
			"bufferView":41,
			"componentType":5126,
			"count":2,
			"type":"VEC3"
		},
		{
			"bufferView":42,
			"componentType":5126,
			"count":20,
			"type":"VEC4"
		},
		{
			"bufferView":43,
			"componentType":5126,
			"count":2,
			"type":"VEC3"
		},
		{
			"bufferView":44,
			"componentType":5126,
			"count":2,
			"type":"VEC3"
		},
		{
			"bufferView":45,
			"componentType":5126,
			"count":20,
			"type":"VEC4"
		},
		{
			"bufferView":46,
			"componentType":5126,
			"count":2,
			"type":"VEC3"
		},
		{
			"bufferView":47,
			"componentType":5126,
			"count":2,
			"type":"VEC3"
		},
		{
			"bufferView":48,
			"componentType":5126,
			"count":20,
			"type":"VEC4"
		},
		{
			"bufferView":49,
			"componentType":5126,
			"count":2,
			"type":"VEC3"
		},
		{
			"bufferView":50,
			"componentType":5126,
			"count":2,
			"type":"VEC3"
		},
		{
			"bufferView":51,
			"componentType":5126,
			"count":2,
			"type":"VEC4"
		},
		{
			"bufferView":52,
			"componentType":5126,
			"count":2,
			"type":"VEC3"
		},
		{
			"bufferView":53,
			"componentType":5126,
			"count":2,
			"type":"VEC3"
		},
		{
			"bufferView":54,
			"componentType":5126,
			"count":20,
			"type":"VEC4"
		},
		{
			"bufferView":55,
			"componentType":5126,
			"count":2,
			"type":"VEC3"
		},
		{
			"bufferView":56,
			"componentType":5126,
			"count":2,
			"type":"VEC3"
		},
		{
			"bufferView":57,
			"componentType":5126,
			"count":20,
			"type":"VEC4"
		},
		{
			"bufferView":58,
			"componentType":5126,
			"count":2,
			"type":"VEC3"
		},
		{
			"bufferView":59,
			"componentType":5126,
			"count":2,
			"type":"VEC3"
		},
		{
			"bufferView":60,
			"componentType":5126,
			"count":20,
			"type":"VEC4"
		},
		{
			"bufferView":61,
			"componentType":5126,
			"count":2,
			"type":"VEC3"
		},
		{
			"bufferView":62,
			"componentType":5126,
			"count":2,
			"type":"VEC3"
		},
		{
			"bufferView":63,
			"componentType":5126,
			"count":20,
			"type":"VEC4"
		},
		{
			"bufferView":64,
			"componentType":5126,
			"count":2,
			"type":"VEC3"
		},
		{
			"bufferView":65,
			"componentType":5126,
			"count":2,
			"type":"VEC3"
		},
		{
			"bufferView":66,
			"componentType":5126,
			"count":20,
			"type":"VEC4"
		},
		{
			"bufferView":67,
			"componentType":5126,
			"count":2,
			"type":"VEC3"
		},
		{
			"bufferView":68,
			"componentType":5126,
			"count":2,
			"type":"VEC3"
		},
		{
			"bufferView":69,
			"componentType":5126,
			"count":20,
			"type":"VEC4"
		},
		{
			"bufferView":70,
			"componentType":5126,
			"count":2,
			"type":"VEC3"
		},
		{
			"bufferView":71,
			"componentType":5126,
			"count":2,
			"type":"VEC3"
		},
		{
			"bufferView":72,
			"componentType":5126,
			"count":20,
			"type":"VEC4"
		},
		{
			"bufferView":73,
			"componentType":5126,
			"count":2,
			"type":"VEC3"
		},
		{
			"bufferView":74,
			"componentType":5126,
			"count":2,
			"type":"VEC3"
		},
		{
			"bufferView":75,
			"componentType":5126,
			"count":2,
			"type":"VEC4"
		},
		{
			"bufferView":76,
			"componentType":5126,
			"count":2,
			"type":"VEC3"
		},
		{
			"bufferView":77,
			"componentType":5126,
			"count":2,
			"type":"VEC3"
		},
		{
			"bufferView":78,
			"componentType":5126,
			"count":20,
			"type":"VEC4"
		},
		{
			"bufferView":79,
			"componentType":5126,
			"count":2,
			"type":"VEC3"
		},
		{
			"bufferView":80,
			"componentType":5126,
			"count":2,
			"type":"VEC3"
		},
		{
			"bufferView":81,
			"componentType":5126,
			"count":20,
			"type":"VEC4"
		},
		{
			"bufferView":82,
			"componentType":5126,
			"count":2,
			"type":"VEC3"
		},
		{
			"bufferView":83,
			"componentType":5126,
			"count":2,
			"type":"VEC3"
		},
		{
			"bufferView":84,
			"componentType":5126,
			"count":20,
			"type":"VEC4"
		},
		{
			"bufferView":85,
			"componentType":5126,
			"count":2,
			"type":"VEC3"
		},
		{
			"bufferView":86,
			"componentType":5126,
			"count":2,
			"type":"VEC3"
		},
		{
			"bufferView":87,
			"componentType":5126,
			"count":20,
			"type":"VEC4"
		},
		{
			"bufferView":88,
			"componentType":5126,
			"count":2,
			"type":"VEC3"
		},
		{
			"bufferView":89,
			"componentType":5126,
			"count":2,
			"type":"VEC3"
		},
		{
			"bufferView":90,
			"componentType":5126,
			"count":2,
			"type":"VEC4"
		},
		{
			"bufferView":91,
			"componentType":5126,
			"count":2,
			"type":"VEC3"
		},
		{
			"bufferView":92,
			"componentType":5126,
			"count":2,
			"type":"VEC3"
		},
		{
			"bufferView":93,
			"componentType":5126,
			"count":20,
			"type":"VEC4"
		},
		{
			"bufferView":94,
			"componentType":5126,
			"count":2,
			"type":"VEC3"
		},
		{
			"bufferView":95,
			"componentType":5126,
			"count":2,
			"type":"VEC3"
		},
		{
			"bufferView":96,
			"componentType":5126,
			"count":20,
			"type":"VEC4"
		},
		{
			"bufferView":97,
			"componentType":5126,
			"count":2,
			"type":"VEC3"
		},
		{
			"bufferView":98,
			"componentType":5126,
			"count":2,
			"type":"VEC3"
		},
		{
			"bufferView":99,
			"componentType":5126,
			"count":20,
			"type":"VEC4"
		},
		{
			"bufferView":100,
			"componentType":5126,
			"count":2,
			"type":"VEC3"
		},
		{
			"bufferView":101,
			"componentType":5126,
			"count":2,
			"type":"VEC3"
		},
		{
			"bufferView":102,
			"componentType":5126,
			"count":20,
			"type":"VEC4"
		},
		{
			"bufferView":103,
			"componentType":5126,
			"count":2,
			"type":"VEC3"
		},
		{
			"bufferView":104,
			"componentType":5126,
			"count":2,
			"type":"VEC3"
		},
		{
			"bufferView":105,
			"componentType":5126,
			"count":2,
			"type":"VEC4"
		},
		{
			"bufferView":106,
			"componentType":5126,
			"count":2,
			"type":"VEC3"
		}
	],
	"bufferViews":[
		{
			"buffer":0,
			"byteLength":420288,
			"byteOffset":0,
			"target":34962
		},
		{
			"buffer":0,
			"byteLength":420288,
			"byteOffset":420288,
			"target":34962
		},
		{
			"buffer":0,
			"byteLength":280192,
			"byteOffset":840576,
			"target":34962
		},
		{
			"buffer":0,
			"byteLength":140096,
			"byteOffset":1120768,
			"target":34962
		},
		{
			"buffer":0,
			"byteLength":560384,
			"byteOffset":1260864,
			"target":34962
		},
		{
			"buffer":0,
			"byteLength":300000,
			"byteOffset":1821248,
			"target":34963
		},
		{
			"buffer":0,
			"byteLength":2112,
			"byteOffset":2121248
		},
		{
			"buffer":0,
			"byteLength":80,
			"byteOffset":2123360
		},
		{
			"buffer":0,
			"byteLength":240,
			"byteOffset":2123440
		},
		{
			"buffer":0,
			"byteLength":320,
			"byteOffset":2123680
		},
		{
			"buffer":0,
			"byteLength":8,
			"byteOffset":2124000
		},
		{
			"buffer":0,
			"byteLength":24,
			"byteOffset":2124008
		},
		{
			"buffer":0,
			"byteLength":24,
			"byteOffset":2124032
		},
		{
			"buffer":0,
			"byteLength":320,
			"byteOffset":2124056
		},
		{
			"buffer":0,
			"byteLength":24,
			"byteOffset":2124376
		},
		{
			"buffer":0,
			"byteLength":24,
			"byteOffset":2124400
		},
		{
			"buffer":0,
			"byteLength":320,
			"byteOffset":2124424
		},
		{
			"buffer":0,
			"byteLength":24,
			"byteOffset":2124744
		},
		{
			"buffer":0,
			"byteLength":24,
			"byteOffset":2124768
		},
		{
			"buffer":0,
			"byteLength":320,
			"byteOffset":2124792
		},
		{
			"buffer":0,
			"byteLength":24,
			"byteOffset":2125112
		},
		{
			"buffer":0,
			"byteLength":24,
			"byteOffset":2125136
		},
		{
			"buffer":0,
			"byteLength":320,
			"byteOffset":2125160
		},
		{
			"buffer":0,
			"byteLength":24,
			"byteOffset":2125480
		},
		{
			"buffer":0,
			"byteLength":24,
			"byteOffset":2125504
		},
		{
			"buffer":0,
			"byteLength":320,
			"byteOffset":2125528
		},
		{
			"buffer":0,
			"byteLength":24,
			"byteOffset":2125848
		},
		{
			"buffer":0,
			"byteLength":24,
			"byteOffset":2125872
		},
		{
			"buffer":0,
			"byteLength":32,
			"byteOffset":2125896
		},
		{
			"buffer":0,
			"byteLength":24,
			"byteOffset":2125928
		},
		{
			"buffer":0,
			"byteLength":320,
			"byteOffset":2125952
		},
		{
			"buffer":0,
			"byteLength":24,
			"byteOffset":2126272
		},
		{
			"buffer":0,
			"byteLength":24,
			"byteOffset":2126296
		},
		{
			"buffer":0,
			"byteLength":320,
			"byteOffset":2126320
		},
		{
			"buffer":0,
			"byteLength":24,
			"byteOffset":2126640
		},
		{
			"buffer":0,
			"byteLength":24,
			"byteOffset":2126664
		},
		{
			"buffer":0,
			"byteLength":320,
			"byteOffset":2126688
		},
		{
			"buffer":0,
			"byteLength":24,
			"byteOffset":2127008
		},
		{
			"buffer":0,
			"byteLength":24,
			"byteOffset":2127032
		},
		{
			"buffer":0,
			"byteLength":320,
			"byteOffset":2127056
		},
		{
			"buffer":0,
			"byteLength":24,
			"byteOffset":2127376
		},
		{
			"buffer":0,
			"byteLength":24,
			"byteOffset":2127400
		},
		{
			"buffer":0,
			"byteLength":320,
			"byteOffset":2127424
		},
		{
			"buffer":0,
			"byteLength":24,
			"byteOffset":2127744
		},
		{
			"buffer":0,
			"byteLength":24,
			"byteOffset":2127768
		},
		{
			"buffer":0,
			"byteLength":320,
			"byteOffset":2127792
		},
		{
			"buffer":0,
			"byteLength":24,
			"byteOffset":2128112
		},
		{
			"buffer":0,
			"byteLength":24,
			"byteOffset":2128136
		},
		{
			"buffer":0,
			"byteLength":320,
			"byteOffset":2128160
		},
		{
			"buffer":0,
			"byteLength":24,
			"byteOffset":2128480
		},
		{
			"buffer":0,
			"byteLength":24,
			"byteOffset":2128504
		},
		{
			"buffer":0,
			"byteLength":32,
			"byteOffset":2128528
		},
		{
			"buffer":0,
			"byteLength":24,
			"byteOffset":2128560
		},
		{
			"buffer":0,
			"byteLength":24,
			"byteOffset":2128584
		},
		{
			"buffer":0,
			"byteLength":320,
			"byteOffset":2128608
		},
		{
			"buffer":0,
			"byteLength":24,
			"byteOffset":2128928
		},
		{
			"buffer":0,
			"byteLength":24,
			"byteOffset":2128952
		},
		{
			"buffer":0,
			"byteLength":320,
			"byteOffset":2128976
		},
		{
			"buffer":0,
			"byteLength":24,
			"byteOffset":2129296
		},
		{
			"buffer":0,
			"byteLength":24,
			"byteOffset":2129320
		},
		{
			"buffer":0,
			"byteLength":320,
			"byteOffset":2129344
		},
		{
			"buffer":0,
			"byteLength":24,
			"byteOffset":2129664
		},
		{
			"buffer":0,
			"byteLength":24,
			"byteOffset":2129688
		},
		{
			"buffer":0,
			"byteLength":320,
			"byteOffset":2129712
		},
		{
			"buffer":0,
			"byteLength":24,
			"byteOffset":2130032
		},
		{
			"buffer":0,
			"byteLength":24,
			"byteOffset":2130056
		},
		{
			"buffer":0,
			"byteLength":320,
			"byteOffset":2130080
		},
		{
			"buffer":0,
			"byteLength":24,
			"byteOffset":2130400
		},
		{
			"buffer":0,
			"byteLength":24,
			"byteOffset":2130424
		},
		{
			"buffer":0,
			"byteLength":320,
			"byteOffset":2130448
		},
		{
			"buffer":0,
			"byteLength":24,
			"byteOffset":2130768
		},
		{
			"buffer":0,
			"byteLength":24,
			"byteOffset":2130792
		},
		{
			"buffer":0,
			"byteLength":320,
			"byteOffset":2130816
		},
		{
			"buffer":0,
			"byteLength":24,
			"byteOffset":2131136
		},
		{
			"buffer":0,
			"byteLength":24,
			"byteOffset":2131160
		},
		{
			"buffer":0,
			"byteLength":32,
			"byteOffset":2131184
		},
		{
			"buffer":0,
			"byteLength":24,
			"byteOffset":2131216
		},
		{
			"buffer":0,
			"byteLength":24,
			"byteOffset":2131240
		},
		{
			"buffer":0,
			"byteLength":320,
			"byteOffset":2131264
		},
		{
			"buffer":0,
			"byteLength":24,
			"byteOffset":2131584
		},
		{
			"buffer":0,
			"byteLength":24,
			"byteOffset":2131608
		},
		{
			"buffer":0,
			"byteLength":320,
			"byteOffset":2131632
		},
		{
			"buffer":0,
			"byteLength":24,
			"byteOffset":2131952
		},
		{
			"buffer":0,
			"byteLength":24,
			"byteOffset":2131976
		},
		{
			"buffer":0,
			"byteLength":320,
			"byteOffset":2132000
		},
		{
			"buffer":0,
			"byteLength":24,
			"byteOffset":2132320
		},
		{
			"buffer":0,
			"byteLength":24,
			"byteOffset":2132344
		},
		{
			"buffer":0,
			"byteLength":320,
			"byteOffset":2132368
		},
		{
			"buffer":0,
			"byteLength":24,
			"byteOffset":2132688
		},
		{
			"buffer":0,
			"byteLength":24,
			"byteOffset":2132712
		},
		{
			"buffer":0,
			"byteLength":32,
			"byteOffset":2132736
		},
		{
			"buffer":0,
			"byteLength":24,
			"byteOffset":2132768
		},
		{
			"buffer":0,
			"byteLength":24,
			"byteOffset":2132792
		},
		{
			"buffer":0,
			"byteLength":320,
			"byteOffset":2132816
		},
		{
			"buffer":0,
			"byteLength":24,
			"byteOffset":2133136
		},
		{
			"buffer":0,
			"byteLength":24,
			"byteOffset":2133160
		},
		{
			"buffer":0,
			"byteLength":320,
			"byteOffset":2133184
		},
		{
			"buffer":0,
			"byteLength":24,
			"byteOffset":2133504
		},
		{
			"buffer":0,
			"byteLength":24,
			"byteOffset":2133528
		},
		{
			"buffer":0,
			"byteLength":320,
			"byteOffset":2133552
		},
		{
			"buffer":0,
			"byteLength":24,
			"byteOffset":2133872
		},
		{
			"buffer":0,
			"byteLength":24,
			"byteOffset":2133896
		},
		{
			"buffer":0,
			"byteLength":320,
			"byteOffset":2133920
		},
		{
			"buffer":0,
			"byteLength":24,
			"byteOffset":2134240
		},
		{
			"buffer":0,
			"byteLength":24,
			"byteOffset":2134264
		},
		{
			"buffer":0,
			"byteLength":32,
			"byteOffset":2134288
		},
		{
			"buffer":0,
			"byteLength":24,
			"byteOffset":2134320
		}
	],
	"samplers":[
		{
			"magFilter":9729,
			"minFilter":9987
		}
	],
	"buffers":[
		{
			"byteLength":2134344,
			"uri":"enemy2_run.bin"
		}
	]
}
