{
	"asset":{
		"generator":"Khronos glTF Blender I/O v4.5.48",
		"version":"2.0"
	},
	"scene":0,
	"scenes":[
		{
			"name":"Scene",
			"nodes":[
				4
			]
		}
	],
	"nodes":[
		{
			"mesh":0,
			"name":"Object_2"
		},
		{
			"mesh":1,
			"name":"Object_3"
		},
		{
			"mesh":2,
			"name":"Object_4"
		},
		{
			"children":[
				0,
				1,
				2
			],
			"name":"TV.obj.cleaner.materialmerger.gles"
		},
		{
			"children":[
				3
			],
			"name":"Sketchfab_model",
			"rotation":[
				-0.70710688829422,
				0,
				0,
				0.7071066498756409
			]
		}
	],
	"materials":[
		{
			"doubleSided":true,
			"name":"Material.001",
			"normalTexture":{
				"index":0
			},
			"pbrMetallicRoughness":{
				"baseColorTexture":{
					"index":1
				},
				"metallicRoughnessTexture":{
					"index":2
				}
			}
		},
		{
			"doubleSided":true,
			"name":"Material.002",
			"normalTexture":{
				"index":3
			},
			"pbrMetallicRoughness":{
				"baseColorTexture":{
					"index":4
				},
				"metallicRoughnessTexture":{
					"index":5
				}
			}
		},
		{
			"doubleSided":true,
			"name":"Material.003",
			"normalTexture":{
				"index":6
			},
			"pbrMetallicRoughness":{
				"baseColorTexture":{
					"index":7
				},
				"metallicRoughnessTexture":{
					"index":8
				}
			}
		}
	],
	"meshes":[
		{
			"name":"Object_0",
			"primitives":[
				{
					"attributes":{
						"POSITION":0,
						"NORMAL":1,
						"TEXCOORD_0":2
					},
					"indices":3,
					"material":0
				}
			]
		},
		{
			"name":"Object_1",
			"primitives":[
				{
					"attributes":{
						"POSITION":4,
						"NORMAL":5,
						"TEXCOORD_0":6
					},
					"indices":7,
					"material":1
				}
			]
		},
		{
			"name":"Object_2",
			"primitives":[
				{
					"attributes":{
						"POSITION":8,
						"NORMAL":9,
						"TEXCOORD_0":10
					},
					"indices":11,
					"material":2
				}
			]
		}
	],
	"textures":[
		{
			"sampler":0,
			"source":0
		},
		{
			"sampler":0,
			"source":1
		},
		{
			"sampler":0,
			"source":2
		},
		{
			"sampler":0,
			"source":3
		},
		{
			"sampler":0,
			"source":4
		},
		{
			"sampler":0,
			"source":5
		},
		{
			"sampler":0,
			"source":6
		},
		{
			"sampler":0,
			"source":7
		},
		{
			"sampler":0,
			"source":8
		}
	],
	"images":[
		{
			"mimeType":"image/png",
			"name":"Material_normal",
			"uri":"Material_normal.png"
		},
		{
			"mimeType":"image/png",
			"name":"Material_baseColor",
			"uri":"Material_baseColor.png"
		},
		{
			"mimeType":"image/png",
			"name":"Material_metallicRoughness",
			"uri":"Material_metallicRoughness.png"
		},
		{
			"mimeType":"image/png",
			"name":"Material.001_normal",
			"uri":"Material.001_normal.png"
		},
		{
			"mimeType":"image/png",
			"name":"Material.001_baseColor",
			"uri":"Material.001_baseColor.png"
		},
		{
			"mimeType":"image/png",
			"name":"Material.001_metallicRoughness",
			"uri":"Material.001_metallicRoughness.png"
		},
		{
			"mimeType":"image/png",
			"name":"Material.002_normal",
			"uri":"Material.002_normal.png"
		},
		{
			"mimeType":"image/png",
			"name":"Material.002_baseColor",
			"uri":"Material.002_baseColor.png"
		},
		{
			"mimeType":"image/png",
			"name":"Material.002_metallicRoughness",
			"uri":"Material.002_metallicRoughness.png"
		}
	],
	"accessors":[
		{
			"bufferView":0,
			"componentType":5126,
			"count":3525,
			"max":[
				2.3361659049987793,
				1.327586054801941,
				2.789921998977661
			],
			"min":[
				-2.3361659049987793,
				-1.3577369451522827,
				-2.5929040908813477
			],
			"type":"VEC3"
		},
		{
			"bufferView":1,
			"componentType":5126,
			"count":3525,
			"type":"VEC3"
		},
		{
			"bufferView":2,
			"componentType":5126,
			"count":3525,
			"type":"VEC2"
		},
		{
			"bufferView":3,
			"componentType":5123,
			"count":14586,
			"type":"SCALAR"
		},
		{
			"bufferView":4,
			"componentType":5126,
			"count":7106,
			"max":[
				1.8012160062789917,
				-0.8964470028877258,
				1.8846280574798584
			],
			"min":[
				-1.7382609844207764,
				-1.5367720127105713,
				-2.2437829971313477
			],
			"type":"VEC3"
		},
		{
			"bufferView":5,
			"componentType":5126,
			"count":7106,
			"type":"VEC3"
		},
		{
			"bufferView":6,
			"componentType":5126,
			"count":7106,
			"type":"VEC2"
		},
		{
			"bufferView":7,
			"componentType":5123,
			"count":23874,
			"type":"SCALAR"
		},
		{
			"bufferView":8,
			"componentType":5126,
			"count":5640,
			"max":[
				2.0639519691467285,
				1.9944020509719849,
				5.336532115936279
			],
			"min":[
				-2.0639519691467285,
				-1.2084599733352661,
				-2.8156349658966064
			],
			"type":"VEC3"
		},
		{
			"bufferView":9,
			"componentType":5126,
			"count":5640,
			"type":"VEC3"
		},
		{
			"bufferView":10,
			"componentType":5126,
			"count":5640,
			"type":"VEC2"
		},
		{
			"bufferView":11,
			"componentType":5123,
			"count":20328,
			"type":"SCALAR"
		}
	],
	"bufferViews":[
		{
			"buffer":0,
			"byteLength":42300,
			"byteOffset":0,
			"target":34962
		},
		{
			"buffer":0,
			"byteLength":42300,
			"byteOffset":42300,
			"target":34962
		},
		{
			"buffer":0,
			"byteLength":28200,
			"byteOffset":84600,
			"target":34962
		},
		{
			"buffer":0,
			"byteLength":29172,
			"byteOffset":112800,
			"target":34963
		},
		{
			"buffer":0,
			"byteLength":85272,
			"byteOffset":141972,
			"target":34962
		},
		{
			"buffer":0,
			"byteLength":85272,
			"byteOffset":227244,
			"target":34962
		},
		{
			"buffer":0,
			"byteLength":56848,
			"byteOffset":312516,
			"target":34962
		},
		{
			"buffer":0,
			"byteLength":47748,
			"byteOffset":369364,
			"target":34963
		},
		{
			"buffer":0,
			"byteLength":67680,
			"byteOffset":417112,
			"target":34962
		},
		{
			"buffer":0,
			"byteLength":67680,
			"byteOffset":484792,
			"target":34962
		},
		{
			"buffer":0,
			"byteLength":45120,
			"byteOffset":552472,
			"target":34962
		},
		{
			"buffer":0,
			"byteLength":40656,
			"byteOffset":597592,
			"target":34963
		}
	],
	"samplers":[
		{
			"magFilter":9729,
			"minFilter":9987
		}
	],
	"buffers":[
		{
			"byteLength":638248,
			"uri":"terebi.bin"
		}
	]
}
