{
	"asset":{
		"generator":"Khronos glTF Blender I/O v5.0.21",
		"version":"2.0"
	},
	"extensionsUsed":[
		"KHR_materials_specular",
		"KHR_materials_ior"
	],
	"scene":0,
	"scenes":[
		{
			"name":"Scene",
			"nodes":[
				1,
				2
			]
		}
	],
	"nodes":[
		{
			"mesh":0,
			"name":"Grass Generic Small "
		},
		{
			"children":[
				0
			],
			"name":"Grass Generic Small"
		},
		{
			"mesh":1,
			"name":"_Grass Generic Medium Sparse.002",
			"translation":[
				-2,
				0,
				0
			]
		}
	],
	"materials":[
		{
			"alphaMode":"BLEND",
			"doubleSided":true,
			"name":"M Grass Generic Set.001",
			"normalTexture":{
				"index":0
			},
			"pbrMetallicRoughness":{
				"baseColorTexture":{
					"index":1
				},
				"metallicFactor":0,
				"metallicRoughnessTexture":{
					"index":2
				}
			}
		},
		{
			"doubleSided":true,
			"extensions":{
				"KHR_materials_specular":{
					"specularFactor":0.5
				},
				"KHR_materials_ior":{
					"ior":1.4500000476837158
				}
			},
			"name":"Grass Material.002",
			"normalTexture":{
				"index":3,
				"scale":0.5,
				"texCoord":1
			},
			"pbrMetallicRoughness":{
				"baseColorTexture":{
					"index":4,
					"texCoord":1
				},
				"metallicFactor":0,
				"metallicRoughnessTexture":{
					"index":5,
					"texCoord":1
				}
			}
		}
	],
	"meshes":[
		{
			"name":"Grass Generic Small.001",
			"primitives":[
				{
					"attributes":{
						"POSITION":0,
						"NORMAL":1,
						"TEXCOORD_0":2,
						"COLOR_0":3,
						"COLOR_1":4
					},
					"indices":5,
					"material":0
				}
			]
		},
		{
			"name":"_Grass Generic Medium Sparse.002",
			"primitives":[
				{
					"attributes":{
						"POSITION":6,
						"NORMAL":7,
						"TEXCOORD_0":8,
						"TEXCOORD_1":9
					},
					"indices":10,
					"material":1
				}
			]
		}
	],
	"textures":[
		{
			"sampler":0,
			"source":0
		},
		{
			"sampler":0,
			"source":1
		},
		{
			"sampler":0,
			"source":2
		},
		{
			"sampler":0,
			"source":3
		},
		{
			"sampler":0,
			"source":4
		},
		{
			"sampler":0,
			"source":5
		}
	],
	"images":[
		{
			"mimeType":"image/jpeg",
			"name":"T_Grass_Generic_b1_NM",
			"uri":"T_Grass_Generic_b1_NM.jpg"
		},
		{
			"mimeType":"image/png",
			"name":"T_Grass_Generic_b1_BC.jpg-T_Grass_Generic_b1_OP.jpg",
			"uri":"T_Grass_Generic_b1_BC.jpg-T_Grass_Generic_b1_OP.jpg.png"
		},
		{
			"mimeType":"image/png",
			"name":"T_Grass_Generic_b1_ORS",
			"uri":"T_Grass_Generic_b1_ORS.png"
		},
		{
			"mimeType":"image/jpeg",
			"name":"Grass_normal",
			"uri":"Grass_normal.jpg"
		},
		{
			"mimeType":"image/jpeg",
			"name":"Grass_basecolor",
			"uri":"Grass_basecolor.jpg"
		},
		{
			"mimeType":"image/png",
			"name":"Grass_roughness",
			"uri":"Grass_roughness.png"
		}
	],
	"accessors":[
		{
			"bufferView":0,
			"componentType":5126,
			"count":772,
			"max":[
				0.9823910593986511,
				0.4966388940811157,
				0.7674774527549744
			],
			"min":[
				-1.001030445098877,
				-0.01977628469467163,
				-0.9405553936958313
			],
			"type":"VEC3"
		},
		{
			"bufferView":1,
			"componentType":5126,
			"count":772,
			"type":"VEC3"
		},
		{
			"bufferView":2,
			"componentType":5126,
			"count":772,
			"type":"VEC2"
		},
		{
			"bufferView":3,
			"componentType":5121,
			"count":772,
			"normalized":true,
			"type":"VEC4"
		},
		{
			"bufferView":4,
			"componentType":5123,
			"count":772,
			"normalized":true,
			"type":"VEC4"
		},
		{
			"bufferView":5,
			"componentType":5123,
			"count":1581,
			"type":"SCALAR"
		},
		{
			"bufferView":6,
			"componentType":5126,
			"count":1155,
			"max":[
				4.999999046325684,
				0,
				4.999998092651367
			],
			"min":[
				-4.999999046325684,
				0,
				-5
			],
			"type":"VEC3"
		},
		{
			"bufferView":7,
			"componentType":5126,
			"count":1155,
			"type":"VEC3"
		},
		{
			"bufferView":8,
			"componentType":5126,
			"count":1155,
			"type":"VEC2"
		},
		{
			"bufferView":9,
			"componentType":5126,
			"count":1155,
			"type":"VEC2"
		},
		{
			"bufferView":10,
			"componentType":5123,
			"count":6528,
			"type":"SCALAR"
		}
	],
	"bufferViews":[
		{
			"buffer":0,
			"byteLength":9264,
			"byteOffset":0,
			"target":34962
		},
		{
			"buffer":0,
			"byteLength":9264,
			"byteOffset":9264,
			"target":34962
		},
		{
			"buffer":0,
			"byteLength":6176,
			"byteOffset":18528,
			"target":34962
		},
		{
			"buffer":0,
			"byteLength":3088,
			"byteOffset":24704,
			"target":34962
		},
		{
			"buffer":0,
			"byteLength":6176,
			"byteOffset":27792,
			"target":34962
		},
		{
			"buffer":0,
			"byteLength":3162,
			"byteOffset":33968,
			"target":34963
		},
		{
			"buffer":0,
			"byteLength":13860,
			"byteOffset":37132,
			"target":34962
		},
		{
			"buffer":0,
			"byteLength":13860,
			"byteOffset":50992,
			"target":34962
		},
		{
			"buffer":0,
			"byteLength":9240,
			"byteOffset":64852,
			"target":34962
		},
		{
			"buffer":0,
			"byteLength":9240,
			"byteOffset":74092,
			"target":34962
		},
		{
			"buffer":0,
			"byteLength":13056,
			"byteOffset":83332,
			"target":34963
		}
	],
	"samplers":[
		{
			"magFilter":9729,
			"minFilter":9987
		}
	],
	"buffers":[
		{
			"byteLength":96388,
			"uri":"grass.bin"
		}
	]
}
