{
	"asset":{
		"generator":"Khronos glTF Blender I/O v4.5.48",
		"version":"2.0"
	},
	"scene":0,
	"scenes":[
		{
			"name":"Scene",
			"nodes":[
				1,
				3,
				62
			]
		}
	],
	"nodes":[
		{
			"name":"carebear uved.obj.cleaner.materialmerger.gles"
		},
		{
			"children":[
				0
			],
			"name":"Sketchfab_model",
			"rotation":[
				-0.70710688829422,
				0,
				0,
				0.7071066498756409
			]
		},
		{
			"name":"carebear uved.obj.cleaner.materialmerger.gles.001"
		},
		{
			"children":[
				2
			],
			"name":"Sketchfab_model.001",
			"rotation":[
				-0.70710688829422,
				0,
				0,
				0.7071066498756409
			]
		},
		{
			"name":"mixamorig:HeadTop_End",
			"rotation":[
				0,
				-1.9721522630525295e-31,
				-2.4960052079258577e-31,
				1
			],
			"translation":[
				-4.336808689942018e-19,
				2139.00048828125,
				-48.772220611572266
			]
		},
		{
			"children":[
				4
			],
			"name":"mixamorig:Head",
			"rotation":[
				0,
				-3.944304526105059e-31,
				-2.7755575615628914e-17,
				1
			],
			"translation":[
				-3.1102416649109177e-12,
				565.8046875,
				-12.901026725769043
			]
		},
		{
			"children":[
				5
			],
			"name":"mixamorig:Neck",
			"rotation":[
				-0.002351741073653102,
				-5.960630033996495e-08,
				-1.401789517796459e-10,
				0.9999972581863403
			],
			"scale":[
				1,
				1.0000001192092896,
				0.9999999403953552
			],
			"translation":[
				1.530177096142893e-10,
				845.9845581054688,
				-0.00131988525390625
			]
		},
		{
			"name":"mixamorig:LeftHandThumb4",
			"rotation":[
				-9.313223969797946e-09,
				9.619537740945816e-05,
				-2.60770320892334e-08,
				1
			],
			"scale":[
				1,
				1.0000001192092896,
				1
			],
			"translation":[
				118.5291748046875,
				204.008056640625,
				-0.038177490234375
			]
		},
		{
			"children":[
				7
			],
			"name":"mixamorig:LeftHandThumb3",
			"rotation":[
				-0.0012761924881488085,
				3.4607978705025744e-06,
				6.652256706729531e-05,
				0.9999991655349731
			],
			"scale":[
				1,
				0.9999998807907104,
				0.9999998807907104
			],
			"translation":[
				30.936492919921875,
				255.14450073242188,
				-0.040439605712890625
			]
		},
		{
			"children":[
				8
			],
			"name":"mixamorig:LeftHandThumb2",
			"rotation":[
				-0.07893847674131393,
				3.777030360652134e-05,
				-9.597426105756313e-05,
				0.9968794584274292
			],
			"scale":[
				0.9999999403953552,
				1.0000001192092896,
				1
			],
			"translation":[
				-149.49742126464844,
				131.1757354736328,
				-0.002685546875
			]
		},
		{
			"children":[
				9
			],
			"name":"mixamorig:LeftHandThumb1",
			"rotation":[
				0.2772151827812195,
				0.19508279860019684,
				0.5416900515556335,
				0.769198477268219
			],
			"scale":[
				0.9999998807907104,
				0.9999998211860657,
				1
			],
			"translation":[
				-181.88873291015625,
				-133.395263671875,
				104.54049682617188
			]
		},
		{
			"name":"mixamorig:LeftHandIndex4",
			"rotation":[
				-2.1141022443771362e-06,
				7.127411663532257e-06,
				-7.137656211853027e-06,
				1
			],
			"translation":[
				1.4112091064453125,
				153.47793579101562,
				-0.02081298828125
			]
		},
		{
			"children":[
				11
			],
			"name":"mixamorig:LeftHandIndex3",
			"rotation":[
				0.0046606813557446,
				3.3071624784497544e-05,
				2.612015487102326e-05,
				0.9999891519546509
			],
			"scale":[
				1,
				1.0000001192092896,
				1
			],
			"translation":[
				1.6572723388671875,
				198.03121948242188,
				-0.02121734619140625
			]
		},
		{
			"children":[
				12
			],
			"name":"mixamorig:LeftHandIndex2",
			"rotation":[
				0.17607973515987396,
				-1.858658106357325e-05,
				-2.8201015084050596e-05,
				0.9843758940696716
			],
			"scale":[
				1,
				0.9999998807907104,
				1
			],
			"translation":[
				-3.1021728515625,
				221.79580688476562,
				-0.02260589599609375
			]
		},
		{
			"children":[
				13
			],
			"name":"mixamorig:LeftHandIndex1",
			"rotation":[
				0.029612841084599495,
				0.005911222193390131,
				0.19597934186458588,
				0.9801429510116577
			],
			"scale":[
				1,
				1,
				0.9999998807907104
			],
			"translation":[
				-224.47438049316406,
				17.360809326171875,
				-12.457965850830078
			]
		},
		{
			"name":"mixamorig:LeftHandMiddle4",
			"rotation":[
				-1.3969838619232178e-08,
				2.3748723876337863e-08,
				-2.3283066585833012e-09,
				1
			],
			"scale":[
				1.0000001192092896,
				1,
				1
			],
			"translation":[
				2.5365753173828125,
				162.3802947998047,
				0.020867347717285156
			]
		},
		{
			"children":[
				15
			],
			"name":"mixamorig:LeftHandMiddle3",
			"rotation":[
				0.05263441428542137,
				-4.3057101720478386e-05,
				-9.942145879904274e-06,
				0.9986138939857483
			],
			"scale":[
				1,
				1,
				0.9999999403953552
			],
			"translation":[
				1.3256034851074219,
				201.814208984375,
				0.038959503173828125
			]
		},
		{
			"children":[
				16
			],
			"name":"mixamorig:LeftHandMiddle2",
			"rotation":[
				0.13224580883979797,
				4.450298365554772e-05,
				3.7201996747171506e-05,
				0.9912169575691223
			],
			"scale":[
				0.9999999403953552,
				1,
				0.9999999403953552
			],
			"translation":[
				-3.8433189392089844,
				220.28692626953125,
				-0.0001964569091796875
			]
		},
		{
			"children":[
				17
			],
			"name":"mixamorig:LeftHandMiddle1",
			"rotation":[
				-0.02149476483464241,
				-0.003222210332751274,
				0.1466839462518692,
				0.9889446496963501
			],
			"scale":[
				0.9999999403953552,
				0.9999999403953552,
				0.9999998807907104
			],
			"translation":[
				-0.393035888671875,
				148.44493103027344,
				12.701644897460938
			]
		},
		{
			"name":"mixamorig:LeftHandRing4",
			"rotation":[
				-1.6298146832127713e-08,
				8.381904059717726e-09,
				2.7939681679356454e-09,
				1
			],
			"scale":[
				0.9999999403953552,
				0.9999999403953552,
				0.9999999403953552
			],
			"translation":[
				2.313018798828125,
				133.33648681640625,
				0.0245819091796875
			]
		},
		{
			"children":[
				19
			],
			"name":"mixamorig:LeftHandRing3",
			"rotation":[
				0.022627631202340126,
				8.0104946391657e-06,
				2.1037445549154654e-05,
				0.9997439384460449
			],
			"scale":[
				1,
				1,
				1.0000001192092896
			],
			"translation":[
				2.161895751953125,
				176.9265899658203,
				0.0125579833984375
			]
		},
		{
			"children":[
				20
			],
			"name":"mixamorig:LeftHandRing2",
			"rotation":[
				0.13611763715744019,
				3.9529211790068075e-05,
				-6.204476221682853e-07,
				0.990692675113678
			],
			"translation":[
				-4.469635009765625,
				197.19920349121094,
				0.013248443603515625
			]
		},
		{
			"children":[
				21
			],
			"name":"mixamorig:LeftHandRing1",
			"rotation":[
				-0.02364780381321907,
				-0.001645703217945993,
				0.06773222237825394,
				0.99742192029953
			],
			"scale":[
				1,
				0.9999997615814209,
				0.9999998807907104
			],
			"translation":[
				224.89349365234375,
				219.52484130859375,
				-5.7308502197265625
			]
		},
		{
			"children":[
				10,
				14,
				18,
				22
			],
			"name":"mixamorig:LeftHand",
			"rotation":[
				0.05176450312137604,
				-0.16357482969760895,
				-0.1431807279586792,
				0.9747117757797241
			],
			"scale":[
				1,
				0.9999999403953552,
				1
			],
			"translation":[
				-7.62939453125e-06,
				1560.2034912109375,
				-0.03765136003494263
			]
		},
		{
			"children":[
				23
			],
			"name":"mixamorig:LeftForeArm",
			"rotation":[
				0.00013853546988684684,
				-6.896855211380171e-06,
				-0.04037401080131531,
				0.9991846084594727
			],
			"scale":[
				1.0000001192092896,
				0.9999998807907104,
				0.9999999403953552
			],
			"translation":[
				-0.0014615058898925781,
				1049.187255859375,
				-0.0993347018957138
			]
		},
		{
			"children":[
				24
			],
			"name":"mixamorig:LeftArm",
			"rotation":[
				-0.11507900804281235,
				-0.0033988216891884804,
				0.029256723821163177,
				0.9929195642471313
			],
			"scale":[
				1,
				1.000000238418579,
				1.000000238418579
			],
			"translation":[
				-3.4332275390625e-05,
				942.2191772460938,
				0.20430701971054077
			]
		},
		{
			"children":[
				25
			],
			"name":"mixamorig:LeftShoulder",
			"rotation":[
				0.5535631775856018,
				0.4403848350048065,
				-0.5517306327819824,
				0.4418397545814514
			],
			"scale":[
				1.0000001192092896,
				1.0000001192092896,
				1
			],
			"translation":[
				458.2674255371094,
				740.0861206054688,
				1.5247509479522705
			]
		},
		{
			"name":"mixamorig:RightHandThumb4",
			"rotation":[
				1.1175870895385742e-08,
				-7.450580596923828e-09,
				-4.377215745421381e-08,
				1
			],
			"scale":[
				1,
				1.0000001192092896,
				1
			],
			"translation":[
				-98.6754150390625,
				245.07037353515625,
				-0.01677703857421875
			]
		},
		{
			"children":[
				27
			],
			"name":"mixamorig:RightHandThumb3",
			"rotation":[
				0.021300489082932472,
				-4.758274826599518e-06,
				2.2757372789783403e-05,
				0.9997731447219849
			],
			"scale":[
				1.0000001192092896,
				1,
				1
			],
			"translation":[
				-51.050140380859375,
				258.5213928222656,
				0.015743255615234375
			]
		},
		{
			"children":[
				28
			],
			"name":"mixamorig:RightHandThumb2",
			"rotation":[
				-0.06609679013490677,
				2.2721804270986468e-05,
				-2.7226216843700968e-05,
				0.9978132247924805
			],
			"translation":[
				149.72190856933594,
				132.14834594726562,
				-0.0161895751953125
			]
		},
		{
			"children":[
				29
			],
			"name":"mixamorig:RightHandThumb1",
			"rotation":[
				0.2679233253002167,
				-0.18593159317970276,
				-0.5389599204063416,
				0.7766394019126892
			],
			"scale":[
				1,
				1.0000001192092896,
				1.0000001192092896
			],
			"translation":[
				187.32083129882812,
				-129.81036376953125,
				101.83190155029297
			]
		},
		{
			"name":"mixamorig:RightHandIndex4",
			"rotation":[
				4.563480260344477e-08,
				-7.069669663906097e-06,
				2.220446049250313e-16,
				1
			],
			"scale":[
				0.9999999403953552,
				1,
				1.0000001192092896
			],
			"translation":[
				-1.3798980712890625,
				153.10736083984375,
				0.0410919189453125
			]
		},
		{
			"children":[
				31
			],
			"name":"mixamorig:RightHandIndex3",
			"rotation":[
				0.0030905723106116056,
				-1.6688449250068516e-05,
				-2.736425267357845e-05,
				0.999995231628418
			],
			"scale":[
				0.9999998807907104,
				1,
				1
			],
			"translation":[
				-1.5960235595703125,
				188.8162384033203,
				-0.01953887939453125
			]
		},
		{
			"children":[
				32
			],
			"name":"mixamorig:RightHandIndex2",
			"rotation":[
				0.15870840847492218,
				2.4750914235482924e-05,
				-2.9619879569509067e-05,
				0.9873254895210266
			],
			"scale":[
				0.9999999403953552,
				0.9999999403953552,
				0.9999999403953552
			],
			"translation":[
				2.9707183837890625,
				211.87112426757812,
				-0.02962493896484375
			]
		},
		{
			"children":[
				33
			],
			"name":"mixamorig:RightHandIndex1",
			"rotation":[
				0.04709813743829727,
				-0.0074889399111270905,
				-0.15622656047344208,
				0.9865692853927612
			],
			"scale":[
				1.0000001192092896,
				1,
				1
			],
			"translation":[
				237.99447631835938,
				50.624507904052734,
				-9.57052993774414
			]
		},
		{
			"name":"mixamorig:RightHandMiddle4",
			"rotation":[
				-9.313225746154785e-09,
				-1.932494519962802e-08,
				-1.862645149230957e-09,
				1
			],
			"scale":[
				1,
				1,
				0.9999998807907104
			],
			"translation":[
				-0.6676559448242188,
				159.65655517578125,
				-0.020597457885742188
			]
		},
		{
			"children":[
				35
			],
			"name":"mixamorig:RightHandMiddle3",
			"rotation":[
				-0.018234651535749435,
				-1.997390791075304e-05,
				2.2362910385709256e-05,
				0.9998337626457214
			],
			"scale":[
				1,
				0.9999998807907104,
				0.9999997615814209
			],
			"translation":[
				-1.6055755615234375,
				198.35693359375,
				-0.00583648681640625
			]
		},
		{
			"children":[
				36
			],
			"name":"mixamorig:RightHandMiddle2",
			"rotation":[
				0.08869703859090805,
				-5.282490747049451e-05,
				2.6443191018188372e-05,
				0.9960587024688721
			],
			"scale":[
				0.9999999403953552,
				0.9999999403953552,
				0.9999998807907104
			],
			"translation":[
				2.273101806640625,
				214.23033142089844,
				0.026279449462890625
			]
		},
		{
			"children":[
				37
			],
			"name":"mixamorig:RightHandMiddle1",
			"rotation":[
				0.018169673159718513,
				-0.0018054743995890021,
				-0.10142005234956741,
				0.9946761131286621
			],
			"scale":[
				1,
				1.0000001192092896,
				1.000000238418579
			],
			"translation":[
				-3.9379959106445312,
				148.10015869140625,
				-0.2074413299560547
			]
		},
		{
			"name":"mixamorig:RightHandRing4",
			"rotation":[
				-1.4435501682896756e-08,
				-2.2351745343485163e-08,
				-7.450581485102248e-09,
				1
			],
			"scale":[
				0.9999999403953552,
				0.9999998807907104,
				0.9999999403953552
			],
			"translation":[
				-4.461761474609375,
				149.50491333007812,
				0.0191650390625
			]
		},
		{
			"children":[
				39
			],
			"name":"mixamorig:RightHandRing3",
			"rotation":[
				0.06943674385547638,
				-7.821220060577616e-05,
				-5.591653098235838e-05,
				0.9975863695144653
			],
			"scale":[
				1,
				0.9999999403953552,
				0.9999998211860657
			],
			"translation":[
				-1.85321044921875,
				184.08807373046875,
				-0.01586151123046875
			]
		},
		{
			"children":[
				40
			],
			"name":"mixamorig:RightHandRing2",
			"rotation":[
				0.14518143236637115,
				4.082868372279336e-07,
				1.5942490790621378e-05,
				0.9894050359725952
			],
			"scale":[
				0.9999999403953552,
				0.9999998807907104,
				1
			],
			"translation":[
				6.327362060546875,
				202.65464782714844,
				-0.03191375732421875
			]
		},
		{
			"children":[
				41
			],
			"name":"mixamorig:RightHandRing1",
			"rotation":[
				-0.03797360137104988,
				0.0008458285010419786,
				-0.021073000505566597,
				0.9990562200546265
			],
			"scale":[
				1,
				1,
				0.9999999403953552
			],
			"translation":[
				-234.05551147460938,
				182.32427978515625,
				1.78411865234375
			]
		},
		{
			"children":[
				30,
				34,
				38,
				42
			],
			"name":"mixamorig:RightHand",
			"rotation":[
				0.040819838643074036,
				0.16712114214897156,
				0.10485047101974487,
				0.979495108127594
			],
			"scale":[
				0.9999999403953552,
				1,
				0.9999998211860657
			],
			"translation":[
				5.7220458984375e-06,
				1560.2342529296875,
				-0.03735017776489258
			]
		},
		{
			"children":[
				43
			],
			"name":"mixamorig:RightForeArm",
			"rotation":[
				5.542998042074032e-05,
				3.515823664201889e-06,
				0.04208802804350853,
				0.9991138577461243
			],
			"scale":[
				1.0000001192092896,
				0.9999998807907104,
				1.0000001192092896
			],
			"translation":[
				6.67572021484375e-06,
				1049.3360595703125,
				-0.09675207734107971
			]
		},
		{
			"children":[
				44
			],
			"name":"mixamorig:RightArm",
			"rotation":[
				-0.11503375321626663,
				0.003819190664216876,
				-0.03287522867321968,
				0.9928101301193237
			],
			"scale":[
				0.9999999403953552,
				1,
				0.9999999403953552
			],
			"translation":[
				0.000400543212890625,
				942.2109985351562,
				0.20881330966949463
			]
		},
		{
			"children":[
				45
			],
			"name":"mixamorig:RightShoulder",
			"rotation":[
				0.5523310899734497,
				-0.4413661062717438,
				0.5529733896255493,
				0.44084784388542175
			],
			"translation":[
				-458.267578125,
				740.077880859375,
				-0.5311577916145325
			]
		},
		{
			"children":[
				6,
				26,
				46
			],
			"name":"mixamorig:Spine2",
			"rotation":[
				1.9073486328125e-06,
				5.960646376479417e-08,
				1.1370071550942384e-13,
				1
			],
			"translation":[
				0,
				751.9766235351562,
				0.00170135498046875
			]
		},
		{
			"children":[
				47
			],
			"name":"mixamorig:Spine1",
			"rotation":[
				0,
				-2.3283064365386963e-10,
				0,
				1
			],
			"translation":[
				-7.229772336359019e-13,
				657.9766235351562,
				0.001552581787109375
			]
		},
		{
			"children":[
				48
			],
			"name":"mixamorig:Spine",
			"rotation":[
				0.0023498337250202894,
				2.3283000527563047e-10,
				5.471132986760441e-13,
				0.9999972581863403
			],
			"translation":[
				0,
				563.976806640625,
				2.6518235206604004
			]
		},
		{
			"name":"mixamorig:LeftToe_End",
			"rotation":[
				-5.36616425961256e-07,
				7.671769708395004e-08,
				1.0586518328636885e-08,
				1
			],
			"translation":[
				-0.0067580342292785645,
				374.4961853027344,
				0.004575252532958984
			]
		},
		{
			"children":[
				50
			],
			"name":"mixamorig:LeftToeBase",
			"rotation":[
				0.27655574679374695,
				-0.01655140519142151,
				0.0047537945210933685,
				0.960843563079834
			],
			"scale":[
				0.9999998807907104,
				0.9999999403953552,
				1
			],
			"translation":[
				-0.019536346197128296,
				815.9921264648438,
				0.001972198486328125
			]
		},
		{
			"children":[
				51
			],
			"name":"mixamorig:LeftFoot",
			"rotation":[
				0.4795044958591461,
				-0.18422487378120422,
				0.10370155423879623,
				0.8516939878463745
			],
			"scale":[
				1,
				0.9999998807907104,
				0.9999998807907104
			],
			"translation":[
				0.01765836775302887,
				671.5780029296875,
				-0.0012327348813414574
			]
		},
		{
			"children":[
				52
			],
			"name":"mixamorig:LeftLeg",
			"rotation":[
				-0.0015455198008567095,
				9.269725524063688e-06,
				-0.009369943290948868,
				0.9999549388885498
			],
			"translation":[
				0.005533155519515276,
				1095.9609375,
				-0.000334699172526598
			]
		},
		{
			"children":[
				53
			],
			"name":"mixamorig:LeftUpLeg",
			"rotation":[
				-2.7779879019362852e-05,
				-0.0015531256794929504,
				-0.9998517036437988,
				0.01715157926082611
			],
			"scale":[
				1.0000001192092896,
				1,
				1
			],
			"translation":[
				690.0180053710938,
				-313.484130859375,
				32.25523376464844
			]
		},
		{
			"name":"mixamorig:RightToe_End",
			"rotation":[
				9.371434117610988e-08,
				-1.6996636986732483e-08,
				-5.878974640438628e-09,
				1
			],
			"scale":[
				0.9999999403953552,
				0.9999999403953552,
				1
			],
			"translation":[
				0.014473915100097656,
				372.55072021484375,
				-0.006716728210449219
			]
		},
		{
			"children":[
				55
			],
			"name":"mixamorig:RightToeBase",
			"rotation":[
				0.27361881732940674,
				0.027073953300714493,
				-0.007684317417442799,
				0.9614264369010925
			],
			"scale":[
				0.9999999403953552,
				1,
				1.0000001192092896
			],
			"translation":[
				0.005963027477264404,
				824.6874389648438,
				0.013751983642578125
			]
		},
		{
			"children":[
				56
			],
			"name":"mixamorig:RightFoot",
			"rotation":[
				0.48640188574790955,
				0.17975351214408875,
				-0.1029767245054245,
				0.8488213419914246
			],
			"scale":[
				1,
				0.9999998807907104,
				0.9999998211860657
			],
			"translation":[
				-0.0182042233645916,
				671.6094360351562,
				0.000550001859664917
			]
		},
		{
			"children":[
				57
			],
			"name":"mixamorig:RightLeg",
			"rotation":[
				-0.0045160637237131596,
				-5.3285919420886785e-05,
				0.009370062500238419,
				0.999945878982544
			],
			"translation":[
				-0.005628455430269241,
				1095.9608154296875,
				0.0007998396176844835
			]
		},
		{
			"children":[
				58
			],
			"name":"mixamorig:RightUpLeg",
			"rotation":[
				3.5246412153355777e-06,
				-0.0002823613176587969,
				0.9998528957366943,
				0.01715167798101902
			],
			"scale":[
				1.0000004768371582,
				0.9999999403953552,
				1
			],
			"translation":[
				-690.0178833007812,
				-313.484130859375,
				40.85499572753906
			]
		},
		{
			"children":[
				49,
				54,
				59
			],
			"name":"mixamorig:Hips",
			"rotation":[
				-0.7071067690849304,
				0,
				0,
				0.7071067690849304
			],
			"translation":[
				0,
				-72.49066162109375,
				-2513.3505859375
			]
		},
		{
			"mesh":0,
			"name":"Object_2",
			"skin":0
		},
		{
			"children":[
				61,
				60
			],
			"name":"Armature",
			"rotation":[
				0.70710688829422,
				0,
				0,
				0.7071066498756409
			],
			"scale":[
				0.009999999776482582,
				0.010000000707805157,
				0.010000000707805157
			]
		}
	],
	"animations":[
		{
			"channels":[
				{
					"sampler":0,
					"target":{
						"node":60,
						"path":"translation"
					}
				},
				{
					"sampler":1,
					"target":{
						"node":60,
						"path":"rotation"
					}
				},
				{
					"sampler":2,
					"target":{
						"node":60,
						"path":"scale"
					}
				},
				{
					"sampler":3,
					"target":{
						"node":49,
						"path":"translation"
					}
				},
				{
					"sampler":4,
					"target":{
						"node":49,
						"path":"rotation"
					}
				},
				{
					"sampler":5,
					"target":{
						"node":49,
						"path":"scale"
					}
				},
				{
					"sampler":6,
					"target":{
						"node":48,
						"path":"translation"
					}
				},
				{
					"sampler":7,
					"target":{
						"node":48,
						"path":"rotation"
					}
				},
				{
					"sampler":8,
					"target":{
						"node":48,
						"path":"scale"
					}
				},
				{
					"sampler":9,
					"target":{
						"node":47,
						"path":"translation"
					}
				},
				{
					"sampler":10,
					"target":{
						"node":47,
						"path":"rotation"
					}
				},
				{
					"sampler":11,
					"target":{
						"node":47,
						"path":"scale"
					}
				},
				{
					"sampler":12,
					"target":{
						"node":6,
						"path":"translation"
					}
				},
				{
					"sampler":13,
					"target":{
						"node":6,
						"path":"rotation"
					}
				},
				{
					"sampler":14,
					"target":{
						"node":6,
						"path":"scale"
					}
				},
				{
					"sampler":15,
					"target":{
						"node":5,
						"path":"translation"
					}
				},
				{
					"sampler":16,
					"target":{
						"node":5,
						"path":"rotation"
					}
				},
				{
					"sampler":17,
					"target":{
						"node":5,
						"path":"scale"
					}
				},
				{
					"sampler":18,
					"target":{
						"node":4,
						"path":"translation"
					}
				},
				{
					"sampler":19,
					"target":{
						"node":4,
						"path":"rotation"
					}
				},
				{
					"sampler":20,
					"target":{
						"node":4,
						"path":"scale"
					}
				},
				{
					"sampler":21,
					"target":{
						"node":26,
						"path":"translation"
					}
				},
				{
					"sampler":22,
					"target":{
						"node":26,
						"path":"rotation"
					}
				},
				{
					"sampler":23,
					"target":{
						"node":26,
						"path":"scale"
					}
				},
				{
					"sampler":24,
					"target":{
						"node":25,
						"path":"translation"
					}
				},
				{
					"sampler":25,
					"target":{
						"node":25,
						"path":"rotation"
					}
				},
				{
					"sampler":26,
					"target":{
						"node":25,
						"path":"scale"
					}
				},
				{
					"sampler":27,
					"target":{
						"node":24,
						"path":"translation"
					}
				},
				{
					"sampler":28,
					"target":{
						"node":24,
						"path":"rotation"
					}
				},
				{
					"sampler":29,
					"target":{
						"node":24,
						"path":"scale"
					}
				},
				{
					"sampler":30,
					"target":{
						"node":23,
						"path":"translation"
					}
				},
				{
					"sampler":31,
					"target":{
						"node":23,
						"path":"rotation"
					}
				},
				{
					"sampler":32,
					"target":{
						"node":23,
						"path":"scale"
					}
				},
				{
					"sampler":33,
					"target":{
						"node":10,
						"path":"translation"
					}
				},
				{
					"sampler":34,
					"target":{
						"node":10,
						"path":"rotation"
					}
				},
				{
					"sampler":35,
					"target":{
						"node":10,
						"path":"scale"
					}
				},
				{
					"sampler":36,
					"target":{
						"node":9,
						"path":"translation"
					}
				},
				{
					"sampler":37,
					"target":{
						"node":9,
						"path":"rotation"
					}
				},
				{
					"sampler":38,
					"target":{
						"node":9,
						"path":"scale"
					}
				},
				{
					"sampler":39,
					"target":{
						"node":8,
						"path":"translation"
					}
				},
				{
					"sampler":40,
					"target":{
						"node":8,
						"path":"rotation"
					}
				},
				{
					"sampler":41,
					"target":{
						"node":8,
						"path":"scale"
					}
				},
				{
					"sampler":42,
					"target":{
						"node":7,
						"path":"translation"
					}
				},
				{
					"sampler":43,
					"target":{
						"node":7,
						"path":"rotation"
					}
				},
				{
					"sampler":44,
					"target":{
						"node":7,
						"path":"scale"
					}
				},
				{
					"sampler":45,
					"target":{
						"node":14,
						"path":"translation"
					}
				},
				{
					"sampler":46,
					"target":{
						"node":14,
						"path":"rotation"
					}
				},
				{
					"sampler":47,
					"target":{
						"node":14,
						"path":"scale"
					}
				},
				{
					"sampler":48,
					"target":{
						"node":13,
						"path":"translation"
					}
				},
				{
					"sampler":49,
					"target":{
						"node":13,
						"path":"rotation"
					}
				},
				{
					"sampler":50,
					"target":{
						"node":13,
						"path":"scale"
					}
				},
				{
					"sampler":51,
					"target":{
						"node":12,
						"path":"translation"
					}
				},
				{
					"sampler":52,
					"target":{
						"node":12,
						"path":"rotation"
					}
				},
				{
					"sampler":53,
					"target":{
						"node":12,
						"path":"scale"
					}
				},
				{
					"sampler":54,
					"target":{
						"node":11,
						"path":"translation"
					}
				},
				{
					"sampler":55,
					"target":{
						"node":11,
						"path":"rotation"
					}
				},
				{
					"sampler":56,
					"target":{
						"node":11,
						"path":"scale"
					}
				},
				{
					"sampler":57,
					"target":{
						"node":18,
						"path":"translation"
					}
				},
				{
					"sampler":58,
					"target":{
						"node":18,
						"path":"rotation"
					}
				},
				{
					"sampler":59,
					"target":{
						"node":18,
						"path":"scale"
					}
				},
				{
					"sampler":60,
					"target":{
						"node":17,
						"path":"translation"
					}
				},
				{
					"sampler":61,
					"target":{
						"node":17,
						"path":"rotation"
					}
				},
				{
					"sampler":62,
					"target":{
						"node":17,
						"path":"scale"
					}
				},
				{
					"sampler":63,
					"target":{
						"node":16,
						"path":"translation"
					}
				},
				{
					"sampler":64,
					"target":{
						"node":16,
						"path":"rotation"
					}
				},
				{
					"sampler":65,
					"target":{
						"node":16,
						"path":"scale"
					}
				},
				{
					"sampler":66,
					"target":{
						"node":15,
						"path":"translation"
					}
				},
				{
					"sampler":67,
					"target":{
						"node":15,
						"path":"rotation"
					}
				},
				{
					"sampler":68,
					"target":{
						"node":15,
						"path":"scale"
					}
				},
				{
					"sampler":69,
					"target":{
						"node":22,
						"path":"translation"
					}
				},
				{
					"sampler":70,
					"target":{
						"node":22,
						"path":"rotation"
					}
				},
				{
					"sampler":71,
					"target":{
						"node":22,
						"path":"scale"
					}
				},
				{
					"sampler":72,
					"target":{
						"node":21,
						"path":"translation"
					}
				},
				{
					"sampler":73,
					"target":{
						"node":21,
						"path":"rotation"
					}
				},
				{
					"sampler":74,
					"target":{
						"node":21,
						"path":"scale"
					}
				},
				{
					"sampler":75,
					"target":{
						"node":20,
						"path":"translation"
					}
				},
				{
					"sampler":76,
					"target":{
						"node":20,
						"path":"rotation"
					}
				},
				{
					"sampler":77,
					"target":{
						"node":20,
						"path":"scale"
					}
				},
				{
					"sampler":78,
					"target":{
						"node":19,
						"path":"translation"
					}
				},
				{
					"sampler":79,
					"target":{
						"node":19,
						"path":"rotation"
					}
				},
				{
					"sampler":80,
					"target":{
						"node":19,
						"path":"scale"
					}
				},
				{
					"sampler":81,
					"target":{
						"node":46,
						"path":"translation"
					}
				},
				{
					"sampler":82,
					"target":{
						"node":46,
						"path":"rotation"
					}
				},
				{
					"sampler":83,
					"target":{
						"node":46,
						"path":"scale"
					}
				},
				{
					"sampler":84,
					"target":{
						"node":45,
						"path":"translation"
					}
				},
				{
					"sampler":85,
					"target":{
						"node":45,
						"path":"rotation"
					}
				},
				{
					"sampler":86,
					"target":{
						"node":45,
						"path":"scale"
					}
				},
				{
					"sampler":87,
					"target":{
						"node":44,
						"path":"translation"
					}
				},
				{
					"sampler":88,
					"target":{
						"node":44,
						"path":"rotation"
					}
				},
				{
					"sampler":89,
					"target":{
						"node":44,
						"path":"scale"
					}
				},
				{
					"sampler":90,
					"target":{
						"node":43,
						"path":"translation"
					}
				},
				{
					"sampler":91,
					"target":{
						"node":43,
						"path":"rotation"
					}
				},
				{
					"sampler":92,
					"target":{
						"node":43,
						"path":"scale"
					}
				},
				{
					"sampler":93,
					"target":{
						"node":30,
						"path":"translation"
					}
				},
				{
					"sampler":94,
					"target":{
						"node":30,
						"path":"rotation"
					}
				},
				{
					"sampler":95,
					"target":{
						"node":30,
						"path":"scale"
					}
				},
				{
					"sampler":96,
					"target":{
						"node":29,
						"path":"translation"
					}
				},
				{
					"sampler":97,
					"target":{
						"node":29,
						"path":"rotation"
					}
				},
				{
					"sampler":98,
					"target":{
						"node":29,
						"path":"scale"
					}
				},
				{
					"sampler":99,
					"target":{
						"node":28,
						"path":"translation"
					}
				},
				{
					"sampler":100,
					"target":{
						"node":28,
						"path":"rotation"
					}
				},
				{
					"sampler":101,
					"target":{
						"node":28,
						"path":"scale"
					}
				},
				{
					"sampler":102,
					"target":{
						"node":27,
						"path":"translation"
					}
				},
				{
					"sampler":103,
					"target":{
						"node":27,
						"path":"rotation"
					}
				},
				{
					"sampler":104,
					"target":{
						"node":27,
						"path":"scale"
					}
				},
				{
					"sampler":105,
					"target":{
						"node":34,
						"path":"translation"
					}
				},
				{
					"sampler":106,
					"target":{
						"node":34,
						"path":"rotation"
					}
				},
				{
					"sampler":107,
					"target":{
						"node":34,
						"path":"scale"
					}
				},
				{
					"sampler":108,
					"target":{
						"node":33,
						"path":"translation"
					}
				},
				{
					"sampler":109,
					"target":{
						"node":33,
						"path":"rotation"
					}
				},
				{
					"sampler":110,
					"target":{
						"node":33,
						"path":"scale"
					}
				},
				{
					"sampler":111,
					"target":{
						"node":32,
						"path":"translation"
					}
				},
				{
					"sampler":112,
					"target":{
						"node":32,
						"path":"rotation"
					}
				},
				{
					"sampler":113,
					"target":{
						"node":32,
						"path":"scale"
					}
				},
				{
					"sampler":114,
					"target":{
						"node":31,
						"path":"translation"
					}
				},
				{
					"sampler":115,
					"target":{
						"node":31,
						"path":"rotation"
					}
				},
				{
					"sampler":116,
					"target":{
						"node":31,
						"path":"scale"
					}
				},
				{
					"sampler":117,
					"target":{
						"node":38,
						"path":"translation"
					}
				},
				{
					"sampler":118,
					"target":{
						"node":38,
						"path":"rotation"
					}
				},
				{
					"sampler":119,
					"target":{
						"node":38,
						"path":"scale"
					}
				},
				{
					"sampler":120,
					"target":{
						"node":37,
						"path":"translation"
					}
				},
				{
					"sampler":121,
					"target":{
						"node":37,
						"path":"rotation"
					}
				},
				{
					"sampler":122,
					"target":{
						"node":37,
						"path":"scale"
					}
				},
				{
					"sampler":123,
					"target":{
						"node":36,
						"path":"translation"
					}
				},
				{
					"sampler":124,
					"target":{
						"node":36,
						"path":"rotation"
					}
				},
				{
					"sampler":125,
					"target":{
						"node":36,
						"path":"scale"
					}
				},
				{
					"sampler":126,
					"target":{
						"node":35,
						"path":"translation"
					}
				},
				{
					"sampler":127,
					"target":{
						"node":35,
						"path":"rotation"
					}
				},
				{
					"sampler":128,
					"target":{
						"node":35,
						"path":"scale"
					}
				},
				{
					"sampler":129,
					"target":{
						"node":42,
						"path":"translation"
					}
				},
				{
					"sampler":130,
					"target":{
						"node":42,
						"path":"rotation"
					}
				},
				{
					"sampler":131,
					"target":{
						"node":42,
						"path":"scale"
					}
				},
				{
					"sampler":132,
					"target":{
						"node":41,
						"path":"translation"
					}
				},
				{
					"sampler":133,
					"target":{
						"node":41,
						"path":"rotation"
					}
				},
				{
					"sampler":134,
					"target":{
						"node":41,
						"path":"scale"
					}
				},
				{
					"sampler":135,
					"target":{
						"node":40,
						"path":"translation"
					}
				},
				{
					"sampler":136,
					"target":{
						"node":40,
						"path":"rotation"
					}
				},
				{
					"sampler":137,
					"target":{
						"node":40,
						"path":"scale"
					}
				},
				{
					"sampler":138,
					"target":{
						"node":39,
						"path":"translation"
					}
				},
				{
					"sampler":139,
					"target":{
						"node":39,
						"path":"rotation"
					}
				},
				{
					"sampler":140,
					"target":{
						"node":39,
						"path":"scale"
					}
				},
				{
					"sampler":141,
					"target":{
						"node":54,
						"path":"translation"
					}
				},
				{
					"sampler":142,
					"target":{
						"node":54,
						"path":"rotation"
					}
				},
				{
					"sampler":143,
					"target":{
						"node":54,
						"path":"scale"
					}
				},
				{
					"sampler":144,
					"target":{
						"node":53,
						"path":"translation"
					}
				},
				{
					"sampler":145,
					"target":{
						"node":53,
						"path":"rotation"
					}
				},
				{
					"sampler":146,
					"target":{
						"node":53,
						"path":"scale"
					}
				},
				{
					"sampler":147,
					"target":{
						"node":52,
						"path":"translation"
					}
				},
				{
					"sampler":148,
					"target":{
						"node":52,
						"path":"rotation"
					}
				},
				{
					"sampler":149,
					"target":{
						"node":52,
						"path":"scale"
					}
				},
				{
					"sampler":150,
					"target":{
						"node":51,
						"path":"translation"
					}
				},
				{
					"sampler":151,
					"target":{
						"node":51,
						"path":"rotation"
					}
				},
				{
					"sampler":152,
					"target":{
						"node":51,
						"path":"scale"
					}
				},
				{
					"sampler":153,
					"target":{
						"node":50,
						"path":"translation"
					}
				},
				{
					"sampler":154,
					"target":{
						"node":50,
						"path":"rotation"
					}
				},
				{
					"sampler":155,
					"target":{
						"node":50,
						"path":"scale"
					}
				},
				{
					"sampler":156,
					"target":{
						"node":59,
						"path":"translation"
					}
				},
				{
					"sampler":157,
					"target":{
						"node":59,
						"path":"rotation"
					}
				},
				{
					"sampler":158,
					"target":{
						"node":59,
						"path":"scale"
					}
				},
				{
					"sampler":159,
					"target":{
						"node":58,
						"path":"translation"
					}
				},
				{
					"sampler":160,
					"target":{
						"node":58,
						"path":"rotation"
					}
				},
				{
					"sampler":161,
					"target":{
						"node":58,
						"path":"scale"
					}
				},
				{
					"sampler":162,
					"target":{
						"node":57,
						"path":"translation"
					}
				},
				{
					"sampler":163,
					"target":{
						"node":57,
						"path":"rotation"
					}
				},
				{
					"sampler":164,
					"target":{
						"node":57,
						"path":"scale"
					}
				},
				{
					"sampler":165,
					"target":{
						"node":56,
						"path":"translation"
					}
				},
				{
					"sampler":166,
					"target":{
						"node":56,
						"path":"rotation"
					}
				},
				{
					"sampler":167,
					"target":{
						"node":56,
						"path":"scale"
					}
				},
				{
					"sampler":168,
					"target":{
						"node":55,
						"path":"translation"
					}
				},
				{
					"sampler":169,
					"target":{
						"node":55,
						"path":"rotation"
					}
				},
				{
					"sampler":170,
					"target":{
						"node":55,
						"path":"scale"
					}
				}
			],
			"name":"Armature|mixamo.com|Layer0",
			"samplers":[
				{
					"input":7,
					"interpolation":"LINEAR",
					"output":8
				},
				{
					"input":7,
					"interpolation":"LINEAR",
					"output":9
				},
				{
					"input":10,
					"interpolation":"STEP",
					"output":11
				},
				{
					"input":7,
					"interpolation":"LINEAR",
					"output":12
				},
				{
					"input":7,
					"interpolation":"LINEAR",
					"output":13
				},
				{
					"input":10,
					"interpolation":"STEP",
					"output":14
				},
				{
					"input":7,
					"interpolation":"LINEAR",
					"output":15
				},
				{
					"input":7,
					"interpolation":"LINEAR",
					"output":16
				},
				{
					"input":10,
					"interpolation":"LINEAR",
					"output":17
				},
				{
					"input":7,
					"interpolation":"LINEAR",
					"output":18
				},
				{
					"input":7,
					"interpolation":"LINEAR",
					"output":19
				},
				{
					"input":10,
					"interpolation":"LINEAR",
					"output":20
				},
				{
					"input":7,
					"interpolation":"LINEAR",
					"output":21
				},
				{
					"input":7,
					"interpolation":"LINEAR",
					"output":22
				},
				{
					"input":10,
					"interpolation":"LINEAR",
					"output":23
				},
				{
					"input":7,
					"interpolation":"LINEAR",
					"output":24
				},
				{
					"input":7,
					"interpolation":"LINEAR",
					"output":25
				},
				{
					"input":10,
					"interpolation":"LINEAR",
					"output":26
				},
				{
					"input":7,
					"interpolation":"LINEAR",
					"output":27
				},
				{
					"input":10,
					"interpolation":"LINEAR",
					"output":28
				},
				{
					"input":10,
					"interpolation":"STEP",
					"output":29
				},
				{
					"input":7,
					"interpolation":"LINEAR",
					"output":30
				},
				{
					"input":7,
					"interpolation":"LINEAR",
					"output":31
				},
				{
					"input":10,
					"interpolation":"LINEAR",
					"output":32
				},
				{
					"input":7,
					"interpolation":"LINEAR",
					"output":33
				},
				{
					"input":7,
					"interpolation":"LINEAR",
					"output":34
				},
				{
					"input":10,
					"interpolation":"STEP",
					"output":35
				},
				{
					"input":7,
					"interpolation":"LINEAR",
					"output":36
				},
				{
					"input":7,
					"interpolation":"LINEAR",
					"output":37
				},
				{
					"input":10,
					"interpolation":"LINEAR",
					"output":38
				},
				{
					"input":7,
					"interpolation":"LINEAR",
					"output":39
				},
				{
					"input":10,
					"interpolation":"LINEAR",
					"output":40
				},
				{
					"input":10,
					"interpolation":"LINEAR",
					"output":41
				},
				{
					"input":7,
					"interpolation":"LINEAR",
					"output":42
				},
				{
					"input":10,
					"interpolation":"LINEAR",
					"output":43
				},
				{
					"input":10,
					"interpolation":"LINEAR",
					"output":44
				},
				{
					"input":7,
					"interpolation":"LINEAR",
					"output":45
				},
				{
					"input":10,
					"interpolation":"LINEAR",
					"output":46
				},
				{
					"input":10,
					"interpolation":"LINEAR",
					"output":47
				},
				{
					"input":7,
					"interpolation":"LINEAR",
					"output":48
				},
				{
					"input":10,
					"interpolation":"LINEAR",
					"output":49
				},
				{
					"input":10,
					"interpolation":"LINEAR",
					"output":50
				},
				{
					"input":7,
					"interpolation":"LINEAR",
					"output":51
				},
				{
					"input":10,
					"interpolation":"LINEAR",
					"output":52
				},
				{
					"input":10,
					"interpolation":"STEP",
					"output":53
				},
				{
					"input":7,
					"interpolation":"LINEAR",
					"output":54
				},
				{
					"input":7,
					"interpolation":"LINEAR",
					"output":55
				},
				{
					"input":10,
					"interpolation":"LINEAR",
					"output":56
				},
				{
					"input":7,
					"interpolation":"LINEAR",
					"output":57
				},
				{
					"input":7,
					"interpolation":"LINEAR",
					"output":58
				},
				{
					"input":10,
					"interpolation":"LINEAR",
					"output":59
				},
				{
					"input":7,
					"interpolation":"LINEAR",
					"output":60
				},
				{
					"input":10,
					"interpolation":"LINEAR",
					"output":61
				},
				{
					"input":10,
					"interpolation":"LINEAR",
					"output":62
				},
				{
					"input":7,
					"interpolation":"LINEAR",
					"output":63
				},
				{
					"input":10,
					"interpolation":"LINEAR",
					"output":64
				},
				{
					"input":10,
					"interpolation":"STEP",
					"output":65
				},
				{
					"input":7,
					"interpolation":"LINEAR",
					"output":66
				},
				{
					"input":7,
					"interpolation":"LINEAR",
					"output":67
				},
				{
					"input":10,
					"interpolation":"LINEAR",
					"output":68
				},
				{
					"input":7,
					"interpolation":"LINEAR",
					"output":69
				},
				{
					"input":7,
					"interpolation":"LINEAR",
					"output":70
				},
				{
					"input":10,
					"interpolation":"LINEAR",
					"output":71
				},
				{
					"input":7,
					"interpolation":"LINEAR",
					"output":72
				},
				{
					"input":10,
					"interpolation":"LINEAR",
					"output":73
				},
				{
					"input":10,
					"interpolation":"STEP",
					"output":74
				},
				{
					"input":7,
					"interpolation":"LINEAR",
					"output":75
				},
				{
					"input":10,
					"interpolation":"LINEAR",
					"output":76
				},
				{
					"input":10,
					"interpolation":"STEP",
					"output":77
				},
				{
					"input":7,
					"interpolation":"LINEAR",
					"output":78
				},
				{
					"input":7,
					"interpolation":"LINEAR",
					"output":79
				},
				{
					"input":10,
					"interpolation":"LINEAR",
					"output":80
				},
				{
					"input":7,
					"interpolation":"LINEAR",
					"output":81
				},
				{
					"input":7,
					"interpolation":"LINEAR",
					"output":82
				},
				{
					"input":10,
					"interpolation":"LINEAR",
					"output":83
				},
				{
					"input":7,
					"interpolation":"LINEAR",
					"output":84
				},
				{
					"input":10,
					"interpolation":"LINEAR",
					"output":85
				},
				{
					"input":10,
					"interpolation":"LINEAR",
					"output":86
				},
				{
					"input":7,
					"interpolation":"LINEAR",
					"output":87
				},
				{
					"input":10,
					"interpolation":"LINEAR",
					"output":88
				},
				{
					"input":10,
					"interpolation":"LINEAR",
					"output":89
				},
				{
					"input":7,
					"interpolation":"LINEAR",
					"output":90
				},
				{
					"input":7,
					"interpolation":"LINEAR",
					"output":91
				},
				{
					"input":10,
					"interpolation":"LINEAR",
					"output":92
				},
				{
					"input":7,
					"interpolation":"LINEAR",
					"output":93
				},
				{
					"input":7,
					"interpolation":"LINEAR",
					"output":94
				},
				{
					"input":10,
					"interpolation":"LINEAR",
					"output":95
				},
				{
					"input":7,
					"interpolation":"LINEAR",
					"output":96
				},
				{
					"input":7,
					"interpolation":"LINEAR",
					"output":97
				},
				{
					"input":10,
					"interpolation":"LINEAR",
					"output":98
				},
				{
					"input":7,
					"interpolation":"LINEAR",
					"output":99
				},
				{
					"input":7,
					"interpolation":"LINEAR",
					"output":100
				},
				{
					"input":10,
					"interpolation":"STEP",
					"output":101
				},
				{
					"input":7,
					"interpolation":"LINEAR",
					"output":102
				},
				{
					"input":10,
					"interpolation":"LINEAR",
					"output":103
				},
				{
					"input":10,
					"interpolation":"LINEAR",
					"output":104
				},
				{
					"input":7,
					"interpolation":"LINEAR",
					"output":105
				},
				{
					"input":10,
					"interpolation":"LINEAR",
					"output":106
				},
				{
					"input":10,
					"interpolation":"LINEAR",
					"output":107
				},
				{
					"input":7,
					"interpolation":"LINEAR",
					"output":108
				},
				{
					"input":10,
					"interpolation":"LINEAR",
					"output":109
				},
				{
					"input":10,
					"interpolation":"LINEAR",
					"output":110
				},
				{
					"input":7,
					"interpolation":"LINEAR",
					"output":111
				},
				{
					"input":10,
					"interpolation":"LINEAR",
					"output":112
				},
				{
					"input":10,
					"interpolation":"STEP",
					"output":113
				},
				{
					"input":7,
					"interpolation":"LINEAR",
					"output":114
				},
				{
					"input":7,
					"interpolation":"LINEAR",
					"output":115
				},
				{
					"input":10,
					"interpolation":"LINEAR",
					"output":116
				},
				{
					"input":7,
					"interpolation":"LINEAR",
					"output":117
				},
				{
					"input":7,
					"interpolation":"LINEAR",
					"output":118
				},
				{
					"input":10,
					"interpolation":"LINEAR",
					"output":119
				},
				{
					"input":7,
					"interpolation":"LINEAR",
					"output":120
				},
				{
					"input":10,
					"interpolation":"LINEAR",
					"output":121
				},
				{
					"input":10,
					"interpolation":"STEP",
					"output":122
				},
				{
					"input":7,
					"interpolation":"LINEAR",
					"output":123
				},
				{
					"input":10,
					"interpolation":"LINEAR",
					"output":124
				},
				{
					"input":10,
					"interpolation":"LINEAR",
					"output":125
				},
				{
					"input":7,
					"interpolation":"LINEAR",
					"output":126
				},
				{
					"input":7,
					"interpolation":"LINEAR",
					"output":127
				},
				{
					"input":10,
					"interpolation":"LINEAR",
					"output":128
				},
				{
					"input":7,
					"interpolation":"LINEAR",
					"output":129
				},
				{
					"input":7,
					"interpolation":"LINEAR",
					"output":130
				},
				{
					"input":10,
					"interpolation":"LINEAR",
					"output":131
				},
				{
					"input":7,
					"interpolation":"LINEAR",
					"output":132
				},
				{
					"input":10,
					"interpolation":"LINEAR",
					"output":133
				},
				{
					"input":10,
					"interpolation":"STEP",
					"output":134
				},
				{
					"input":7,
					"interpolation":"LINEAR",
					"output":135
				},
				{
					"input":10,
					"interpolation":"LINEAR",
					"output":136
				},
				{
					"input":10,
					"interpolation":"STEP",
					"output":137
				},
				{
					"input":7,
					"interpolation":"LINEAR",
					"output":138
				},
				{
					"input":7,
					"interpolation":"LINEAR",
					"output":139
				},
				{
					"input":10,
					"interpolation":"LINEAR",
					"output":140
				},
				{
					"input":7,
					"interpolation":"LINEAR",
					"output":141
				},
				{
					"input":7,
					"interpolation":"LINEAR",
					"output":142
				},
				{
					"input":10,
					"interpolation":"STEP",
					"output":143
				},
				{
					"input":7,
					"interpolation":"LINEAR",
					"output":144
				},
				{
					"input":10,
					"interpolation":"LINEAR",
					"output":145
				},
				{
					"input":10,
					"interpolation":"STEP",
					"output":146
				},
				{
					"input":7,
					"interpolation":"LINEAR",
					"output":147
				},
				{
					"input":10,
					"interpolation":"LINEAR",
					"output":148
				},
				{
					"input":10,
					"interpolation":"STEP",
					"output":149
				},
				{
					"input":7,
					"interpolation":"LINEAR",
					"output":150
				},
				{
					"input":7,
					"interpolation":"LINEAR",
					"output":151
				},
				{
					"input":10,
					"interpolation":"STEP",
					"output":152
				},
				{
					"input":7,
					"interpolation":"LINEAR",
					"output":153
				},
				{
					"input":7,
					"interpolation":"LINEAR",
					"output":154
				},
				{
					"input":10,
					"interpolation":"LINEAR",
					"output":155
				},
				{
					"input":7,
					"interpolation":"LINEAR",
					"output":156
				},
				{
					"input":7,
					"interpolation":"LINEAR",
					"output":157
				},
				{
					"input":10,
					"interpolation":"LINEAR",
					"output":158
				},
				{
					"input":7,
					"interpolation":"LINEAR",
					"output":159
				},
				{
					"input":7,
					"interpolation":"LINEAR",
					"output":160
				},
				{
					"input":10,
					"interpolation":"LINEAR",
					"output":161
				},
				{
					"input":7,
					"interpolation":"LINEAR",
					"output":162
				},
				{
					"input":10,
					"interpolation":"LINEAR",
					"output":163
				},
				{
					"input":10,
					"interpolation":"STEP",
					"output":164
				},
				{
					"input":7,
					"interpolation":"LINEAR",
					"output":165
				},
				{
					"input":7,
					"interpolation":"LINEAR",
					"output":166
				},
				{
					"input":10,
					"interpolation":"LINEAR",
					"output":167
				},
				{
					"input":7,
					"interpolation":"LINEAR",
					"output":168
				},
				{
					"input":7,
					"interpolation":"LINEAR",
					"output":169
				},
				{
					"input":10,
					"interpolation":"LINEAR",
					"output":170
				},
				{
					"input":7,
					"interpolation":"LINEAR",
					"output":171
				},
				{
					"input":7,
					"interpolation":"LINEAR",
					"output":172
				},
				{
					"input":10,
					"interpolation":"LINEAR",
					"output":173
				},
				{
					"input":7,
					"interpolation":"LINEAR",
					"output":174
				},
				{
					"input":7,
					"interpolation":"LINEAR",
					"output":175
				},
				{
					"input":10,
					"interpolation":"LINEAR",
					"output":176
				},
				{
					"input":7,
					"interpolation":"LINEAR",
					"output":177
				},
				{
					"input":10,
					"interpolation":"LINEAR",
					"output":178
				},
				{
					"input":10,
					"interpolation":"STEP",
					"output":179
				}
			]
		}
	],
	"materials":[
		{
			"doubleSided":true,
			"name":"default.006",
			"normalTexture":{
				"index":0
			},
			"pbrMetallicRoughness":{
				"baseColorTexture":{
					"index":1
				},
				"metallicFactor":0,
				"roughnessFactor":0.5
			}
		}
	],
	"meshes":[
		{
			"name":"Object_0.004",
			"primitives":[
				{
					"attributes":{
						"POSITION":0,
						"NORMAL":1,
						"TEXCOORD_0":2,
						"JOINTS_0":3,
						"WEIGHTS_0":4
					},
					"indices":5,
					"material":0
				}
			]
		}
	],
	"textures":[
		{
			"sampler":0,
			"source":0
		},
		{
			"sampler":0,
			"source":1
		}
	],
	"images":[
		{
			"mimeType":"image/png",
			"name":"default_normal",
			"uri":"normal_map.png"
		},
		{
			"mimeType":"image/png",
			"name":"default_baseColor",
			"uri":"base_color.png"
		}
	],
	"skins":[
		{
			"inverseBindMatrices":6,
			"joints":[
				60,
				49,
				48,
				47,
				6,
				5,
				4,
				26,
				25,
				24,
				23,
				10,
				9,
				8,
				7,
				14,
				13,
				12,
				11,
				18,
				17,
				16,
				15,
				22,
				21,
				20,
				19,
				46,
				45,
				44,
				43,
				30,
				29,
				28,
				27,
				34,
				33,
				32,
				31,
				38,
				37,
				36,
				35,
				42,
				41,
				40,
				39,
				54,
				53,
				52,
				51,
				50,
				59,
				58,
				57,
				56,
				55
			],
			"name":"Armature"
		}
	],
	"accessors":[
		{
			"bufferView":0,
			"componentType":5126,
			"count":6385,
			"max":[
				46.94759750366211,
				81.34954071044922,
				13.79875373840332
			],
			"min":[
				-46.947566986083984,
				-1.0976948738098145,
				-12.25652027130127
			],
			"type":"VEC3"
		},
		{
			"bufferView":1,
			"componentType":5126,
			"count":6385,
			"type":"VEC3"
		},
		{
			"bufferView":2,
			"componentType":5126,
			"count":6385,
			"type":"VEC2"
		},
		{
			"bufferView":3,
			"componentType":5121,
			"count":6385,
			"type":"VEC4"
		},
		{
			"bufferView":4,
			"componentType":5126,
			"count":6385,
			"type":"VEC4"
		},
		{
			"bufferView":5,
			"componentType":5123,
			"count":32457,
			"type":"SCALAR"
		},
		{
			"bufferView":6,
			"componentType":5126,
			"count":57,
			"type":"MAT4"
		},
		{
			"bufferView":7,
			"componentType":5126,
			"count":22,
			"max":[
				0.875
			],
			"min":[
				0
			],
			"type":"SCALAR"
		},
		{
			"bufferView":8,
			"componentType":5126,
			"count":22,
			"type":"VEC3"
		},
		{
			"bufferView":9,
			"componentType":5126,
			"count":22,
			"type":"VEC4"
		},
		{
			"bufferView":10,
			"componentType":5126,
			"count":2,
			"max":[
				0.875
			],
			"min":[
				0
			],
			"type":"SCALAR"
		},
		{
			"bufferView":11,
			"componentType":5126,
			"count":2,
			"type":"VEC3"
		},
		{
			"bufferView":12,
			"componentType":5126,
			"count":22,
			"type":"VEC3"
		},
		{
			"bufferView":13,
			"componentType":5126,
			"count":22,
			"type":"VEC4"
		},
		{
			"bufferView":14,
			"componentType":5126,
			"count":2,
			"type":"VEC3"
		},
		{
			"bufferView":15,
			"componentType":5126,
			"count":22,
			"type":"VEC3"
		},
		{
			"bufferView":16,
			"componentType":5126,
			"count":22,
			"type":"VEC4"
		},
		{
			"bufferView":17,
			"componentType":5126,
			"count":2,
			"type":"VEC3"
		},
		{
			"bufferView":18,
			"componentType":5126,
			"count":22,
			"type":"VEC3"
		},
		{
			"bufferView":19,
			"componentType":5126,
			"count":22,
			"type":"VEC4"
		},
		{
			"bufferView":20,
			"componentType":5126,
			"count":2,
			"type":"VEC3"
		},
		{
			"bufferView":21,
			"componentType":5126,
			"count":22,
			"type":"VEC3"
		},
		{
			"bufferView":22,
			"componentType":5126,
			"count":22,
			"type":"VEC4"
		},
		{
			"bufferView":23,
			"componentType":5126,
			"count":2,
			"type":"VEC3"
		},
		{
			"bufferView":24,
			"componentType":5126,
			"count":22,
			"type":"VEC3"
		},
		{
			"bufferView":25,
			"componentType":5126,
			"count":22,
			"type":"VEC4"
		},
		{
			"bufferView":26,
			"componentType":5126,
			"count":2,
			"type":"VEC3"
		},
		{
			"bufferView":27,
			"componentType":5126,
			"count":22,
			"type":"VEC3"
		},
		{
			"bufferView":28,
			"componentType":5126,
			"count":2,
			"type":"VEC4"
		},
		{
			"bufferView":29,
			"componentType":5126,
			"count":2,
			"type":"VEC3"
		},
		{
			"bufferView":30,
			"componentType":5126,
			"count":22,
			"type":"VEC3"
		},
		{
			"bufferView":31,
			"componentType":5126,
			"count":22,
			"type":"VEC4"
		},
		{
			"bufferView":32,
			"componentType":5126,
			"count":2,
			"type":"VEC3"
		},
		{
			"bufferView":33,
			"componentType":5126,
			"count":22,
			"type":"VEC3"
		},
		{
			"bufferView":34,
			"componentType":5126,
			"count":22,
			"type":"VEC4"
		},
		{
			"bufferView":35,
			"componentType":5126,
			"count":2,
			"type":"VEC3"
		},
		{
			"bufferView":36,
			"componentType":5126,
			"count":22,
			"type":"VEC3"
		},
		{
			"bufferView":37,
			"componentType":5126,
			"count":22,
			"type":"VEC4"
		},
		{
			"bufferView":38,
			"componentType":5126,
			"count":2,
			"type":"VEC3"
		},
		{
			"bufferView":39,
			"componentType":5126,
			"count":22,
			"type":"VEC3"
		},
		{
			"bufferView":40,
			"componentType":5126,
			"count":2,
			"type":"VEC4"
		},
		{
			"bufferView":41,
			"componentType":5126,
			"count":2,
			"type":"VEC3"
		},
		{
			"bufferView":42,
			"componentType":5126,
			"count":22,
			"type":"VEC3"
		},
		{
			"bufferView":43,
			"componentType":5126,
			"count":2,
			"type":"VEC4"
		},
		{
			"bufferView":44,
			"componentType":5126,
			"count":2,
			"type":"VEC3"
		},
		{
			"bufferView":45,
			"componentType":5126,
			"count":22,
			"type":"VEC3"
		},
		{
			"bufferView":46,
			"componentType":5126,
			"count":2,
			"type":"VEC4"
		},
		{
			"bufferView":47,
			"componentType":5126,
			"count":2,
			"type":"VEC3"
		},
		{
			"bufferView":48,
			"componentType":5126,
			"count":22,
			"type":"VEC3"
		},
		{
			"bufferView":49,
			"componentType":5126,
			"count":2,
			"type":"VEC4"
		},
		{
			"bufferView":50,
			"componentType":5126,
			"count":2,
			"type":"VEC3"
		},
		{
			"bufferView":51,
			"componentType":5126,
			"count":22,
			"type":"VEC3"
		},
		{
			"bufferView":52,
			"componentType":5126,
			"count":2,
			"type":"VEC4"
		},
		{
			"bufferView":53,
			"componentType":5126,
			"count":2,
			"type":"VEC3"
		},
		{
			"bufferView":54,
			"componentType":5126,
			"count":22,
			"type":"VEC3"
		},
		{
			"bufferView":55,
			"componentType":5126,
			"count":22,
			"type":"VEC4"
		},
		{
			"bufferView":56,
			"componentType":5126,
			"count":2,
			"type":"VEC3"
		},
		{
			"bufferView":57,
			"componentType":5126,
			"count":22,
			"type":"VEC3"
		},
		{
			"bufferView":58,
			"componentType":5126,
			"count":22,
			"type":"VEC4"
		},
		{
			"bufferView":59,
			"componentType":5126,
			"count":2,
			"type":"VEC3"
		},
		{
			"bufferView":60,
			"componentType":5126,
			"count":22,
			"type":"VEC3"
		},
		{
			"bufferView":61,
			"componentType":5126,
			"count":2,
			"type":"VEC4"
		},
		{
			"bufferView":62,
			"componentType":5126,
			"count":2,
			"type":"VEC3"
		},
		{
			"bufferView":63,
			"componentType":5126,
			"count":22,
			"type":"VEC3"
		},
		{
			"bufferView":64,
			"componentType":5126,
			"count":2,
			"type":"VEC4"
		},
		{
			"bufferView":65,
			"componentType":5126,
			"count":2,
			"type":"VEC3"
		},
		{
			"bufferView":66,
			"componentType":5126,
			"count":22,
			"type":"VEC3"
		},
		{
			"bufferView":67,
			"componentType":5126,
			"count":22,
			"type":"VEC4"
		},
		{
			"bufferView":68,
			"componentType":5126,
			"count":2,
			"type":"VEC3"
		},
		{
			"bufferView":69,
			"componentType":5126,
			"count":22,
			"type":"VEC3"
		},
		{
			"bufferView":70,
			"componentType":5126,
			"count":22,
			"type":"VEC4"
		},
		{
			"bufferView":71,
			"componentType":5126,
			"count":2,
			"type":"VEC3"
		},
		{
			"bufferView":72,
			"componentType":5126,
			"count":22,
			"type":"VEC3"
		},
		{
			"bufferView":73,
			"componentType":5126,
			"count":2,
			"type":"VEC4"
		},
		{
			"bufferView":74,
			"componentType":5126,
			"count":2,
			"type":"VEC3"
		},
		{
			"bufferView":75,
			"componentType":5126,
			"count":22,
			"type":"VEC3"
		},
		{
			"bufferView":76,
			"componentType":5126,
			"count":2,
			"type":"VEC4"
		},
		{
			"bufferView":77,
			"componentType":5126,
			"count":2,
			"type":"VEC3"
		},
		{
			"bufferView":78,
			"componentType":5126,
			"count":22,
			"type":"VEC3"
		},
		{
			"bufferView":79,
			"componentType":5126,
			"count":22,
			"type":"VEC4"
		},
		{
			"bufferView":80,
			"componentType":5126,
			"count":2,
			"type":"VEC3"
		},
		{
			"bufferView":81,
			"componentType":5126,
			"count":22,
			"type":"VEC3"
		},
		{
			"bufferView":82,
			"componentType":5126,
			"count":22,
			"type":"VEC4"
		},
		{
			"bufferView":83,
			"componentType":5126,
			"count":2,
			"type":"VEC3"
		},
		{
			"bufferView":84,
			"componentType":5126,
			"count":22,
			"type":"VEC3"
		},
		{
			"bufferView":85,
			"componentType":5126,
			"count":2,
			"type":"VEC4"
		},
		{
			"bufferView":86,
			"componentType":5126,
			"count":2,
			"type":"VEC3"
		},
		{
			"bufferView":87,
			"componentType":5126,
			"count":22,
			"type":"VEC3"
		},
		{
			"bufferView":88,
			"componentType":5126,
			"count":2,
			"type":"VEC4"
		},
		{
			"bufferView":89,
			"componentType":5126,
			"count":2,
			"type":"VEC3"
		},
		{
			"bufferView":90,
			"componentType":5126,
			"count":22,
			"type":"VEC3"
		},
		{
			"bufferView":91,
			"componentType":5126,
			"count":22,
			"type":"VEC4"
		},
		{
			"bufferView":92,
			"componentType":5126,
			"count":2,
			"type":"VEC3"
		},
		{
			"bufferView":93,
			"componentType":5126,
			"count":22,
			"type":"VEC3"
		},
		{
			"bufferView":94,
			"componentType":5126,
			"count":22,
			"type":"VEC4"
		},
		{
			"bufferView":95,
			"componentType":5126,
			"count":2,
			"type":"VEC3"
		},
		{
			"bufferView":96,
			"componentType":5126,
			"count":22,
			"type":"VEC3"
		},
		{
			"bufferView":97,
			"componentType":5126,
			"count":22,
			"type":"VEC4"
		},
		{
			"bufferView":98,
			"componentType":5126,
			"count":2,
			"type":"VEC3"
		},
		{
			"bufferView":99,
			"componentType":5126,
			"count":22,
			"type":"VEC3"
		},
		{
			"bufferView":100,
			"componentType":5126,
			"count":22,
			"type":"VEC4"
		},
		{
			"bufferView":101,
			"componentType":5126,
			"count":2,
			"type":"VEC3"
		},
		{
			"bufferView":102,
			"componentType":5126,
			"count":22,
			"type":"VEC3"
		},
		{
			"bufferView":103,
			"componentType":5126,
			"count":2,
			"type":"VEC4"
		},
		{
			"bufferView":104,
			"componentType":5126,
			"count":2,
			"type":"VEC3"
		},
		{
			"bufferView":105,
			"componentType":5126,
			"count":22,
			"type":"VEC3"
		},
		{
			"bufferView":106,
			"componentType":5126,
			"count":2,
			"type":"VEC4"
		},
		{
			"bufferView":107,
			"componentType":5126,
			"count":2,
			"type":"VEC3"
		},
		{
			"bufferView":108,
			"componentType":5126,
			"count":22,
			"type":"VEC3"
		},
		{
			"bufferView":109,
			"componentType":5126,
			"count":2,
			"type":"VEC4"
		},
		{
			"bufferView":110,
			"componentType":5126,
			"count":2,
			"type":"VEC3"
		},
		{
			"bufferView":111,
			"componentType":5126,
			"count":22,
			"type":"VEC3"
		},
		{
			"bufferView":112,
			"componentType":5126,
			"count":2,
			"type":"VEC4"
		},
		{
			"bufferView":113,
			"componentType":5126,
			"count":2,
			"type":"VEC3"
		},
		{
			"bufferView":114,
			"componentType":5126,
			"count":22,
			"type":"VEC3"
		},
		{
			"bufferView":115,
			"componentType":5126,
			"count":22,
			"type":"VEC4"
		},
		{
			"bufferView":116,
			"componentType":5126,
			"count":2,
			"type":"VEC3"
		},
		{
			"bufferView":117,
			"componentType":5126,
			"count":22,
			"type":"VEC3"
		},
		{
			"bufferView":118,
			"componentType":5126,
			"count":22,
			"type":"VEC4"
		},
		{
			"bufferView":119,
			"componentType":5126,
			"count":2,
			"type":"VEC3"
		},
		{
			"bufferView":120,
			"componentType":5126,
			"count":22,
			"type":"VEC3"
		},
		{
			"bufferView":121,
			"componentType":5126,
			"count":2,
			"type":"VEC4"
		},
		{
			"bufferView":122,
			"componentType":5126,
			"count":2,
			"type":"VEC3"
		},
		{
			"bufferView":123,
			"componentType":5126,
			"count":22,
			"type":"VEC3"
		},
		{
			"bufferView":124,
			"componentType":5126,
			"count":2,
			"type":"VEC4"
		},
		{
			"bufferView":125,
			"componentType":5126,
			"count":2,
			"type":"VEC3"
		},
		{
			"bufferView":126,
			"componentType":5126,
			"count":22,
			"type":"VEC3"
		},
		{
			"bufferView":127,
			"componentType":5126,
			"count":22,
			"type":"VEC4"
		},
		{
			"bufferView":128,
			"componentType":5126,
			"count":2,
			"type":"VEC3"
		},
		{
			"bufferView":129,
			"componentType":5126,
			"count":22,
			"type":"VEC3"
		},
		{
			"bufferView":130,
			"componentType":5126,
			"count":22,
			"type":"VEC4"
		},
		{
			"bufferView":131,
			"componentType":5126,
			"count":2,
			"type":"VEC3"
		},
		{
			"bufferView":132,
			"componentType":5126,
			"count":22,
			"type":"VEC3"
		},
		{
			"bufferView":133,
			"componentType":5126,
			"count":2,
			"type":"VEC4"
		},
		{
			"bufferView":134,
			"componentType":5126,
			"count":2,
			"type":"VEC3"
		},
		{
			"bufferView":135,
			"componentType":5126,
			"count":22,
			"type":"VEC3"
		},
		{
			"bufferView":136,
			"componentType":5126,
			"count":2,
			"type":"VEC4"
		},
		{
			"bufferView":137,
			"componentType":5126,
			"count":2,
			"type":"VEC3"
		},
		{
			"bufferView":138,
			"componentType":5126,
			"count":22,
			"type":"VEC3"
		},
		{
			"bufferView":139,
			"componentType":5126,
			"count":22,
			"type":"VEC4"
		},
		{
			"bufferView":140,
			"componentType":5126,
			"count":2,
			"type":"VEC3"
		},
		{
			"bufferView":141,
			"componentType":5126,
			"count":22,
			"type":"VEC3"
		},
		{
			"bufferView":142,
			"componentType":5126,
			"count":22,
			"type":"VEC4"
		},
		{
			"bufferView":143,
			"componentType":5126,
			"count":2,
			"type":"VEC3"
		},
		{
			"bufferView":144,
			"componentType":5126,
			"count":22,
			"type":"VEC3"
		},
		{
			"bufferView":145,
			"componentType":5126,
			"count":2,
			"type":"VEC4"
		},
		{
			"bufferView":146,
			"componentType":5126,
			"count":2,
			"type":"VEC3"
		},
		{
			"bufferView":147,
			"componentType":5126,
			"count":22,
			"type":"VEC3"
		},
		{
			"bufferView":148,
			"componentType":5126,
			"count":2,
			"type":"VEC4"
		},
		{
			"bufferView":149,
			"componentType":5126,
			"count":2,
			"type":"VEC3"
		},
		{
			"bufferView":150,
			"componentType":5126,
			"count":22,
			"type":"VEC3"
		},
		{
			"bufferView":151,
			"componentType":5126,
			"count":22,
			"type":"VEC4"
		},
		{
			"bufferView":152,
			"componentType":5126,
			"count":2,
			"type":"VEC3"
		},
		{
			"bufferView":153,
			"componentType":5126,
			"count":22,
			"type":"VEC3"
		},
		{
			"bufferView":154,
			"componentType":5126,
			"count":22,
			"type":"VEC4"
		},
		{
			"bufferView":155,
			"componentType":5126,
			"count":2,
			"type":"VEC3"
		},
		{
			"bufferView":156,
			"componentType":5126,
			"count":22,
			"type":"VEC3"
		},
		{
			"bufferView":157,
			"componentType":5126,
			"count":22,
			"type":"VEC4"
		},
		{
			"bufferView":158,
			"componentType":5126,
			"count":2,
			"type":"VEC3"
		},
		{
			"bufferView":159,
			"componentType":5126,
			"count":22,
			"type":"VEC3"
		},
		{
			"bufferView":160,
			"componentType":5126,
			"count":22,
			"type":"VEC4"
		},
		{
			"bufferView":161,
			"componentType":5126,
			"count":2,
			"type":"VEC3"
		},
		{
			"bufferView":162,
			"componentType":5126,
			"count":22,
			"type":"VEC3"
		},
		{
			"bufferView":163,
			"componentType":5126,
			"count":2,
			"type":"VEC4"
		},
		{
			"bufferView":164,
			"componentType":5126,
			"count":2,
			"type":"VEC3"
		},
		{
			"bufferView":165,
			"componentType":5126,
			"count":22,
			"type":"VEC3"
		},
		{
			"bufferView":166,
			"componentType":5126,
			"count":22,
			"type":"VEC4"
		},
		{
			"bufferView":167,
			"componentType":5126,
			"count":2,
			"type":"VEC3"
		},
		{
			"bufferView":168,
			"componentType":5126,
			"count":22,
			"type":"VEC3"
		},
		{
			"bufferView":169,
			"componentType":5126,
			"count":22,
			"type":"VEC4"
		},
		{
			"bufferView":170,
			"componentType":5126,
			"count":2,
			"type":"VEC3"
		},
		{
			"bufferView":171,
			"componentType":5126,
			"count":22,
			"type":"VEC3"
		},
		{
			"bufferView":172,
			"componentType":5126,
			"count":22,
			"type":"VEC4"
		},
		{
			"bufferView":173,
			"componentType":5126,
			"count":2,
			"type":"VEC3"
		},
		{
			"bufferView":174,
			"componentType":5126,
			"count":22,
			"type":"VEC3"
		},
		{
			"bufferView":175,
			"componentType":5126,
			"count":22,
			"type":"VEC4"
		},
		{
			"bufferView":176,
			"componentType":5126,
			"count":2,
			"type":"VEC3"
		},
		{
			"bufferView":177,
			"componentType":5126,
			"count":22,
			"type":"VEC3"
		},
		{
			"bufferView":178,
			"componentType":5126,
			"count":2,
			"type":"VEC4"
		},
		{
			"bufferView":179,
			"componentType":5126,
			"count":2,
			"type":"VEC3"
		}
	],
	"bufferViews":[
		{
			"buffer":0,
			"byteLength":76620,
			"byteOffset":0,
			"target":34962
		},
		{
			"buffer":0,
			"byteLength":76620,
			"byteOffset":76620,
			"target":34962
		},
		{
			"buffer":0,
			"byteLength":51080,
			"byteOffset":153240,
			"target":34962
		},
		{
			"buffer":0,
			"byteLength":25540,
			"byteOffset":204320,
			"target":34962
		},
		{
			"buffer":0,
			"byteLength":102160,
			"byteOffset":229860,
			"target":34962
		},
		{
			"buffer":0,
			"byteLength":64914,
			"byteOffset":332020,
			"target":34963
		},
		{
			"buffer":0,
			"byteLength":3648,
			"byteOffset":396936
		},
		{
			"buffer":0,
			"byteLength":88,
			"byteOffset":400584
		},
		{
			"buffer":0,
			"byteLength":264,
			"byteOffset":400672
		},
		{
			"buffer":0,
			"byteLength":352,
			"byteOffset":400936
		},
		{
			"buffer":0,
			"byteLength":8,
			"byteOffset":401288
		},
		{
			"buffer":0,
			"byteLength":24,
			"byteOffset":401296
		},
		{
			"buffer":0,
			"byteLength":264,
			"byteOffset":401320
		},
		{
			"buffer":0,
			"byteLength":352,
			"byteOffset":401584
		},
		{
			"buffer":0,
			"byteLength":24,
			"byteOffset":401936
		},
		{
			"buffer":0,
			"byteLength":264,
			"byteOffset":401960
		},
		{
			"buffer":0,
			"byteLength":352,
			"byteOffset":402224
		},
		{
			"buffer":0,
			"byteLength":24,
			"byteOffset":402576
		},
		{
			"buffer":0,
			"byteLength":264,
			"byteOffset":402600
		},
		{
			"buffer":0,
			"byteLength":352,
			"byteOffset":402864
		},
		{
			"buffer":0,
			"byteLength":24,
			"byteOffset":403216
		},
		{
			"buffer":0,
			"byteLength":264,
			"byteOffset":403240
		},
		{
			"buffer":0,
			"byteLength":352,
			"byteOffset":403504
		},
		{
			"buffer":0,
			"byteLength":24,
			"byteOffset":403856
		},
		{
			"buffer":0,
			"byteLength":264,
			"byteOffset":403880
		},
		{
			"buffer":0,
			"byteLength":352,
			"byteOffset":404144
		},
		{
			"buffer":0,
			"byteLength":24,
			"byteOffset":404496
		},
		{
			"buffer":0,
			"byteLength":264,
			"byteOffset":404520
		},
		{
			"buffer":0,
			"byteLength":32,
			"byteOffset":404784
		},
		{
			"buffer":0,
			"byteLength":24,
			"byteOffset":404816
		},
		{
			"buffer":0,
			"byteLength":264,
			"byteOffset":404840
		},
		{
			"buffer":0,
			"byteLength":352,
			"byteOffset":405104
		},
		{
			"buffer":0,
			"byteLength":24,
			"byteOffset":405456
		},
		{
			"buffer":0,
			"byteLength":264,
			"byteOffset":405480
		},
		{
			"buffer":0,
			"byteLength":352,
			"byteOffset":405744
		},
		{
			"buffer":0,
			"byteLength":24,
			"byteOffset":406096
		},
		{
			"buffer":0,
			"byteLength":264,
			"byteOffset":406120
		},
		{
			"buffer":0,
			"byteLength":352,
			"byteOffset":406384
		},
		{
			"buffer":0,
			"byteLength":24,
			"byteOffset":406736
		},
		{
			"buffer":0,
			"byteLength":264,
			"byteOffset":406760
		},
		{
			"buffer":0,
			"byteLength":32,
			"byteOffset":407024
		},
		{
			"buffer":0,
			"byteLength":24,
			"byteOffset":407056
		},
		{
			"buffer":0,
			"byteLength":264,
			"byteOffset":407080
		},
		{
			"buffer":0,
			"byteLength":32,
			"byteOffset":407344
		},
		{
			"buffer":0,
			"byteLength":24,
			"byteOffset":407376
		},
		{
			"buffer":0,
			"byteLength":264,
			"byteOffset":407400
		},
		{
			"buffer":0,
			"byteLength":32,
			"byteOffset":407664
		},
		{
			"buffer":0,
			"byteLength":24,
			"byteOffset":407696
		},
		{
			"buffer":0,
			"byteLength":264,
			"byteOffset":407720
		},
		{
			"buffer":0,
			"byteLength":32,
			"byteOffset":407984
		},
		{
			"buffer":0,
			"byteLength":24,
			"byteOffset":408016
		},
		{
			"buffer":0,
			"byteLength":264,
			"byteOffset":408040
		},
		{
			"buffer":0,
			"byteLength":32,
			"byteOffset":408304
		},
		{
			"buffer":0,
			"byteLength":24,
			"byteOffset":408336
		},
		{
			"buffer":0,
			"byteLength":264,
			"byteOffset":408360
		},
		{
			"buffer":0,
			"byteLength":352,
			"byteOffset":408624
		},
		{
			"buffer":0,
			"byteLength":24,
			"byteOffset":408976
		},
		{
			"buffer":0,
			"byteLength":264,
			"byteOffset":409000
		},
		{
			"buffer":0,
			"byteLength":352,
			"byteOffset":409264
		},
		{
			"buffer":0,
			"byteLength":24,
			"byteOffset":409616
		},
		{
			"buffer":0,
			"byteLength":264,
			"byteOffset":409640
		},
		{
			"buffer":0,
			"byteLength":32,
			"byteOffset":409904
		},
		{
			"buffer":0,
			"byteLength":24,
			"byteOffset":409936
		},
		{
			"buffer":0,
			"byteLength":264,
			"byteOffset":409960
		},
		{
			"buffer":0,
			"byteLength":32,
			"byteOffset":410224
		},
		{
			"buffer":0,
			"byteLength":24,
			"byteOffset":410256
		},
		{
			"buffer":0,
			"byteLength":264,
			"byteOffset":410280
		},
		{
			"buffer":0,
			"byteLength":352,
			"byteOffset":410544
		},
		{
			"buffer":0,
			"byteLength":24,
			"byteOffset":410896
		},
		{
			"buffer":0,
			"byteLength":264,
			"byteOffset":410920
		},
		{
			"buffer":0,
			"byteLength":352,
			"byteOffset":411184
		},
		{
			"buffer":0,
			"byteLength":24,
			"byteOffset":411536
		},
		{
			"buffer":0,
			"byteLength":264,
			"byteOffset":411560
		},
		{
			"buffer":0,
			"byteLength":32,
			"byteOffset":411824
		},
		{
			"buffer":0,
			"byteLength":24,
			"byteOffset":411856
		},
		{
			"buffer":0,
			"byteLength":264,
			"byteOffset":411880
		},
		{
			"buffer":0,
			"byteLength":32,
			"byteOffset":412144
		},
		{
			"buffer":0,
			"byteLength":24,
			"byteOffset":412176
		},
		{
			"buffer":0,
			"byteLength":264,
			"byteOffset":412200
		},
		{
			"buffer":0,
			"byteLength":352,
			"byteOffset":412464
		},
		{
			"buffer":0,
			"byteLength":24,
			"byteOffset":412816
		},
		{
			"buffer":0,
			"byteLength":264,
			"byteOffset":412840
		},
		{
			"buffer":0,
			"byteLength":352,
			"byteOffset":413104
		},
		{
			"buffer":0,
			"byteLength":24,
			"byteOffset":413456
		},
		{
			"buffer":0,
			"byteLength":264,
			"byteOffset":413480
		},
		{
			"buffer":0,
			"byteLength":32,
			"byteOffset":413744
		},
		{
			"buffer":0,
			"byteLength":24,
			"byteOffset":413776
		},
		{
			"buffer":0,
			"byteLength":264,
			"byteOffset":413800
		},
		{
			"buffer":0,
			"byteLength":32,
			"byteOffset":414064
		},
		{
			"buffer":0,
			"byteLength":24,
			"byteOffset":414096
		},
		{
			"buffer":0,
			"byteLength":264,
			"byteOffset":414120
		},
		{
			"buffer":0,
			"byteLength":352,
			"byteOffset":414384
		},
		{
			"buffer":0,
			"byteLength":24,
			"byteOffset":414736
		},
		{
			"buffer":0,
			"byteLength":264,
			"byteOffset":414760
		},
		{
			"buffer":0,
			"byteLength":352,
			"byteOffset":415024
		},
		{
			"buffer":0,
			"byteLength":24,
			"byteOffset":415376
		},
		{
			"buffer":0,
			"byteLength":264,
			"byteOffset":415400
		},
		{
			"buffer":0,
			"byteLength":352,
			"byteOffset":415664
		},
		{
			"buffer":0,
			"byteLength":24,
			"byteOffset":416016
		},
		{
			"buffer":0,
			"byteLength":264,
			"byteOffset":416040
		},
		{
			"buffer":0,
			"byteLength":352,
			"byteOffset":416304
		},
		{
			"buffer":0,
			"byteLength":24,
			"byteOffset":416656
		},
		{
			"buffer":0,
			"byteLength":264,
			"byteOffset":416680
		},
		{
			"buffer":0,
			"byteLength":32,
			"byteOffset":416944
		},
		{
			"buffer":0,
			"byteLength":24,
			"byteOffset":416976
		},
		{
			"buffer":0,
			"byteLength":264,
			"byteOffset":417000
		},
		{
			"buffer":0,
			"byteLength":32,
			"byteOffset":417264
		},
		{
			"buffer":0,
			"byteLength":24,
			"byteOffset":417296
		},
		{
			"buffer":0,
			"byteLength":264,
			"byteOffset":417320
		},
		{
			"buffer":0,
			"byteLength":32,
			"byteOffset":417584
		},
		{
			"buffer":0,
			"byteLength":24,
			"byteOffset":417616
		},
		{
			"buffer":0,
			"byteLength":264,
			"byteOffset":417640
		},
		{
			"buffer":0,
			"byteLength":32,
			"byteOffset":417904
		},
		{
			"buffer":0,
			"byteLength":24,
			"byteOffset":417936
		},
		{
			"buffer":0,
			"byteLength":264,
			"byteOffset":417960
		},
		{
			"buffer":0,
			"byteLength":352,
			"byteOffset":418224
		},
		{
			"buffer":0,
			"byteLength":24,
			"byteOffset":418576
		},
		{
			"buffer":0,
			"byteLength":264,
			"byteOffset":418600
		},
		{
			"buffer":0,
			"byteLength":352,
			"byteOffset":418864
		},
		{
			"buffer":0,
			"byteLength":24,
			"byteOffset":419216
		},
		{
			"buffer":0,
			"byteLength":264,
			"byteOffset":419240
		},
		{
			"buffer":0,
			"byteLength":32,
			"byteOffset":419504
		},
		{
			"buffer":0,
			"byteLength":24,
			"byteOffset":419536
		},
		{
			"buffer":0,
			"byteLength":264,
			"byteOffset":419560
		},
		{
			"buffer":0,
			"byteLength":32,
			"byteOffset":419824
		},
		{
			"buffer":0,
			"byteLength":24,
			"byteOffset":419856
		},
		{
			"buffer":0,
			"byteLength":264,
			"byteOffset":419880
		},
		{
			"buffer":0,
			"byteLength":352,
			"byteOffset":420144
		},
		{
			"buffer":0,
			"byteLength":24,
			"byteOffset":420496
		},
		{
			"buffer":0,
			"byteLength":264,
			"byteOffset":420520
		},
		{
			"buffer":0,
			"byteLength":352,
			"byteOffset":420784
		},
		{
			"buffer":0,
			"byteLength":24,
			"byteOffset":421136
		},
		{
			"buffer":0,
			"byteLength":264,
			"byteOffset":421160
		},
		{
			"buffer":0,
			"byteLength":32,
			"byteOffset":421424
		},
		{
			"buffer":0,
			"byteLength":24,
			"byteOffset":421456
		},
		{
			"buffer":0,
			"byteLength":264,
			"byteOffset":421480
		},
		{
			"buffer":0,
			"byteLength":32,
			"byteOffset":421744
		},
		{
			"buffer":0,
			"byteLength":24,
			"byteOffset":421776
		},
		{
			"buffer":0,
			"byteLength":264,
			"byteOffset":421800
		},
		{
			"buffer":0,
			"byteLength":352,
			"byteOffset":422064
		},
		{
			"buffer":0,
			"byteLength":24,
			"byteOffset":422416
		},
		{
			"buffer":0,
			"byteLength":264,
			"byteOffset":422440
		},
		{
			"buffer":0,
			"byteLength":352,
			"byteOffset":422704
		},
		{
			"buffer":0,
			"byteLength":24,
			"byteOffset":423056
		},
		{
			"buffer":0,
			"byteLength":264,
			"byteOffset":423080
		},
		{
			"buffer":0,
			"byteLength":32,
			"byteOffset":423344
		},
		{
			"buffer":0,
			"byteLength":24,
			"byteOffset":423376
		},
		{
			"buffer":0,
			"byteLength":264,
			"byteOffset":423400
		},
		{
			"buffer":0,
			"byteLength":32,
			"byteOffset":423664
		},
		{
			"buffer":0,
			"byteLength":24,
			"byteOffset":423696
		},
		{
			"buffer":0,
			"byteLength":264,
			"byteOffset":423720
		},
		{
			"buffer":0,
			"byteLength":352,
			"byteOffset":423984
		},
		{
			"buffer":0,
			"byteLength":24,
			"byteOffset":424336
		},
		{
			"buffer":0,
			"byteLength":264,
			"byteOffset":424360
		},
		{
			"buffer":0,
			"byteLength":352,
			"byteOffset":424624
		},
		{
			"buffer":0,
			"byteLength":24,
			"byteOffset":424976
		},
		{
			"buffer":0,
			"byteLength":264,
			"byteOffset":425000
		},
		{
			"buffer":0,
			"byteLength":352,
			"byteOffset":425264
		},
		{
			"buffer":0,
			"byteLength":24,
			"byteOffset":425616
		},
		{
			"buffer":0,
			"byteLength":264,
			"byteOffset":425640
		},
		{
			"buffer":0,
			"byteLength":352,
			"byteOffset":425904
		},
		{
			"buffer":0,
			"byteLength":24,
			"byteOffset":426256
		},
		{
			"buffer":0,
			"byteLength":264,
			"byteOffset":426280
		},
		{
			"buffer":0,
			"byteLength":32,
			"byteOffset":426544
		},
		{
			"buffer":0,
			"byteLength":24,
			"byteOffset":426576
		},
		{
			"buffer":0,
			"byteLength":264,
			"byteOffset":426600
		},
		{
			"buffer":0,
			"byteLength":352,
			"byteOffset":426864
		},
		{
			"buffer":0,
			"byteLength":24,
			"byteOffset":427216
		},
		{
			"buffer":0,
			"byteLength":264,
			"byteOffset":427240
		},
		{
			"buffer":0,
			"byteLength":352,
			"byteOffset":427504
		},
		{
			"buffer":0,
			"byteLength":24,
			"byteOffset":427856
		},
		{
			"buffer":0,
			"byteLength":264,
			"byteOffset":427880
		},
		{
			"buffer":0,
			"byteLength":352,
			"byteOffset":428144
		},
		{
			"buffer":0,
			"byteLength":24,
			"byteOffset":428496
		},
		{
			"buffer":0,
			"byteLength":264,
			"byteOffset":428520
		},
		{
			"buffer":0,
			"byteLength":352,
			"byteOffset":428784
		},
		{
			"buffer":0,
			"byteLength":24,
			"byteOffset":429136
		},
		{
			"buffer":0,
			"byteLength":264,
			"byteOffset":429160
		},
		{
			"buffer":0,
			"byteLength":32,
			"byteOffset":429424
		},
		{
			"buffer":0,
			"byteLength":24,
			"byteOffset":429456
		}
	],
	"samplers":[
		{
			"magFilter":9729,
			"minFilter":9987
		}
	],
	"buffers":[
		{
			"byteLength":429480,
			"uri":"enemy_run.bin"
		}
	]
}
