{
	"asset":{
		"generator":"Khronos glTF Blender I/O v4.5.48",
		"version":"2.0"
	},
	"scene":0,
	"scenes":[
		{
			"name":"Scene",
			"nodes":[
				34
			]
		}
	],
	"nodes":[
		{
			"name":"mixamorig:HeadTop_End",
			"rotation":[
				-1.7763568394002505e-15,
				0,
				0,
				1
			],
			"translation":[
				0,
				0.2717899680137634,
				0.018412671983242035
			]
		},
		{
			"children":[
				0
			],
			"name":"mixamorig:Head",
			"rotation":[
				-1.7763568394002505e-15,
				0,
				0,
				1
			],
			"translation":[
				0,
				0.10052067041397095,
				0.006809871643781662
			]
		},
		{
			"children":[
				1
			],
			"name":"mixamorig:Neck",
			"rotation":[
				0.0015699028735980392,
				0,
				0,
				0.9999988079071045
			],
			"scale":[
				1,
				1,
				0.9999998807907104
			],
			"translation":[
				5.820766091346741e-11,
				0.10987520217895508,
				-2.7939677238464355e-09
			]
		},
		{
			"name":"mixamorig:LeftHandIndex4",
			"rotation":[
				-3.4924594327634395e-09,
				-3.725290298461914e-09,
				6.068149094318187e-09,
				1
			],
			"scale":[
				1,
				1.0000001192092896,
				1
			],
			"translation":[
				-0.0004134625196456909,
				0.004292333032935858,
				-0.001033004024066031
			]
		},
		{
			"children":[
				3
			],
			"name":"mixamorig:LeftHandIndex3",
			"rotation":[
				5.587935003603661e-09,
				9.313225746154785e-10,
				-8.498318493366241e-09,
				1
			],
			"scale":[
				1,
				1.0000001192092896,
				1
			],
			"translation":[
				0.004270967096090317,
				0.008031990379095078,
				0.0010649737669155002
			]
		},
		{
			"children":[
				4
			],
			"name":"mixamorig:LeftHandIndex2",
			"rotation":[
				2.9776715564366896e-06,
				-8.800999751201743e-08,
				1.1562953261545772e-07,
				1
			],
			"scale":[
				0.9999999403953552,
				0.9999998807907104,
				0.9999998807907104
			],
			"translation":[
				5.587935447692871e-09,
				0.008919944986701012,
				3.94647940993309e-08
			]
		},
		{
			"children":[
				5
			],
			"name":"mixamorig:LeftHandIndex1",
			"rotation":[
				0.08999735862016678,
				-0.0005752450088039041,
				-0.006369221489876509,
				0.9959214925765991
			],
			"scale":[
				1,
				0.9999999403953552,
				1
			],
			"translation":[
				1.30385160446167e-08,
				0.013229177333414555,
				-1.1362135410308838e-07
			]
		},
		{
			"children":[
				6
			],
			"name":"mixamorig:LeftHand",
			"rotation":[
				-0.02114391140639782,
				-0.0029745714273303747,
				0.13927114009857178,
				0.9900240302085876
			],
			"scale":[
				1,
				1.0000001192092896,
				1.000000238418579
			],
			"translation":[
				-2.7939677238464355e-09,
				0.16501425206661224,
				5.820766091346741e-10
			]
		},
		{
			"children":[
				7
			],
			"name":"mixamorig:LeftForeArm",
			"rotation":[
				-0.09973271936178207,
				-0.011799647472798824,
				0.11689955741167068,
				0.9880529642105103
			],
			"scale":[
				0.9999998211860657,
				1,
				0.9999999403953552
			],
			"translation":[
				1.1641532182693481e-08,
				0.09550337493419647,
				-8.66129994392395e-08
			]
		},
		{
			"children":[
				8
			],
			"name":"mixamorig:LeftArm",
			"rotation":[
				-0.057153232395648956,
				0.008524907752871513,
				-0.1472829431295395,
				0.987405002117157
			],
			"scale":[
				1.0000001192092896,
				1,
				1
			],
			"translation":[
				6.984919309616089e-10,
				0.1278863251209259,
				2.799060894176364e-08
			]
		},
		{
			"children":[
				9
			],
			"name":"mixamorig:LeftShoulder",
			"rotation":[
				0.5549970865249634,
				0.44417718052864075,
				-0.5166366696357727,
				0.4772539436817169
			],
			"scale":[
				0.9999998807907104,
				0.9999998807907104,
				0.9999998807907104
			],
			"translation":[
				0.0631948933005333,
				0.09991604089736938,
				0.004525518510490656
			]
		},
		{
			"name":"mixamorig:RightHandIndex4",
			"rotation":[
				7.450582373280668e-09,
				3.3527612686157227e-08,
				7.4505797087454084e-09,
				1
			],
			"scale":[
				1,
				0.9999999403953552,
				0.9999999403953552
			],
			"translation":[
				-1.30385160446167e-08,
				7.775798439979553e-05,
				-1.043081283569336e-07
			]
		},
		{
			"children":[
				11
			],
			"name":"mixamorig:RightHandIndex3",
			"rotation":[
				7.450582373280668e-09,
				9.313226634333205e-09,
				-8.881784197001252e-16,
				1
			],
			"scale":[
				1,
				0.9999999403953552,
				0.9999999403953552
			],
			"translation":[
				-4.6566128730773926e-08,
				7.773563265800476e-05,
				-2.9802322387695312e-08
			]
		},
		{
			"children":[
				12
			],
			"name":"mixamorig:RightHandIndex2",
			"rotation":[
				-2.7008354663848877e-06,
				-1.2312084436416626e-06,
				-2.0693987607955933e-06,
				1
			],
			"scale":[
				1,
				0.9999998807907104,
				1
			],
			"translation":[
				1.30385160446167e-08,
				5.1857903599739075e-05,
				-4.6566128730773926e-08
			]
		},
		{
			"children":[
				13
			],
			"name":"mixamorig:RightHandIndex1",
			"rotation":[
				0.8943754434585571,
				-0.10370035469532013,
				0.33713266253471375,
				0.27510061860084534
			],
			"scale":[
				1.0000001192092896,
				1.0000001192092896,
				1
			],
			"translation":[
				-3.725290298461914e-09,
				0.03443484008312225,
				1.1059455573558807e-08
			]
		},
		{
			"children":[
				14
			],
			"name":"mixamorig:RightHand",
			"rotation":[
				0.022578995674848557,
				0.0009887906489893794,
				0.043736763298511505,
				0.9987874627113342
			],
			"scale":[
				0.9999999403953552,
				1,
				0.9999998211860657
			],
			"translation":[
				2.3865140974521637e-09,
				0.16498397290706635,
				-9.98261384665966e-09
			]
		},
		{
			"children":[
				15
			],
			"name":"mixamorig:RightForeArm",
			"rotation":[
				-0.09706617146730423,
				0.005342524964362383,
				-0.05469691380858421,
				0.9937594532966614
			],
			"scale":[
				0.9999999403953552,
				0.9999999403953552,
				1
			],
			"translation":[
				-9.313225746154785e-10,
				0.09371571987867355,
				-1.6239937394857407e-08
			]
		},
		{
			"children":[
				16
			],
			"name":"mixamorig:RightArm",
			"rotation":[
				-0.059822969138622284,
				-0.0040899356827139854,
				0.06808453798294067,
				0.9958760142326355
			],
			"scale":[
				0.9999998211860657,
				1,
				0.9999999403953552
			],
			"translation":[
				0,
				0.12760375440120697,
				-3.371405910002068e-08
			]
		},
		{
			"children":[
				17
			],
			"name":"mixamorig:RightShoulder",
			"rotation":[
				0.5430283546447754,
				-0.4549986720085144,
				0.5292918086051941,
				0.46684759855270386
			],
			"scale":[
				1.0000001192092896,
				1.0000001192092896,
				1
			],
			"translation":[
				-0.0631948933005333,
				0.09992517530918121,
				0.0016174023039638996
			]
		},
		{
			"children":[
				2,
				10,
				18
			],
			"name":"mixamorig:Spine2",
			"rotation":[
				5.820766091346741e-10,
				0,
				0,
				1
			],
			"translation":[
				5.820766091346741e-11,
				0.09766682237386703,
				3.4924596548080444e-10
			]
		},
		{
			"children":[
				19
			],
			"name":"mixamorig:Spine1",
			"rotation":[
				3.725290298461914e-09,
				0,
				0,
				1
			],
			"translation":[
				5.820766091346741e-11,
				0.08545847237110138,
				1.7462298274040222e-09
			]
		},
		{
			"children":[
				20
			],
			"name":"mixamorig:Spine",
			"rotation":[
				-0.0015699071809649467,
				0,
				0,
				0.9999988079071045
			],
			"scale":[
				1,
				0.9999999403953552,
				0.9999999403953552
			],
			"translation":[
				0,
				0.07324975728988647,
				-0.00022999390785116702
			]
		},
		{
			"name":"mixamorig:LeftToe_End",
			"rotation":[
				-9.289943392332134e-08,
				-6.379560346658764e-08,
				8.013741137347097e-08,
				1
			],
			"scale":[
				0.9999998211860657,
				0.9999999403953552,
				1
			],
			"translation":[
				8.352799341082573e-09,
				0.05811164155602455,
				6.984919309616089e-10
			]
		},
		{
			"children":[
				22
			],
			"name":"mixamorig:LeftToeBase",
			"rotation":[
				0.3550580143928528,
				-0.06361723691225052,
				0.02422633022069931,
				0.9323624968528748
			],
			"scale":[
				1,
				1.0000001192092896,
				1
			],
			"translation":[
				4.773028194904327e-09,
				0.1228921115398407,
				2.7939677238464355e-09
			]
		},
		{
			"children":[
				23
			],
			"name":"mixamorig:LeftFoot",
			"rotation":[
				0.46349120140075684,
				-0.12623591721057892,
				0.06690526753664017,
				0.8745079636573792
			],
			"scale":[
				1,
				0.9999998211860657,
				0.9999999403953552
			],
			"translation":[
				-8.512870408594608e-09,
				0.07455135136842728,
				7.916241884231567e-09
			]
		},
		{
			"children":[
				24
			],
			"name":"mixamorig:LeftLeg",
			"rotation":[
				-0.06984376907348633,
				-0.003210006980225444,
				0.045791227370500565,
				0.9965012669563293
			],
			"scale":[
				0.9999999403953552,
				0.9999999403953552,
				1
			],
			"translation":[
				-5.007677827961743e-09,
				0.1108020767569542,
				6.668301466561388e-10
			]
		},
		{
			"children":[
				25
			],
			"name":"mixamorig:LeftUpLeg",
			"rotation":[
				0.0002459060924593359,
				-0.021830882877111435,
				0.999698281288147,
				0.011256384663283825
			],
			"scale":[
				1.000000238418579,
				0.9999997019767761,
				1.0000011920928955
			],
			"translation":[
				0.1352948099374771,
				-0.040638506412506104,
				0.006404655519872904
			]
		},
		{
			"name":"mixamorig:RightToe_End",
			"rotation":[
				2.6520869056412266e-08,
				1.713342498987913e-07,
				-1.9933214900902385e-07,
				1
			],
			"scale":[
				1,
				0.9999999403953552,
				0.9999999403953552
			],
			"translation":[
				4.2273313738405704e-09,
				0.0556795708835125,
				1.3096723705530167e-09
			]
		},
		{
			"children":[
				27
			],
			"name":"mixamorig:RightToeBase",
			"rotation":[
				0.35955893993377686,
				0.07028600573539734,
				-0.027171840891242027,
				0.9300747513771057
			],
			"scale":[
				0.9999998807907104,
				0.9999999403953552,
				0.9999999403953552
			],
			"translation":[
				-1.57160684466362e-08,
				0.1214539110660553,
				-8.381903171539307e-09
			]
		},
		{
			"children":[
				28
			],
			"name":"mixamorig:RightFoot",
			"rotation":[
				0.4574357569217682,
				0.12898263335227966,
				-0.06725592166185379,
				0.8772643208503723
			],
			"scale":[
				1,
				1.0000001192092896,
				1.0000001192092896
			],
			"translation":[
				-1.2390955816954374e-08,
				0.07453019917011261,
				4.656612873077393e-10
			]
		},
		{
			"children":[
				29
			],
			"name":"mixamorig:RightLeg",
			"rotation":[
				-0.07579973340034485,
				0.0034910894464701414,
				-0.04584744945168495,
				0.9960623383522034
			],
			"scale":[
				1.0000001192092896,
				1,
				1
			],
			"translation":[
				1.3489625416696072e-08,
				0.11074677854776382,
				-6.835776389380044e-10
			]
		},
		{
			"children":[
				30
			],
			"name":"mixamorig:RightUpLeg",
			"rotation":[
				0.0001700075954431668,
				0.015071667730808258,
				-0.9998229742050171,
				0.011263416148722172
			],
			"scale":[
				1.000000238418579,
				1,
				1.0000003576278687
			],
			"translation":[
				-0.1352948099374771,
				-0.040638506412506104,
				0.005871691275388002
			]
		},
		{
			"children":[
				21,
				26,
				31
			],
			"name":"mixamorig:Hips",
			"rotation":[
				-0.7071067690849304,
				0,
				0,
				0.7071067690849304
			],
			"translation":[
				-0.0007724910974502563,
				-0.023662015795707703,
				-0.32046079635620117
			]
		},
		{
			"mesh":0,
			"name":"material",
			"skin":0
		},
		{
			"children":[
				33,
				32
			],
			"name":"Armature",
			"rotation":[
				0.7071068286895752,
				0,
				0,
				0.7071068286895752
			],
			"scale":[
				5,
				5,
				5
			]
		}
	],
	"animations":[
		{
			"channels":[
				{
					"sampler":0,
					"target":{
						"node":32,
						"path":"translation"
					}
				},
				{
					"sampler":1,
					"target":{
						"node":32,
						"path":"rotation"
					}
				},
				{
					"sampler":2,
					"target":{
						"node":32,
						"path":"scale"
					}
				},
				{
					"sampler":3,
					"target":{
						"node":21,
						"path":"translation"
					}
				},
				{
					"sampler":4,
					"target":{
						"node":21,
						"path":"rotation"
					}
				},
				{
					"sampler":5,
					"target":{
						"node":21,
						"path":"scale"
					}
				},
				{
					"sampler":6,
					"target":{
						"node":20,
						"path":"translation"
					}
				},
				{
					"sampler":7,
					"target":{
						"node":20,
						"path":"rotation"
					}
				},
				{
					"sampler":8,
					"target":{
						"node":20,
						"path":"scale"
					}
				},
				{
					"sampler":9,
					"target":{
						"node":19,
						"path":"translation"
					}
				},
				{
					"sampler":10,
					"target":{
						"node":19,
						"path":"rotation"
					}
				},
				{
					"sampler":11,
					"target":{
						"node":19,
						"path":"scale"
					}
				},
				{
					"sampler":12,
					"target":{
						"node":2,
						"path":"translation"
					}
				},
				{
					"sampler":13,
					"target":{
						"node":2,
						"path":"rotation"
					}
				},
				{
					"sampler":14,
					"target":{
						"node":2,
						"path":"scale"
					}
				},
				{
					"sampler":15,
					"target":{
						"node":1,
						"path":"translation"
					}
				},
				{
					"sampler":16,
					"target":{
						"node":1,
						"path":"rotation"
					}
				},
				{
					"sampler":17,
					"target":{
						"node":1,
						"path":"scale"
					}
				},
				{
					"sampler":18,
					"target":{
						"node":0,
						"path":"translation"
					}
				},
				{
					"sampler":19,
					"target":{
						"node":0,
						"path":"rotation"
					}
				},
				{
					"sampler":20,
					"target":{
						"node":0,
						"path":"scale"
					}
				},
				{
					"sampler":21,
					"target":{
						"node":10,
						"path":"translation"
					}
				},
				{
					"sampler":22,
					"target":{
						"node":10,
						"path":"rotation"
					}
				},
				{
					"sampler":23,
					"target":{
						"node":10,
						"path":"scale"
					}
				},
				{
					"sampler":24,
					"target":{
						"node":9,
						"path":"translation"
					}
				},
				{
					"sampler":25,
					"target":{
						"node":9,
						"path":"rotation"
					}
				},
				{
					"sampler":26,
					"target":{
						"node":9,
						"path":"scale"
					}
				},
				{
					"sampler":27,
					"target":{
						"node":8,
						"path":"translation"
					}
				},
				{
					"sampler":28,
					"target":{
						"node":8,
						"path":"rotation"
					}
				},
				{
					"sampler":29,
					"target":{
						"node":8,
						"path":"scale"
					}
				},
				{
					"sampler":30,
					"target":{
						"node":7,
						"path":"translation"
					}
				},
				{
					"sampler":31,
					"target":{
						"node":7,
						"path":"rotation"
					}
				},
				{
					"sampler":32,
					"target":{
						"node":7,
						"path":"scale"
					}
				},
				{
					"sampler":33,
					"target":{
						"node":6,
						"path":"translation"
					}
				},
				{
					"sampler":34,
					"target":{
						"node":6,
						"path":"rotation"
					}
				},
				{
					"sampler":35,
					"target":{
						"node":6,
						"path":"scale"
					}
				},
				{
					"sampler":36,
					"target":{
						"node":5,
						"path":"translation"
					}
				},
				{
					"sampler":37,
					"target":{
						"node":5,
						"path":"rotation"
					}
				},
				{
					"sampler":38,
					"target":{
						"node":5,
						"path":"scale"
					}
				},
				{
					"sampler":39,
					"target":{
						"node":4,
						"path":"translation"
					}
				},
				{
					"sampler":40,
					"target":{
						"node":4,
						"path":"rotation"
					}
				},
				{
					"sampler":41,
					"target":{
						"node":4,
						"path":"scale"
					}
				},
				{
					"sampler":42,
					"target":{
						"node":3,
						"path":"translation"
					}
				},
				{
					"sampler":43,
					"target":{
						"node":3,
						"path":"rotation"
					}
				},
				{
					"sampler":44,
					"target":{
						"node":3,
						"path":"scale"
					}
				},
				{
					"sampler":45,
					"target":{
						"node":18,
						"path":"translation"
					}
				},
				{
					"sampler":46,
					"target":{
						"node":18,
						"path":"rotation"
					}
				},
				{
					"sampler":47,
					"target":{
						"node":18,
						"path":"scale"
					}
				},
				{
					"sampler":48,
					"target":{
						"node":17,
						"path":"translation"
					}
				},
				{
					"sampler":49,
					"target":{
						"node":17,
						"path":"rotation"
					}
				},
				{
					"sampler":50,
					"target":{
						"node":17,
						"path":"scale"
					}
				},
				{
					"sampler":51,
					"target":{
						"node":16,
						"path":"translation"
					}
				},
				{
					"sampler":52,
					"target":{
						"node":16,
						"path":"rotation"
					}
				},
				{
					"sampler":53,
					"target":{
						"node":16,
						"path":"scale"
					}
				},
				{
					"sampler":54,
					"target":{
						"node":15,
						"path":"translation"
					}
				},
				{
					"sampler":55,
					"target":{
						"node":15,
						"path":"rotation"
					}
				},
				{
					"sampler":56,
					"target":{
						"node":15,
						"path":"scale"
					}
				},
				{
					"sampler":57,
					"target":{
						"node":14,
						"path":"translation"
					}
				},
				{
					"sampler":58,
					"target":{
						"node":14,
						"path":"rotation"
					}
				},
				{
					"sampler":59,
					"target":{
						"node":14,
						"path":"scale"
					}
				},
				{
					"sampler":60,
					"target":{
						"node":13,
						"path":"translation"
					}
				},
				{
					"sampler":61,
					"target":{
						"node":13,
						"path":"rotation"
					}
				},
				{
					"sampler":62,
					"target":{
						"node":13,
						"path":"scale"
					}
				},
				{
					"sampler":63,
					"target":{
						"node":12,
						"path":"translation"
					}
				},
				{
					"sampler":64,
					"target":{
						"node":12,
						"path":"rotation"
					}
				},
				{
					"sampler":65,
					"target":{
						"node":12,
						"path":"scale"
					}
				},
				{
					"sampler":66,
					"target":{
						"node":11,
						"path":"translation"
					}
				},
				{
					"sampler":67,
					"target":{
						"node":11,
						"path":"rotation"
					}
				},
				{
					"sampler":68,
					"target":{
						"node":11,
						"path":"scale"
					}
				},
				{
					"sampler":69,
					"target":{
						"node":26,
						"path":"translation"
					}
				},
				{
					"sampler":70,
					"target":{
						"node":26,
						"path":"rotation"
					}
				},
				{
					"sampler":71,
					"target":{
						"node":26,
						"path":"scale"
					}
				},
				{
					"sampler":72,
					"target":{
						"node":25,
						"path":"translation"
					}
				},
				{
					"sampler":73,
					"target":{
						"node":25,
						"path":"rotation"
					}
				},
				{
					"sampler":74,
					"target":{
						"node":25,
						"path":"scale"
					}
				},
				{
					"sampler":75,
					"target":{
						"node":24,
						"path":"translation"
					}
				},
				{
					"sampler":76,
					"target":{
						"node":24,
						"path":"rotation"
					}
				},
				{
					"sampler":77,
					"target":{
						"node":24,
						"path":"scale"
					}
				},
				{
					"sampler":78,
					"target":{
						"node":23,
						"path":"translation"
					}
				},
				{
					"sampler":79,
					"target":{
						"node":23,
						"path":"rotation"
					}
				},
				{
					"sampler":80,
					"target":{
						"node":23,
						"path":"scale"
					}
				},
				{
					"sampler":81,
					"target":{
						"node":22,
						"path":"translation"
					}
				},
				{
					"sampler":82,
					"target":{
						"node":22,
						"path":"rotation"
					}
				},
				{
					"sampler":83,
					"target":{
						"node":22,
						"path":"scale"
					}
				},
				{
					"sampler":84,
					"target":{
						"node":31,
						"path":"translation"
					}
				},
				{
					"sampler":85,
					"target":{
						"node":31,
						"path":"rotation"
					}
				},
				{
					"sampler":86,
					"target":{
						"node":31,
						"path":"scale"
					}
				},
				{
					"sampler":87,
					"target":{
						"node":30,
						"path":"translation"
					}
				},
				{
					"sampler":88,
					"target":{
						"node":30,
						"path":"rotation"
					}
				},
				{
					"sampler":89,
					"target":{
						"node":30,
						"path":"scale"
					}
				},
				{
					"sampler":90,
					"target":{
						"node":29,
						"path":"translation"
					}
				},
				{
					"sampler":91,
					"target":{
						"node":29,
						"path":"rotation"
					}
				},
				{
					"sampler":92,
					"target":{
						"node":29,
						"path":"scale"
					}
				},
				{
					"sampler":93,
					"target":{
						"node":28,
						"path":"translation"
					}
				},
				{
					"sampler":94,
					"target":{
						"node":28,
						"path":"rotation"
					}
				},
				{
					"sampler":95,
					"target":{
						"node":28,
						"path":"scale"
					}
				},
				{
					"sampler":96,
					"target":{
						"node":27,
						"path":"translation"
					}
				},
				{
					"sampler":97,
					"target":{
						"node":27,
						"path":"rotation"
					}
				},
				{
					"sampler":98,
					"target":{
						"node":27,
						"path":"scale"
					}
				}
			],
			"name":"Armature|mixamo.com|Layer0",
			"samplers":[
				{
					"input":7,
					"interpolation":"LINEAR",
					"output":8
				},
				{
					"input":7,
					"interpolation":"LINEAR",
					"output":9
				},
				{
					"input":10,
					"interpolation":"LINEAR",
					"output":11
				},
				{
					"input":10,
					"interpolation":"LINEAR",
					"output":12
				},
				{
					"input":7,
					"interpolation":"LINEAR",
					"output":13
				},
				{
					"input":10,
					"interpolation":"LINEAR",
					"output":14
				},
				{
					"input":10,
					"interpolation":"LINEAR",
					"output":15
				},
				{
					"input":7,
					"interpolation":"LINEAR",
					"output":16
				},
				{
					"input":10,
					"interpolation":"STEP",
					"output":17
				},
				{
					"input":10,
					"interpolation":"LINEAR",
					"output":18
				},
				{
					"input":7,
					"interpolation":"LINEAR",
					"output":19
				},
				{
					"input":10,
					"interpolation":"LINEAR",
					"output":20
				},
				{
					"input":10,
					"interpolation":"LINEAR",
					"output":21
				},
				{
					"input":7,
					"interpolation":"LINEAR",
					"output":22
				},
				{
					"input":10,
					"interpolation":"LINEAR",
					"output":23
				},
				{
					"input":10,
					"interpolation":"LINEAR",
					"output":24
				},
				{
					"input":7,
					"interpolation":"LINEAR",
					"output":25
				},
				{
					"input":10,
					"interpolation":"LINEAR",
					"output":26
				},
				{
					"input":10,
					"interpolation":"STEP",
					"output":27
				},
				{
					"input":10,
					"interpolation":"STEP",
					"output":28
				},
				{
					"input":10,
					"interpolation":"STEP",
					"output":29
				},
				{
					"input":10,
					"interpolation":"LINEAR",
					"output":30
				},
				{
					"input":7,
					"interpolation":"LINEAR",
					"output":31
				},
				{
					"input":10,
					"interpolation":"LINEAR",
					"output":32
				},
				{
					"input":10,
					"interpolation":"LINEAR",
					"output":33
				},
				{
					"input":7,
					"interpolation":"LINEAR",
					"output":34
				},
				{
					"input":10,
					"interpolation":"LINEAR",
					"output":35
				},
				{
					"input":10,
					"interpolation":"LINEAR",
					"output":36
				},
				{
					"input":7,
					"interpolation":"LINEAR",
					"output":37
				},
				{
					"input":10,
					"interpolation":"LINEAR",
					"output":38
				},
				{
					"input":10,
					"interpolation":"LINEAR",
					"output":39
				},
				{
					"input":7,
					"interpolation":"LINEAR",
					"output":40
				},
				{
					"input":10,
					"interpolation":"STEP",
					"output":41
				},
				{
					"input":10,
					"interpolation":"LINEAR",
					"output":42
				},
				{
					"input":7,
					"interpolation":"LINEAR",
					"output":43
				},
				{
					"input":10,
					"interpolation":"LINEAR",
					"output":44
				},
				{
					"input":10,
					"interpolation":"LINEAR",
					"output":45
				},
				{
					"input":7,
					"interpolation":"LINEAR",
					"output":46
				},
				{
					"input":10,
					"interpolation":"LINEAR",
					"output":47
				},
				{
					"input":10,
					"interpolation":"LINEAR",
					"output":48
				},
				{
					"input":7,
					"interpolation":"LINEAR",
					"output":49
				},
				{
					"input":10,
					"interpolation":"STEP",
					"output":50
				},
				{
					"input":10,
					"interpolation":"STEP",
					"output":51
				},
				{
					"input":10,
					"interpolation":"STEP",
					"output":52
				},
				{
					"input":10,
					"interpolation":"STEP",
					"output":53
				},
				{
					"input":10,
					"interpolation":"LINEAR",
					"output":54
				},
				{
					"input":7,
					"interpolation":"LINEAR",
					"output":55
				},
				{
					"input":10,
					"interpolation":"LINEAR",
					"output":56
				},
				{
					"input":10,
					"interpolation":"LINEAR",
					"output":57
				},
				{
					"input":7,
					"interpolation":"LINEAR",
					"output":58
				},
				{
					"input":10,
					"interpolation":"STEP",
					"output":59
				},
				{
					"input":10,
					"interpolation":"LINEAR",
					"output":60
				},
				{
					"input":7,
					"interpolation":"LINEAR",
					"output":61
				},
				{
					"input":10,
					"interpolation":"LINEAR",
					"output":62
				},
				{
					"input":10,
					"interpolation":"LINEAR",
					"output":63
				},
				{
					"input":7,
					"interpolation":"LINEAR",
					"output":64
				},
				{
					"input":10,
					"interpolation":"LINEAR",
					"output":65
				},
				{
					"input":10,
					"interpolation":"LINEAR",
					"output":66
				},
				{
					"input":7,
					"interpolation":"LINEAR",
					"output":67
				},
				{
					"input":10,
					"interpolation":"LINEAR",
					"output":68
				},
				{
					"input":10,
					"interpolation":"LINEAR",
					"output":69
				},
				{
					"input":10,
					"interpolation":"LINEAR",
					"output":70
				},
				{
					"input":10,
					"interpolation":"STEP",
					"output":71
				},
				{
					"input":10,
					"interpolation":"LINEAR",
					"output":72
				},
				{
					"input":10,
					"interpolation":"LINEAR",
					"output":73
				},
				{
					"input":10,
					"interpolation":"LINEAR",
					"output":74
				},
				{
					"input":10,
					"interpolation":"STEP",
					"output":75
				},
				{
					"input":10,
					"interpolation":"STEP",
					"output":76
				},
				{
					"input":10,
					"interpolation":"STEP",
					"output":77
				},
				{
					"input":10,
					"interpolation":"LINEAR",
					"output":78
				},
				{
					"input":7,
					"interpolation":"LINEAR",
					"output":79
				},
				{
					"input":10,
					"interpolation":"LINEAR",
					"output":80
				},
				{
					"input":10,
					"interpolation":"LINEAR",
					"output":81
				},
				{
					"input":7,
					"interpolation":"LINEAR",
					"output":82
				},
				{
					"input":10,
					"interpolation":"STEP",
					"output":83
				},
				{
					"input":10,
					"interpolation":"LINEAR",
					"output":84
				},
				{
					"input":7,
					"interpolation":"LINEAR",
					"output":85
				},
				{
					"input":10,
					"interpolation":"LINEAR",
					"output":86
				},
				{
					"input":10,
					"interpolation":"LINEAR",
					"output":87
				},
				{
					"input":7,
					"interpolation":"LINEAR",
					"output":88
				},
				{
					"input":10,
					"interpolation":"LINEAR",
					"output":89
				},
				{
					"input":10,
					"interpolation":"STEP",
					"output":90
				},
				{
					"input":10,
					"interpolation":"STEP",
					"output":91
				},
				{
					"input":10,
					"interpolation":"STEP",
					"output":92
				},
				{
					"input":10,
					"interpolation":"LINEAR",
					"output":93
				},
				{
					"input":7,
					"interpolation":"LINEAR",
					"output":94
				},
				{
					"input":10,
					"interpolation":"LINEAR",
					"output":95
				},
				{
					"input":10,
					"interpolation":"LINEAR",
					"output":96
				},
				{
					"input":7,
					"interpolation":"LINEAR",
					"output":97
				},
				{
					"input":10,
					"interpolation":"STEP",
					"output":98
				},
				{
					"input":10,
					"interpolation":"LINEAR",
					"output":99
				},
				{
					"input":7,
					"interpolation":"LINEAR",
					"output":100
				},
				{
					"input":10,
					"interpolation":"LINEAR",
					"output":65
				},
				{
					"input":10,
					"interpolation":"LINEAR",
					"output":101
				},
				{
					"input":7,
					"interpolation":"LINEAR",
					"output":102
				},
				{
					"input":10,
					"interpolation":"LINEAR",
					"output":103
				},
				{
					"input":10,
					"interpolation":"STEP",
					"output":104
				},
				{
					"input":10,
					"interpolation":"STEP",
					"output":105
				},
				{
					"input":10,
					"interpolation":"STEP",
					"output":106
				}
			]
		}
	],
	"materials":[
		{
			"doubleSided":true,
			"name":"\u30de\u30c6\u30ea\u30a2\u30eb",
			"pbrMetallicRoughness":{
				"baseColorTexture":{
					"index":0
				},
				"metallicFactor":0,
				"roughnessFactor":0.5
			}
		}
	],
	"meshes":[
		{
			"name":"materialmesh",
			"primitives":[
				{
					"attributes":{
						"POSITION":0,
						"NORMAL":1,
						"TEXCOORD_0":2,
						"JOINTS_0":3,
						"WEIGHTS_0":4
					},
					"indices":5,
					"material":0
				}
			]
		}
	],
	"textures":[
		{
			"sampler":0,
			"source":0
		}
	],
	"images":[
		{
			"mimeType":"image/png",
			"name":"texture_pbr_20250901",
			"uri":"texture_pbr_20250901.png"
		}
	],
	"skins":[
		{
			"inverseBindMatrices":6,
			"joints":[
				32,
				21,
				20,
				19,
				2,
				1,
				0,
				10,
				9,
				8,
				7,
				6,
				5,
				4,
				3,
				18,
				17,
				16,
				15,
				14,
				13,
				12,
				11,
				26,
				25,
				24,
				23,
				22,
				31,
				30,
				29,
				28,
				27
			],
			"name":"Armature"
		}
	],
	"accessors":[
		{
			"bufferView":0,
			"componentType":5126,
			"count":11361,
			"max":[
				2.401707887649536,
				5.516979694366455,
				1.360851764678955
			],
			"min":[
				-2.4082226753234863,
				0.0006985081708990037,
				-1.1237784624099731
			],
			"type":"VEC3"
		},
		{
			"bufferView":1,
			"componentType":5126,
			"count":11361,
			"type":"VEC3"
		},
		{
			"bufferView":2,
			"componentType":5126,
			"count":11361,
			"type":"VEC2"
		},
		{
			"bufferView":3,
			"componentType":5121,
			"count":11361,
			"type":"VEC4"
		},
		{
			"bufferView":4,
			"componentType":5126,
			"count":11361,
			"type":"VEC4"
		},
		{
			"bufferView":5,
			"componentType":5123,
			"count":38010,
			"type":"SCALAR"
		},
		{
			"bufferView":6,
			"componentType":5126,
			"count":33,
			"type":"MAT4"
		},
		{
			"bufferView":7,
			"componentType":5126,
			"count":44,
			"max":[
				1.4666666666666666
			],
			"min":[
				0.03333333333333333
			],
			"type":"SCALAR"
		},
		{
			"bufferView":8,
			"componentType":5126,
			"count":44,
			"type":"VEC3"
		},
		{
			"bufferView":9,
			"componentType":5126,
			"count":44,
			"type":"VEC4"
		},
		{
			"bufferView":10,
			"componentType":5126,
			"count":2,
			"max":[
				1.4666666666666666
			],
			"min":[
				0.03333333333333333
			],
			"type":"SCALAR"
		},
		{
			"bufferView":11,
			"componentType":5126,
			"count":2,
			"type":"VEC3"
		},
		{
			"bufferView":12,
			"componentType":5126,
			"count":2,
			"type":"VEC3"
		},
		{
			"bufferView":13,
			"componentType":5126,
			"count":44,
			"type":"VEC4"
		},
		{
			"bufferView":14,
			"componentType":5126,
			"count":2,
			"type":"VEC3"
		},
		{
			"bufferView":15,
			"componentType":5126,
			"count":2,
			"type":"VEC3"
		},
		{
			"bufferView":16,
			"componentType":5126,
			"count":44,
			"type":"VEC4"
		},
		{
			"bufferView":17,
			"componentType":5126,
			"count":2,
			"type":"VEC3"
		},
		{
			"bufferView":18,
			"componentType":5126,
			"count":2,
			"type":"VEC3"
		},
		{
			"bufferView":19,
			"componentType":5126,
			"count":44,
			"type":"VEC4"
		},
		{
			"bufferView":20,
			"componentType":5126,
			"count":2,
			"type":"VEC3"
		},
		{
			"bufferView":21,
			"componentType":5126,
			"count":2,
			"type":"VEC3"
		},
		{
			"bufferView":22,
			"componentType":5126,
			"count":44,
			"type":"VEC4"
		},
		{
			"bufferView":23,
			"componentType":5126,
			"count":2,
			"type":"VEC3"
		},
		{
			"bufferView":24,
			"componentType":5126,
			"count":2,
			"type":"VEC3"
		},
		{
			"bufferView":25,
			"componentType":5126,
			"count":44,
			"type":"VEC4"
		},
		{
			"bufferView":26,
			"componentType":5126,
			"count":2,
			"type":"VEC3"
		},
		{
			"bufferView":27,
			"componentType":5126,
			"count":2,
			"type":"VEC3"
		},
		{
			"bufferView":28,
			"componentType":5126,
			"count":2,
			"type":"VEC4"
		},
		{
			"bufferView":29,
			"componentType":5126,
			"count":2,
			"type":"VEC3"
		},
		{
			"bufferView":30,
			"componentType":5126,
			"count":2,
			"type":"VEC3"
		},
		{
			"bufferView":31,
			"componentType":5126,
			"count":44,
			"type":"VEC4"
		},
		{
			"bufferView":32,
			"componentType":5126,
			"count":2,
			"type":"VEC3"
		},
		{
			"bufferView":33,
			"componentType":5126,
			"count":2,
			"type":"VEC3"
		},
		{
			"bufferView":34,
			"componentType":5126,
			"count":44,
			"type":"VEC4"
		},
		{
			"bufferView":35,
			"componentType":5126,
			"count":2,
			"type":"VEC3"
		},
		{
			"bufferView":36,
			"componentType":5126,
			"count":2,
			"type":"VEC3"
		},
		{
			"bufferView":37,
			"componentType":5126,
			"count":44,
			"type":"VEC4"
		},
		{
			"bufferView":38,
			"componentType":5126,
			"count":2,
			"type":"VEC3"
		},
		{
			"bufferView":39,
			"componentType":5126,
			"count":2,
			"type":"VEC3"
		},
		{
			"bufferView":40,
			"componentType":5126,
			"count":44,
			"type":"VEC4"
		},
		{
			"bufferView":41,
			"componentType":5126,
			"count":2,
			"type":"VEC3"
		},
		{
			"bufferView":42,
			"componentType":5126,
			"count":2,
			"type":"VEC3"
		},
		{
			"bufferView":43,
			"componentType":5126,
			"count":44,
			"type":"VEC4"
		},
		{
			"bufferView":44,
			"componentType":5126,
			"count":2,
			"type":"VEC3"
		},
		{
			"bufferView":45,
			"componentType":5126,
			"count":2,
			"type":"VEC3"
		},
		{
			"bufferView":46,
			"componentType":5126,
			"count":44,
			"type":"VEC4"
		},
		{
			"bufferView":47,
			"componentType":5126,
			"count":2,
			"type":"VEC3"
		},
		{
			"bufferView":48,
			"componentType":5126,
			"count":2,
			"type":"VEC3"
		},
		{
			"bufferView":49,
			"componentType":5126,
			"count":44,
			"type":"VEC4"
		},
		{
			"bufferView":50,
			"componentType":5126,
			"count":2,
			"type":"VEC3"
		},
		{
			"bufferView":51,
			"componentType":5126,
			"count":2,
			"type":"VEC3"
		},
		{
			"bufferView":52,
			"componentType":5126,
			"count":2,
			"type":"VEC4"
		},
		{
			"bufferView":53,
			"componentType":5126,
			"count":2,
			"type":"VEC3"
		},
		{
			"bufferView":54,
			"componentType":5126,
			"count":2,
			"type":"VEC3"
		},
		{
			"bufferView":55,
			"componentType":5126,
			"count":44,
			"type":"VEC4"
		},
		{
			"bufferView":56,
			"componentType":5126,
			"count":2,
			"type":"VEC3"
		},
		{
			"bufferView":57,
			"componentType":5126,
			"count":2,
			"type":"VEC3"
		},
		{
			"bufferView":58,
			"componentType":5126,
			"count":44,
			"type":"VEC4"
		},
		{
			"bufferView":59,
			"componentType":5126,
			"count":2,
			"type":"VEC3"
		},
		{
			"bufferView":60,
			"componentType":5126,
			"count":2,
			"type":"VEC3"
		},
		{
			"bufferView":61,
			"componentType":5126,
			"count":44,
			"type":"VEC4"
		},
		{
			"bufferView":62,
			"componentType":5126,
			"count":2,
			"type":"VEC3"
		},
		{
			"bufferView":63,
			"componentType":5126,
			"count":2,
			"type":"VEC3"
		},
		{
			"bufferView":64,
			"componentType":5126,
			"count":44,
			"type":"VEC4"
		},
		{
			"bufferView":65,
			"componentType":5126,
			"count":2,
			"type":"VEC3"
		},
		{
			"bufferView":66,
			"componentType":5126,
			"count":2,
			"type":"VEC3"
		},
		{
			"bufferView":67,
			"componentType":5126,
			"count":44,
			"type":"VEC4"
		},
		{
			"bufferView":68,
			"componentType":5126,
			"count":2,
			"type":"VEC3"
		},
		{
			"bufferView":69,
			"componentType":5126,
			"count":2,
			"type":"VEC3"
		},
		{
			"bufferView":70,
			"componentType":5126,
			"count":2,
			"type":"VEC4"
		},
		{
			"bufferView":71,
			"componentType":5126,
			"count":2,
			"type":"VEC3"
		},
		{
			"bufferView":72,
			"componentType":5126,
			"count":2,
			"type":"VEC3"
		},
		{
			"bufferView":73,
			"componentType":5126,
			"count":2,
			"type":"VEC4"
		},
		{
			"bufferView":74,
			"componentType":5126,
			"count":2,
			"type":"VEC3"
		},
		{
			"bufferView":75,
			"componentType":5126,
			"count":2,
			"type":"VEC3"
		},
		{
			"bufferView":76,
			"componentType":5126,
			"count":2,
			"type":"VEC4"
		},
		{
			"bufferView":77,
			"componentType":5126,
			"count":2,
			"type":"VEC3"
		},
		{
			"bufferView":78,
			"componentType":5126,
			"count":2,
			"type":"VEC3"
		},
		{
			"bufferView":79,
			"componentType":5126,
			"count":44,
			"type":"VEC4"
		},
		{
			"bufferView":80,
			"componentType":5126,
			"count":2,
			"type":"VEC3"
		},
		{
			"bufferView":81,
			"componentType":5126,
			"count":2,
			"type":"VEC3"
		},
		{
			"bufferView":82,
			"componentType":5126,
			"count":44,
			"type":"VEC4"
		},
		{
			"bufferView":83,
			"componentType":5126,
			"count":2,
			"type":"VEC3"
		},
		{
			"bufferView":84,
			"componentType":5126,
			"count":2,
			"type":"VEC3"
		},
		{
			"bufferView":85,
			"componentType":5126,
			"count":44,
			"type":"VEC4"
		},
		{
			"bufferView":86,
			"componentType":5126,
			"count":2,
			"type":"VEC3"
		},
		{
			"bufferView":87,
			"componentType":5126,
			"count":2,
			"type":"VEC3"
		},
		{
			"bufferView":88,
			"componentType":5126,
			"count":44,
			"type":"VEC4"
		},
		{
			"bufferView":89,
			"componentType":5126,
			"count":2,
			"type":"VEC3"
		},
		{
			"bufferView":90,
			"componentType":5126,
			"count":2,
			"type":"VEC3"
		},
		{
			"bufferView":91,
			"componentType":5126,
			"count":2,
			"type":"VEC4"
		},
		{
			"bufferView":92,
			"componentType":5126,
			"count":2,
			"type":"VEC3"
		},
		{
			"bufferView":93,
			"componentType":5126,
			"count":2,
			"type":"VEC3"
		},
		{
			"bufferView":94,
			"componentType":5126,
			"count":44,
			"type":"VEC4"
		},
		{
			"bufferView":95,
			"componentType":5126,
			"count":2,
			"type":"VEC3"
		},
		{
			"bufferView":96,
			"componentType":5126,
			"count":2,
			"type":"VEC3"
		},
		{
			"bufferView":97,
			"componentType":5126,
			"count":44,
			"type":"VEC4"
		},
		{
			"bufferView":98,
			"componentType":5126,
			"count":2,
			"type":"VEC3"
		},
		{
			"bufferView":99,
			"componentType":5126,
			"count":2,
			"type":"VEC3"
		},
		{
			"bufferView":100,
			"componentType":5126,
			"count":44,
			"type":"VEC4"
		},
		{
			"bufferView":101,
			"componentType":5126,
			"count":2,
			"type":"VEC3"
		},
		{
			"bufferView":102,
			"componentType":5126,
			"count":44,
			"type":"VEC4"
		},
		{
			"bufferView":103,
			"componentType":5126,
			"count":2,
			"type":"VEC3"
		},
		{
			"bufferView":104,
			"componentType":5126,
			"count":2,
			"type":"VEC3"
		},
		{
			"bufferView":105,
			"componentType":5126,
			"count":2,
			"type":"VEC4"
		},
		{
			"bufferView":106,
			"componentType":5126,
			"count":2,
			"type":"VEC3"
		}
	],
	"bufferViews":[
		{
			"buffer":0,
			"byteLength":136332,
			"byteOffset":0,
			"target":34962
		},
		{
			"buffer":0,
			"byteLength":136332,
			"byteOffset":136332,
			"target":34962
		},
		{
			"buffer":0,
			"byteLength":90888,
			"byteOffset":272664,
			"target":34962
		},
		{
			"buffer":0,
			"byteLength":45444,
			"byteOffset":363552,
			"target":34962
		},
		{
			"buffer":0,
			"byteLength":181776,
			"byteOffset":408996,
			"target":34962
		},
		{
			"buffer":0,
			"byteLength":76020,
			"byteOffset":590772,
			"target":34963
		},
		{
			"buffer":0,
			"byteLength":2112,
			"byteOffset":666792
		},
		{
			"buffer":0,
			"byteLength":176,
			"byteOffset":668904
		},
		{
			"buffer":0,
			"byteLength":528,
			"byteOffset":669080
		},
		{
			"buffer":0,
			"byteLength":704,
			"byteOffset":669608
		},
		{
			"buffer":0,
			"byteLength":8,
			"byteOffset":670312
		},
		{
			"buffer":0,
			"byteLength":24,
			"byteOffset":670320
		},
		{
			"buffer":0,
			"byteLength":24,
			"byteOffset":670344
		},
		{
			"buffer":0,
			"byteLength":704,
			"byteOffset":670368
		},
		{
			"buffer":0,
			"byteLength":24,
			"byteOffset":671072
		},
		{
			"buffer":0,
			"byteLength":24,
			"byteOffset":671096
		},
		{
			"buffer":0,
			"byteLength":704,
			"byteOffset":671120
		},
		{
			"buffer":0,
			"byteLength":24,
			"byteOffset":671824
		},
		{
			"buffer":0,
			"byteLength":24,
			"byteOffset":671848
		},
		{
			"buffer":0,
			"byteLength":704,
			"byteOffset":671872
		},
		{
			"buffer":0,
			"byteLength":24,
			"byteOffset":672576
		},
		{
			"buffer":0,
			"byteLength":24,
			"byteOffset":672600
		},
		{
			"buffer":0,
			"byteLength":704,
			"byteOffset":672624
		},
		{
			"buffer":0,
			"byteLength":24,
			"byteOffset":673328
		},
		{
			"buffer":0,
			"byteLength":24,
			"byteOffset":673352
		},
		{
			"buffer":0,
			"byteLength":704,
			"byteOffset":673376
		},
		{
			"buffer":0,
			"byteLength":24,
			"byteOffset":674080
		},
		{
			"buffer":0,
			"byteLength":24,
			"byteOffset":674104
		},
		{
			"buffer":0,
			"byteLength":32,
			"byteOffset":674128
		},
		{
			"buffer":0,
			"byteLength":24,
			"byteOffset":674160
		},
		{
			"buffer":0,
			"byteLength":24,
			"byteOffset":674184
		},
		{
			"buffer":0,
			"byteLength":704,
			"byteOffset":674208
		},
		{
			"buffer":0,
			"byteLength":24,
			"byteOffset":674912
		},
		{
			"buffer":0,
			"byteLength":24,
			"byteOffset":674936
		},
		{
			"buffer":0,
			"byteLength":704,
			"byteOffset":674960
		},
		{
			"buffer":0,
			"byteLength":24,
			"byteOffset":675664
		},
		{
			"buffer":0,
			"byteLength":24,
			"byteOffset":675688
		},
		{
			"buffer":0,
			"byteLength":704,
			"byteOffset":675712
		},
		{
			"buffer":0,
			"byteLength":24,
			"byteOffset":676416
		},
		{
			"buffer":0,
			"byteLength":24,
			"byteOffset":676440
		},
		{
			"buffer":0,
			"byteLength":704,
			"byteOffset":676464
		},
		{
			"buffer":0,
			"byteLength":24,
			"byteOffset":677168
		},
		{
			"buffer":0,
			"byteLength":24,
			"byteOffset":677192
		},
		{
			"buffer":0,
			"byteLength":704,
			"byteOffset":677216
		},
		{
			"buffer":0,
			"byteLength":24,
			"byteOffset":677920
		},
		{
			"buffer":0,
			"byteLength":24,
			"byteOffset":677944
		},
		{
			"buffer":0,
			"byteLength":704,
			"byteOffset":677968
		},
		{
			"buffer":0,
			"byteLength":24,
			"byteOffset":678672
		},
		{
			"buffer":0,
			"byteLength":24,
			"byteOffset":678696
		},
		{
			"buffer":0,
			"byteLength":704,
			"byteOffset":678720
		},
		{
			"buffer":0,
			"byteLength":24,
			"byteOffset":679424
		},
		{
			"buffer":0,
			"byteLength":24,
			"byteOffset":679448
		},
		{
			"buffer":0,
			"byteLength":32,
			"byteOffset":679472
		},
		{
			"buffer":0,
			"byteLength":24,
			"byteOffset":679504
		},
		{
			"buffer":0,
			"byteLength":24,
			"byteOffset":679528
		},
		{
			"buffer":0,
			"byteLength":704,
			"byteOffset":679552
		},
		{
			"buffer":0,
			"byteLength":24,
			"byteOffset":680256
		},
		{
			"buffer":0,
			"byteLength":24,
			"byteOffset":680280
		},
		{
			"buffer":0,
			"byteLength":704,
			"byteOffset":680304
		},
		{
			"buffer":0,
			"byteLength":24,
			"byteOffset":681008
		},
		{
			"buffer":0,
			"byteLength":24,
			"byteOffset":681032
		},
		{
			"buffer":0,
			"byteLength":704,
			"byteOffset":681056
		},
		{
			"buffer":0,
			"byteLength":24,
			"byteOffset":681760
		},
		{
			"buffer":0,
			"byteLength":24,
			"byteOffset":681784
		},
		{
			"buffer":0,
			"byteLength":704,
			"byteOffset":681808
		},
		{
			"buffer":0,
			"byteLength":24,
			"byteOffset":682512
		},
		{
			"buffer":0,
			"byteLength":24,
			"byteOffset":682536
		},
		{
			"buffer":0,
			"byteLength":704,
			"byteOffset":682560
		},
		{
			"buffer":0,
			"byteLength":24,
			"byteOffset":683264
		},
		{
			"buffer":0,
			"byteLength":24,
			"byteOffset":683288
		},
		{
			"buffer":0,
			"byteLength":32,
			"byteOffset":683312
		},
		{
			"buffer":0,
			"byteLength":24,
			"byteOffset":683344
		},
		{
			"buffer":0,
			"byteLength":24,
			"byteOffset":683368
		},
		{
			"buffer":0,
			"byteLength":32,
			"byteOffset":683392
		},
		{
			"buffer":0,
			"byteLength":24,
			"byteOffset":683424
		},
		{
			"buffer":0,
			"byteLength":24,
			"byteOffset":683448
		},
		{
			"buffer":0,
			"byteLength":32,
			"byteOffset":683472
		},
		{
			"buffer":0,
			"byteLength":24,
			"byteOffset":683504
		},
		{
			"buffer":0,
			"byteLength":24,
			"byteOffset":683528
		},
		{
			"buffer":0,
			"byteLength":704,
			"byteOffset":683552
		},
		{
			"buffer":0,
			"byteLength":24,
			"byteOffset":684256
		},
		{
			"buffer":0,
			"byteLength":24,
			"byteOffset":684280
		},
		{
			"buffer":0,
			"byteLength":704,
			"byteOffset":684304
		},
		{
			"buffer":0,
			"byteLength":24,
			"byteOffset":685008
		},
		{
			"buffer":0,
			"byteLength":24,
			"byteOffset":685032
		},
		{
			"buffer":0,
			"byteLength":704,
			"byteOffset":685056
		},
		{
			"buffer":0,
			"byteLength":24,
			"byteOffset":685760
		},
		{
			"buffer":0,
			"byteLength":24,
			"byteOffset":685784
		},
		{
			"buffer":0,
			"byteLength":704,
			"byteOffset":685808
		},
		{
			"buffer":0,
			"byteLength":24,
			"byteOffset":686512
		},
		{
			"buffer":0,
			"byteLength":24,
			"byteOffset":686536
		},
		{
			"buffer":0,
			"byteLength":32,
			"byteOffset":686560
		},
		{
			"buffer":0,
			"byteLength":24,
			"byteOffset":686592
		},
		{
			"buffer":0,
			"byteLength":24,
			"byteOffset":686616
		},
		{
			"buffer":0,
			"byteLength":704,
			"byteOffset":686640
		},
		{
			"buffer":0,
			"byteLength":24,
			"byteOffset":687344
		},
		{
			"buffer":0,
			"byteLength":24,
			"byteOffset":687368
		},
		{
			"buffer":0,
			"byteLength":704,
			"byteOffset":687392
		},
		{
			"buffer":0,
			"byteLength":24,
			"byteOffset":688096
		},
		{
			"buffer":0,
			"byteLength":24,
			"byteOffset":688120
		},
		{
			"buffer":0,
			"byteLength":704,
			"byteOffset":688144
		},
		{
			"buffer":0,
			"byteLength":24,
			"byteOffset":688848
		},
		{
			"buffer":0,
			"byteLength":704,
			"byteOffset":688872
		},
		{
			"buffer":0,
			"byteLength":24,
			"byteOffset":689576
		},
		{
			"buffer":0,
			"byteLength":24,
			"byteOffset":689600
		},
		{
			"buffer":0,
			"byteLength":32,
			"byteOffset":689624
		},
		{
			"buffer":0,
			"byteLength":24,
			"byteOffset":689656
		}
	],
	"samplers":[
		{
			"magFilter":9729,
			"minFilter":9987
		}
	],
	"buffers":[
		{
			"byteLength":689680,
			"uri":"enemy2_walk.bin"
		}
	]
}
