{
	"asset":{
		"generator":"Khronos glTF Blender I/O v5.0.21",
		"version":"2.0"
	},
	"extensionsUsed":[
		"KHR_materials_clearcoat",
		"KHR_materials_transmission",
		"KHR_materials_emissive_strength",
		"KHR_materials_specular",
		"KHR_materials_ior",
		"KHR_texture_transform"
	],
	"extensionsRequired":[
		"KHR_texture_transform"
	],
	"scene":0,
	"scenes":[
		{
			"name":"Scene",
			"nodes":[
				0,
				47
			]
		}
	],
	"nodes":[
		{
			"name":"Chinese Temple 2"
		},
		{
			"mesh":0,
			"name":"BACK LIGHT",
			"translation":[
				0,
				0.7134109735488892,
				1.5515247583389282
			]
		},
		{
			"mesh":1,
			"name":"bACK LIGHT 2",
			"translation":[
				0,
				0.7134109735488892,
				1.5515247583389282
			]
		},
		{
			"mesh":2,
			"name":"bODY",
			"translation":[
				0,
				0.7134109735488892,
				1.5515247583389282
			]
		},
		{
			"mesh":3,
			"name":"Brake",
			"translation":[
				0.07674994319677353,
				1.1816294193267822,
				-0.02665119618177414
			]
		},
		{
			"mesh":4,
			"name":"Brake disc",
			"translation":[
				0.07674986124038696,
				1.1816295385360718,
				-0.02665119618177414
			]
		},
		{
			"mesh":5,
			"name":"COL",
			"translation":[
				0,
				0.7134109735488892,
				1.5515247583389282
			]
		},
		{
			"mesh":6,
			"name":"Covers",
			"translation":[
				0,
				0.7134109735488892,
				1.5515247583389282
			]
		},
		{
			"mesh":7,
			"name":"d1",
			"translation":[
				0,
				0.7134109735488892,
				1.5515247583389282
			]
		},
		{
			"mesh":8,
			"name":"d2",
			"translation":[
				0,
				0.7134109735488892,
				1.5515247583389282
			]
		},
		{
			"mesh":9,
			"name":"d3",
			"translation":[
				-0.32350587844848633,
				0.7949420213699341,
				-0.3822905719280243
			]
		},
		{
			"mesh":10,
			"name":"d5",
			"translation":[
				0,
				0.7134109735488892,
				1.5515247583389282
			]
		},
		{
			"mesh":11,
			"name":"D6",
			"translation":[
				0,
				0.7134109735488892,
				1.5515247583389282
			]
		},
		{
			"mesh":12,
			"name":"D7",
			"translation":[
				0,
				0.7134109735488892,
				1.5515247583389282
			]
		},
		{
			"mesh":13,
			"name":"D8",
			"translation":[
				0,
				0.7134109735488892,
				1.5515247583389282
			]
		},
		{
			"mesh":14,
			"name":"DIFF",
			"translation":[
				0,
				0.7134109735488892,
				1.5515247583389282
			]
		},
		{
			"mesh":15,
			"name":"DIFF2",
			"translation":[
				0,
				0.7134109735488892,
				1.5515247583389282
			]
		},
		{
			"mesh":16,
			"name":"EMM",
			"translation":[
				0,
				0.7134109735488892,
				1.5515247583389282
			]
		},
		{
			"mesh":17,
			"name":"eXHUST",
			"translation":[
				0,
				0.7134109735488892,
				1.5515247583389282
			]
		},
		{
			"mesh":18,
			"name":"Front light",
			"translation":[
				0,
				0.7134109735488892,
				1.5515247583389282
			]
		},
		{
			"mesh":19,
			"name":"gear",
			"translation":[
				0.0017478695372119546,
				0.4367733895778656,
				-0.17351794242858887
			]
		},
		{
			"mesh":20,
			"name":"Gril",
			"translation":[
				-0.00030871739727444947,
				0.3183231055736542,
				-1.9475148916244507
			]
		},
		{
			"mesh":21,
			"name":"H2",
			"translation":[
				0,
				0.7134109735488892,
				1.5515247583389282
			]
		},
		{
			"mesh":22,
			"name":"H3",
			"translation":[
				0,
				0.7134109735488892,
				1.5515247583389282
			]
		},
		{
			"mesh":23,
			"name":"Handle",
			"translation":[
				-0.7544184923171997,
				0.7282842397689819,
				0.4115222990512848
			]
		},
		{
			"mesh":24,
			"name":"Headlight",
			"translation":[
				0,
				0.7134109735488892,
				1.5515247583389282
			]
		},
		{
			"mesh":25,
			"name":"Hnadle inside",
			"translation":[
				-0.6005083322525024,
				0.6721073389053345,
				-0.2545917332172394
			]
		},
		{
			"mesh":26,
			"name":"iNTER",
			"translation":[
				0,
				0.7134109735488892,
				1.5515247583389282
			]
		},
		{
			"mesh":27,
			"name":"INTERIOR",
			"translation":[
				0,
				0.7134109735488892,
				1.5515247583389282
			]
		},
		{
			"mesh":28,
			"name":"lower",
			"translation":[
				0,
				0.7134109735488892,
				1.5515247583389282
			]
		},
		{
			"mesh":29,
			"name":"Mirror",
			"translation":[
				0,
				0.7134109735488892,
				1.5515247583389282
			]
		},
		{
			"mesh":30,
			"name":"P logo",
			"translation":[
				0,
				0.7023746371269226,
				1.9411358833312988
			]
		},
		{
			"mesh":31,
			"name":"P1",
			"translation":[
				0,
				0.6049792766571045,
				-1.8035550117492676
			]
		},
		{
			"mesh":32,
			"name":"pLATE",
			"translation":[
				0,
				0.7001825571060181,
				-1.4924280643463135
			]
		},
		{
			"mesh":33,
			"name":"Plate front",
			"translation":[
				0,
				0.7001825571060181,
				1.5515247583389282
			]
		},
		{
			"mesh":34,
			"name":"Rubber",
			"translation":[
				0,
				0.7134109735488892,
				1.5515247583389282
			]
		},
		{
			"mesh":35,
			"name":"Rubber.001",
			"translation":[
				0,
				0.7134109735488892,
				1.5515247583389282
			]
		},
		{
			"mesh":36,
			"name":"Seating",
			"translation":[
				-0.3068403899669647,
				0.885127067565918,
				0.34052807092666626
			]
		},
		{
			"mesh":37,
			"name":"Seating.001",
			"translation":[
				-0.3068403899669647,
				0.885127067565918,
				0.34052807092666626
			]
		},
		{
			"mesh":38,
			"name":"Spoiler",
			"translation":[
				0,
				0.7134109735488892,
				1.5515247583389282
			]
		},
		{
			"mesh":39,
			"name":"Steer",
			"translation":[
				-0.33333396911621094,
				0.7113641500473022,
				-0.25053641200065613
			]
		},
		{
			"mesh":40,
			"name":"Tire",
			"translation":[
				0.8228460550308228,
				0.31911441683769226,
				1.0792890787124634
			]
		},
		{
			"mesh":41,
			"name":"Tire2",
			"translation":[
				0.7819342613220215,
				0.31911441683769226,
				-1.0768722295761108
			]
		},
		{
			"mesh":42,
			"name":"Wheels",
			"translation":[
				0.7819342613220215,
				0.31911441683769226,
				-1.0768722295761108
			]
		},
		{
			"mesh":43,
			"name":"Wheels.001",
			"translation":[
				0.8143279552459717,
				0.31911441683769226,
				1.0806608200073242
			]
		},
		{
			"mesh":44,
			"name":"Window",
			"translation":[
				0,
				0.7134109735488892,
				1.5515247583389282
			]
		},
		{
			"mesh":45,
			"name":"wiper",
			"translation":[
				0.5464910864830017,
				0.7452507019042969,
				-0.6620652079582214
			]
		},
		{
			"children":[
				1,
				2,
				3,
				4,
				5,
				6,
				7,
				8,
				9,
				10,
				11,
				12,
				13,
				14,
				15,
				16,
				17,
				18,
				19,
				20,
				21,
				22,
				23,
				24,
				25,
				26,
				27,
				28,
				29,
				30,
				31,
				32,
				33,
				34,
				35,
				36,
				37,
				38,
				39,
				40,
				41,
				42,
				43,
				44,
				45,
				46
			],
			"name":"Car 004 - Pourche 911 3d model"
		}
	],
	"materials":[
		{
			"doubleSided":true,
			"extensions":{
				"KHR_materials_transmission":{
					"transmissionFactor":0.9950000047683716
				},
				"KHR_materials_specular":{
					"specularColorFactor":[
						2.0,
						2.0,
						2.0
					]
				},
				"KHR_materials_ior":{
					"ior":1.4500000476837158
				}
			},
			"name":"backlight glass white.002",
			"pbrMetallicRoughness":{
				"baseColorFactor":[
					0.8000000715255737,
					0.6446106433868408,
					0.5818811058998108,
					1
				],
				"metallicFactor":0,
				"roughnessFactor":0.04090908169746399
			}
		},
		{
			"doubleSided":true,
			"extensions":{
				"KHR_materials_transmission":{
					"transmissionFactor":0.9950000047683716
				},
				"KHR_materials_specular":{
					"specularColorFactor":[
						2.0,
						2.0,
						2.0
					]
				},
				"KHR_materials_ior":{
					"ior":1.4500000476837158
				}
			},
			"name":"backlight glass.002",
			"pbrMetallicRoughness":{
				"baseColorFactor":[
					0.8000000715255737,
					0,
					0.0066597904078662395,
					1
				],
				"metallicFactor":0,
				"roughnessFactor":0.04090908169746399
			}
		},
		{
			"doubleSided":true,
			"name":"chrome.002",
			"pbrMetallicRoughness":{
				"baseColorFactor":[
					0.800000011920929,
					0.800000011920929,
					0.800000011920929,
					1
				],
				"roughnessFactor":0.18382352590560913
			}
		},
		{
			"doubleSided":true,
			"extensions":{
				"KHR_materials_clearcoat":{
					"clearcoatFactor":0.25,
					"clearcoatRoughnessFactor":0.0010000000474974513
				},
				"KHR_materials_specular":{
					"specularColorFactor":[
						2.0,
						2.0,
						2.0
					]
				},
				"KHR_materials_ior":{
					"ior":1.4500000476837158
				}
			},
			"name":"Body.002",
			"pbrMetallicRoughness":{
				"metallicFactor":0.29545456171035767,
				"roughnessFactor":0.09545499086380005
			}
		},
		{
			"doubleSided":true,
			"name":"brake.002",
			"pbrMetallicRoughness":{
				"baseColorFactor":[
					0.8000000715255737,
					0.11042940616607666,
					0.06300181895494461,
					1
				],
				"metallicFactor":0,
				"roughnessFactor":0.5
			}
		},
		{
			"doubleSided":true,
			"name":"Brake.002",
			"pbrMetallicRoughness":{
				"baseColorFactor":[
					0.800000011920929,
					0.800000011920929,
					0.800000011920929,
					1
				],
				"roughnessFactor":0.3136363923549652
			}
		},
		{
			"doubleSided":true,
			"extensions":{
				"KHR_materials_specular":{
					"specularFactor":0.5
				},
				"KHR_materials_ior":{
					"ior":1.4500000476837158
				}
			},
			"name":"Rubber.002",
			"pbrMetallicRoughness":{
				"baseColorFactor":[
					0.009018231183290482,
					0.009018231183290482,
					0.009018231183290482,
					1
				],
				"metallicFactor":0,
				"roughnessFactor":0.4318181872367859
			}
		},
		{
			"doubleSided":true,
			"extensions":{
				"KHR_materials_specular":{
					"specularFactor":0.44545453786849976
				},
				"KHR_materials_ior":{
					"ior":1.4500000476837158
				}
			},
			"name":"leather.002",
			"normalTexture":{
				"extensions":{
					"KHR_texture_transform":{
						"offset":[
							0,
							-2
						],
						"scale":[
							3,
							3
						]
					}
				},
				"index":0
			},
			"pbrMetallicRoughness":{
				"baseColorFactor":[
					0.010673982091248035,
					0.010673982091248035,
					0.010673982091248035,
					1
				],
				"metallicFactor":0,
				"metallicRoughnessTexture":{
					"extensions":{
						"KHR_texture_transform":{
							"offset":[
								0,
								-2
							],
							"scale":[
								3,
								3
							]
						}
					},
					"index":1
				}
			}
		},
		{
			"doubleSided":true,
			"name":"trim.002",
			"pbrMetallicRoughness":{
				"baseColorFactor":[
					0.11813784390687943,
					0,
					0.00492476113140583,
					1
				],
				"metallicFactor":0,
				"roughnessFactor":0.5
			}
		},
		{
			"doubleSided":true,
			"emissiveFactor":[
				1,
				1,
				1
			],
			"extensions":{
				"KHR_materials_emissive_strength":{
					"emissiveStrength":10
				}
			},
			"name":"emii.002",
			"pbrMetallicRoughness":{
				"baseColorFactor":[
					0.800000011920929,
					0.800000011920929,
					0.800000011920929,
					1
				],
				"metallicFactor":0,
				"roughnessFactor":0.5
			}
		},
		{
			"doubleSided":true,
			"name":"Wheels.002",
			"pbrMetallicRoughness":{
				"baseColorFactor":[
					0.5485275387763977,
					0.5485275387763977,
					0.5485275387763977,
					1
				],
				"metallicRoughnessTexture":{
					"index":2
				}
			}
		},
		{
			"alphaMode":"BLEND",
			"doubleSided":true,
			"name":"P logo.002",
			"normalTexture":{
				"index":3
			},
			"pbrMetallicRoughness":{
				"baseColorTexture":{
					"index":4
				},
				"metallicFactor":0,
				"roughnessFactor":0
			}
		},
		{
			"doubleSided":true,
			"name":"Plate.002",
			"normalTexture":{
				"index":5
			},
			"pbrMetallicRoughness":{
				"baseColorTexture":{
					"index":6
				},
				"metallicFactor":0,
				"roughnessFactor":0.09090909361839294
			}
		},
		{
			"doubleSided":true,
			"extensions":{
				"KHR_materials_specular":{
					"specularFactor":0.3529411554336548
				},
				"KHR_materials_ior":{
					"ior":1.4500000476837158
				}
			},
			"name":"Material.002",
			"normalTexture":{
				"index":7
			},
			"pbrMetallicRoughness":{
				"baseColorTexture":{
					"index":8
				},
				"metallicFactor":0,
				"metallicRoughnessTexture":{
					"index":9
				}
			}
		},
		{
			"extensions":{
				"KHR_materials_transmission":{
					"transmissionFactor":0.9900000095367432
				},
				"KHR_materials_ior":{
					"ior":1.0099999904632568
				}
			},
			"name":"windows.005",
			"pbrMetallicRoughness":{
				"metallicFactor":0,
				"roughnessFactor":0
			}
		},
		{
			"extensions":{
				"KHR_materials_transmission":{
					"transmissionFactor":0.9900000095367432
				},
				"KHR_materials_ior":{
					"ior":1.0099999904632568
				}
			},
			"name":"windows.004",
			"pbrMetallicRoughness":{
				"baseColorFactor":[
					0.33077484369277954,
					0.33077484369277954,
					0.33077484369277954,
					1
				],
				"metallicFactor":0,
				"roughnessFactor":0
			}
		},
		{
			"doubleSided":true,
			"extensions":{
				"KHR_materials_specular":{
					"specularColorFactor":[
						1.1617646217346191,
						1.1617646217346191,
						1.1617646217346191
					]
				},
				"KHR_materials_ior":{
					"ior":1.4500000476837158
				}
			},
			"name":"rubber",
			"pbrMetallicRoughness":{
				"baseColorFactor":[
					0.017387712374329567,
					0.017387712374329567,
					0.017387712374329567,
					1
				],
				"metallicFactor":0,
				"roughnessFactor":0.3689628839492798
			}
		}
	],
	"meshes":[
		{
			"name":"Vert.067",
			"primitives":[
				{
					"attributes":{
						"POSITION":0,
						"NORMAL":1,
						"TEXCOORD_0":2
					},
					"indices":3,
					"material":0
				},
				{
					"attributes":{
						"POSITION":4,
						"NORMAL":5,
						"TEXCOORD_0":6
					},
					"indices":7,
					"material":1
				}
			]
		},
		{
			"name":"Vert.068",
			"primitives":[
				{
					"attributes":{
						"POSITION":8,
						"NORMAL":9
					},
					"indices":10,
					"material":2
				}
			]
		},
		{
			"name":"Vert.089",
			"primitives":[
				{
					"attributes":{
						"POSITION":11,
						"NORMAL":12
					},
					"indices":13,
					"material":3
				}
			]
		},
		{
			"name":"Circle.026",
			"primitives":[
				{
					"attributes":{
						"POSITION":14,
						"NORMAL":15,
						"TEXCOORD_0":16
					},
					"indices":17,
					"material":4
				}
			]
		},
		{
			"name":"Circle.025",
			"primitives":[
				{
					"attributes":{
						"POSITION":18,
						"NORMAL":19,
						"TEXCOORD_0":20
					},
					"indices":21,
					"material":5
				}
			]
		},
		{
			"name":"Vert.084",
			"primitives":[
				{
					"attributes":{
						"POSITION":22,
						"NORMAL":23
					},
					"indices":24,
					"material":6
				}
			]
		},
		{
			"name":"Vert.083",
			"primitives":[
				{
					"attributes":{
						"POSITION":25,
						"NORMAL":26
					},
					"indices":27,
					"material":6
				}
			]
		},
		{
			"name":"Vert.077",
			"primitives":[
				{
					"attributes":{
						"POSITION":28,
						"NORMAL":29,
						"TEXCOORD_0":30
					},
					"indices":31,
					"material":7
				}
			]
		},
		{
			"name":"Vert.066",
			"primitives":[
				{
					"attributes":{
						"POSITION":32,
						"NORMAL":33
					},
					"indices":34,
					"material":6
				}
			]
		},
		{
			"name":"Plane.010",
			"primitives":[
				{
					"attributes":{
						"POSITION":35,
						"NORMAL":36,
						"TEXCOORD_0":37
					},
					"indices":38,
					"material":7
				}
			]
		},
		{
			"name":"Vert.070",
			"primitives":[
				{
					"attributes":{
						"POSITION":39,
						"NORMAL":40
					},
					"indices":41,
					"material":8
				}
			]
		},
		{
			"name":"Vert.076",
			"primitives":[
				{
					"attributes":{
						"POSITION":42,
						"NORMAL":43,
						"TEXCOORD_0":44
					},
					"indices":45,
					"material":7
				}
			]
		},
		{
			"name":"Vert.064",
			"primitives":[
				{
					"attributes":{
						"POSITION":46,
						"NORMAL":47,
						"TEXCOORD_0":48
					},
					"indices":49,
					"material":7
				}
			]
		},
		{
			"name":"Vert.075",
			"primitives":[
				{
					"attributes":{
						"POSITION":50,
						"NORMAL":51,
						"TEXCOORD_0":52
					},
					"indices":53,
					"material":7
				}
			]
		},
		{
			"name":"Vert.081",
			"primitives":[
				{
					"attributes":{
						"POSITION":54,
						"NORMAL":55
					},
					"indices":56,
					"material":6
				}
			]
		},
		{
			"name":"Vert.082",
			"primitives":[
				{
					"attributes":{
						"POSITION":57,
						"NORMAL":58,
						"TEXCOORD_0":59
					},
					"indices":60,
					"material":3
				},
				{
					"attributes":{
						"POSITION":61,
						"NORMAL":62,
						"TEXCOORD_0":63
					},
					"indices":64,
					"material":6
				}
			]
		},
		{
			"name":"Vert.062",
			"primitives":[
				{
					"attributes":{
						"POSITION":65,
						"NORMAL":66,
						"TEXCOORD_0":67
					},
					"indices":68,
					"material":9
				}
			]
		},
		{
			"name":"Cylinder.003",
			"primitives":[
				{
					"attributes":{
						"POSITION":69,
						"NORMAL":70,
						"TEXCOORD_0":71
					},
					"indices":72,
					"material":10
				}
			]
		},
		{
			"name":"Vert.086",
			"primitives":[
				{
					"attributes":{
						"POSITION":73,
						"NORMAL":74
					},
					"indices":75,
					"material":2
				}
			]
		},
		{
			"name":"Cylinder.005",
			"primitives":[
				{
					"attributes":{
						"POSITION":76,
						"NORMAL":77,
						"TEXCOORD_0":78
					},
					"indices":79,
					"material":2
				},
				{
					"attributes":{
						"POSITION":80,
						"NORMAL":81,
						"TEXCOORD_0":82
					},
					"indices":83,
					"material":7
				}
			]
		},
		{
			"name":"Circle.020",
			"primitives":[
				{
					"attributes":{
						"POSITION":84,
						"NORMAL":85,
						"TEXCOORD_0":86
					},
					"indices":87,
					"material":6
				}
			]
		},
		{
			"name":"Vert.072",
			"primitives":[
				{
					"attributes":{
						"POSITION":88,
						"NORMAL":89
					},
					"indices":90,
					"material":2
				}
			]
		},
		{
			"name":"Vert.073",
			"primitives":[
				{
					"attributes":{
						"POSITION":91,
						"NORMAL":92
					},
					"indices":93,
					"material":2
				},
				{
					"attributes":{
						"POSITION":94,
						"NORMAL":95
					},
					"indices":96,
					"material":9
				}
			]
		},
		{
			"name":"Cube.001",
			"primitives":[
				{
					"attributes":{
						"POSITION":97,
						"NORMAL":98,
						"TEXCOORD_0":99
					},
					"indices":100,
					"material":3
				}
			]
		},
		{
			"name":"Vert.071",
			"primitives":[
				{
					"attributes":{
						"POSITION":101,
						"NORMAL":102
					},
					"indices":103,
					"material":2
				}
			]
		},
		{
			"name":"Plane.011",
			"primitives":[
				{
					"attributes":{
						"POSITION":104,
						"NORMAL":105,
						"TEXCOORD_0":106
					},
					"indices":107,
					"material":8
				},
				{
					"attributes":{
						"POSITION":108,
						"NORMAL":109,
						"TEXCOORD_0":110
					},
					"indices":111,
					"material":7
				}
			]
		},
		{
			"name":"Vert.065",
			"primitives":[
				{
					"attributes":{
						"POSITION":112,
						"NORMAL":113,
						"TEXCOORD_0":114
					},
					"indices":115,
					"material":7
				}
			]
		},
		{
			"name":"Vert.087",
			"primitives":[
				{
					"attributes":{
						"POSITION":116,
						"NORMAL":117,
						"TEXCOORD_0":118
					},
					"indices":119,
					"material":7
				},
				{
					"attributes":{
						"POSITION":120,
						"NORMAL":121,
						"TEXCOORD_0":122
					},
					"indices":123,
					"material":8
				}
			]
		},
		{
			"name":"Vert.063",
			"primitives":[
				{
					"attributes":{
						"POSITION":124,
						"NORMAL":125
					},
					"indices":126,
					"material":6
				}
			]
		},
		{
			"name":"Vert.079",
			"primitives":[
				{
					"attributes":{
						"POSITION":127,
						"NORMAL":128
					},
					"indices":129,
					"material":6
				},
				{
					"attributes":{
						"POSITION":130,
						"NORMAL":131
					},
					"indices":132,
					"material":3
				}
			]
		},
		{
			"name":"Plane.013",
			"primitives":[
				{
					"attributes":{
						"POSITION":133,
						"NORMAL":134,
						"TEXCOORD_0":135
					},
					"indices":136,
					"material":11
				}
			]
		},
		{
			"name":"Plane.012",
			"primitives":[
				{
					"attributes":{
						"POSITION":137,
						"NORMAL":138,
						"TEXCOORD_0":139
					},
					"indices":140,
					"material":11
				}
			]
		},
		{
			"name":"Vert.061",
			"primitives":[
				{
					"attributes":{
						"POSITION":141,
						"NORMAL":142,
						"TEXCOORD_0":143
					},
					"indices":144,
					"material":12
				},
				{
					"attributes":{
						"POSITION":145,
						"NORMAL":146,
						"TEXCOORD_0":147
					},
					"indices":148,
					"material":6
				}
			]
		},
		{
			"name":"Vert.080",
			"primitives":[
				{
					"attributes":{
						"POSITION":149,
						"NORMAL":150,
						"TEXCOORD_0":151
					},
					"indices":144,
					"material":12
				},
				{
					"attributes":{
						"POSITION":152,
						"NORMAL":153,
						"TEXCOORD_0":154
					},
					"indices":148,
					"material":6
				}
			]
		},
		{
			"name":"Vert.074",
			"primitives":[
				{
					"attributes":{
						"POSITION":155,
						"NORMAL":156
					},
					"indices":157,
					"material":6
				}
			]
		},
		{
			"name":"Vert.085",
			"primitives":[
				{
					"attributes":{
						"POSITION":158,
						"NORMAL":159
					},
					"indices":160,
					"material":6
				}
			]
		},
		{
			"name":"Circle.018",
			"primitives":[
				{
					"attributes":{
						"POSITION":161,
						"NORMAL":162,
						"TEXCOORD_0":163
					},
					"indices":164,
					"material":7
				}
			]
		},
		{
			"name":"Seating.003",
			"primitives":[
				{
					"attributes":{
						"POSITION":165,
						"NORMAL":166,
						"TEXCOORD_0":167
					},
					"indices":168,
					"material":8
				}
			]
		},
		{
			"name":"Vert.088",
			"primitives":[
				{
					"attributes":{
						"POSITION":169,
						"NORMAL":170
					},
					"indices":171,
					"material":3
				}
			]
		},
		{
			"name":"Circle.021",
			"primitives":[
				{
					"attributes":{
						"POSITION":172,
						"NORMAL":173,
						"TEXCOORD_0":174
					},
					"indices":175,
					"material":7
				},
				{
					"attributes":{
						"POSITION":176,
						"NORMAL":177,
						"TEXCOORD_0":178
					},
					"indices":179,
					"material":8
				}
			]
		},
		{
			"name":"Circle.022",
			"primitives":[
				{
					"attributes":{
						"POSITION":180,
						"NORMAL":181,
						"TEXCOORD_0":182
					},
					"indices":183,
					"material":13
				}
			]
		},
		{
			"name":"Circle.024",
			"primitives":[
				{
					"attributes":{
						"POSITION":184,
						"NORMAL":185,
						"TEXCOORD_0":186
					},
					"indices":183,
					"material":13
				}
			]
		},
		{
			"name":"Circle.019",
			"primitives":[
				{
					"attributes":{
						"POSITION":187,
						"NORMAL":188,
						"TEXCOORD_0":189
					},
					"indices":190,
					"material":10
				}
			]
		},
		{
			"name":"Circle.023",
			"primitives":[
				{
					"attributes":{
						"POSITION":191,
						"NORMAL":192,
						"TEXCOORD_0":193
					},
					"indices":194,
					"material":10
				}
			]
		},
		{
			"name":"Vert.060",
			"primitives":[
				{
					"attributes":{
						"POSITION":195,
						"NORMAL":196
					},
					"indices":197,
					"material":14
				},
				{
					"attributes":{
						"POSITION":198,
						"NORMAL":199
					},
					"indices":200,
					"material":15
				}
			]
		},
		{
			"name":"Circle.027",
			"primitives":[
				{
					"attributes":{
						"POSITION":201,
						"NORMAL":202,
						"TEXCOORD_0":203
					},
					"indices":204,
					"material":16
				}
			]
		}
	],
	"textures":[
		{
			"sampler":0,
			"source":0
		},
		{
			"sampler":0,
			"source":1
		},
		{
			"sampler":0,
			"source":2
		},
		{
			"sampler":0,
			"source":3
		},
		{
			"sampler":0,
			"source":3
		},
		{
			"sampler":0,
			"source":4
		},
		{
			"sampler":0,
			"source":5
		},
		{
			"sampler":0,
			"source":6
		},
		{
			"sampler":0,
			"source":7
		},
		{
			"sampler":0,
			"source":8
		}
	],
	"images":[
		{
			"mimeType":"image/jpeg",
			"name":"Leather0021_Big",
			"uri":"Leather0021_Big.jpg"
		},
		{
			"mimeType":"image/png",
			"name":"Leather0021_Big",
			"uri":"Leather0021_Big.png"
		},
		{
			"mimeType":"image/png",
			"name":"Metal01_SPEC [softsaaz.ir]",
			"uri":"Metal01_SPEC%20%5Bsoftsaaz.ir%5D.png"
		},
		{
			"mimeType":"image/png",
			"name":"Porsche-Symbol",
			"uri":"Porsche-Symbol.png"
		},
		{
			"mimeType":"image/jpeg",
			"name":"untitled2",
			"uri":"untitled2.jpg"
		},
		{
			"mimeType":"image/jpeg",
			"name":"untitled",
			"uri":"untitled.jpg"
		},
		{
			"mimeType":"image/png",
			"name":"TexturesCom_Various_TireCar_1K_normal.tif",
			"uri":"TexturesCom_Various_TireCar_1K_normal.tif.png"
		},
		{
			"mimeType":"image/png",
			"name":"TexturesCom_Various_TireCar_1K_albedo.tif",
			"uri":"TexturesCom_Various_TireCar_1K_albedo.tif.png"
		},
		{
			"mimeType":"image/png",
			"name":"TexturesCom_Various_TireCar_1K_roughness.tif",
			"uri":"TexturesCom_Various_TireCar_1K_roughness.tif.png"
		}
	],
	"accessors":[
		{
			"bufferView":0,
			"componentType":5126,
			"count":210,
			"max":[
				-0.3784727454185486,
				0.04585995525121689,
				0.3185980021953583
			],
			"min":[
				-0.6878404021263123,
				-0.0295479167252779,
				0.00030709896236658096
			],
			"type":"VEC3"
		},
		{
			"bufferView":1,
			"componentType":5126,
			"count":210,
			"type":"VEC3"
		},
		{
			"bufferView":2,
			"componentType":5126,
			"count":210,
			"type":"VEC2"
		},
		{
			"bufferView":3,
			"componentType":5123,
			"count":1248,
			"type":"SCALAR"
		},
		{
			"bufferView":4,
			"componentType":5126,
			"count":210,
			"max":[
				-0.366382896900177,
				-0.012180434539914131,
				0.3590306341648102
			],
			"min":[
				-0.7035670280456543,
				-0.09358400106430054,
				0.0041220528073608875
			],
			"type":"VEC3"
		},
		{
			"bufferView":5,
			"componentType":5126,
			"count":210,
			"type":"VEC3"
		},
		{
			"bufferView":6,
			"componentType":5126,
			"count":210,
			"type":"VEC2"
		},
		{
			"bufferView":7,
			"componentType":5123,
			"count":1248,
			"type":"SCALAR"
		},
		{
			"bufferView":8,
			"componentType":5126,
			"count":102,
			"max":[
				-0.3579006791114807,
				0.049586646258831024,
				0.39331039786338806
			],
			"min":[
				-0.7105045914649963,
				-0.09886026382446289,
				-0.008349455893039703
			],
			"type":"VEC3"
		},
		{
			"bufferView":9,
			"componentType":5126,
			"count":102,
			"type":"VEC3"
		},
		{
			"bufferView":10,
			"componentType":5123,
			"count":552,
			"type":"SCALAR"
		},
		{
			"bufferView":11,
			"componentType":5126,
			"count":6350,
			"max":[
				0.8303905725479126,
				0.517469048500061,
				0.4812411665916443
			],
			"min":[
				-0.8303914070129395,
				-0.5709633827209473,
				-3.5711262226104736
			],
			"type":"VEC3"
		},
		{
			"bufferView":12,
			"componentType":5126,
			"count":6350,
			"type":"VEC3"
		},
		{
			"bufferView":13,
			"componentType":5123,
			"count":34068,
			"type":"SCALAR"
		},
		{
			"bufferView":14,
			"componentType":5126,
			"count":184,
			"max":[
				0.6767148971557617,
				-0.7014391422271729,
				1.0605642795562744
			],
			"min":[
				0.6338621377944946,
				-0.8156737685203552,
				0.9419885873794556
			],
			"type":"VEC3"
		},
		{
			"bufferView":15,
			"componentType":5126,
			"count":184,
			"type":"VEC3"
		},
		{
			"bufferView":16,
			"componentType":5126,
			"count":184,
			"type":"VEC2"
		},
		{
			"bufferView":17,
			"componentType":5123,
			"count":1092,
			"type":"SCALAR"
		},
		{
			"bufferView":18,
			"componentType":5126,
			"count":1296,
			"max":[
				0.6555849313735962,
				-0.7126102447509766,
				1.2563079595565796
			],
			"min":[
				0.6315288543701172,
				-1.018228530883789,
				0.9506896138191223
			],
			"type":"VEC3"
		},
		{
			"bufferView":19,
			"componentType":5126,
			"count":1296,
			"type":"VEC3"
		},
		{
			"bufferView":20,
			"componentType":5126,
			"count":1296,
			"type":"VEC2"
		},
		{
			"bufferView":21,
			"componentType":5123,
			"count":7776,
			"type":"SCALAR"
		},
		{
			"bufferView":22,
			"componentType":5126,
			"count":56,
			"max":[
				-0.4932471215724945,
				0.3862221837043762,
				-0.9257683753967285
			],
			"min":[
				-0.638850748538971,
				0.11245517432689667,
				-1.0797370672225952
			],
			"type":"VEC3"
		},
		{
			"bufferView":23,
			"componentType":5126,
			"count":56,
			"type":"VEC3"
		},
		{
			"bufferView":24,
			"componentType":5123,
			"count":324,
			"type":"SCALAR"
		},
		{
			"bufferView":25,
			"componentType":5126,
			"count":264,
			"max":[
				-1.338613401458133e-06,
				-0.32886889576911926,
				-3.1266815662384033
			],
			"min":[
				-0.7079886198043823,
				-0.46118542551994324,
				-3.5675716400146484
			],
			"type":"VEC3"
		},
		{
			"bufferView":26,
			"componentType":5126,
			"count":264,
			"type":"VEC3"
		},
		{
			"bufferView":27,
			"componentType":5123,
			"count":1518,
			"type":"SCALAR"
		},
		{
			"bufferView":28,
			"componentType":5126,
			"count":1270,
			"max":[
				0.488857626914978,
				0.0696941390633583,
				-1.9268139600753784
			],
			"min":[
				0.1771230846643448,
				-0.06202024966478348,
				-1.9844036102294922
			],
			"type":"VEC3"
		},
		{
			"bufferView":29,
			"componentType":5126,
			"count":1270,
			"type":"VEC3"
		},
		{
			"bufferView":30,
			"componentType":5126,
			"count":1270,
			"type":"VEC2"
		},
		{
			"bufferView":31,
			"componentType":5123,
			"count":6192,
			"type":"SCALAR"
		},
		{
			"bufferView":32,
			"componentType":5126,
			"count":386,
			"max":[
				-0.18110865354537964,
				0.060825835913419724,
				-1.9261757135391235
			],
			"min":[
				-0.46194469928741455,
				-0.07495155930519104,
				-1.9732472896575928
			],
			"type":"VEC3"
		},
		{
			"bufferView":33,
			"componentType":5126,
			"count":386,
			"type":"VEC3"
		},
		{
			"bufferView":34,
			"componentType":5123,
			"count":2304,
			"type":"SCALAR"
		},
		{
			"bufferView":35,
			"componentType":5126,
			"count":5223,
			"max":[
				0.192216157913208,
				0.06769932061433792,
				0.013757764361798763
			],
			"min":[
				-0.20982879400253296,
				-0.057792335748672485,
				-0.16273652017116547
			],
			"type":"VEC3"
		},
		{
			"bufferView":36,
			"componentType":5126,
			"count":5223,
			"type":"VEC3"
		},
		{
			"bufferView":37,
			"componentType":5126,
			"count":5223,
			"type":"VEC2"
		},
		{
			"bufferView":38,
			"componentType":5123,
			"count":28800,
			"type":"SCALAR"
		},
		{
			"bufferView":39,
			"componentType":5126,
			"count":42,
			"max":[
				-0.11446817964315414,
				-0.07491514831781387,
				-1.9035654067993164
			],
			"min":[
				-0.5771382451057434,
				-0.08081189543008804,
				-1.9337505102157593
			],
			"type":"VEC3"
		},
		{
			"bufferView":40,
			"componentType":5126,
			"count":42,
			"type":"VEC3"
		},
		{
			"bufferView":41,
			"componentType":5123,
			"count":240,
			"type":"SCALAR"
		},
		{
			"bufferView":42,
			"componentType":5126,
			"count":184,
			"max":[
				-0.028114942833781242,
				-0.12332480400800705,
				-1.245802402496338
			],
			"min":[
				-0.11497490853071213,
				-0.41395696997642517,
				-2.0232295989990234
			],
			"type":"VEC3"
		},
		{
			"bufferView":43,
			"componentType":5126,
			"count":184,
			"type":"VEC3"
		},
		{
			"bufferView":44,
			"componentType":5126,
			"count":184,
			"type":"VEC2"
		},
		{
			"bufferView":45,
			"componentType":5123,
			"count":600,
			"type":"SCALAR"
		},
		{
			"bufferView":46,
			"componentType":5126,
			"count":164,
			"max":[
				-4.7237111289177847e-07,
				-0.27929550409317017,
				-1.2130295038223267
			],
			"min":[
				-0.10283350199460983,
				-0.411800742149353,
				-1.799472451210022
			],
			"type":"VEC3"
		},
		{
			"bufferView":47,
			"componentType":5126,
			"count":164,
			"type":"VEC3"
		},
		{
			"bufferView":48,
			"componentType":5126,
			"count":164,
			"type":"VEC2"
		},
		{
			"bufferView":49,
			"componentType":5123,
			"count":450,
			"type":"SCALAR"
		},
		{
			"bufferView":50,
			"componentType":5126,
			"count":4902,
			"max":[
				-6.856135428279231e-07,
				-0.1291712075471878,
				-1.7606271505355835
			],
			"min":[
				-0.10591498017311096,
				-0.4117145836353302,
				-2.0708606243133545
			],
			"type":"VEC3"
		},
		{
			"bufferView":51,
			"componentType":5126,
			"count":4902,
			"type":"VEC3"
		},
		{
			"bufferView":52,
			"componentType":5126,
			"count":4902,
			"type":"VEC2"
		},
		{
			"bufferView":53,
			"componentType":5123,
			"count":25572,
			"type":"SCALAR"
		},
		{
			"bufferView":54,
			"componentType":5126,
			"count":10,
			"max":[
				-1.3434460015560035e-06,
				-0.3336789608001709,
				-3.4029109477996826
			],
			"min":[
				-0.41483166813850403,
				-0.45108750462532043,
				-3.5140528678894043
			],
			"type":"VEC3"
		},
		{
			"bufferView":55,
			"componentType":5126,
			"count":10,
			"type":"VEC3"
		},
		{
			"bufferView":56,
			"componentType":5123,
			"count":24,
			"type":"SCALAR"
		},
		{
			"bufferView":57,
			"componentType":5126,
			"count":54,
			"max":[
				-0.419711172580719,
				-0.3405494689941406,
				-3.1406915187835693
			],
			"min":[
				-0.6831293106079102,
				-0.45300668478012085,
				-3.3998570442199707
			],
			"type":"VEC3"
		},
		{
			"bufferView":58,
			"componentType":5126,
			"count":54,
			"type":"VEC3"
		},
		{
			"bufferView":59,
			"componentType":5126,
			"count":54,
			"type":"VEC2"
		},
		{
			"bufferView":60,
			"componentType":5123,
			"count":246,
			"type":"SCALAR"
		},
		{
			"bufferView":61,
			"componentType":5126,
			"count":24,
			"max":[
				-0.44940876960754395,
				-0.3548734784126282,
				-3.199362277984619
			],
			"min":[
				-0.6630747318267822,
				-0.4345768392086029,
				-3.3783059120178223
			],
			"type":"VEC3"
		},
		{
			"bufferView":62,
			"componentType":5126,
			"count":24,
			"type":"VEC3"
		},
		{
			"bufferView":63,
			"componentType":5126,
			"count":24,
			"type":"VEC2"
		},
		{
			"bufferView":64,
			"componentType":5123,
			"count":102,
			"type":"SCALAR"
		},
		{
			"bufferView":65,
			"componentType":5126,
			"count":240,
			"max":[
				-0.4696248173713684,
				-0.3649556040763855,
				-3.2084872722625732
			],
			"min":[
				-0.6552699208259583,
				-0.4281822741031647,
				-3.372605323791504
			],
			"type":"VEC3"
		},
		{
			"bufferView":66,
			"componentType":5126,
			"count":240,
			"type":"VEC3"
		},
		{
			"bufferView":67,
			"componentType":5126,
			"count":240,
			"type":"VEC2"
		},
		{
			"bufferView":68,
			"componentType":5123,
			"count":360,
			"type":"SCALAR"
		},
		{
			"bufferView":69,
			"componentType":5126,
			"count":1274,
			"max":[
				-0.4024983048439026,
				-0.39082619547843933,
				0.38411036133766174
			],
			"min":[
				-0.5630109906196594,
				-0.46108314394950867,
				0.13029730319976807
			],
			"type":"VEC3"
		},
		{
			"bufferView":70,
			"componentType":5126,
			"count":1274,
			"type":"VEC3"
		},
		{
			"bufferView":71,
			"componentType":5126,
			"count":1274,
			"type":"VEC2"
		},
		{
			"bufferView":72,
			"componentType":5123,
			"count":4584,
			"type":"SCALAR"
		},
		{
			"bufferView":73,
			"componentType":5126,
			"count":135,
			"max":[
				-0.3387681543827057,
				0.015057278797030449,
				-2.850264310836792
			],
			"min":[
				-0.6676285862922668,
				-0.198527529835701,
				-3.4446141719818115
			],
			"type":"VEC3"
		},
		{
			"bufferView":74,
			"componentType":5126,
			"count":135,
			"type":"VEC3"
		},
		{
			"bufferView":75,
			"componentType":5123,
			"count":744,
			"type":"SCALAR"
		},
		{
			"bufferView":76,
			"componentType":5126,
			"count":295,
			"max":[
				0.011356137692928314,
				0.04548539221286774,
				0.011356137692928314
			],
			"min":[
				-0.011356137692928314,
				-0.016331838443875313,
				-0.011356137692928314
			],
			"type":"VEC3"
		},
		{
			"bufferView":77,
			"componentType":5126,
			"count":295,
			"type":"VEC3"
		},
		{
			"bufferView":78,
			"componentType":5126,
			"count":295,
			"type":"VEC2"
		},
		{
			"bufferView":79,
			"componentType":5123,
			"count":1332,
			"type":"SCALAR"
		},
		{
			"bufferView":80,
			"componentType":5126,
			"count":559,
			"max":[
				0.01676468551158905,
				0.06967271119356155,
				0.016764720901846886
			],
			"min":[
				-0.016764819622039795,
				0.03614318370819092,
				-0.01676478609442711
			],
			"type":"VEC3"
		},
		{
			"bufferView":81,
			"componentType":5126,
			"count":559,
			"type":"VEC3"
		},
		{
			"bufferView":82,
			"componentType":5126,
			"count":559,
			"type":"VEC2"
		},
		{
			"bufferView":83,
			"componentType":5123,
			"count":2880,
			"type":"SCALAR"
		},
		{
			"bufferView":84,
			"componentType":5126,
			"count":44220,
			"max":[
				0.42505142092704773,
				0.05488964542746544,
				0.05584625154733658
			],
			"min":[
				-0.42351895570755005,
				-0.05831756442785263,
				-0.054154172539711
			],
			"type":"VEC3"
		},
		{
			"bufferView":85,
			"componentType":5126,
			"count":44220,
			"type":"VEC3"
		},
		{
			"bufferView":86,
			"componentType":5126,
			"count":44220,
			"type":"VEC2"
		},
		{
			"bufferView":87,
			"componentType":5123,
			"count":66372,
			"type":"SCALAR"
		},
		{
			"bufferView":88,
			"componentType":5126,
			"count":78,
			"max":[
				-0.45182377099990845,
				-0.03027995303273201,
				-3.022221088409424
			],
			"min":[
				-0.6276595592498779,
				-0.17143744230270386,
				-3.189650058746338
			],
			"type":"VEC3"
		},
		{
			"bufferView":89,
			"componentType":5126,
			"count":78,
			"type":"VEC3"
		},
		{
			"bufferView":90,
			"componentType":5123,
			"count":423,
			"type":"SCALAR"
		},
		{
			"bufferView":91,
			"componentType":5126,
			"count":50,
			"max":[
				-0.493943989276886,
				-0.1115269735455513,
				-3.0548007488250732
			],
			"min":[
				-0.6124242544174194,
				-0.15556716918945312,
				-3.1310510635375977
			],
			"type":"VEC3"
		},
		{
			"bufferView":92,
			"componentType":5126,
			"count":50,
			"type":"VEC3"
		},
		{
			"bufferView":93,
			"componentType":5123,
			"count":240,
			"type":"SCALAR"
		},
		{
			"bufferView":94,
			"componentType":5126,
			"count":12,
			"max":[
				-0.51198410987854,
				-0.11689327657222748,
				-3.09028697013855
			],
			"min":[
				-0.5965493321418762,
				-0.14808844029903412,
				-3.1243629455566406
			],
			"type":"VEC3"
		},
		{
			"bufferView":95,
			"componentType":5126,
			"count":12,
			"type":"VEC3"
		},
		{
			"bufferView":96,
			"componentType":5123,
			"count":36,
			"type":"SCALAR"
		},
		{
			"bufferView":97,
			"componentType":5126,
			"count":36,
			"max":[
				0.021048322319984436,
				0.032588712871074677,
				0.025122642517089844
			],
			"min":[
				-0.026393329724669456,
				-0.032307036221027374,
				-0.16719631850719452
			],
			"type":"VEC3"
		},
		{
			"bufferView":98,
			"componentType":5126,
			"count":36,
			"type":"VEC3"
		},
		{
			"bufferView":99,
			"componentType":5126,
			"count":36,
			"type":"VEC2"
		},
		{
			"bufferView":100,
			"componentType":5123,
			"count":156,
			"type":"SCALAR"
		},
		{
			"bufferView":101,
			"componentType":5126,
			"count":274,
			"max":[
				-0.3449483811855316,
				-0.0028456326108425856,
				-3.0202219486236572
			],
			"min":[
				-0.6535782814025879,
				-0.19520303606987,
				-3.436988592147827
			],
			"type":"VEC3"
		},
		{
			"bufferView":102,
			"componentType":5126,
			"count":274,
			"type":"VEC3"
		},
		{
			"bufferView":103,
			"componentType":5123,
			"count":1593,
			"type":"SCALAR"
		},
		{
			"bufferView":104,
			"componentType":5126,
			"count":58,
			"max":[
				0.08223645389080048,
				0.09799210727214813,
				0.6334271430969238
			],
			"min":[
				-0.040519241243600845,
				-0.09693101793527603,
				-0.052062876522541046
			],
			"type":"VEC3"
		},
		{
			"bufferView":105,
			"componentType":5126,
			"count":58,
			"type":"VEC3"
		},
		{
			"bufferView":106,
			"componentType":5126,
			"count":58,
			"type":"VEC2"
		},
		{
			"bufferView":107,
			"componentType":5123,
			"count":108,
			"type":"SCALAR"
		},
		{
			"bufferView":108,
			"componentType":5126,
			"count":50,
			"max":[
				0.08223645389080048,
				0.02092652954161167,
				0.6334271430969238
			],
			"min":[
				-0.06241169571876526,
				-0.172565296292305,
				-0.052062876522541046
			],
			"type":"VEC3"
		},
		{
			"bufferView":109,
			"componentType":5126,
			"count":50,
			"type":"VEC3"
		},
		{
			"bufferView":110,
			"componentType":5126,
			"count":50,
			"type":"VEC2"
		},
		{
			"bufferView":111,
			"componentType":5123,
			"count":144,
			"type":"SCALAR"
		},
		{
			"bufferView":112,
			"componentType":5126,
			"count":230,
			"max":[
				-0.5637772679328918,
				0.10690556466579437,
				-0.9773540496826172
			],
			"min":[
				-0.6594148278236389,
				-0.4374161660671234,
				-2.0238230228424072
			],
			"type":"VEC3"
		},
		{
			"bufferView":113,
			"componentType":5126,
			"count":230,
			"type":"VEC3"
		},
		{
			"bufferView":114,
			"componentType":5126,
			"count":230,
			"type":"VEC2"
		},
		{
			"bufferView":115,
			"componentType":5123,
			"count":762,
			"type":"SCALAR"
		},
		{
			"bufferView":116,
			"componentType":5126,
			"count":13689,
			"max":[
				0.6736575365066528,
				0.48862627148628235,
				-0.09204484522342682
			],
			"min":[
				-0.6736589670181274,
				-0.43582963943481445,
				-2.3969898223876953
			],
			"type":"VEC3"
		},
		{
			"bufferView":117,
			"componentType":5126,
			"count":13689,
			"type":"VEC3"
		},
		{
			"bufferView":118,
			"componentType":5126,
			"count":13689,
			"type":"VEC2"
		},
		{
			"bufferView":119,
			"componentType":5123,
			"count":71424,
			"type":"SCALAR"
		},
		{
			"bufferView":120,
			"componentType":5126,
			"count":2295,
			"max":[
				0.1457512527704239,
				0.06261836737394333,
				-1.919844150543213
			],
			"min":[
				-0.14575275778770447,
				-0.13719192147254944,
				-2.0162949562072754
			],
			"type":"VEC3"
		},
		{
			"bufferView":121,
			"componentType":5126,
			"count":2295,
			"type":"VEC3"
		},
		{
			"bufferView":122,
			"componentType":5126,
			"count":2295,
			"type":"VEC2"
		},
		{
			"bufferView":123,
			"componentType":5123,
			"count":11088,
			"type":"SCALAR"
		},
		{
			"bufferView":124,
			"componentType":5126,
			"count":78,
			"max":[
				1.4632608724696183e-07,
				-0.06486732512712479,
				0.3757593631744385
			],
			"min":[
				-0.7615501880645752,
				-0.5709633231163025,
				-3.49059796333313
			],
			"type":"VEC3"
		},
		{
			"bufferView":125,
			"componentType":5126,
			"count":78,
			"type":"VEC3"
		},
		{
			"bufferView":126,
			"componentType":5123,
			"count":327,
			"type":"SCALAR"
		},
		{
			"bufferView":127,
			"componentType":5126,
			"count":1463,
			"max":[
				-0.590435802936554,
				0.24232620000839233,
				-1.765143632888794
			],
			"min":[
				-0.8445369601249695,
				0.09764078259468079,
				-1.9965461492538452
			],
			"type":"VEC3"
		},
		{
			"bufferView":128,
			"componentType":5126,
			"count":1463,
			"type":"VEC3"
		},
		{
			"bufferView":129,
			"componentType":5123,
			"count":8640,
			"type":"SCALAR"
		},
		{
			"bufferView":130,
			"componentType":5126,
			"count":215,
			"max":[
				-0.6778008341789246,
				0.19471827149391174,
				-1.764800786972046
			],
			"min":[
				-0.8443766236305237,
				0.145719975233078,
				-1.881945252418518
			],
			"type":"VEC3"
		},
		{
			"bufferView":131,
			"componentType":5126,
			"count":215,
			"type":"VEC3"
		},
		{
			"bufferView":132,
			"componentType":5123,
			"count":1152,
			"type":"SCALAR"
		},
		{
			"bufferView":133,
			"componentType":5126,
			"count":24,
			"max":[
				0.01903095282614231,
				0.014170731417834759,
				0.012703051790595055
			],
			"min":[
				-0.01903095282614231,
				-0.014170731417834759,
				-0.012703051790595055
			],
			"type":"VEC3"
		},
		{
			"bufferView":134,
			"componentType":5126,
			"count":24,
			"type":"VEC3"
		},
		{
			"bufferView":135,
			"componentType":5126,
			"count":24,
			"type":"VEC2"
		},
		{
			"bufferView":136,
			"componentType":5123,
			"count":96,
			"type":"SCALAR"
		},
		{
			"bufferView":137,
			"componentType":5126,
			"count":27,
			"max":[
				0.019030943512916565,
				0.008182364515960217,
				0.017182132229208946
			],
			"min":[
				-0.019030943512916565,
				-0.008182364515960217,
				-0.017182132229208946
			],
			"type":"VEC3"
		},
		{
			"bufferView":138,
			"componentType":5126,
			"count":27,
			"type":"VEC3"
		},
		{
			"bufferView":139,
			"componentType":5126,
			"count":27,
			"type":"VEC2"
		},
		{
			"bufferView":140,
			"componentType":5123,
			"count":96,
			"type":"SCALAR"
		},
		{
			"bufferView":141,
			"componentType":5126,
			"count":333,
			"max":[
				0.22901861369609833,
				-0.22426937520503998,
				3.476013660430908
			],
			"min":[
				-0.229014053940773,
				-0.33091625571250916,
				3.4496095180511475
			],
			"type":"VEC3"
		},
		{
			"bufferView":142,
			"componentType":5126,
			"count":333,
			"type":"VEC3"
		},
		{
			"bufferView":143,
			"componentType":5126,
			"count":333,
			"type":"VEC2"
		},
		{
			"bufferView":144,
			"componentType":5123,
			"count":1824,
			"type":"SCALAR"
		},
		{
			"bufferView":145,
			"componentType":5126,
			"count":336,
			"max":[
				0.2338019609451294,
				-0.22138458490371704,
				3.4786181449890137
			],
			"min":[
				-0.23379740118980408,
				-0.3336021602153778,
				3.442530870437622
			],
			"type":"VEC3"
		},
		{
			"bufferView":146,
			"componentType":5126,
			"count":336,
			"type":"VEC3"
		},
		{
			"bufferView":147,
			"componentType":5126,
			"count":336,
			"type":"VEC2"
		},
		{
			"bufferView":148,
			"componentType":5123,
			"count":1680,
			"type":"SCALAR"
		},
		{
			"bufferView":149,
			"componentType":5126,
			"count":333,
			"max":[
				0.22901494801044464,
				-0.27186429500579834,
				-3.5503268241882324
			],
			"min":[
				-0.2290177196264267,
				-0.3785111904144287,
				-3.576730489730835
			],
			"type":"VEC3"
		},
		{
			"bufferView":150,
			"componentType":5126,
			"count":333,
			"type":"VEC3"
		},
		{
			"bufferView":151,
			"componentType":5126,
			"count":333,
			"type":"VEC2"
		},
		{
			"bufferView":152,
			"componentType":5126,
			"count":336,
			"max":[
				0.2337982952594757,
				-0.2689795196056366,
				-3.543247699737549
			],
			"min":[
				-0.23380106687545776,
				-0.38119709491729736,
				-3.5793352127075195
			],
			"type":"VEC3"
		},
		{
			"bufferView":153,
			"componentType":5126,
			"count":336,
			"type":"VEC3"
		},
		{
			"bufferView":154,
			"componentType":5126,
			"count":336,
			"type":"VEC2"
		},
		{
			"bufferView":155,
			"componentType":5126,
			"count":100,
			"max":[
				-4.950173959628046e-08,
				0.44094568490982056,
				-0.12711842358112335
			],
			"min":[
				-0.4632723331451416,
				0.1929813176393509,
				-0.7397037744522095
			],
			"type":"VEC3"
		},
		{
			"bufferView":156,
			"componentType":5126,
			"count":100,
			"type":"VEC3"
		},
		{
			"bufferView":157,
			"componentType":5123,
			"count":492,
			"type":"SCALAR"
		},
		{
			"bufferView":158,
			"componentType":5126,
			"count":214,
			"max":[
				-6.714405458296824e-07,
				0.4395409822463989,
				-0.40987634658813477
			],
			"min":[
				-0.6782180070877075,
				0.08346454799175262,
				-2.3558497428894043
			],
			"type":"VEC3"
		},
		{
			"bufferView":159,
			"componentType":5126,
			"count":214,
			"type":"VEC3"
		},
		{
			"bufferView":160,
			"componentType":5123,
			"count":1032,
			"type":"SCALAR"
		},
		{
			"bufferView":161,
			"componentType":5126,
			"count":35142,
			"max":[
				0.2575584053993225,
				0.08389558643102646,
				0.12060088664293289
			],
			"min":[
				-0.2678186297416687,
				-0.5314043760299683,
				-0.4489855468273163
			],
			"type":"VEC3"
		},
		{
			"bufferView":162,
			"componentType":5126,
			"count":35142,
			"type":"VEC3"
		},
		{
			"bufferView":163,
			"componentType":5126,
			"count":35142,
			"type":"VEC2"
		},
		{
			"bufferView":164,
			"componentType":5123,
			"count":194688,
			"type":"SCALAR"
		},
		{
			"bufferView":165,
			"componentType":5126,
			"count":94116,
			"max":[
				0.8346984386444092,
				0.08427156507968903,
				0.0991106629371643
			],
			"min":[
				-0.22101745009422302,
				-0.5096738338470459,
				-0.44238677620887756
			],
			"type":"VEC3"
		},
		{
			"bufferView":166,
			"componentType":5126,
			"count":94116,
			"type":"VEC3"
		},
		{
			"bufferView":167,
			"componentType":5126,
			"count":94116,
			"type":"VEC2"
		},
		{
			"bufferView":168,
			"componentType":5125,
			"count":142848,
			"type":"SCALAR"
		},
		{
			"bufferView":169,
			"componentType":5126,
			"count":80,
			"max":[
				1.6566096405767894e-07,
				0.2164311707019806,
				0.42541050910949707
			],
			"min":[
				-0.4379049241542816,
				0.0502273254096508,
				0.09712531417608261
			],
			"type":"VEC3"
		},
		{
			"bufferView":170,
			"componentType":5126,
			"count":80,
			"type":"VEC3"
		},
		{
			"bufferView":171,
			"componentType":5123,
			"count":432,
			"type":"SCALAR"
		},
		{
			"bufferView":172,
			"componentType":5126,
			"count":7604,
			"max":[
				0.17063236236572266,
				0.16930890083312988,
				0.027914991602301598
			],
			"min":[
				-0.17063236236572266,
				-0.17080654203891754,
				-0.16980648040771484
			],
			"type":"VEC3"
		},
		{
			"bufferView":173,
			"componentType":5126,
			"count":7604,
			"type":"VEC3"
		},
		{
			"bufferView":174,
			"componentType":5126,
			"count":7604,
			"type":"VEC2"
		},
		{
			"bufferView":175,
			"componentType":5123,
			"count":37032,
			"type":"SCALAR"
		},
		{
			"bufferView":176,
			"componentType":5126,
			"count":397,
			"max":[
				0.16222025454044342,
				0.1620921939611435,
				0.02785150520503521
			],
			"min":[
				-0.16222026944160461,
				-0.16094361245632172,
				-0.015450208447873592
			],
			"type":"VEC3"
		},
		{
			"bufferView":177,
			"componentType":5126,
			"count":397,
			"type":"VEC3"
		},
		{
			"bufferView":178,
			"componentType":5126,
			"count":397,
			"type":"VEC2"
		},
		{
			"bufferView":179,
			"componentType":5123,
			"count":1560,
			"type":"SCALAR"
		},
		{
			"bufferView":180,
			"componentType":5126,
			"count":293,
			"max":[
				0.008422330021858215,
				0.3223394751548767,
				0.3191988468170166
			],
			"min":[
				-0.2710604965686798,
				-0.31736236810684204,
				-0.3196476995944977
			],
			"type":"VEC3"
		},
		{
			"bufferView":181,
			"componentType":5126,
			"count":293,
			"type":"VEC3"
		},
		{
			"bufferView":182,
			"componentType":5126,
			"count":293,
			"type":"VEC2"
		},
		{
			"bufferView":183,
			"componentType":5123,
			"count":1200,
			"type":"SCALAR"
		},
		{
			"bufferView":184,
			"componentType":5126,
			"count":293,
			"max":[
				0.008422330021858215,
				0.3223394751548767,
				0.3191988468170166
			],
			"min":[
				-0.2710604965686798,
				-0.31736236810684204,
				-0.3196476995944977
			],
			"type":"VEC3"
		},
		{
			"bufferView":185,
			"componentType":5126,
			"count":293,
			"type":"VEC3"
		},
		{
			"bufferView":186,
			"componentType":5126,
			"count":293,
			"type":"VEC2"
		},
		{
			"bufferView":187,
			"componentType":5126,
			"count":1277,
			"max":[
				0.002852975158020854,
				0.2355106770992279,
				0.2328289896249771
			],
			"min":[
				-0.2285710573196411,
				-0.23064419627189636,
				-0.23270265758037567
			],
			"type":"VEC3"
		},
		{
			"bufferView":188,
			"componentType":5126,
			"count":1277,
			"type":"VEC3"
		},
		{
			"bufferView":189,
			"componentType":5126,
			"count":1277,
			"type":"VEC2"
		},
		{
			"bufferView":190,
			"componentType":5123,
			"count":4419,
			"type":"SCALAR"
		},
		{
			"bufferView":191,
			"componentType":5126,
			"count":770,
			"max":[
				0.002852975158020854,
				0.2355106770992279,
				0.2328289896249771
			],
			"min":[
				-0.2285710573196411,
				-0.23064419627189636,
				-0.23270265758037567
			],
			"type":"VEC3"
		},
		{
			"bufferView":192,
			"componentType":5126,
			"count":770,
			"type":"VEC3"
		},
		{
			"bufferView":193,
			"componentType":5126,
			"count":770,
			"type":"VEC2"
		},
		{
			"bufferView":194,
			"componentType":5123,
			"count":4419,
			"type":"SCALAR"
		},
		{
			"bufferView":195,
			"componentType":5126,
			"count":65,
			"max":[
				-6.748152827640297e-07,
				0.4312398135662079,
				-0.9938162565231323
			],
			"min":[
				-0.6715289354324341,
				0.08466885983943939,
				-2.3585798740386963
			],
			"type":"VEC3"
		},
		{
			"bufferView":196,
			"componentType":5126,
			"count":65,
			"type":"VEC3"
		},
		{
			"bufferView":197,
			"componentType":5123,
			"count":258,
			"type":"SCALAR"
		},
		{
			"bufferView":198,
			"componentType":5126,
			"count":38,
			"max":[
				-4.950173959628046e-08,
				0.43905705213546753,
				-0.12711842358112335
			],
			"min":[
				-0.6324777603149414,
				0.11523348838090897,
				-0.9947925806045532
			],
			"type":"VEC3"
		},
		{
			"bufferView":199,
			"componentType":5126,
			"count":38,
			"type":"VEC3"
		},
		{
			"bufferView":200,
			"componentType":5123,
			"count":126,
			"type":"SCALAR"
		},
		{
			"bufferView":201,
			"componentType":5126,
			"count":1100,
			"max":[
				-0.003038128837943077,
				0.11732132732868195,
				0.010074875317513943
			],
			"min":[
				-1.0874534845352173,
				0.030868379399180412,
				-0.1911972165107727
			],
			"type":"VEC3"
		},
		{
			"bufferView":202,
			"componentType":5126,
			"count":1100,
			"type":"VEC3"
		},
		{
			"bufferView":203,
			"componentType":5126,
			"count":1100,
			"type":"VEC2"
		},
		{
			"bufferView":204,
			"componentType":5123,
			"count":6444,
			"type":"SCALAR"
		}
	],
	"bufferViews":[
		{
			"buffer":0,
			"byteLength":2520,
			"byteOffset":0,
			"target":34962
		},
		{
			"buffer":0,
			"byteLength":2520,
			"byteOffset":2520,
			"target":34962
		},
		{
			"buffer":0,
			"byteLength":1680,
			"byteOffset":5040,
			"target":34962
		},
		{
			"buffer":0,
			"byteLength":2496,
			"byteOffset":6720,
			"target":34963
		},
		{
			"buffer":0,
			"byteLength":2520,
			"byteOffset":9216,
			"target":34962
		},
		{
			"buffer":0,
			"byteLength":2520,
			"byteOffset":11736,
			"target":34962
		},
		{
			"buffer":0,
			"byteLength":1680,
			"byteOffset":14256,
			"target":34962
		},
		{
			"buffer":0,
			"byteLength":2496,
			"byteOffset":15936,
			"target":34963
		},
		{
			"buffer":0,
			"byteLength":1224,
			"byteOffset":18432,
			"target":34962
		},
		{
			"buffer":0,
			"byteLength":1224,
			"byteOffset":19656,
			"target":34962
		},
		{
			"buffer":0,
			"byteLength":1104,
			"byteOffset":20880,
			"target":34963
		},
		{
			"buffer":0,
			"byteLength":76200,
			"byteOffset":21984,
			"target":34962
		},
		{
			"buffer":0,
			"byteLength":76200,
			"byteOffset":98184,
			"target":34962
		},
		{
			"buffer":0,
			"byteLength":68136,
			"byteOffset":174384,
			"target":34963
		},
		{
			"buffer":0,
			"byteLength":2208,
			"byteOffset":242520,
			"target":34962
		},
		{
			"buffer":0,
			"byteLength":2208,
			"byteOffset":244728,
			"target":34962
		},
		{
			"buffer":0,
			"byteLength":1472,
			"byteOffset":246936,
			"target":34962
		},
		{
			"buffer":0,
			"byteLength":2184,
			"byteOffset":248408,
			"target":34963
		},
		{
			"buffer":0,
			"byteLength":15552,
			"byteOffset":250592,
			"target":34962
		},
		{
			"buffer":0,
			"byteLength":15552,
			"byteOffset":266144,
			"target":34962
		},
		{
			"buffer":0,
			"byteLength":10368,
			"byteOffset":281696,
			"target":34962
		},
		{
			"buffer":0,
			"byteLength":15552,
			"byteOffset":292064,
			"target":34963
		},
		{
			"buffer":0,
			"byteLength":672,
			"byteOffset":307616,
			"target":34962
		},
		{
			"buffer":0,
			"byteLength":672,
			"byteOffset":308288,
			"target":34962
		},
		{
			"buffer":0,
			"byteLength":648,
			"byteOffset":308960,
			"target":34963
		},
		{
			"buffer":0,
			"byteLength":3168,
			"byteOffset":309608,
			"target":34962
		},
		{
			"buffer":0,
			"byteLength":3168,
			"byteOffset":312776,
			"target":34962
		},
		{
			"buffer":0,
			"byteLength":3036,
			"byteOffset":315944,
			"target":34963
		},
		{
			"buffer":0,
			"byteLength":15240,
			"byteOffset":318980,
			"target":34962
		},
		{
			"buffer":0,
			"byteLength":15240,
			"byteOffset":334220,
			"target":34962
		},
		{
			"buffer":0,
			"byteLength":10160,
			"byteOffset":349460,
			"target":34962
		},
		{
			"buffer":0,
			"byteLength":12384,
			"byteOffset":359620,
			"target":34963
		},
		{
			"buffer":0,
			"byteLength":4632,
			"byteOffset":372004,
			"target":34962
		},
		{
			"buffer":0,
			"byteLength":4632,
			"byteOffset":376636,
			"target":34962
		},
		{
			"buffer":0,
			"byteLength":4608,
			"byteOffset":381268,
			"target":34963
		},
		{
			"buffer":0,
			"byteLength":62676,
			"byteOffset":385876,
			"target":34962
		},
		{
			"buffer":0,
			"byteLength":62676,
			"byteOffset":448552,
			"target":34962
		},
		{
			"buffer":0,
			"byteLength":41784,
			"byteOffset":511228,
			"target":34962
		},
		{
			"buffer":0,
			"byteLength":57600,
			"byteOffset":553012,
			"target":34963
		},
		{
			"buffer":0,
			"byteLength":504,
			"byteOffset":610612,
			"target":34962
		},
		{
			"buffer":0,
			"byteLength":504,
			"byteOffset":611116,
			"target":34962
		},
		{
			"buffer":0,
			"byteLength":480,
			"byteOffset":611620,
			"target":34963
		},
		{
			"buffer":0,
			"byteLength":2208,
			"byteOffset":612100,
			"target":34962
		},
		{
			"buffer":0,
			"byteLength":2208,
			"byteOffset":614308,
			"target":34962
		},
		{
			"buffer":0,
			"byteLength":1472,
			"byteOffset":616516,
			"target":34962
		},
		{
			"buffer":0,
			"byteLength":1200,
			"byteOffset":617988,
			"target":34963
		},
		{
			"buffer":0,
			"byteLength":1968,
			"byteOffset":619188,
			"target":34962
		},
		{
			"buffer":0,
			"byteLength":1968,
			"byteOffset":621156,
			"target":34962
		},
		{
			"buffer":0,
			"byteLength":1312,
			"byteOffset":623124,
			"target":34962
		},
		{
			"buffer":0,
			"byteLength":900,
			"byteOffset":624436,
			"target":34963
		},
		{
			"buffer":0,
			"byteLength":58824,
			"byteOffset":625336,
			"target":34962
		},
		{
			"buffer":0,
			"byteLength":58824,
			"byteOffset":684160,
			"target":34962
		},
		{
			"buffer":0,
			"byteLength":39216,
			"byteOffset":742984,
			"target":34962
		},
		{
			"buffer":0,
			"byteLength":51144,
			"byteOffset":782200,
			"target":34963
		},
		{
			"buffer":0,
			"byteLength":120,
			"byteOffset":833344,
			"target":34962
		},
		{
			"buffer":0,
			"byteLength":120,
			"byteOffset":833464,
			"target":34962
		},
		{
			"buffer":0,
			"byteLength":48,
			"byteOffset":833584,
			"target":34963
		},
		{
			"buffer":0,
			"byteLength":648,
			"byteOffset":833632,
			"target":34962
		},
		{
			"buffer":0,
			"byteLength":648,
			"byteOffset":834280,
			"target":34962
		},
		{
			"buffer":0,
			"byteLength":432,
			"byteOffset":834928,
			"target":34962
		},
		{
			"buffer":0,
			"byteLength":492,
			"byteOffset":835360,
			"target":34963
		},
		{
			"buffer":0,
			"byteLength":288,
			"byteOffset":835852,
			"target":34962
		},
		{
			"buffer":0,
			"byteLength":288,
			"byteOffset":836140,
			"target":34962
		},
		{
			"buffer":0,
			"byteLength":192,
			"byteOffset":836428,
			"target":34962
		},
		{
			"buffer":0,
			"byteLength":204,
			"byteOffset":836620,
			"target":34963
		},
		{
			"buffer":0,
			"byteLength":2880,
			"byteOffset":836824,
			"target":34962
		},
		{
			"buffer":0,
			"byteLength":2880,
			"byteOffset":839704,
			"target":34962
		},
		{
			"buffer":0,
			"byteLength":1920,
			"byteOffset":842584,
			"target":34962
		},
		{
			"buffer":0,
			"byteLength":720,
			"byteOffset":844504,
			"target":34963
		},
		{
			"buffer":0,
			"byteLength":15288,
			"byteOffset":845224,
			"target":34962
		},
		{
			"buffer":0,
			"byteLength":15288,
			"byteOffset":860512,
			"target":34962
		},
		{
			"buffer":0,
			"byteLength":10192,
			"byteOffset":875800,
			"target":34962
		},
		{
			"buffer":0,
			"byteLength":9168,
			"byteOffset":885992,
			"target":34963
		},
		{
			"buffer":0,
			"byteLength":1620,
			"byteOffset":895160,
			"target":34962
		},
		{
			"buffer":0,
			"byteLength":1620,
			"byteOffset":896780,
			"target":34962
		},
		{
			"buffer":0,
			"byteLength":1488,
			"byteOffset":898400,
			"target":34963
		},
		{
			"buffer":0,
			"byteLength":3540,
			"byteOffset":899888,
			"target":34962
		},
		{
			"buffer":0,
			"byteLength":3540,
			"byteOffset":903428,
			"target":34962
		},
		{
			"buffer":0,
			"byteLength":2360,
			"byteOffset":906968,
			"target":34962
		},
		{
			"buffer":0,
			"byteLength":2664,
			"byteOffset":909328,
			"target":34963
		},
		{
			"buffer":0,
			"byteLength":6708,
			"byteOffset":911992,
			"target":34962
		},
		{
			"buffer":0,
			"byteLength":6708,
			"byteOffset":918700,
			"target":34962
		},
		{
			"buffer":0,
			"byteLength":4472,
			"byteOffset":925408,
			"target":34962
		},
		{
			"buffer":0,
			"byteLength":5760,
			"byteOffset":929880,
			"target":34963
		},
		{
			"buffer":0,
			"byteLength":530640,
			"byteOffset":935640,
			"target":34962
		},
		{
			"buffer":0,
			"byteLength":530640,
			"byteOffset":1466280,
			"target":34962
		},
		{
			"buffer":0,
			"byteLength":353760,
			"byteOffset":1996920,
			"target":34962
		},
		{
			"buffer":0,
			"byteLength":132744,
			"byteOffset":2350680,
			"target":34963
		},
		{
			"buffer":0,
			"byteLength":936,
			"byteOffset":2483424,
			"target":34962
		},
		{
			"buffer":0,
			"byteLength":936,
			"byteOffset":2484360,
			"target":34962
		},
		{
			"buffer":0,
			"byteLength":846,
			"byteOffset":2485296,
			"target":34963
		},
		{
			"buffer":0,
			"byteLength":600,
			"byteOffset":2486144,
			"target":34962
		},
		{
			"buffer":0,
			"byteLength":600,
			"byteOffset":2486744,
			"target":34962
		},
		{
			"buffer":0,
			"byteLength":480,
			"byteOffset":2487344,
			"target":34963
		},
		{
			"buffer":0,
			"byteLength":144,
			"byteOffset":2487824,
			"target":34962
		},
		{
			"buffer":0,
			"byteLength":144,
			"byteOffset":2487968,
			"target":34962
		},
		{
			"buffer":0,
			"byteLength":72,
			"byteOffset":2488112,
			"target":34963
		},
		{
			"buffer":0,
			"byteLength":432,
			"byteOffset":2488184,
			"target":34962
		},
		{
			"buffer":0,
			"byteLength":432,
			"byteOffset":2488616,
			"target":34962
		},
		{
			"buffer":0,
			"byteLength":288,
			"byteOffset":2489048,
			"target":34962
		},
		{
			"buffer":0,
			"byteLength":312,
			"byteOffset":2489336,
			"target":34963
		},
		{
			"buffer":0,
			"byteLength":3288,
			"byteOffset":2489648,
			"target":34962
		},
		{
			"buffer":0,
			"byteLength":3288,
			"byteOffset":2492936,
			"target":34962
		},
		{
			"buffer":0,
			"byteLength":3186,
			"byteOffset":2496224,
			"target":34963
		},
		{
			"buffer":0,
			"byteLength":696,
			"byteOffset":2499412,
			"target":34962
		},
		{
			"buffer":0,
			"byteLength":696,
			"byteOffset":2500108,
			"target":34962
		},
		{
			"buffer":0,
			"byteLength":464,
			"byteOffset":2500804,
			"target":34962
		},
		{
			"buffer":0,
			"byteLength":216,
			"byteOffset":2501268,
			"target":34963
		},
		{
			"buffer":0,
			"byteLength":600,
			"byteOffset":2501484,
			"target":34962
		},
		{
			"buffer":0,
			"byteLength":600,
			"byteOffset":2502084,
			"target":34962
		},
		{
			"buffer":0,
			"byteLength":400,
			"byteOffset":2502684,
			"target":34962
		},
		{
			"buffer":0,
			"byteLength":288,
			"byteOffset":2503084,
			"target":34963
		},
		{
			"buffer":0,
			"byteLength":2760,
			"byteOffset":2503372,
			"target":34962
		},
		{
			"buffer":0,
			"byteLength":2760,
			"byteOffset":2506132,
			"target":34962
		},
		{
			"buffer":0,
			"byteLength":1840,
			"byteOffset":2508892,
			"target":34962
		},
		{
			"buffer":0,
			"byteLength":1524,
			"byteOffset":2510732,
			"target":34963
		},
		{
			"buffer":0,
			"byteLength":164268,
			"byteOffset":2512256,
			"target":34962
		},
		{
			"buffer":0,
			"byteLength":164268,
			"byteOffset":2676524,
			"target":34962
		},
		{
			"buffer":0,
			"byteLength":109512,
			"byteOffset":2840792,
			"target":34962
		},
		{
			"buffer":0,
			"byteLength":142848,
			"byteOffset":2950304,
			"target":34963
		},
		{
			"buffer":0,
			"byteLength":27540,
			"byteOffset":3093152,
			"target":34962
		},
		{
			"buffer":0,
			"byteLength":27540,
			"byteOffset":3120692,
			"target":34962
		},
		{
			"buffer":0,
			"byteLength":18360,
			"byteOffset":3148232,
			"target":34962
		},
		{
			"buffer":0,
			"byteLength":22176,
			"byteOffset":3166592,
			"target":34963
		},
		{
			"buffer":0,
			"byteLength":936,
			"byteOffset":3188768,
			"target":34962
		},
		{
			"buffer":0,
			"byteLength":936,
			"byteOffset":3189704,
			"target":34962
		},
		{
			"buffer":0,
			"byteLength":654,
			"byteOffset":3190640,
			"target":34963
		},
		{
			"buffer":0,
			"byteLength":17556,
			"byteOffset":3191296,
			"target":34962
		},
		{
			"buffer":0,
			"byteLength":17556,
			"byteOffset":3208852,
			"target":34962
		},
		{
			"buffer":0,
			"byteLength":17280,
			"byteOffset":3226408,
			"target":34963
		},
		{
			"buffer":0,
			"byteLength":2580,
			"byteOffset":3243688,
			"target":34962
		},
		{
			"buffer":0,
			"byteLength":2580,
			"byteOffset":3246268,
			"target":34962
		},
		{
			"buffer":0,
			"byteLength":2304,
			"byteOffset":3248848,
			"target":34963
		},
		{
			"buffer":0,
			"byteLength":288,
			"byteOffset":3251152,
			"target":34962
		},
		{
			"buffer":0,
			"byteLength":288,
			"byteOffset":3251440,
			"target":34962
		},
		{
			"buffer":0,
			"byteLength":192,
			"byteOffset":3251728,
			"target":34962
		},
		{
			"buffer":0,
			"byteLength":192,
			"byteOffset":3251920,
			"target":34963
		},
		{
			"buffer":0,
			"byteLength":324,
			"byteOffset":3252112,
			"target":34962
		},
		{
			"buffer":0,
			"byteLength":324,
			"byteOffset":3252436,
			"target":34962
		},
		{
			"buffer":0,
			"byteLength":216,
			"byteOffset":3252760,
			"target":34962
		},
		{
			"buffer":0,
			"byteLength":192,
			"byteOffset":3252976,
			"target":34963
		},
		{
			"buffer":0,
			"byteLength":3996,
			"byteOffset":3253168,
			"target":34962
		},
		{
			"buffer":0,
			"byteLength":3996,
			"byteOffset":3257164,
			"target":34962
		},
		{
			"buffer":0,
			"byteLength":2664,
			"byteOffset":3261160,
			"target":34962
		},
		{
			"buffer":0,
			"byteLength":3648,
			"byteOffset":3263824,
			"target":34963
		},
		{
			"buffer":0,
			"byteLength":4032,
			"byteOffset":3267472,
			"target":34962
		},
		{
			"buffer":0,
			"byteLength":4032,
			"byteOffset":3271504,
			"target":34962
		},
		{
			"buffer":0,
			"byteLength":2688,
			"byteOffset":3275536,
			"target":34962
		},
		{
			"buffer":0,
			"byteLength":3360,
			"byteOffset":3278224,
			"target":34963
		},
		{
			"buffer":0,
			"byteLength":3996,
			"byteOffset":3281584,
			"target":34962
		},
		{
			"buffer":0,
			"byteLength":3996,
			"byteOffset":3285580,
			"target":34962
		},
		{
			"buffer":0,
			"byteLength":2664,
			"byteOffset":3289576,
			"target":34962
		},
		{
			"buffer":0,
			"byteLength":4032,
			"byteOffset":3292240,
			"target":34962
		},
		{
			"buffer":0,
			"byteLength":4032,
			"byteOffset":3296272,
			"target":34962
		},
		{
			"buffer":0,
			"byteLength":2688,
			"byteOffset":3300304,
			"target":34962
		},
		{
			"buffer":0,
			"byteLength":1200,
			"byteOffset":3302992,
			"target":34962
		},
		{
			"buffer":0,
			"byteLength":1200,
			"byteOffset":3304192,
			"target":34962
		},
		{
			"buffer":0,
			"byteLength":984,
			"byteOffset":3305392,
			"target":34963
		},
		{
			"buffer":0,
			"byteLength":2568,
			"byteOffset":3306376,
			"target":34962
		},
		{
			"buffer":0,
			"byteLength":2568,
			"byteOffset":3308944,
			"target":34962
		},
		{
			"buffer":0,
			"byteLength":2064,
			"byteOffset":3311512,
			"target":34963
		},
		{
			"buffer":0,
			"byteLength":421704,
			"byteOffset":3313576,
			"target":34962
		},
		{
			"buffer":0,
			"byteLength":421704,
			"byteOffset":3735280,
			"target":34962
		},
		{
			"buffer":0,
			"byteLength":281136,
			"byteOffset":4156984,
			"target":34962
		},
		{
			"buffer":0,
			"byteLength":389376,
			"byteOffset":4438120,
			"target":34963
		},
		{
			"buffer":0,
			"byteLength":1129392,
			"byteOffset":4827496,
			"target":34962
		},
		{
			"buffer":0,
			"byteLength":1129392,
			"byteOffset":5956888,
			"target":34962
		},
		{
			"buffer":0,
			"byteLength":752928,
			"byteOffset":7086280,
			"target":34962
		},
		{
			"buffer":0,
			"byteLength":571392,
			"byteOffset":7839208,
			"target":34963
		},
		{
			"buffer":0,
			"byteLength":960,
			"byteOffset":8410600,
			"target":34962
		},
		{
			"buffer":0,
			"byteLength":960,
			"byteOffset":8411560,
			"target":34962
		},
		{
			"buffer":0,
			"byteLength":864,
			"byteOffset":8412520,
			"target":34963
		},
		{
			"buffer":0,
			"byteLength":91248,
			"byteOffset":8413384,
			"target":34962
		},
		{
			"buffer":0,
			"byteLength":91248,
			"byteOffset":8504632,
			"target":34962
		},
		{
			"buffer":0,
			"byteLength":60832,
			"byteOffset":8595880,
			"target":34962
		},
		{
			"buffer":0,
			"byteLength":74064,
			"byteOffset":8656712,
			"target":34963
		},
		{
			"buffer":0,
			"byteLength":4764,
			"byteOffset":8730776,
			"target":34962
		},
		{
			"buffer":0,
			"byteLength":4764,
			"byteOffset":8735540,
			"target":34962
		},
		{
			"buffer":0,
			"byteLength":3176,
			"byteOffset":8740304,
			"target":34962
		},
		{
			"buffer":0,
			"byteLength":3120,
			"byteOffset":8743480,
			"target":34963
		},
		{
			"buffer":0,
			"byteLength":3516,
			"byteOffset":8746600,
			"target":34962
		},
		{
			"buffer":0,
			"byteLength":3516,
			"byteOffset":8750116,
			"target":34962
		},
		{
			"buffer":0,
			"byteLength":2344,
			"byteOffset":8753632,
			"target":34962
		},
		{
			"buffer":0,
			"byteLength":2400,
			"byteOffset":8755976,
			"target":34963
		},
		{
			"buffer":0,
			"byteLength":3516,
			"byteOffset":8758376,
			"target":34962
		},
		{
			"buffer":0,
			"byteLength":3516,
			"byteOffset":8761892,
			"target":34962
		},
		{
			"buffer":0,
			"byteLength":2344,
			"byteOffset":8765408,
			"target":34962
		},
		{
			"buffer":0,
			"byteLength":15324,
			"byteOffset":8767752,
			"target":34962
		},
		{
			"buffer":0,
			"byteLength":15324,
			"byteOffset":8783076,
			"target":34962
		},
		{
			"buffer":0,
			"byteLength":10216,
			"byteOffset":8798400,
			"target":34962
		},
		{
			"buffer":0,
			"byteLength":8838,
			"byteOffset":8808616,
			"target":34963
		},
		{
			"buffer":0,
			"byteLength":9240,
			"byteOffset":8817456,
			"target":34962
		},
		{
			"buffer":0,
			"byteLength":9240,
			"byteOffset":8826696,
			"target":34962
		},
		{
			"buffer":0,
			"byteLength":6160,
			"byteOffset":8835936,
			"target":34962
		},
		{
			"buffer":0,
			"byteLength":8838,
			"byteOffset":8842096,
			"target":34963
		},
		{
			"buffer":0,
			"byteLength":780,
			"byteOffset":8850936,
			"target":34962
		},
		{
			"buffer":0,
			"byteLength":780,
			"byteOffset":8851716,
			"target":34962
		},
		{
			"buffer":0,
			"byteLength":516,
			"byteOffset":8852496,
			"target":34963
		},
		{
			"buffer":0,
			"byteLength":456,
			"byteOffset":8853012,
			"target":34962
		},
		{
			"buffer":0,
			"byteLength":456,
			"byteOffset":8853468,
			"target":34962
		},
		{
			"buffer":0,
			"byteLength":252,
			"byteOffset":8853924,
			"target":34963
		},
		{
			"buffer":0,
			"byteLength":13200,
			"byteOffset":8854176,
			"target":34962
		},
		{
			"buffer":0,
			"byteLength":13200,
			"byteOffset":8867376,
			"target":34962
		},
		{
			"buffer":0,
			"byteLength":8800,
			"byteOffset":8880576,
			"target":34962
		},
		{
			"buffer":0,
			"byteLength":12888,
			"byteOffset":8889376,
			"target":34963
		}
	],
	"samplers":[
		{
			"magFilter":9729,
			"minFilter":9987
		}
	],
	"buffers":[
		{
			"byteLength":8902264,
			"uri":"car.bin"
		}
	]
}
