{
	"asset":{
		"generator":"Khronos glTF Blender I/O v5.0.21",
		"version":"2.0"
	},
	"scene":0,
	"scenes":[
		{
			"name":"Scene",
			"nodes":[
				1
			]
		}
	],
	"nodes":[
		{
			"mesh":0,
			"name":"defaultMaterial.008"
		},
		{
			"children":[
				0
			],
			"name":"Chinese Temple"
		}
	],
	"materials":[
		{
			"doubleSided":true,
			"name":"DefaultMaterial_1003",
			"normalTexture":{
				"index":0
			},
			"occlusionTexture":{
				"index":1
			},
			"pbrMetallicRoughness":{
				"baseColorTexture":{
					"index":2
				},
				"metallicRoughnessTexture":{
					"index":1
				}
			}
		},
		{
			"doubleSided":true,
			"name":"DefaultMaterial_1010",
			"normalTexture":{
				"index":3
			},
			"occlusionTexture":{
				"index":4
			},
			"pbrMetallicRoughness":{
				"baseColorTexture":{
					"index":5
				},
				"metallicRoughnessTexture":{
					"index":4
				}
			}
		},
		{
			"doubleSided":true,
			"name":"DefaultMaterial_1001",
			"normalTexture":{
				"index":6
			},
			"occlusionTexture":{
				"index":7
			},
			"pbrMetallicRoughness":{
				"baseColorTexture":{
					"index":8
				},
				"metallicRoughnessTexture":{
					"index":7
				}
			}
		},
		{
			"doubleSided":true,
			"name":"DefaultMaterial_1008",
			"normalTexture":{
				"index":9
			},
			"occlusionTexture":{
				"index":10
			},
			"pbrMetallicRoughness":{
				"baseColorTexture":{
					"index":11
				},
				"metallicRoughnessTexture":{
					"index":10
				}
			}
		},
		{
			"doubleSided":true,
			"name":"DefaultMaterial_1009",
			"normalTexture":{
				"index":12
			},
			"occlusionTexture":{
				"index":13
			},
			"pbrMetallicRoughness":{
				"baseColorTexture":{
					"index":14
				},
				"metallicRoughnessTexture":{
					"index":13
				}
			}
		},
		{
			"doubleSided":true,
			"name":"DefaultMaterial_1007",
			"normalTexture":{
				"index":15
			},
			"occlusionTexture":{
				"index":16
			},
			"pbrMetallicRoughness":{
				"baseColorTexture":{
					"index":17
				},
				"metallicRoughnessTexture":{
					"index":16
				}
			}
		},
		{
			"doubleSided":true,
			"name":"DefaultMaterial_1002",
			"normalTexture":{
				"index":18
			},
			"occlusionTexture":{
				"index":19
			},
			"pbrMetallicRoughness":{
				"baseColorTexture":{
					"index":20
				},
				"metallicRoughnessTexture":{
					"index":19
				}
			}
		},
		{
			"doubleSided":true,
			"name":"DefaultMaterial_1004",
			"normalTexture":{
				"index":21
			},
			"occlusionTexture":{
				"index":22
			},
			"pbrMetallicRoughness":{
				"baseColorTexture":{
					"index":23
				},
				"metallicRoughnessTexture":{
					"index":22
				}
			}
		},
		{
			"doubleSided":true,
			"name":"DefaultMaterial_1005",
			"normalTexture":{
				"index":24
			},
			"occlusionTexture":{
				"index":25
			},
			"pbrMetallicRoughness":{
				"baseColorTexture":{
					"index":26
				},
				"metallicRoughnessTexture":{
					"index":25
				}
			}
		},
		{
			"doubleSided":true,
			"name":"DefaultMaterial_1006",
			"normalTexture":{
				"index":27
			},
			"occlusionTexture":{
				"index":28
			},
			"pbrMetallicRoughness":{
				"baseColorTexture":{
					"index":29
				},
				"metallicRoughnessTexture":{
					"index":28
				}
			}
		}
	],
	"meshes":[
		{
			"name":"defaultMaterial.008",
			"primitives":[
				{
					"attributes":{
						"POSITION":0,
						"NORMAL":1,
						"TEXCOORD_0":2
					},
					"indices":3,
					"material":0
				},
				{
					"attributes":{
						"POSITION":4,
						"NORMAL":5,
						"TEXCOORD_0":6
					},
					"indices":7,
					"material":1
				},
				{
					"attributes":{
						"POSITION":8,
						"NORMAL":9,
						"TEXCOORD_0":10
					},
					"indices":11,
					"material":2
				},
				{
					"attributes":{
						"POSITION":12,
						"NORMAL":13,
						"TEXCOORD_0":14
					},
					"indices":15,
					"material":3
				},
				{
					"attributes":{
						"POSITION":16,
						"NORMAL":17,
						"TEXCOORD_0":18
					},
					"indices":19,
					"material":4
				},
				{
					"attributes":{
						"POSITION":20,
						"NORMAL":21,
						"TEXCOORD_0":22
					},
					"indices":23,
					"material":5
				},
				{
					"attributes":{
						"POSITION":24,
						"NORMAL":25,
						"TEXCOORD_0":26
					},
					"indices":27,
					"material":6
				},
				{
					"attributes":{
						"POSITION":28,
						"NORMAL":29,
						"TEXCOORD_0":30
					},
					"indices":31,
					"material":7
				},
				{
					"attributes":{
						"POSITION":32,
						"NORMAL":33,
						"TEXCOORD_0":34
					},
					"indices":35,
					"material":8
				},
				{
					"attributes":{
						"POSITION":36,
						"NORMAL":37,
						"TEXCOORD_0":38
					},
					"indices":39,
					"material":9
				}
			]
		}
	],
	"textures":[
		{
			"sampler":0,
			"source":0
		},
		{
			"sampler":0,
			"source":1
		},
		{
			"sampler":0,
			"source":2
		},
		{
			"sampler":0,
			"source":3
		},
		{
			"sampler":0,
			"source":4
		},
		{
			"sampler":0,
			"source":5
		},
		{
			"sampler":0,
			"source":6
		},
		{
			"sampler":0,
			"source":7
		},
		{
			"sampler":0,
			"source":8
		},
		{
			"sampler":0,
			"source":9
		},
		{
			"sampler":0,
			"source":10
		},
		{
			"sampler":0,
			"source":11
		},
		{
			"sampler":0,
			"source":12
		},
		{
			"sampler":0,
			"source":13
		},
		{
			"sampler":0,
			"source":14
		},
		{
			"sampler":0,
			"source":15
		},
		{
			"sampler":0,
			"source":16
		},
		{
			"sampler":0,
			"source":17
		},
		{
			"sampler":0,
			"source":18
		},
		{
			"sampler":0,
			"source":19
		},
		{
			"sampler":0,
			"source":20
		},
		{
			"sampler":0,
			"source":21
		},
		{
			"sampler":0,
			"source":22
		},
		{
			"sampler":0,
			"source":23
		},
		{
			"sampler":0,
			"source":24
		},
		{
			"sampler":0,
			"source":25
		},
		{
			"sampler":0,
			"source":26
		},
		{
			"sampler":0,
			"source":27
		},
		{
			"sampler":0,
			"source":28
		},
		{
			"sampler":0,
			"source":29
		}
	],
	"images":[
		{
			"mimeType":"image/jpeg",
			"name":"DefaultMaterial_1003_normal",
			"uri":"DefaultMaterial_1003_normal.jpg"
		},
		{
			"mimeType":"image/jpeg",
			"name":"DefaultMaterial_1003_metallicRoughness",
			"uri":"DefaultMaterial_1003_metallicRoughness.jpg"
		},
		{
			"mimeType":"image/jpeg",
			"name":"DefaultMaterial_1003_baseColor",
			"uri":"DefaultMaterial_1003_baseColor.jpg"
		},
		{
			"mimeType":"image/jpeg",
			"name":"DefaultMaterial_1010_normal",
			"uri":"DefaultMaterial_1010_normal.jpg"
		},
		{
			"mimeType":"image/jpeg",
			"name":"DefaultMaterial_1010_metallicRoughness",
			"uri":"DefaultMaterial_1010_metallicRoughness.jpg"
		},
		{
			"mimeType":"image/jpeg",
			"name":"DefaultMaterial_1010_baseColor",
			"uri":"DefaultMaterial_1010_baseColor.jpg"
		},
		{
			"mimeType":"image/jpeg",
			"name":"DefaultMaterial_1001_normal",
			"uri":"DefaultMaterial_1001_normal.jpg"
		},
		{
			"mimeType":"image/jpeg",
			"name":"DefaultMaterial_1001_metallicRoughness",
			"uri":"DefaultMaterial_1001_metallicRoughness.jpg"
		},
		{
			"mimeType":"image/jpeg",
			"name":"DefaultMaterial_1001_baseColor",
			"uri":"DefaultMaterial_1001_baseColor.jpg"
		},
		{
			"mimeType":"image/jpeg",
			"name":"DefaultMaterial_1008_normal",
			"uri":"DefaultMaterial_1008_normal.jpg"
		},
		{
			"mimeType":"image/jpeg",
			"name":"DefaultMaterial_1008_metallicRoughness",
			"uri":"DefaultMaterial_1008_metallicRoughness.jpg"
		},
		{
			"mimeType":"image/jpeg",
			"name":"DefaultMaterial_1008_baseColor",
			"uri":"DefaultMaterial_1008_baseColor.jpg"
		},
		{
			"mimeType":"image/jpeg",
			"name":"DefaultMaterial_1009_normal",
			"uri":"DefaultMaterial_1009_normal.jpg"
		},
		{
			"mimeType":"image/jpeg",
			"name":"DefaultMaterial_1009_metallicRoughness",
			"uri":"DefaultMaterial_1009_metallicRoughness.jpg"
		},
		{
			"mimeType":"image/jpeg",
			"name":"DefaultMaterial_1009_baseColor",
			"uri":"DefaultMaterial_1009_baseColor.jpg"
		},
		{
			"mimeType":"image/jpeg",
			"name":"DefaultMaterial_1007_normal",
			"uri":"DefaultMaterial_1007_normal.jpg"
		},
		{
			"mimeType":"image/jpeg",
			"name":"DefaultMaterial_1007_metallicRoughness",
			"uri":"DefaultMaterial_1007_metallicRoughness.jpg"
		},
		{
			"mimeType":"image/jpeg",
			"name":"DefaultMaterial_1007_baseColor",
			"uri":"DefaultMaterial_1007_baseColor.jpg"
		},
		{
			"mimeType":"image/jpeg",
			"name":"DefaultMaterial_1002_normal",
			"uri":"DefaultMaterial_1002_normal.jpg"
		},
		{
			"mimeType":"image/jpeg",
			"name":"DefaultMaterial_1002_metallicRoughness",
			"uri":"DefaultMaterial_1002_metallicRoughness.jpg"
		},
		{
			"mimeType":"image/jpeg",
			"name":"DefaultMaterial_1002_baseColor",
			"uri":"DefaultMaterial_1002_baseColor.jpg"
		},
		{
			"mimeType":"image/jpeg",
			"name":"DefaultMaterial_1004_normal",
			"uri":"DefaultMaterial_1004_normal.jpg"
		},
		{
			"mimeType":"image/jpeg",
			"name":"DefaultMaterial_1004_metallicRoughness",
			"uri":"DefaultMaterial_1004_metallicRoughness.jpg"
		},
		{
			"mimeType":"image/jpeg",
			"name":"DefaultMaterial_1004_baseColor",
			"uri":"DefaultMaterial_1004_baseColor.jpg"
		},
		{
			"mimeType":"image/jpeg",
			"name":"DefaultMaterial_1005_normal",
			"uri":"DefaultMaterial_1005_normal.jpg"
		},
		{
			"mimeType":"image/jpeg",
			"name":"DefaultMaterial_1005_metallicRoughness",
			"uri":"DefaultMaterial_1005_metallicRoughness.jpg"
		},
		{
			"mimeType":"image/jpeg",
			"name":"DefaultMaterial_1005_baseColor",
			"uri":"DefaultMaterial_1005_baseColor.jpg"
		},
		{
			"mimeType":"image/jpeg",
			"name":"DefaultMaterial_1006_normal",
			"uri":"DefaultMaterial_1006_normal.jpg"
		},
		{
			"mimeType":"image/jpeg",
			"name":"DefaultMaterial_1006_metallicRoughness",
			"uri":"DefaultMaterial_1006_metallicRoughness.jpg"
		},
		{
			"mimeType":"image/jpeg",
			"name":"DefaultMaterial_1006_baseColor",
			"uri":"DefaultMaterial_1006_baseColor.jpg"
		}
	],
	"accessors":[
		{
			"bufferView":0,
			"componentType":5126,
			"count":11189,
			"max":[
				39.24941635131836,
				36.88658142089844,
				39.514835357666016
			],
			"min":[
				-39.38279342651367,
				24.254783630371094,
				-39.35810852050781
			],
			"type":"VEC3"
		},
		{
			"bufferView":1,
			"componentType":5126,
			"count":11189,
			"type":"VEC3"
		},
		{
			"bufferView":2,
			"componentType":5126,
			"count":11189,
			"type":"VEC2"
		},
		{
			"bufferView":3,
			"componentType":5123,
			"count":26589,
			"type":"SCALAR"
		},
		{
			"bufferView":4,
			"componentType":5126,
			"count":90728,
			"max":[
				37.747947692871094,
				53.68011474609375,
				37.78652572631836
			],
			"min":[
				-37.74795150756836,
				0.1248449981212616,
				-37.78651809692383
			],
			"type":"VEC3"
		},
		{
			"bufferView":5,
			"componentType":5126,
			"count":90728,
			"type":"VEC3"
		},
		{
			"bufferView":6,
			"componentType":5126,
			"count":90728,
			"type":"VEC2"
		},
		{
			"bufferView":7,
			"componentType":5125,
			"count":340383,
			"type":"SCALAR"
		},
		{
			"bufferView":8,
			"componentType":5126,
			"count":113712,
			"max":[
				30.491806030273438,
				78.27699279785156,
				30.502578735351562
			],
			"min":[
				-30.5081844329834,
				0.12499000132083893,
				-30.480690002441406
			],
			"type":"VEC3"
		},
		{
			"bufferView":9,
			"componentType":5126,
			"count":113712,
			"type":"VEC3"
		},
		{
			"bufferView":10,
			"componentType":5126,
			"count":113712,
			"type":"VEC2"
		},
		{
			"bufferView":11,
			"componentType":5125,
			"count":450594,
			"type":"SCALAR"
		},
		{
			"bufferView":12,
			"componentType":5126,
			"count":18991,
			"max":[
				26.990955352783203,
				58.972900390625,
				26.429729461669922
			],
			"min":[
				-27.008319854736328,
				8.875009536743164,
				-21.24078941345215
			],
			"type":"VEC3"
		},
		{
			"bufferView":13,
			"componentType":5126,
			"count":18991,
			"type":"VEC3"
		},
		{
			"bufferView":14,
			"componentType":5126,
			"count":18991,
			"type":"VEC2"
		},
		{
			"bufferView":15,
			"componentType":5123,
			"count":36012,
			"type":"SCALAR"
		},
		{
			"bufferView":16,
			"componentType":5126,
			"count":30961,
			"max":[
				26.728565216064453,
				26.246841430664062,
				27.008344650268555
			],
			"min":[
				-26.744935989379883,
				3.874995231628418,
				-26.991920471191406
			],
			"type":"VEC3"
		},
		{
			"bufferView":17,
			"componentType":5126,
			"count":30961,
			"type":"VEC3"
		},
		{
			"bufferView":18,
			"componentType":5126,
			"count":30961,
			"type":"VEC2"
		},
		{
			"bufferView":19,
			"componentType":5123,
			"count":84954,
			"type":"SCALAR"
		},
		{
			"bufferView":20,
			"componentType":5126,
			"count":9356,
			"max":[
				22.58924102783203,
				59.842735290527344,
				22.613224029541016
			],
			"min":[
				-28.720645904541016,
				36.06312942504883,
				-28.701305389404297
			],
			"type":"VEC3"
		},
		{
			"bufferView":21,
			"componentType":5126,
			"count":9356,
			"type":"VEC3"
		},
		{
			"bufferView":22,
			"componentType":5126,
			"count":9356,
			"type":"VEC2"
		},
		{
			"bufferView":23,
			"componentType":5123,
			"count":18192,
			"type":"SCALAR"
		},
		{
			"bufferView":24,
			"componentType":5126,
			"count":9814,
			"max":[
				39.153953552246094,
				59.827354431152344,
				39.608863830566406
			],
			"min":[
				-39.54574203491211,
				23.779827117919922,
				-39.45209503173828
			],
			"type":"VEC3"
		},
		{
			"bufferView":25,
			"componentType":5126,
			"count":9814,
			"type":"VEC3"
		},
		{
			"bufferView":26,
			"componentType":5126,
			"count":9814,
			"type":"VEC2"
		},
		{
			"bufferView":27,
			"componentType":5123,
			"count":20991,
			"type":"SCALAR"
		},
		{
			"bufferView":28,
			"componentType":5126,
			"count":8643,
			"max":[
				39.249412536621094,
				37.419212341308594,
				39.27410888671875
			],
			"min":[
				-39.623531341552734,
				23.779834747314453,
				-39.03174591064453
			],
			"type":"VEC3"
		},
		{
			"bufferView":29,
			"componentType":5126,
			"count":8643,
			"type":"VEC3"
		},
		{
			"bufferView":30,
			"componentType":5126,
			"count":8643,
			"type":"VEC2"
		},
		{
			"bufferView":31,
			"componentType":5123,
			"count":18129,
			"type":"SCALAR"
		},
		{
			"bufferView":32,
			"componentType":5126,
			"count":13335,
			"max":[
				29.08438491821289,
				78.27699279785156,
				29.198284149169922
			],
			"min":[
				-39.545711517333984,
				23.779850006103516,
				-39.452144622802734
			],
			"type":"VEC3"
		},
		{
			"bufferView":33,
			"componentType":5126,
			"count":13335,
			"type":"VEC3"
		},
		{
			"bufferView":34,
			"componentType":5126,
			"count":13335,
			"type":"VEC2"
		},
		{
			"bufferView":35,
			"componentType":5123,
			"count":29295,
			"type":"SCALAR"
		},
		{
			"bufferView":36,
			"componentType":5126,
			"count":11680,
			"max":[
				29.08442497253418,
				78.27699279785156,
				0.04492499679327011
			],
			"min":[
				-29.079849243164062,
				57.1669921875,
				-29.300064086914062
			],
			"type":"VEC3"
		},
		{
			"bufferView":37,
			"componentType":5126,
			"count":11680,
			"type":"VEC3"
		},
		{
			"bufferView":38,
			"componentType":5126,
			"count":11680,
			"type":"VEC2"
		},
		{
			"bufferView":39,
			"componentType":5123,
			"count":24036,
			"type":"SCALAR"
		}
	],
	"bufferViews":[
		{
			"buffer":0,
			"byteLength":134268,
			"byteOffset":0,
			"target":34962
		},
		{
			"buffer":0,
			"byteLength":134268,
			"byteOffset":134268,
			"target":34962
		},
		{
			"buffer":0,
			"byteLength":89512,
			"byteOffset":268536,
			"target":34962
		},
		{
			"buffer":0,
			"byteLength":53178,
			"byteOffset":358048,
			"target":34963
		},
		{
			"buffer":0,
			"byteLength":1088736,
			"byteOffset":411228,
			"target":34962
		},
		{
			"buffer":0,
			"byteLength":1088736,
			"byteOffset":1499964,
			"target":34962
		},
		{
			"buffer":0,
			"byteLength":725824,
			"byteOffset":2588700,
			"target":34962
		},
		{
			"buffer":0,
			"byteLength":1361532,
			"byteOffset":3314524,
			"target":34963
		},
		{
			"buffer":0,
			"byteLength":1364544,
			"byteOffset":4676056,
			"target":34962
		},
		{
			"buffer":0,
			"byteLength":1364544,
			"byteOffset":6040600,
			"target":34962
		},
		{
			"buffer":0,
			"byteLength":909696,
			"byteOffset":7405144,
			"target":34962
		},
		{
			"buffer":0,
			"byteLength":1802376,
			"byteOffset":8314840,
			"target":34963
		},
		{
			"buffer":0,
			"byteLength":227892,
			"byteOffset":10117216,
			"target":34962
		},
		{
			"buffer":0,
			"byteLength":227892,
			"byteOffset":10345108,
			"target":34962
		},
		{
			"buffer":0,
			"byteLength":151928,
			"byteOffset":10573000,
			"target":34962
		},
		{
			"buffer":0,
			"byteLength":72024,
			"byteOffset":10724928,
			"target":34963
		},
		{
			"buffer":0,
			"byteLength":371532,
			"byteOffset":10796952,
			"target":34962
		},
		{
			"buffer":0,
			"byteLength":371532,
			"byteOffset":11168484,
			"target":34962
		},
		{
			"buffer":0,
			"byteLength":247688,
			"byteOffset":11540016,
			"target":34962
		},
		{
			"buffer":0,
			"byteLength":169908,
			"byteOffset":11787704,
			"target":34963
		},
		{
			"buffer":0,
			"byteLength":112272,
			"byteOffset":11957612,
			"target":34962
		},
		{
			"buffer":0,
			"byteLength":112272,
			"byteOffset":12069884,
			"target":34962
		},
		{
			"buffer":0,
			"byteLength":74848,
			"byteOffset":12182156,
			"target":34962
		},
		{
			"buffer":0,
			"byteLength":36384,
			"byteOffset":12257004,
			"target":34963
		},
		{
			"buffer":0,
			"byteLength":117768,
			"byteOffset":12293388,
			"target":34962
		},
		{
			"buffer":0,
			"byteLength":117768,
			"byteOffset":12411156,
			"target":34962
		},
		{
			"buffer":0,
			"byteLength":78512,
			"byteOffset":12528924,
			"target":34962
		},
		{
			"buffer":0,
			"byteLength":41982,
			"byteOffset":12607436,
			"target":34963
		},
		{
			"buffer":0,
			"byteLength":103716,
			"byteOffset":12649420,
			"target":34962
		},
		{
			"buffer":0,
			"byteLength":103716,
			"byteOffset":12753136,
			"target":34962
		},
		{
			"buffer":0,
			"byteLength":69144,
			"byteOffset":12856852,
			"target":34962
		},
		{
			"buffer":0,
			"byteLength":36258,
			"byteOffset":12925996,
			"target":34963
		},
		{
			"buffer":0,
			"byteLength":160020,
			"byteOffset":12962256,
			"target":34962
		},
		{
			"buffer":0,
			"byteLength":160020,
			"byteOffset":13122276,
			"target":34962
		},
		{
			"buffer":0,
			"byteLength":106680,
			"byteOffset":13282296,
			"target":34962
		},
		{
			"buffer":0,
			"byteLength":58590,
			"byteOffset":13388976,
			"target":34963
		},
		{
			"buffer":0,
			"byteLength":140160,
			"byteOffset":13447568,
			"target":34962
		},
		{
			"buffer":0,
			"byteLength":140160,
			"byteOffset":13587728,
			"target":34962
		},
		{
			"buffer":0,
			"byteLength":93440,
			"byteOffset":13727888,
			"target":34962
		},
		{
			"buffer":0,
			"byteLength":48072,
			"byteOffset":13821328,
			"target":34963
		}
	],
	"samplers":[
		{
			"magFilter":9729,
			"minFilter":9987
		}
	],
	"buffers":[
		{
			"byteLength":13869400,
			"uri":"temple.bin"
		}
	]
}
