{
	"asset":{
		"generator":"Khronos glTF Blender I/O v4.5.48",
		"version":"2.0"
	},
	"scene":0,
	"scenes":[
		{
			"name":"Scene",
			"nodes":[
				1,
				3,
				62
			]
		}
	],
	"nodes":[
		{
			"name":"carebear uved.obj.cleaner.materialmerger.gles"
		},
		{
			"children":[
				0
			],
			"name":"Sketchfab_model",
			"rotation":[
				-0.70710688829422,
				0,
				0,
				0.7071066498756409
			]
		},
		{
			"name":"carebear uved.obj.cleaner.materialmerger.gles.001"
		},
		{
			"children":[
				2
			],
			"name":"Sketchfab_model.001",
			"rotation":[
				-0.70710688829422,
				0,
				0,
				0.7071066498756409
			]
		},
		{
			"name":"mixamorig:HeadTop_End",
			"rotation":[
				-1.7763566276420137e-15,
				0,
				0,
				1
			],
			"scale":[
				1,
				1.0000001192092896,
				1
			],
			"translation":[
				0,
				2138.9951171875,
				-48.77199172973633
			]
		},
		{
			"children":[
				4
			],
			"name":"mixamorig:Head",
			"rotation":[
				-1.7763566276420137e-15,
				0,
				0,
				1
			],
			"scale":[
				1,
				1.0000001192092896,
				1
			],
			"translation":[
				0,
				565.8017578125,
				-12.901040077209473
			]
		},
		{
			"children":[
				5
			],
			"name":"mixamorig:Neck",
			"rotation":[
				-0.002350993687286973,
				0,
				0,
				0.9999972581863403
			],
			"scale":[
				1,
				0.9999999403953552,
				0.9999998807907104
			],
			"translation":[
				0,
				845.9739379882812,
				-3.0517578125e-05
			]
		},
		{
			"name":"mixamorig:LeftHandThumb4",
			"rotation":[
				3.725291186640334e-09,
				-4.6566135836201283e-08,
				3.166496753692627e-08,
				1
			],
			"scale":[
				0.9999999403953552,
				1,
				0.9999999403953552
			],
			"translation":[
				118.5328369140625,
				204.00360107421875,
				2.6702880859375e-05
			]
		},
		{
			"children":[
				7
			],
			"name":"mixamorig:LeftHandThumb3",
			"rotation":[
				-0.001295487629249692,
				-5.90459080740402e-07,
				-3.1851260473558796e-07,
				0.9999991655349731
			],
			"scale":[
				0.9999998807907104,
				0.9999998807907104,
				0.9999999403953552
			],
			"translation":[
				30.9722900390625,
				255.14157104492188,
				0.000476837158203125
			]
		},
		{
			"children":[
				8
			],
			"name":"mixamorig:LeftHandThumb2",
			"rotation":[
				-0.07897244393825531,
				4.297505427075521e-07,
				4.073287982464535e-07,
				0.9968768358230591
			],
			"scale":[
				1,
				1,
				1.0000001192092896
			],
			"translation":[
				-149.5051727294922,
				131.1667022705078,
				-0.0007476806640625
			]
		},
		{
			"children":[
				9
			],
			"name":"mixamorig:LeftHandThumb1",
			"rotation":[
				0.27708926796913147,
				0.19513525068759918,
				0.5417068600654602,
				0.7692187428474426
			],
			"scale":[
				1,
				0.9999999403953552,
				0.9999998807907104
			],
			"translation":[
				-181.8791961669922,
				-133.39764404296875,
				104.55631256103516
			]
		},
		{
			"name":"mixamorig:LeftHandIndex4",
			"rotation":[
				9.313230187046884e-10,
				6.984919309616089e-08,
				4.842877388000488e-08,
				1
			],
			"scale":[
				1.0000001192092896,
				0.9999999403953552,
				1
			],
			"translation":[
				1.4171142578125,
				153.47476196289062,
				0.00077056884765625
			]
		},
		{
			"children":[
				11
			],
			"name":"mixamorig:LeftHandIndex3",
			"rotation":[
				0.004634858574718237,
				-3.818463767402136e-07,
				2.514597952085751e-07,
				0.9999892711639404
			],
			"scale":[
				0.9999999403953552,
				1.0000001192092896,
				1
			],
			"translation":[
				1.6751861572265625,
				198.0335235595703,
				-0.00141143798828125
			]
		},
		{
			"children":[
				12
			],
			"name":"mixamorig:LeftHandIndex2",
			"rotation":[
				0.17608070373535156,
				9.330958050668414e-08,
				-2.9660384370799875e-07,
				0.9843757152557373
			],
			"translation":[
				-3.0917205810546875,
				221.7884521484375,
				0.00095367431640625
			]
		},
		{
			"children":[
				13
			],
			"name":"mixamorig:LeftHandIndex1",
			"rotation":[
				0.02949545904994011,
				0.005899742711335421,
				0.19603697955608368,
				0.9801350831985474
			],
			"scale":[
				0.9999999403953552,
				1,
				0.9999998807907104
			],
			"translation":[
				-224.4741973876953,
				17.337730407714844,
				-12.46197509765625
			]
		},
		{
			"name":"mixamorig:LeftHandMiddle4",
			"rotation":[
				2.7939681679356454e-09,
				1.1175870895385742e-08,
				8.847565347025466e-09,
				1
			],
			"scale":[
				0.9999999403953552,
				0.9999999403953552,
				1
			],
			"translation":[
				2.528675079345703,
				162.3762969970703,
				-0.000335693359375
			]
		},
		{
			"children":[
				15
			],
			"name":"mixamorig:LeftHandMiddle3",
			"rotation":[
				0.052598193287849426,
				-4.4415720878987486e-08,
				2.7372206545805966e-07,
				0.9986157417297363
			],
			"translation":[
				1.312255859375,
				201.8158416748047,
				0.000675201416015625
			]
		},
		{
			"children":[
				16
			],
			"name":"mixamorig:LeftHandMiddle2",
			"rotation":[
				0.13234159350395203,
				-3.945439885910673e-08,
				-2.243851469074798e-07,
				0.9912042021751404
			],
			"scale":[
				1,
				0.9999998211860657,
				0.9999998807907104
			],
			"translation":[
				-3.8409805297851562,
				220.28614807128906,
				0.0003414154052734375
			]
		},
		{
			"children":[
				17
			],
			"name":"mixamorig:LeftHandMiddle1",
			"rotation":[
				-0.021568933501839638,
				-0.003199768951162696,
				0.146725133061409,
				0.9889369606971741
			],
			"scale":[
				1,
				1,
				0.9999999403953552
			],
			"translation":[
				-0.40326690673828125,
				148.4421844482422,
				12.682933807373047
			]
		},
		{
			"name":"mixamorig:LeftHandRing4",
			"rotation":[
				1.909211633233099e-08,
				5.4016709327697754e-08,
				1.3969839507410597e-08,
				1
			],
			"scale":[
				1,
				0.9999999403953552,
				0.9999999403953552
			],
			"translation":[
				2.30743408203125,
				133.33575439453125,
				0.0008087158203125
			]
		},
		{
			"children":[
				19
			],
			"name":"mixamorig:LeftHandRing3",
			"rotation":[
				0.022676827386021614,
				4.00571735781341e-08,
				2.9809990564899636e-07,
				0.9997428059577942
			],
			"translation":[
				2.161407470703125,
				176.927001953125,
				-0.000396728515625
			]
		},
		{
			"children":[
				20
			],
			"name":"mixamorig:LeftHandRing2",
			"rotation":[
				0.13612064719200134,
				-1.355026455485131e-07,
				-3.8072936803246193e-08,
				0.9906922578811646
			],
			"scale":[
				1.0000001192092896,
				1.0000001192092896,
				1
			],
			"translation":[
				-4.4688720703125,
				197.19595336914062,
				-0.0012340545654296875
			]
		},
		{
			"children":[
				21
			],
			"name":"mixamorig:LeftHandRing1",
			"rotation":[
				-0.023686934262514114,
				-0.0016092302976176143,
				0.06777354329824448,
				0.997418224811554
			],
			"scale":[
				1,
				1.0000001192092896,
				1
			],
			"translation":[
				224.87844848632812,
				219.536376953125,
				-5.7552490234375
			]
		},
		{
			"children":[
				10,
				14,
				18,
				22
			],
			"name":"mixamorig:LeftHand",
			"rotation":[
				0.051850926131010056,
				-0.16357290744781494,
				-0.14320920407772064,
				0.974703311920166
			],
			"scale":[
				1,
				0.9999998211860657,
				0.9999999403953552
			],
			"translation":[
				-3.814697265625e-06,
				1560.209228515625,
				0.0003542304039001465
			]
		},
		{
			"children":[
				23
			],
			"name":"mixamorig:LeftForeArm",
			"rotation":[
				0.00017266905342694372,
				-6.901020697114291e-06,
				-0.04037453979253769,
				0.9991846084594727
			],
			"scale":[
				1,
				1.0000001192092896,
				0.9999998807907104
			],
			"translation":[
				-7.62939453125e-06,
				1049.1685791015625,
				0.00018145889043807983
			]
		},
		{
			"children":[
				24
			],
			"name":"mixamorig:LeftArm",
			"rotation":[
				-0.11523161083459854,
				-0.003395447973161936,
				0.02925681509077549,
				0.9929019212722778
			],
			"scale":[
				1.0000001192092896,
				1.0000001192092896,
				1.0000001192092896
			],
			"translation":[
				9.059906005859375e-06,
				942.213134765625,
				-0.0010065436363220215
			]
		},
		{
			"children":[
				25
			],
			"name":"mixamorig:LeftShoulder",
			"rotation":[
				0.5536118149757385,
				0.44032609462738037,
				-0.5517768859863281,
				0.44177964329719543
			],
			"scale":[
				0.9999999403953552,
				1,
				1
			],
			"translation":[
				458.2675476074219,
				740.079345703125,
				1.5258655548095703
			]
		},
		{
			"name":"mixamorig:RightHandThumb4",
			"rotation":[
				1.3597309589385986e-07,
				-5.867332220077515e-07,
				-3.809109330177307e-07,
				1
			],
			"scale":[
				1,
				0.9999998807907104,
				1
			],
			"translation":[
				-98.67764282226562,
				245.06597900390625,
				-0.000396728515625
			]
		},
		{
			"children":[
				27
			],
			"name":"mixamorig:RightHandThumb3",
			"rotation":[
				0.021235855296254158,
				6.539359560520097e-07,
				4.424780684075813e-07,
				0.9997745156288147
			],
			"scale":[
				0.9999999403953552,
				0.9999999403953552,
				0.9999999403953552
			],
			"translation":[
				-51.040740966796875,
				258.52801513671875,
				-0.000514984130859375
			]
		},
		{
			"children":[
				28
			],
			"name":"mixamorig:RightHandThumb2",
			"rotation":[
				-0.06601425260305405,
				-1.9880538104644074e-07,
				1.652044687716625e-07,
				0.9978187084197998
			],
			"scale":[
				0.9999999403953552,
				1,
				1
			],
			"translation":[
				149.7182159423828,
				132.14781188964844,
				-0.00029754638671875
			]
		},
		{
			"children":[
				29
			],
			"name":"mixamorig:RightHandThumb1",
			"rotation":[
				0.26788750290870667,
				-0.18590635061264038,
				-0.5389723777770996,
				0.7766491770744324
			],
			"scale":[
				0.9999998807907104,
				0.9999997019767761,
				1
			],
			"translation":[
				187.3195037841797,
				-129.8107147216797,
				101.83635711669922
			]
		},
		{
			"name":"mixamorig:RightHandIndex4",
			"rotation":[
				-4.656611096720553e-09,
				5.587935447692871e-09,
				-2.220446049250313e-16,
				1
			],
			"scale":[
				1,
				0.9999998807907104,
				1
			],
			"translation":[
				-1.370086669921875,
				153.1033935546875,
				6.866455078125e-05
			]
		},
		{
			"children":[
				31
			],
			"name":"mixamorig:RightHandIndex3",
			"rotation":[
				0.0032852187287062407,
				-2.691536451493448e-07,
				-1.955787780616447e-07,
				0.9999946355819702
			],
			"scale":[
				1.0000001192092896,
				1,
				1.0000001192092896
			],
			"translation":[
				-1.5936737060546875,
				188.81765747070312,
				0.0016326904296875
			]
		},
		{
			"children":[
				32
			],
			"name":"mixamorig:RightHandIndex2",
			"rotation":[
				0.15872237086296082,
				5.6360999423077374e-08,
				1.235697055790297e-07,
				0.9873232841491699
			],
			"scale":[
				0.9999999403953552,
				1,
				0.9999998807907104
			],
			"translation":[
				2.96380615234375,
				211.86767578125,
				-0.0002899169921875
			]
		},
		{
			"children":[
				33
			],
			"name":"mixamorig:RightHandIndex1",
			"rotation":[
				0.04702921584248543,
				-0.007448035757988691,
				-0.1562422513961792,
				0.986570417881012
			],
			"scale":[
				0.9999999403953552,
				1,
				1
			],
			"translation":[
				237.99415588378906,
				50.62288284301758,
				-9.567401885986328
			]
		},
		{
			"name":"mixamorig:RightHandMiddle4",
			"rotation":[
				9.313224635931761e-10,
				-9.313224857976365e-09,
				0,
				1
			],
			"scale":[
				1.0000001192092896,
				1.0000001192092896,
				1.0000001192092896
			],
			"translation":[
				-0.6754302978515625,
				159.65585327148438,
				0.0002422332763671875
			]
		},
		{
			"children":[
				35
			],
			"name":"mixamorig:RightHandMiddle3",
			"rotation":[
				-0.018287312239408493,
				7.463470552693252e-08,
				3.045934420242702e-07,
				0.999832808971405
			],
			"scale":[
				0.9999999403953552,
				0.9999999403953552,
				0.9999998807907104
			],
			"translation":[
				-1.6063919067382812,
				198.3569793701172,
				0.0001735687255859375
			]
		},
		{
			"children":[
				36
			],
			"name":"mixamorig:RightHandMiddle2",
			"rotation":[
				0.08862567692995071,
				-1.1044708259078106e-08,
				-3.272506265972197e-09,
				0.9960650205612183
			],
			"scale":[
				0.9999999403953552,
				1,
				0.9999998211860657
			],
			"translation":[
				2.2812881469726562,
				214.23057556152344,
				0.0007476806640625
			]
		},
		{
			"children":[
				37
			],
			"name":"mixamorig:RightHandMiddle1",
			"rotation":[
				0.018216578289866447,
				-0.0018570804968476295,
				-0.10139892250299454,
				0.9946773648262024
			],
			"scale":[
				0.9999999403953552,
				0.9999999403953552,
				1
			],
			"translation":[
				-3.9378738403320312,
				148.09835815429688,
				-0.20926475524902344
			]
		},
		{
			"name":"mixamorig:RightHandRing4",
			"rotation":[
				-2.0023437130589627e-08,
				-1.1175872671742582e-08,
				-2.7939679458910405e-09,
				1
			],
			"scale":[
				1,
				0.9999999403953552,
				0.9999998807907104
			],
			"translation":[
				-4.453399658203125,
				149.5052490234375,
				-3.0517578125e-05
			]
		},
		{
			"children":[
				39
			],
			"name":"mixamorig:RightHandRing3",
			"rotation":[
				0.06954734772443771,
				3.734332665317197e-08,
				2.539346155572275e-07,
				0.9975786805152893
			],
			"scale":[
				1,
				1,
				0.9999999403953552
			],
			"translation":[
				-1.864105224609375,
				184.08905029296875,
				-0.000274658203125
			]
		},
		{
			"children":[
				40
			],
			"name":"mixamorig:RightHandRing2",
			"rotation":[
				0.14521397650241852,
				-5.718397844134415e-08,
				-3.5934135667048395e-07,
				0.989400327205658
			],
			"scale":[
				0.9999999403953552,
				0.9999999403953552,
				1
			],
			"translation":[
				6.317901611328125,
				202.6527862548828,
				-0.0011444091796875
			]
		},
		{
			"children":[
				41
			],
			"name":"mixamorig:RightHandRing1",
			"rotation":[
				-0.038059890270233154,
				0.0008036800427362323,
				-0.021097220480442047,
				0.9990524053573608
			],
			"scale":[
				0.9999998211860657,
				1,
				0.9999998807907104
			],
			"translation":[
				-234.05615234375,
				182.322509765625,
				1.780029296875
			]
		},
		{
			"children":[
				30,
				34,
				38,
				42
			],
			"name":"mixamorig:RightHand",
			"rotation":[
				0.04083869606256485,
				0.16712427139282227,
				0.10485174506902695,
				0.9794936776161194
			],
			"scale":[
				1.0000001192092896,
				1,
				1
			],
			"translation":[
				-4.00543212890625e-05,
				1560.235595703125,
				-0.0005885660648345947
			]
		},
		{
			"children":[
				43
			],
			"name":"mixamorig:RightForeArm",
			"rotation":[
				8.864540723152459e-05,
				3.7491747661988484e-06,
				0.04208771139383316,
				0.999113917350769
			],
			"scale":[
				1,
				1.000000238418579,
				0.9999999403953552
			],
			"translation":[
				2.4318695068359375e-05,
				1049.3388671875,
				4.879012703895569e-05
			]
		},
		{
			"children":[
				44
			],
			"name":"mixamorig:RightArm",
			"rotation":[
				-0.1151854395866394,
				0.003814280964434147,
				-0.03287472203373909,
				0.992792546749115
			],
			"scale":[
				0.9999999403953552,
				0.9999999403953552,
				1.0000001192092896
			],
			"translation":[
				-6.556510925292969e-06,
				942.2122192382812,
				-0.0005278289318084717
			]
		},
		{
			"children":[
				45
			],
			"name":"mixamorig:RightShoulder",
			"rotation":[
				0.5523786544799805,
				-0.44130638241767883,
				0.5530206561088562,
				0.44078850746154785
			],
			"scale":[
				1,
				1.0000001192092896,
				1.0000001192092896
			],
			"translation":[
				-458.2675476074219,
				740.0697021484375,
				-0.5300312042236328
			]
		},
		{
			"children":[
				6,
				26,
				46
			],
			"name":"mixamorig:Spine2",
			"rotation":[
				1.6065314412117004e-08,
				0,
				0,
				1
			],
			"scale":[
				1,
				1,
				0.9999999403953552
			],
			"translation":[
				0,
				751.9769897460938,
				1.9073486328125e-06
			]
		},
		{
			"children":[
				47
			],
			"name":"mixamorig:Spine1",
			"rotation":[
				-3.492460209919557e-10,
				0,
				0,
				1
			],
			"scale":[
				1,
				0.9999998807907104,
				0.9999999403953552
			],
			"translation":[
				0,
				657.9788818359375,
				1.9073486328125e-06
			]
		},
		{
			"children":[
				48
			],
			"name":"mixamorig:Spine",
			"rotation":[
				0.0023509785532951355,
				0,
				0,
				0.9999972581863403
			],
			"translation":[
				0,
				563.976318359375,
				2.65181303024292
			]
		},
		{
			"name":"mixamorig:LeftToe_End",
			"rotation":[
				-6.728805601596832e-08,
				2.159504361998188e-07,
				-2.1063172539470543e-07,
				1
			],
			"scale":[
				0.9999999403953552,
				0.9999999403953552,
				1
			],
			"translation":[
				0.00012472271919250488,
				374.4954833984375,
				6.103515625e-05
			]
		},
		{
			"children":[
				50
			],
			"name":"mixamorig:LeftToeBase",
			"rotation":[
				0.2765546143054962,
				-0.01652711257338524,
				0.0047570448368787766,
				0.9608443379402161
			],
			"scale":[
				0.9999999403953552,
				1.0000001192092896,
				1
			],
			"translation":[
				-2.3990869522094727e-06,
				815.9984130859375,
				8.58306884765625e-06
			]
		},
		{
			"children":[
				51
			],
			"name":"mixamorig:LeftFoot",
			"rotation":[
				0.4795059561729431,
				-0.18423298001289368,
				0.10372434556484222,
				0.8516886234283447
			],
			"scale":[
				1.0000001192092896,
				1.0000001192092896,
				1
			],
			"translation":[
				2.46420968323946e-05,
				671.5806274414062,
				-1.5725381672382355e-06
			]
		},
		{
			"children":[
				52
			],
			"name":"mixamorig:LeftLeg",
			"rotation":[
				-0.0015461870934814215,
				1.453774075343972e-05,
				-0.0093805231153965,
				0.9999548196792603
			],
			"translation":[
				-4.469091072678566e-05,
				1095.966796875,
				-3.980209839937743e-06
			]
		},
		{
			"children":[
				53
			],
			"name":"mixamorig:LeftUpLeg",
			"rotation":[
				-2.6613688532961532e-05,
				-0.001552939647808671,
				-0.9998517632484436,
				0.017148826271295547
			],
			"scale":[
				1.000000238418579,
				0.9999999403953552,
				0.9999999403953552
			],
			"translation":[
				690.0180053710938,
				-313.484375,
				32.25522232055664
			]
		},
		{
			"name":"mixamorig:RightToe_End",
			"rotation":[
				1.4319082808356143e-08,
				-3.341119452215935e-07,
				3.4693215411607525e-07,
				1
			],
			"scale":[
				1.0000001192092896,
				1.000000238418579,
				1.0000001192092896
			],
			"translation":[
				1.806020736694336e-05,
				372.55255126953125,
				1.9073486328125e-06
			]
		},
		{
			"children":[
				55
			],
			"name":"mixamorig:RightToeBase",
			"rotation":[
				0.27361825108528137,
				0.02709062211215496,
				-0.007709790021181107,
				0.9614259004592896
			],
			"scale":[
				1.0000001192092896,
				1.0000001192092896,
				1.000000238418579
			],
			"translation":[
				1.8209218978881836e-05,
				824.6941528320312,
				0.00016021728515625
			]
		},
		{
			"children":[
				56
			],
			"name":"mixamorig:RightFoot",
			"rotation":[
				0.486404150724411,
				0.17972537875175476,
				-0.10298848897218704,
				0.8488246202468872
			],
			"scale":[
				1.0000001192092896,
				0.9999999403953552,
				0.9999999403953552
			],
			"translation":[
				5.89833507547155e-06,
				671.611572265625,
				-2.428889274597168e-06
			]
		},
		{
			"children":[
				57
			],
			"name":"mixamorig:RightLeg",
			"rotation":[
				-0.004516095854341984,
				-3.933483822038397e-05,
				0.009380616247653961,
				0.9999458193778992
			],
			"scale":[
				1,
				0.9999998807907104,
				1.0000001192092896
			],
			"translation":[
				-1.779512967914343e-05,
				1095.9625244140625,
				-5.900736141484231e-06
			]
		},
		{
			"children":[
				58
			],
			"name":"mixamorig:RightUpLeg",
			"rotation":[
				4.7849075599515345e-06,
				-0.0002820763038471341,
				0.9998528957366943,
				0.01714891940355301
			],
			"scale":[
				1.0000001192092896,
				0.9999999403953552,
				0.9999998807907104
			],
			"translation":[
				-690.0180053710938,
				-313.484375,
				40.85498809814453
			]
		},
		{
			"children":[
				49,
				54,
				59
			],
			"name":"mixamorig:Hips",
			"rotation":[
				-0.7071067690849304,
				0,
				0,
				0.7071067690849304
			],
			"translation":[
				0,
				-72.49066925048828,
				-2513.3505859375
			]
		},
		{
			"mesh":0,
			"name":"Object_2",
			"skin":0
		},
		{
			"children":[
				61,
				60
			],
			"name":"Armature",
			"rotation":[
				0.7071068286895752,
				0,
				0,
				0.7071068286895752
			],
			"scale":[
				0.009999999776482582,
				0.009999999776482582,
				0.009999999776482582
			]
		}
	],
	"animations":[
		{
			"channels":[
				{
					"sampler":0,
					"target":{
						"node":60,
						"path":"translation"
					}
				},
				{
					"sampler":1,
					"target":{
						"node":60,
						"path":"rotation"
					}
				},
				{
					"sampler":2,
					"target":{
						"node":60,
						"path":"scale"
					}
				},
				{
					"sampler":3,
					"target":{
						"node":49,
						"path":"translation"
					}
				},
				{
					"sampler":4,
					"target":{
						"node":49,
						"path":"rotation"
					}
				},
				{
					"sampler":5,
					"target":{
						"node":49,
						"path":"scale"
					}
				},
				{
					"sampler":6,
					"target":{
						"node":48,
						"path":"translation"
					}
				},
				{
					"sampler":7,
					"target":{
						"node":48,
						"path":"rotation"
					}
				},
				{
					"sampler":8,
					"target":{
						"node":48,
						"path":"scale"
					}
				},
				{
					"sampler":9,
					"target":{
						"node":47,
						"path":"translation"
					}
				},
				{
					"sampler":10,
					"target":{
						"node":47,
						"path":"rotation"
					}
				},
				{
					"sampler":11,
					"target":{
						"node":47,
						"path":"scale"
					}
				},
				{
					"sampler":12,
					"target":{
						"node":6,
						"path":"translation"
					}
				},
				{
					"sampler":13,
					"target":{
						"node":6,
						"path":"rotation"
					}
				},
				{
					"sampler":14,
					"target":{
						"node":6,
						"path":"scale"
					}
				},
				{
					"sampler":15,
					"target":{
						"node":5,
						"path":"translation"
					}
				},
				{
					"sampler":16,
					"target":{
						"node":5,
						"path":"rotation"
					}
				},
				{
					"sampler":17,
					"target":{
						"node":5,
						"path":"scale"
					}
				},
				{
					"sampler":18,
					"target":{
						"node":4,
						"path":"translation"
					}
				},
				{
					"sampler":19,
					"target":{
						"node":4,
						"path":"rotation"
					}
				},
				{
					"sampler":20,
					"target":{
						"node":4,
						"path":"scale"
					}
				},
				{
					"sampler":21,
					"target":{
						"node":26,
						"path":"translation"
					}
				},
				{
					"sampler":22,
					"target":{
						"node":26,
						"path":"rotation"
					}
				},
				{
					"sampler":23,
					"target":{
						"node":26,
						"path":"scale"
					}
				},
				{
					"sampler":24,
					"target":{
						"node":25,
						"path":"translation"
					}
				},
				{
					"sampler":25,
					"target":{
						"node":25,
						"path":"rotation"
					}
				},
				{
					"sampler":26,
					"target":{
						"node":25,
						"path":"scale"
					}
				},
				{
					"sampler":27,
					"target":{
						"node":24,
						"path":"translation"
					}
				},
				{
					"sampler":28,
					"target":{
						"node":24,
						"path":"rotation"
					}
				},
				{
					"sampler":29,
					"target":{
						"node":24,
						"path":"scale"
					}
				},
				{
					"sampler":30,
					"target":{
						"node":23,
						"path":"translation"
					}
				},
				{
					"sampler":31,
					"target":{
						"node":23,
						"path":"rotation"
					}
				},
				{
					"sampler":32,
					"target":{
						"node":23,
						"path":"scale"
					}
				},
				{
					"sampler":33,
					"target":{
						"node":10,
						"path":"translation"
					}
				},
				{
					"sampler":34,
					"target":{
						"node":10,
						"path":"rotation"
					}
				},
				{
					"sampler":35,
					"target":{
						"node":10,
						"path":"scale"
					}
				},
				{
					"sampler":36,
					"target":{
						"node":9,
						"path":"translation"
					}
				},
				{
					"sampler":37,
					"target":{
						"node":9,
						"path":"rotation"
					}
				},
				{
					"sampler":38,
					"target":{
						"node":9,
						"path":"scale"
					}
				},
				{
					"sampler":39,
					"target":{
						"node":8,
						"path":"translation"
					}
				},
				{
					"sampler":40,
					"target":{
						"node":8,
						"path":"rotation"
					}
				},
				{
					"sampler":41,
					"target":{
						"node":8,
						"path":"scale"
					}
				},
				{
					"sampler":42,
					"target":{
						"node":7,
						"path":"translation"
					}
				},
				{
					"sampler":43,
					"target":{
						"node":7,
						"path":"rotation"
					}
				},
				{
					"sampler":44,
					"target":{
						"node":7,
						"path":"scale"
					}
				},
				{
					"sampler":45,
					"target":{
						"node":14,
						"path":"translation"
					}
				},
				{
					"sampler":46,
					"target":{
						"node":14,
						"path":"rotation"
					}
				},
				{
					"sampler":47,
					"target":{
						"node":14,
						"path":"scale"
					}
				},
				{
					"sampler":48,
					"target":{
						"node":13,
						"path":"translation"
					}
				},
				{
					"sampler":49,
					"target":{
						"node":13,
						"path":"rotation"
					}
				},
				{
					"sampler":50,
					"target":{
						"node":13,
						"path":"scale"
					}
				},
				{
					"sampler":51,
					"target":{
						"node":12,
						"path":"translation"
					}
				},
				{
					"sampler":52,
					"target":{
						"node":12,
						"path":"rotation"
					}
				},
				{
					"sampler":53,
					"target":{
						"node":12,
						"path":"scale"
					}
				},
				{
					"sampler":54,
					"target":{
						"node":11,
						"path":"translation"
					}
				},
				{
					"sampler":55,
					"target":{
						"node":11,
						"path":"rotation"
					}
				},
				{
					"sampler":56,
					"target":{
						"node":11,
						"path":"scale"
					}
				},
				{
					"sampler":57,
					"target":{
						"node":18,
						"path":"translation"
					}
				},
				{
					"sampler":58,
					"target":{
						"node":18,
						"path":"rotation"
					}
				},
				{
					"sampler":59,
					"target":{
						"node":18,
						"path":"scale"
					}
				},
				{
					"sampler":60,
					"target":{
						"node":17,
						"path":"translation"
					}
				},
				{
					"sampler":61,
					"target":{
						"node":17,
						"path":"rotation"
					}
				},
				{
					"sampler":62,
					"target":{
						"node":17,
						"path":"scale"
					}
				},
				{
					"sampler":63,
					"target":{
						"node":16,
						"path":"translation"
					}
				},
				{
					"sampler":64,
					"target":{
						"node":16,
						"path":"rotation"
					}
				},
				{
					"sampler":65,
					"target":{
						"node":16,
						"path":"scale"
					}
				},
				{
					"sampler":66,
					"target":{
						"node":15,
						"path":"translation"
					}
				},
				{
					"sampler":67,
					"target":{
						"node":15,
						"path":"rotation"
					}
				},
				{
					"sampler":68,
					"target":{
						"node":15,
						"path":"scale"
					}
				},
				{
					"sampler":69,
					"target":{
						"node":22,
						"path":"translation"
					}
				},
				{
					"sampler":70,
					"target":{
						"node":22,
						"path":"rotation"
					}
				},
				{
					"sampler":71,
					"target":{
						"node":22,
						"path":"scale"
					}
				},
				{
					"sampler":72,
					"target":{
						"node":21,
						"path":"translation"
					}
				},
				{
					"sampler":73,
					"target":{
						"node":21,
						"path":"rotation"
					}
				},
				{
					"sampler":74,
					"target":{
						"node":21,
						"path":"scale"
					}
				},
				{
					"sampler":75,
					"target":{
						"node":20,
						"path":"translation"
					}
				},
				{
					"sampler":76,
					"target":{
						"node":20,
						"path":"rotation"
					}
				},
				{
					"sampler":77,
					"target":{
						"node":20,
						"path":"scale"
					}
				},
				{
					"sampler":78,
					"target":{
						"node":19,
						"path":"translation"
					}
				},
				{
					"sampler":79,
					"target":{
						"node":19,
						"path":"rotation"
					}
				},
				{
					"sampler":80,
					"target":{
						"node":19,
						"path":"scale"
					}
				},
				{
					"sampler":81,
					"target":{
						"node":46,
						"path":"translation"
					}
				},
				{
					"sampler":82,
					"target":{
						"node":46,
						"path":"rotation"
					}
				},
				{
					"sampler":83,
					"target":{
						"node":46,
						"path":"scale"
					}
				},
				{
					"sampler":84,
					"target":{
						"node":45,
						"path":"translation"
					}
				},
				{
					"sampler":85,
					"target":{
						"node":45,
						"path":"rotation"
					}
				},
				{
					"sampler":86,
					"target":{
						"node":45,
						"path":"scale"
					}
				},
				{
					"sampler":87,
					"target":{
						"node":44,
						"path":"translation"
					}
				},
				{
					"sampler":88,
					"target":{
						"node":44,
						"path":"rotation"
					}
				},
				{
					"sampler":89,
					"target":{
						"node":44,
						"path":"scale"
					}
				},
				{
					"sampler":90,
					"target":{
						"node":43,
						"path":"translation"
					}
				},
				{
					"sampler":91,
					"target":{
						"node":43,
						"path":"rotation"
					}
				},
				{
					"sampler":92,
					"target":{
						"node":43,
						"path":"scale"
					}
				},
				{
					"sampler":93,
					"target":{
						"node":30,
						"path":"translation"
					}
				},
				{
					"sampler":94,
					"target":{
						"node":30,
						"path":"rotation"
					}
				},
				{
					"sampler":95,
					"target":{
						"node":30,
						"path":"scale"
					}
				},
				{
					"sampler":96,
					"target":{
						"node":29,
						"path":"translation"
					}
				},
				{
					"sampler":97,
					"target":{
						"node":29,
						"path":"rotation"
					}
				},
				{
					"sampler":98,
					"target":{
						"node":29,
						"path":"scale"
					}
				},
				{
					"sampler":99,
					"target":{
						"node":28,
						"path":"translation"
					}
				},
				{
					"sampler":100,
					"target":{
						"node":28,
						"path":"rotation"
					}
				},
				{
					"sampler":101,
					"target":{
						"node":28,
						"path":"scale"
					}
				},
				{
					"sampler":102,
					"target":{
						"node":27,
						"path":"translation"
					}
				},
				{
					"sampler":103,
					"target":{
						"node":27,
						"path":"rotation"
					}
				},
				{
					"sampler":104,
					"target":{
						"node":27,
						"path":"scale"
					}
				},
				{
					"sampler":105,
					"target":{
						"node":34,
						"path":"translation"
					}
				},
				{
					"sampler":106,
					"target":{
						"node":34,
						"path":"rotation"
					}
				},
				{
					"sampler":107,
					"target":{
						"node":34,
						"path":"scale"
					}
				},
				{
					"sampler":108,
					"target":{
						"node":33,
						"path":"translation"
					}
				},
				{
					"sampler":109,
					"target":{
						"node":33,
						"path":"rotation"
					}
				},
				{
					"sampler":110,
					"target":{
						"node":33,
						"path":"scale"
					}
				},
				{
					"sampler":111,
					"target":{
						"node":32,
						"path":"translation"
					}
				},
				{
					"sampler":112,
					"target":{
						"node":32,
						"path":"rotation"
					}
				},
				{
					"sampler":113,
					"target":{
						"node":32,
						"path":"scale"
					}
				},
				{
					"sampler":114,
					"target":{
						"node":31,
						"path":"translation"
					}
				},
				{
					"sampler":115,
					"target":{
						"node":31,
						"path":"rotation"
					}
				},
				{
					"sampler":116,
					"target":{
						"node":31,
						"path":"scale"
					}
				},
				{
					"sampler":117,
					"target":{
						"node":38,
						"path":"translation"
					}
				},
				{
					"sampler":118,
					"target":{
						"node":38,
						"path":"rotation"
					}
				},
				{
					"sampler":119,
					"target":{
						"node":38,
						"path":"scale"
					}
				},
				{
					"sampler":120,
					"target":{
						"node":37,
						"path":"translation"
					}
				},
				{
					"sampler":121,
					"target":{
						"node":37,
						"path":"rotation"
					}
				},
				{
					"sampler":122,
					"target":{
						"node":37,
						"path":"scale"
					}
				},
				{
					"sampler":123,
					"target":{
						"node":36,
						"path":"translation"
					}
				},
				{
					"sampler":124,
					"target":{
						"node":36,
						"path":"rotation"
					}
				},
				{
					"sampler":125,
					"target":{
						"node":36,
						"path":"scale"
					}
				},
				{
					"sampler":126,
					"target":{
						"node":35,
						"path":"translation"
					}
				},
				{
					"sampler":127,
					"target":{
						"node":35,
						"path":"rotation"
					}
				},
				{
					"sampler":128,
					"target":{
						"node":35,
						"path":"scale"
					}
				},
				{
					"sampler":129,
					"target":{
						"node":42,
						"path":"translation"
					}
				},
				{
					"sampler":130,
					"target":{
						"node":42,
						"path":"rotation"
					}
				},
				{
					"sampler":131,
					"target":{
						"node":42,
						"path":"scale"
					}
				},
				{
					"sampler":132,
					"target":{
						"node":41,
						"path":"translation"
					}
				},
				{
					"sampler":133,
					"target":{
						"node":41,
						"path":"rotation"
					}
				},
				{
					"sampler":134,
					"target":{
						"node":41,
						"path":"scale"
					}
				},
				{
					"sampler":135,
					"target":{
						"node":40,
						"path":"translation"
					}
				},
				{
					"sampler":136,
					"target":{
						"node":40,
						"path":"rotation"
					}
				},
				{
					"sampler":137,
					"target":{
						"node":40,
						"path":"scale"
					}
				},
				{
					"sampler":138,
					"target":{
						"node":39,
						"path":"translation"
					}
				},
				{
					"sampler":139,
					"target":{
						"node":39,
						"path":"rotation"
					}
				},
				{
					"sampler":140,
					"target":{
						"node":39,
						"path":"scale"
					}
				},
				{
					"sampler":141,
					"target":{
						"node":54,
						"path":"translation"
					}
				},
				{
					"sampler":142,
					"target":{
						"node":54,
						"path":"rotation"
					}
				},
				{
					"sampler":143,
					"target":{
						"node":54,
						"path":"scale"
					}
				},
				{
					"sampler":144,
					"target":{
						"node":53,
						"path":"translation"
					}
				},
				{
					"sampler":145,
					"target":{
						"node":53,
						"path":"rotation"
					}
				},
				{
					"sampler":146,
					"target":{
						"node":53,
						"path":"scale"
					}
				},
				{
					"sampler":147,
					"target":{
						"node":52,
						"path":"translation"
					}
				},
				{
					"sampler":148,
					"target":{
						"node":52,
						"path":"rotation"
					}
				},
				{
					"sampler":149,
					"target":{
						"node":52,
						"path":"scale"
					}
				},
				{
					"sampler":150,
					"target":{
						"node":51,
						"path":"translation"
					}
				},
				{
					"sampler":151,
					"target":{
						"node":51,
						"path":"rotation"
					}
				},
				{
					"sampler":152,
					"target":{
						"node":51,
						"path":"scale"
					}
				},
				{
					"sampler":153,
					"target":{
						"node":50,
						"path":"translation"
					}
				},
				{
					"sampler":154,
					"target":{
						"node":50,
						"path":"rotation"
					}
				},
				{
					"sampler":155,
					"target":{
						"node":50,
						"path":"scale"
					}
				},
				{
					"sampler":156,
					"target":{
						"node":59,
						"path":"translation"
					}
				},
				{
					"sampler":157,
					"target":{
						"node":59,
						"path":"rotation"
					}
				},
				{
					"sampler":158,
					"target":{
						"node":59,
						"path":"scale"
					}
				},
				{
					"sampler":159,
					"target":{
						"node":58,
						"path":"translation"
					}
				},
				{
					"sampler":160,
					"target":{
						"node":58,
						"path":"rotation"
					}
				},
				{
					"sampler":161,
					"target":{
						"node":58,
						"path":"scale"
					}
				},
				{
					"sampler":162,
					"target":{
						"node":57,
						"path":"translation"
					}
				},
				{
					"sampler":163,
					"target":{
						"node":57,
						"path":"rotation"
					}
				},
				{
					"sampler":164,
					"target":{
						"node":57,
						"path":"scale"
					}
				},
				{
					"sampler":165,
					"target":{
						"node":56,
						"path":"translation"
					}
				},
				{
					"sampler":166,
					"target":{
						"node":56,
						"path":"rotation"
					}
				},
				{
					"sampler":167,
					"target":{
						"node":56,
						"path":"scale"
					}
				},
				{
					"sampler":168,
					"target":{
						"node":55,
						"path":"translation"
					}
				},
				{
					"sampler":169,
					"target":{
						"node":55,
						"path":"rotation"
					}
				},
				{
					"sampler":170,
					"target":{
						"node":55,
						"path":"scale"
					}
				}
			],
			"name":"Armature|mixamo.com|Layer0",
			"samplers":[
				{
					"input":7,
					"interpolation":"LINEAR",
					"output":8
				},
				{
					"input":7,
					"interpolation":"LINEAR",
					"output":9
				},
				{
					"input":10,
					"interpolation":"STEP",
					"output":11
				},
				{
					"input":7,
					"interpolation":"LINEAR",
					"output":12
				},
				{
					"input":7,
					"interpolation":"LINEAR",
					"output":13
				},
				{
					"input":10,
					"interpolation":"LINEAR",
					"output":14
				},
				{
					"input":7,
					"interpolation":"LINEAR",
					"output":15
				},
				{
					"input":7,
					"interpolation":"LINEAR",
					"output":16
				},
				{
					"input":10,
					"interpolation":"LINEAR",
					"output":17
				},
				{
					"input":7,
					"interpolation":"LINEAR",
					"output":18
				},
				{
					"input":7,
					"interpolation":"LINEAR",
					"output":19
				},
				{
					"input":10,
					"interpolation":"STEP",
					"output":20
				},
				{
					"input":7,
					"interpolation":"LINEAR",
					"output":21
				},
				{
					"input":7,
					"interpolation":"LINEAR",
					"output":22
				},
				{
					"input":10,
					"interpolation":"STEP",
					"output":23
				},
				{
					"input":7,
					"interpolation":"LINEAR",
					"output":24
				},
				{
					"input":7,
					"interpolation":"LINEAR",
					"output":25
				},
				{
					"input":10,
					"interpolation":"LINEAR",
					"output":26
				},
				{
					"input":7,
					"interpolation":"LINEAR",
					"output":27
				},
				{
					"input":10,
					"interpolation":"STEP",
					"output":28
				},
				{
					"input":10,
					"interpolation":"STEP",
					"output":29
				},
				{
					"input":7,
					"interpolation":"LINEAR",
					"output":30
				},
				{
					"input":7,
					"interpolation":"LINEAR",
					"output":31
				},
				{
					"input":10,
					"interpolation":"LINEAR",
					"output":32
				},
				{
					"input":7,
					"interpolation":"LINEAR",
					"output":33
				},
				{
					"input":7,
					"interpolation":"LINEAR",
					"output":34
				},
				{
					"input":10,
					"interpolation":"LINEAR",
					"output":35
				},
				{
					"input":7,
					"interpolation":"LINEAR",
					"output":36
				},
				{
					"input":7,
					"interpolation":"LINEAR",
					"output":37
				},
				{
					"input":10,
					"interpolation":"LINEAR",
					"output":38
				},
				{
					"input":7,
					"interpolation":"LINEAR",
					"output":39
				},
				{
					"input":7,
					"interpolation":"LINEAR",
					"output":40
				},
				{
					"input":10,
					"interpolation":"STEP",
					"output":41
				},
				{
					"input":7,
					"interpolation":"LINEAR",
					"output":42
				},
				{
					"input":7,
					"interpolation":"LINEAR",
					"output":43
				},
				{
					"input":10,
					"interpolation":"STEP",
					"output":44
				},
				{
					"input":7,
					"interpolation":"LINEAR",
					"output":45
				},
				{
					"input":7,
					"interpolation":"LINEAR",
					"output":46
				},
				{
					"input":10,
					"interpolation":"STEP",
					"output":47
				},
				{
					"input":7,
					"interpolation":"LINEAR",
					"output":48
				},
				{
					"input":7,
					"interpolation":"LINEAR",
					"output":49
				},
				{
					"input":10,
					"interpolation":"LINEAR",
					"output":50
				},
				{
					"input":7,
					"interpolation":"LINEAR",
					"output":51
				},
				{
					"input":10,
					"interpolation":"STEP",
					"output":52
				},
				{
					"input":10,
					"interpolation":"STEP",
					"output":53
				},
				{
					"input":7,
					"interpolation":"LINEAR",
					"output":54
				},
				{
					"input":7,
					"interpolation":"LINEAR",
					"output":55
				},
				{
					"input":10,
					"interpolation":"LINEAR",
					"output":56
				},
				{
					"input":7,
					"interpolation":"LINEAR",
					"output":57
				},
				{
					"input":7,
					"interpolation":"LINEAR",
					"output":58
				},
				{
					"input":10,
					"interpolation":"STEP",
					"output":59
				},
				{
					"input":7,
					"interpolation":"LINEAR",
					"output":60
				},
				{
					"input":7,
					"interpolation":"LINEAR",
					"output":61
				},
				{
					"input":10,
					"interpolation":"STEP",
					"output":62
				},
				{
					"input":7,
					"interpolation":"LINEAR",
					"output":63
				},
				{
					"input":10,
					"interpolation":"STEP",
					"output":64
				},
				{
					"input":10,
					"interpolation":"STEP",
					"output":65
				},
				{
					"input":7,
					"interpolation":"LINEAR",
					"output":66
				},
				{
					"input":7,
					"interpolation":"LINEAR",
					"output":67
				},
				{
					"input":10,
					"interpolation":"STEP",
					"output":68
				},
				{
					"input":7,
					"interpolation":"LINEAR",
					"output":69
				},
				{
					"input":7,
					"interpolation":"LINEAR",
					"output":70
				},
				{
					"input":10,
					"interpolation":"LINEAR",
					"output":71
				},
				{
					"input":7,
					"interpolation":"LINEAR",
					"output":72
				},
				{
					"input":7,
					"interpolation":"LINEAR",
					"output":73
				},
				{
					"input":10,
					"interpolation":"LINEAR",
					"output":74
				},
				{
					"input":7,
					"interpolation":"LINEAR",
					"output":75
				},
				{
					"input":10,
					"interpolation":"STEP",
					"output":76
				},
				{
					"input":10,
					"interpolation":"STEP",
					"output":77
				},
				{
					"input":7,
					"interpolation":"LINEAR",
					"output":78
				},
				{
					"input":7,
					"interpolation":"LINEAR",
					"output":79
				},
				{
					"input":10,
					"interpolation":"STEP",
					"output":80
				},
				{
					"input":7,
					"interpolation":"LINEAR",
					"output":81
				},
				{
					"input":7,
					"interpolation":"LINEAR",
					"output":82
				},
				{
					"input":10,
					"interpolation":"LINEAR",
					"output":83
				},
				{
					"input":7,
					"interpolation":"LINEAR",
					"output":84
				},
				{
					"input":7,
					"interpolation":"LINEAR",
					"output":85
				},
				{
					"input":10,
					"interpolation":"STEP",
					"output":86
				},
				{
					"input":7,
					"interpolation":"LINEAR",
					"output":87
				},
				{
					"input":10,
					"interpolation":"STEP",
					"output":88
				},
				{
					"input":10,
					"interpolation":"STEP",
					"output":89
				},
				{
					"input":7,
					"interpolation":"LINEAR",
					"output":90
				},
				{
					"input":7,
					"interpolation":"LINEAR",
					"output":91
				},
				{
					"input":10,
					"interpolation":"LINEAR",
					"output":92
				},
				{
					"input":7,
					"interpolation":"LINEAR",
					"output":93
				},
				{
					"input":7,
					"interpolation":"LINEAR",
					"output":94
				},
				{
					"input":10,
					"interpolation":"LINEAR",
					"output":95
				},
				{
					"input":7,
					"interpolation":"LINEAR",
					"output":96
				},
				{
					"input":7,
					"interpolation":"LINEAR",
					"output":97
				},
				{
					"input":10,
					"interpolation":"LINEAR",
					"output":98
				},
				{
					"input":7,
					"interpolation":"LINEAR",
					"output":99
				},
				{
					"input":7,
					"interpolation":"LINEAR",
					"output":100
				},
				{
					"input":10,
					"interpolation":"STEP",
					"output":101
				},
				{
					"input":7,
					"interpolation":"LINEAR",
					"output":102
				},
				{
					"input":10,
					"interpolation":"LINEAR",
					"output":103
				},
				{
					"input":10,
					"interpolation":"STEP",
					"output":104
				},
				{
					"input":7,
					"interpolation":"LINEAR",
					"output":105
				},
				{
					"input":10,
					"interpolation":"STEP",
					"output":106
				},
				{
					"input":10,
					"interpolation":"LINEAR",
					"output":107
				},
				{
					"input":7,
					"interpolation":"LINEAR",
					"output":108
				},
				{
					"input":10,
					"interpolation":"LINEAR",
					"output":109
				},
				{
					"input":10,
					"interpolation":"LINEAR",
					"output":110
				},
				{
					"input":7,
					"interpolation":"LINEAR",
					"output":111
				},
				{
					"input":10,
					"interpolation":"STEP",
					"output":112
				},
				{
					"input":10,
					"interpolation":"STEP",
					"output":113
				},
				{
					"input":7,
					"interpolation":"LINEAR",
					"output":114
				},
				{
					"input":10,
					"interpolation":"LINEAR",
					"output":115
				},
				{
					"input":10,
					"interpolation":"LINEAR",
					"output":116
				},
				{
					"input":7,
					"interpolation":"LINEAR",
					"output":117
				},
				{
					"input":10,
					"interpolation":"LINEAR",
					"output":118
				},
				{
					"input":10,
					"interpolation":"STEP",
					"output":119
				},
				{
					"input":7,
					"interpolation":"LINEAR",
					"output":120
				},
				{
					"input":10,
					"interpolation":"LINEAR",
					"output":121
				},
				{
					"input":10,
					"interpolation":"STEP",
					"output":122
				},
				{
					"input":7,
					"interpolation":"LINEAR",
					"output":123
				},
				{
					"input":10,
					"interpolation":"STEP",
					"output":124
				},
				{
					"input":10,
					"interpolation":"STEP",
					"output":125
				},
				{
					"input":7,
					"interpolation":"LINEAR",
					"output":126
				},
				{
					"input":10,
					"interpolation":"STEP",
					"output":127
				},
				{
					"input":10,
					"interpolation":"STEP",
					"output":128
				},
				{
					"input":7,
					"interpolation":"LINEAR",
					"output":129
				},
				{
					"input":10,
					"interpolation":"LINEAR",
					"output":130
				},
				{
					"input":10,
					"interpolation":"LINEAR",
					"output":131
				},
				{
					"input":7,
					"interpolation":"LINEAR",
					"output":132
				},
				{
					"input":10,
					"interpolation":"LINEAR",
					"output":133
				},
				{
					"input":10,
					"interpolation":"LINEAR",
					"output":134
				},
				{
					"input":7,
					"interpolation":"LINEAR",
					"output":135
				},
				{
					"input":10,
					"interpolation":"STEP",
					"output":136
				},
				{
					"input":10,
					"interpolation":"STEP",
					"output":137
				},
				{
					"input":7,
					"interpolation":"LINEAR",
					"output":138
				},
				{
					"input":10,
					"interpolation":"LINEAR",
					"output":139
				},
				{
					"input":10,
					"interpolation":"STEP",
					"output":140
				},
				{
					"input":7,
					"interpolation":"LINEAR",
					"output":141
				},
				{
					"input":10,
					"interpolation":"LINEAR",
					"output":142
				},
				{
					"input":10,
					"interpolation":"STEP",
					"output":143
				},
				{
					"input":7,
					"interpolation":"LINEAR",
					"output":144
				},
				{
					"input":10,
					"interpolation":"LINEAR",
					"output":145
				},
				{
					"input":10,
					"interpolation":"STEP",
					"output":146
				},
				{
					"input":7,
					"interpolation":"LINEAR",
					"output":147
				},
				{
					"input":10,
					"interpolation":"STEP",
					"output":148
				},
				{
					"input":10,
					"interpolation":"STEP",
					"output":149
				},
				{
					"input":7,
					"interpolation":"LINEAR",
					"output":150
				},
				{
					"input":7,
					"interpolation":"LINEAR",
					"output":151
				},
				{
					"input":10,
					"interpolation":"LINEAR",
					"output":152
				},
				{
					"input":7,
					"interpolation":"LINEAR",
					"output":153
				},
				{
					"input":7,
					"interpolation":"LINEAR",
					"output":154
				},
				{
					"input":10,
					"interpolation":"LINEAR",
					"output":155
				},
				{
					"input":7,
					"interpolation":"LINEAR",
					"output":156
				},
				{
					"input":7,
					"interpolation":"LINEAR",
					"output":157
				},
				{
					"input":10,
					"interpolation":"STEP",
					"output":158
				},
				{
					"input":7,
					"interpolation":"LINEAR",
					"output":159
				},
				{
					"input":7,
					"interpolation":"LINEAR",
					"output":160
				},
				{
					"input":10,
					"interpolation":"LINEAR",
					"output":161
				},
				{
					"input":7,
					"interpolation":"LINEAR",
					"output":162
				},
				{
					"input":10,
					"interpolation":"STEP",
					"output":163
				},
				{
					"input":10,
					"interpolation":"STEP",
					"output":164
				},
				{
					"input":7,
					"interpolation":"LINEAR",
					"output":165
				},
				{
					"input":7,
					"interpolation":"LINEAR",
					"output":166
				},
				{
					"input":10,
					"interpolation":"STEP",
					"output":167
				},
				{
					"input":7,
					"interpolation":"LINEAR",
					"output":168
				},
				{
					"input":7,
					"interpolation":"LINEAR",
					"output":169
				},
				{
					"input":10,
					"interpolation":"LINEAR",
					"output":170
				},
				{
					"input":7,
					"interpolation":"LINEAR",
					"output":171
				},
				{
					"input":7,
					"interpolation":"LINEAR",
					"output":172
				},
				{
					"input":10,
					"interpolation":"STEP",
					"output":173
				},
				{
					"input":7,
					"interpolation":"LINEAR",
					"output":174
				},
				{
					"input":7,
					"interpolation":"LINEAR",
					"output":175
				},
				{
					"input":10,
					"interpolation":"LINEAR",
					"output":176
				},
				{
					"input":7,
					"interpolation":"LINEAR",
					"output":177
				},
				{
					"input":10,
					"interpolation":"STEP",
					"output":178
				},
				{
					"input":10,
					"interpolation":"STEP",
					"output":179
				}
			]
		}
	],
	"materials":[
		{
			"doubleSided":true,
			"name":"\u30de\u30c6\u30ea\u30a2\u30eb",
			"pbrMetallicRoughness":{
				"baseColorTexture":{
					"index":0
				},
				"metallicFactor":0,
				"roughnessFactor":0.5
			}
		}
	],
	"meshes":[
		{
			"name":"Object_0.004",
			"primitives":[
				{
					"attributes":{
						"POSITION":0,
						"NORMAL":1,
						"TEXCOORD_0":2,
						"JOINTS_0":3,
						"WEIGHTS_0":4
					},
					"indices":5,
					"material":0
				}
			]
		}
	],
	"textures":[
		{
			"sampler":0,
			"source":0
		}
	],
	"images":[
		{
			"mimeType":"image/png",
			"name":"default_baseColor",
			"uri":"base_color.png"
		}
	],
	"skins":[
		{
			"inverseBindMatrices":6,
			"joints":[
				60,
				49,
				48,
				47,
				6,
				5,
				4,
				26,
				25,
				24,
				23,
				10,
				9,
				8,
				7,
				14,
				13,
				12,
				11,
				18,
				17,
				16,
				15,
				22,
				21,
				20,
				19,
				46,
				45,
				44,
				43,
				30,
				29,
				28,
				27,
				34,
				33,
				32,
				31,
				38,
				37,
				36,
				35,
				42,
				41,
				40,
				39,
				54,
				53,
				52,
				51,
				50,
				59,
				58,
				57,
				56,
				55
			],
			"name":"Armature"
		}
	],
	"accessors":[
		{
			"bufferView":0,
			"componentType":5126,
			"count":5943,
			"max":[
				46.947593688964844,
				81.34950256347656,
				13.798748016357422
			],
			"min":[
				-46.947593688964844,
				-1.0976908206939697,
				-12.256532669067383
			],
			"type":"VEC3"
		},
		{
			"bufferView":1,
			"componentType":5126,
			"count":5943,
			"type":"VEC3"
		},
		{
			"bufferView":2,
			"componentType":5126,
			"count":5943,
			"type":"VEC2"
		},
		{
			"bufferView":3,
			"componentType":5121,
			"count":5943,
			"type":"VEC4"
		},
		{
			"bufferView":4,
			"componentType":5126,
			"count":5943,
			"type":"VEC4"
		},
		{
			"bufferView":5,
			"componentType":5123,
			"count":30024,
			"type":"SCALAR"
		},
		{
			"bufferView":6,
			"componentType":5126,
			"count":57,
			"type":"MAT4"
		},
		{
			"bufferView":7,
			"componentType":5126,
			"count":46,
			"max":[
				1.5333333333333334
			],
			"min":[
				0.03333333333333333
			],
			"type":"SCALAR"
		},
		{
			"bufferView":8,
			"componentType":5126,
			"count":46,
			"type":"VEC3"
		},
		{
			"bufferView":9,
			"componentType":5126,
			"count":46,
			"type":"VEC4"
		},
		{
			"bufferView":10,
			"componentType":5126,
			"count":2,
			"max":[
				1.5333333333333334
			],
			"min":[
				0.03333333333333333
			],
			"type":"SCALAR"
		},
		{
			"bufferView":11,
			"componentType":5126,
			"count":2,
			"type":"VEC3"
		},
		{
			"bufferView":12,
			"componentType":5126,
			"count":46,
			"type":"VEC3"
		},
		{
			"bufferView":13,
			"componentType":5126,
			"count":46,
			"type":"VEC4"
		},
		{
			"bufferView":14,
			"componentType":5126,
			"count":2,
			"type":"VEC3"
		},
		{
			"bufferView":15,
			"componentType":5126,
			"count":46,
			"type":"VEC3"
		},
		{
			"bufferView":16,
			"componentType":5126,
			"count":46,
			"type":"VEC4"
		},
		{
			"bufferView":17,
			"componentType":5126,
			"count":2,
			"type":"VEC3"
		},
		{
			"bufferView":18,
			"componentType":5126,
			"count":46,
			"type":"VEC3"
		},
		{
			"bufferView":19,
			"componentType":5126,
			"count":46,
			"type":"VEC4"
		},
		{
			"bufferView":20,
			"componentType":5126,
			"count":2,
			"type":"VEC3"
		},
		{
			"bufferView":21,
			"componentType":5126,
			"count":46,
			"type":"VEC3"
		},
		{
			"bufferView":22,
			"componentType":5126,
			"count":46,
			"type":"VEC4"
		},
		{
			"bufferView":23,
			"componentType":5126,
			"count":2,
			"type":"VEC3"
		},
		{
			"bufferView":24,
			"componentType":5126,
			"count":46,
			"type":"VEC3"
		},
		{
			"bufferView":25,
			"componentType":5126,
			"count":46,
			"type":"VEC4"
		},
		{
			"bufferView":26,
			"componentType":5126,
			"count":2,
			"type":"VEC3"
		},
		{
			"bufferView":27,
			"componentType":5126,
			"count":46,
			"type":"VEC3"
		},
		{
			"bufferView":28,
			"componentType":5126,
			"count":2,
			"type":"VEC4"
		},
		{
			"bufferView":29,
			"componentType":5126,
			"count":2,
			"type":"VEC3"
		},
		{
			"bufferView":30,
			"componentType":5126,
			"count":46,
			"type":"VEC3"
		},
		{
			"bufferView":31,
			"componentType":5126,
			"count":46,
			"type":"VEC4"
		},
		{
			"bufferView":32,
			"componentType":5126,
			"count":2,
			"type":"VEC3"
		},
		{
			"bufferView":33,
			"componentType":5126,
			"count":46,
			"type":"VEC3"
		},
		{
			"bufferView":34,
			"componentType":5126,
			"count":46,
			"type":"VEC4"
		},
		{
			"bufferView":35,
			"componentType":5126,
			"count":2,
			"type":"VEC3"
		},
		{
			"bufferView":36,
			"componentType":5126,
			"count":46,
			"type":"VEC3"
		},
		{
			"bufferView":37,
			"componentType":5126,
			"count":46,
			"type":"VEC4"
		},
		{
			"bufferView":38,
			"componentType":5126,
			"count":2,
			"type":"VEC3"
		},
		{
			"bufferView":39,
			"componentType":5126,
			"count":46,
			"type":"VEC3"
		},
		{
			"bufferView":40,
			"componentType":5126,
			"count":46,
			"type":"VEC4"
		},
		{
			"bufferView":41,
			"componentType":5126,
			"count":2,
			"type":"VEC3"
		},
		{
			"bufferView":42,
			"componentType":5126,
			"count":46,
			"type":"VEC3"
		},
		{
			"bufferView":43,
			"componentType":5126,
			"count":46,
			"type":"VEC4"
		},
		{
			"bufferView":44,
			"componentType":5126,
			"count":2,
			"type":"VEC3"
		},
		{
			"bufferView":45,
			"componentType":5126,
			"count":46,
			"type":"VEC3"
		},
		{
			"bufferView":46,
			"componentType":5126,
			"count":46,
			"type":"VEC4"
		},
		{
			"bufferView":47,
			"componentType":5126,
			"count":2,
			"type":"VEC3"
		},
		{
			"bufferView":48,
			"componentType":5126,
			"count":46,
			"type":"VEC3"
		},
		{
			"bufferView":49,
			"componentType":5126,
			"count":46,
			"type":"VEC4"
		},
		{
			"bufferView":50,
			"componentType":5126,
			"count":2,
			"type":"VEC3"
		},
		{
			"bufferView":51,
			"componentType":5126,
			"count":46,
			"type":"VEC3"
		},
		{
			"bufferView":52,
			"componentType":5126,
			"count":2,
			"type":"VEC4"
		},
		{
			"bufferView":53,
			"componentType":5126,
			"count":2,
			"type":"VEC3"
		},
		{
			"bufferView":54,
			"componentType":5126,
			"count":46,
			"type":"VEC3"
		},
		{
			"bufferView":55,
			"componentType":5126,
			"count":46,
			"type":"VEC4"
		},
		{
			"bufferView":56,
			"componentType":5126,
			"count":2,
			"type":"VEC3"
		},
		{
			"bufferView":57,
			"componentType":5126,
			"count":46,
			"type":"VEC3"
		},
		{
			"bufferView":58,
			"componentType":5126,
			"count":46,
			"type":"VEC4"
		},
		{
			"bufferView":59,
			"componentType":5126,
			"count":2,
			"type":"VEC3"
		},
		{
			"bufferView":60,
			"componentType":5126,
			"count":46,
			"type":"VEC3"
		},
		{
			"bufferView":61,
			"componentType":5126,
			"count":46,
			"type":"VEC4"
		},
		{
			"bufferView":62,
			"componentType":5126,
			"count":2,
			"type":"VEC3"
		},
		{
			"bufferView":63,
			"componentType":5126,
			"count":46,
			"type":"VEC3"
		},
		{
			"bufferView":64,
			"componentType":5126,
			"count":2,
			"type":"VEC4"
		},
		{
			"bufferView":65,
			"componentType":5126,
			"count":2,
			"type":"VEC3"
		},
		{
			"bufferView":66,
			"componentType":5126,
			"count":46,
			"type":"VEC3"
		},
		{
			"bufferView":67,
			"componentType":5126,
			"count":46,
			"type":"VEC4"
		},
		{
			"bufferView":68,
			"componentType":5126,
			"count":2,
			"type":"VEC3"
		},
		{
			"bufferView":69,
			"componentType":5126,
			"count":46,
			"type":"VEC3"
		},
		{
			"bufferView":70,
			"componentType":5126,
			"count":46,
			"type":"VEC4"
		},
		{
			"bufferView":71,
			"componentType":5126,
			"count":2,
			"type":"VEC3"
		},
		{
			"bufferView":72,
			"componentType":5126,
			"count":46,
			"type":"VEC3"
		},
		{
			"bufferView":73,
			"componentType":5126,
			"count":46,
			"type":"VEC4"
		},
		{
			"bufferView":74,
			"componentType":5126,
			"count":2,
			"type":"VEC3"
		},
		{
			"bufferView":75,
			"componentType":5126,
			"count":46,
			"type":"VEC3"
		},
		{
			"bufferView":76,
			"componentType":5126,
			"count":2,
			"type":"VEC4"
		},
		{
			"bufferView":77,
			"componentType":5126,
			"count":2,
			"type":"VEC3"
		},
		{
			"bufferView":78,
			"componentType":5126,
			"count":46,
			"type":"VEC3"
		},
		{
			"bufferView":79,
			"componentType":5126,
			"count":46,
			"type":"VEC4"
		},
		{
			"bufferView":80,
			"componentType":5126,
			"count":2,
			"type":"VEC3"
		},
		{
			"bufferView":81,
			"componentType":5126,
			"count":46,
			"type":"VEC3"
		},
		{
			"bufferView":82,
			"componentType":5126,
			"count":46,
			"type":"VEC4"
		},
		{
			"bufferView":83,
			"componentType":5126,
			"count":2,
			"type":"VEC3"
		},
		{
			"bufferView":84,
			"componentType":5126,
			"count":46,
			"type":"VEC3"
		},
		{
			"bufferView":85,
			"componentType":5126,
			"count":46,
			"type":"VEC4"
		},
		{
			"bufferView":86,
			"componentType":5126,
			"count":2,
			"type":"VEC3"
		},
		{
			"bufferView":87,
			"componentType":5126,
			"count":46,
			"type":"VEC3"
		},
		{
			"bufferView":88,
			"componentType":5126,
			"count":2,
			"type":"VEC4"
		},
		{
			"bufferView":89,
			"componentType":5126,
			"count":2,
			"type":"VEC3"
		},
		{
			"bufferView":90,
			"componentType":5126,
			"count":46,
			"type":"VEC3"
		},
		{
			"bufferView":91,
			"componentType":5126,
			"count":46,
			"type":"VEC4"
		},
		{
			"bufferView":92,
			"componentType":5126,
			"count":2,
			"type":"VEC3"
		},
		{
			"bufferView":93,
			"componentType":5126,
			"count":46,
			"type":"VEC3"
		},
		{
			"bufferView":94,
			"componentType":5126,
			"count":46,
			"type":"VEC4"
		},
		{
			"bufferView":95,
			"componentType":5126,
			"count":2,
			"type":"VEC3"
		},
		{
			"bufferView":96,
			"componentType":5126,
			"count":46,
			"type":"VEC3"
		},
		{
			"bufferView":97,
			"componentType":5126,
			"count":46,
			"type":"VEC4"
		},
		{
			"bufferView":98,
			"componentType":5126,
			"count":2,
			"type":"VEC3"
		},
		{
			"bufferView":99,
			"componentType":5126,
			"count":46,
			"type":"VEC3"
		},
		{
			"bufferView":100,
			"componentType":5126,
			"count":46,
			"type":"VEC4"
		},
		{
			"bufferView":101,
			"componentType":5126,
			"count":2,
			"type":"VEC3"
		},
		{
			"bufferView":102,
			"componentType":5126,
			"count":46,
			"type":"VEC3"
		},
		{
			"bufferView":103,
			"componentType":5126,
			"count":2,
			"type":"VEC4"
		},
		{
			"bufferView":104,
			"componentType":5126,
			"count":2,
			"type":"VEC3"
		},
		{
			"bufferView":105,
			"componentType":5126,
			"count":46,
			"type":"VEC3"
		},
		{
			"bufferView":106,
			"componentType":5126,
			"count":2,
			"type":"VEC4"
		},
		{
			"bufferView":107,
			"componentType":5126,
			"count":2,
			"type":"VEC3"
		},
		{
			"bufferView":108,
			"componentType":5126,
			"count":46,
			"type":"VEC3"
		},
		{
			"bufferView":109,
			"componentType":5126,
			"count":2,
			"type":"VEC4"
		},
		{
			"bufferView":110,
			"componentType":5126,
			"count":2,
			"type":"VEC3"
		},
		{
			"bufferView":111,
			"componentType":5126,
			"count":46,
			"type":"VEC3"
		},
		{
			"bufferView":112,
			"componentType":5126,
			"count":2,
			"type":"VEC4"
		},
		{
			"bufferView":113,
			"componentType":5126,
			"count":2,
			"type":"VEC3"
		},
		{
			"bufferView":114,
			"componentType":5126,
			"count":46,
			"type":"VEC3"
		},
		{
			"bufferView":115,
			"componentType":5126,
			"count":2,
			"type":"VEC4"
		},
		{
			"bufferView":116,
			"componentType":5126,
			"count":2,
			"type":"VEC3"
		},
		{
			"bufferView":117,
			"componentType":5126,
			"count":46,
			"type":"VEC3"
		},
		{
			"bufferView":118,
			"componentType":5126,
			"count":2,
			"type":"VEC4"
		},
		{
			"bufferView":119,
			"componentType":5126,
			"count":2,
			"type":"VEC3"
		},
		{
			"bufferView":120,
			"componentType":5126,
			"count":46,
			"type":"VEC3"
		},
		{
			"bufferView":121,
			"componentType":5126,
			"count":2,
			"type":"VEC4"
		},
		{
			"bufferView":122,
			"componentType":5126,
			"count":2,
			"type":"VEC3"
		},
		{
			"bufferView":123,
			"componentType":5126,
			"count":46,
			"type":"VEC3"
		},
		{
			"bufferView":124,
			"componentType":5126,
			"count":2,
			"type":"VEC4"
		},
		{
			"bufferView":125,
			"componentType":5126,
			"count":2,
			"type":"VEC3"
		},
		{
			"bufferView":126,
			"componentType":5126,
			"count":46,
			"type":"VEC3"
		},
		{
			"bufferView":127,
			"componentType":5126,
			"count":2,
			"type":"VEC4"
		},
		{
			"bufferView":128,
			"componentType":5126,
			"count":2,
			"type":"VEC3"
		},
		{
			"bufferView":129,
			"componentType":5126,
			"count":46,
			"type":"VEC3"
		},
		{
			"bufferView":130,
			"componentType":5126,
			"count":2,
			"type":"VEC4"
		},
		{
			"bufferView":131,
			"componentType":5126,
			"count":2,
			"type":"VEC3"
		},
		{
			"bufferView":132,
			"componentType":5126,
			"count":46,
			"type":"VEC3"
		},
		{
			"bufferView":133,
			"componentType":5126,
			"count":2,
			"type":"VEC4"
		},
		{
			"bufferView":134,
			"componentType":5126,
			"count":2,
			"type":"VEC3"
		},
		{
			"bufferView":135,
			"componentType":5126,
			"count":46,
			"type":"VEC3"
		},
		{
			"bufferView":136,
			"componentType":5126,
			"count":2,
			"type":"VEC4"
		},
		{
			"bufferView":137,
			"componentType":5126,
			"count":2,
			"type":"VEC3"
		},
		{
			"bufferView":138,
			"componentType":5126,
			"count":46,
			"type":"VEC3"
		},
		{
			"bufferView":139,
			"componentType":5126,
			"count":2,
			"type":"VEC4"
		},
		{
			"bufferView":140,
			"componentType":5126,
			"count":2,
			"type":"VEC3"
		},
		{
			"bufferView":141,
			"componentType":5126,
			"count":46,
			"type":"VEC3"
		},
		{
			"bufferView":142,
			"componentType":5126,
			"count":2,
			"type":"VEC4"
		},
		{
			"bufferView":143,
			"componentType":5126,
			"count":2,
			"type":"VEC3"
		},
		{
			"bufferView":144,
			"componentType":5126,
			"count":46,
			"type":"VEC3"
		},
		{
			"bufferView":145,
			"componentType":5126,
			"count":2,
			"type":"VEC4"
		},
		{
			"bufferView":146,
			"componentType":5126,
			"count":2,
			"type":"VEC3"
		},
		{
			"bufferView":147,
			"componentType":5126,
			"count":46,
			"type":"VEC3"
		},
		{
			"bufferView":148,
			"componentType":5126,
			"count":2,
			"type":"VEC4"
		},
		{
			"bufferView":149,
			"componentType":5126,
			"count":2,
			"type":"VEC3"
		},
		{
			"bufferView":150,
			"componentType":5126,
			"count":46,
			"type":"VEC3"
		},
		{
			"bufferView":151,
			"componentType":5126,
			"count":46,
			"type":"VEC4"
		},
		{
			"bufferView":152,
			"componentType":5126,
			"count":2,
			"type":"VEC3"
		},
		{
			"bufferView":153,
			"componentType":5126,
			"count":46,
			"type":"VEC3"
		},
		{
			"bufferView":154,
			"componentType":5126,
			"count":46,
			"type":"VEC4"
		},
		{
			"bufferView":155,
			"componentType":5126,
			"count":2,
			"type":"VEC3"
		},
		{
			"bufferView":156,
			"componentType":5126,
			"count":46,
			"type":"VEC3"
		},
		{
			"bufferView":157,
			"componentType":5126,
			"count":46,
			"type":"VEC4"
		},
		{
			"bufferView":158,
			"componentType":5126,
			"count":2,
			"type":"VEC3"
		},
		{
			"bufferView":159,
			"componentType":5126,
			"count":46,
			"type":"VEC3"
		},
		{
			"bufferView":160,
			"componentType":5126,
			"count":46,
			"type":"VEC4"
		},
		{
			"bufferView":161,
			"componentType":5126,
			"count":2,
			"type":"VEC3"
		},
		{
			"bufferView":162,
			"componentType":5126,
			"count":46,
			"type":"VEC3"
		},
		{
			"bufferView":163,
			"componentType":5126,
			"count":2,
			"type":"VEC4"
		},
		{
			"bufferView":164,
			"componentType":5126,
			"count":2,
			"type":"VEC3"
		},
		{
			"bufferView":165,
			"componentType":5126,
			"count":46,
			"type":"VEC3"
		},
		{
			"bufferView":166,
			"componentType":5126,
			"count":46,
			"type":"VEC4"
		},
		{
			"bufferView":167,
			"componentType":5126,
			"count":2,
			"type":"VEC3"
		},
		{
			"bufferView":168,
			"componentType":5126,
			"count":46,
			"type":"VEC3"
		},
		{
			"bufferView":169,
			"componentType":5126,
			"count":46,
			"type":"VEC4"
		},
		{
			"bufferView":170,
			"componentType":5126,
			"count":2,
			"type":"VEC3"
		},
		{
			"bufferView":171,
			"componentType":5126,
			"count":46,
			"type":"VEC3"
		},
		{
			"bufferView":172,
			"componentType":5126,
			"count":46,
			"type":"VEC4"
		},
		{
			"bufferView":173,
			"componentType":5126,
			"count":2,
			"type":"VEC3"
		},
		{
			"bufferView":174,
			"componentType":5126,
			"count":46,
			"type":"VEC3"
		},
		{
			"bufferView":175,
			"componentType":5126,
			"count":46,
			"type":"VEC4"
		},
		{
			"bufferView":176,
			"componentType":5126,
			"count":2,
			"type":"VEC3"
		},
		{
			"bufferView":177,
			"componentType":5126,
			"count":46,
			"type":"VEC3"
		},
		{
			"bufferView":178,
			"componentType":5126,
			"count":2,
			"type":"VEC4"
		},
		{
			"bufferView":179,
			"componentType":5126,
			"count":2,
			"type":"VEC3"
		}
	],
	"bufferViews":[
		{
			"buffer":0,
			"byteLength":71316,
			"byteOffset":0,
			"target":34962
		},
		{
			"buffer":0,
			"byteLength":71316,
			"byteOffset":71316,
			"target":34962
		},
		{
			"buffer":0,
			"byteLength":47544,
			"byteOffset":142632,
			"target":34962
		},
		{
			"buffer":0,
			"byteLength":23772,
			"byteOffset":190176,
			"target":34962
		},
		{
			"buffer":0,
			"byteLength":95088,
			"byteOffset":213948,
			"target":34962
		},
		{
			"buffer":0,
			"byteLength":60048,
			"byteOffset":309036,
			"target":34963
		},
		{
			"buffer":0,
			"byteLength":3648,
			"byteOffset":369084
		},
		{
			"buffer":0,
			"byteLength":184,
			"byteOffset":372732
		},
		{
			"buffer":0,
			"byteLength":552,
			"byteOffset":372916
		},
		{
			"buffer":0,
			"byteLength":736,
			"byteOffset":373468
		},
		{
			"buffer":0,
			"byteLength":8,
			"byteOffset":374204
		},
		{
			"buffer":0,
			"byteLength":24,
			"byteOffset":374212
		},
		{
			"buffer":0,
			"byteLength":552,
			"byteOffset":374236
		},
		{
			"buffer":0,
			"byteLength":736,
			"byteOffset":374788
		},
		{
			"buffer":0,
			"byteLength":24,
			"byteOffset":375524
		},
		{
			"buffer":0,
			"byteLength":552,
			"byteOffset":375548
		},
		{
			"buffer":0,
			"byteLength":736,
			"byteOffset":376100
		},
		{
			"buffer":0,
			"byteLength":24,
			"byteOffset":376836
		},
		{
			"buffer":0,
			"byteLength":552,
			"byteOffset":376860
		},
		{
			"buffer":0,
			"byteLength":736,
			"byteOffset":377412
		},
		{
			"buffer":0,
			"byteLength":24,
			"byteOffset":378148
		},
		{
			"buffer":0,
			"byteLength":552,
			"byteOffset":378172
		},
		{
			"buffer":0,
			"byteLength":736,
			"byteOffset":378724
		},
		{
			"buffer":0,
			"byteLength":24,
			"byteOffset":379460
		},
		{
			"buffer":0,
			"byteLength":552,
			"byteOffset":379484
		},
		{
			"buffer":0,
			"byteLength":736,
			"byteOffset":380036
		},
		{
			"buffer":0,
			"byteLength":24,
			"byteOffset":380772
		},
		{
			"buffer":0,
			"byteLength":552,
			"byteOffset":380796
		},
		{
			"buffer":0,
			"byteLength":32,
			"byteOffset":381348
		},
		{
			"buffer":0,
			"byteLength":24,
			"byteOffset":381380
		},
		{
			"buffer":0,
			"byteLength":552,
			"byteOffset":381404
		},
		{
			"buffer":0,
			"byteLength":736,
			"byteOffset":381956
		},
		{
			"buffer":0,
			"byteLength":24,
			"byteOffset":382692
		},
		{
			"buffer":0,
			"byteLength":552,
			"byteOffset":382716
		},
		{
			"buffer":0,
			"byteLength":736,
			"byteOffset":383268
		},
		{
			"buffer":0,
			"byteLength":24,
			"byteOffset":384004
		},
		{
			"buffer":0,
			"byteLength":552,
			"byteOffset":384028
		},
		{
			"buffer":0,
			"byteLength":736,
			"byteOffset":384580
		},
		{
			"buffer":0,
			"byteLength":24,
			"byteOffset":385316
		},
		{
			"buffer":0,
			"byteLength":552,
			"byteOffset":385340
		},
		{
			"buffer":0,
			"byteLength":736,
			"byteOffset":385892
		},
		{
			"buffer":0,
			"byteLength":24,
			"byteOffset":386628
		},
		{
			"buffer":0,
			"byteLength":552,
			"byteOffset":386652
		},
		{
			"buffer":0,
			"byteLength":736,
			"byteOffset":387204
		},
		{
			"buffer":0,
			"byteLength":24,
			"byteOffset":387940
		},
		{
			"buffer":0,
			"byteLength":552,
			"byteOffset":387964
		},
		{
			"buffer":0,
			"byteLength":736,
			"byteOffset":388516
		},
		{
			"buffer":0,
			"byteLength":24,
			"byteOffset":389252
		},
		{
			"buffer":0,
			"byteLength":552,
			"byteOffset":389276
		},
		{
			"buffer":0,
			"byteLength":736,
			"byteOffset":389828
		},
		{
			"buffer":0,
			"byteLength":24,
			"byteOffset":390564
		},
		{
			"buffer":0,
			"byteLength":552,
			"byteOffset":390588
		},
		{
			"buffer":0,
			"byteLength":32,
			"byteOffset":391140
		},
		{
			"buffer":0,
			"byteLength":24,
			"byteOffset":391172
		},
		{
			"buffer":0,
			"byteLength":552,
			"byteOffset":391196
		},
		{
			"buffer":0,
			"byteLength":736,
			"byteOffset":391748
		},
		{
			"buffer":0,
			"byteLength":24,
			"byteOffset":392484
		},
		{
			"buffer":0,
			"byteLength":552,
			"byteOffset":392508
		},
		{
			"buffer":0,
			"byteLength":736,
			"byteOffset":393060
		},
		{
			"buffer":0,
			"byteLength":24,
			"byteOffset":393796
		},
		{
			"buffer":0,
			"byteLength":552,
			"byteOffset":393820
		},
		{
			"buffer":0,
			"byteLength":736,
			"byteOffset":394372
		},
		{
			"buffer":0,
			"byteLength":24,
			"byteOffset":395108
		},
		{
			"buffer":0,
			"byteLength":552,
			"byteOffset":395132
		},
		{
			"buffer":0,
			"byteLength":32,
			"byteOffset":395684
		},
		{
			"buffer":0,
			"byteLength":24,
			"byteOffset":395716
		},
		{
			"buffer":0,
			"byteLength":552,
			"byteOffset":395740
		},
		{
			"buffer":0,
			"byteLength":736,
			"byteOffset":396292
		},
		{
			"buffer":0,
			"byteLength":24,
			"byteOffset":397028
		},
		{
			"buffer":0,
			"byteLength":552,
			"byteOffset":397052
		},
		{
			"buffer":0,
			"byteLength":736,
			"byteOffset":397604
		},
		{
			"buffer":0,
			"byteLength":24,
			"byteOffset":398340
		},
		{
			"buffer":0,
			"byteLength":552,
			"byteOffset":398364
		},
		{
			"buffer":0,
			"byteLength":736,
			"byteOffset":398916
		},
		{
			"buffer":0,
			"byteLength":24,
			"byteOffset":399652
		},
		{
			"buffer":0,
			"byteLength":552,
			"byteOffset":399676
		},
		{
			"buffer":0,
			"byteLength":32,
			"byteOffset":400228
		},
		{
			"buffer":0,
			"byteLength":24,
			"byteOffset":400260
		},
		{
			"buffer":0,
			"byteLength":552,
			"byteOffset":400284
		},
		{
			"buffer":0,
			"byteLength":736,
			"byteOffset":400836
		},
		{
			"buffer":0,
			"byteLength":24,
			"byteOffset":401572
		},
		{
			"buffer":0,
			"byteLength":552,
			"byteOffset":401596
		},
		{
			"buffer":0,
			"byteLength":736,
			"byteOffset":402148
		},
		{
			"buffer":0,
			"byteLength":24,
			"byteOffset":402884
		},
		{
			"buffer":0,
			"byteLength":552,
			"byteOffset":402908
		},
		{
			"buffer":0,
			"byteLength":736,
			"byteOffset":403460
		},
		{
			"buffer":0,
			"byteLength":24,
			"byteOffset":404196
		},
		{
			"buffer":0,
			"byteLength":552,
			"byteOffset":404220
		},
		{
			"buffer":0,
			"byteLength":32,
			"byteOffset":404772
		},
		{
			"buffer":0,
			"byteLength":24,
			"byteOffset":404804
		},
		{
			"buffer":0,
			"byteLength":552,
			"byteOffset":404828
		},
		{
			"buffer":0,
			"byteLength":736,
			"byteOffset":405380
		},
		{
			"buffer":0,
			"byteLength":24,
			"byteOffset":406116
		},
		{
			"buffer":0,
			"byteLength":552,
			"byteOffset":406140
		},
		{
			"buffer":0,
			"byteLength":736,
			"byteOffset":406692
		},
		{
			"buffer":0,
			"byteLength":24,
			"byteOffset":407428
		},
		{
			"buffer":0,
			"byteLength":552,
			"byteOffset":407452
		},
		{
			"buffer":0,
			"byteLength":736,
			"byteOffset":408004
		},
		{
			"buffer":0,
			"byteLength":24,
			"byteOffset":408740
		},
		{
			"buffer":0,
			"byteLength":552,
			"byteOffset":408764
		},
		{
			"buffer":0,
			"byteLength":736,
			"byteOffset":409316
		},
		{
			"buffer":0,
			"byteLength":24,
			"byteOffset":410052
		},
		{
			"buffer":0,
			"byteLength":552,
			"byteOffset":410076
		},
		{
			"buffer":0,
			"byteLength":32,
			"byteOffset":410628
		},
		{
			"buffer":0,
			"byteLength":24,
			"byteOffset":410660
		},
		{
			"buffer":0,
			"byteLength":552,
			"byteOffset":410684
		},
		{
			"buffer":0,
			"byteLength":32,
			"byteOffset":411236
		},
		{
			"buffer":0,
			"byteLength":24,
			"byteOffset":411268
		},
		{
			"buffer":0,
			"byteLength":552,
			"byteOffset":411292
		},
		{
			"buffer":0,
			"byteLength":32,
			"byteOffset":411844
		},
		{
			"buffer":0,
			"byteLength":24,
			"byteOffset":411876
		},
		{
			"buffer":0,
			"byteLength":552,
			"byteOffset":411900
		},
		{
			"buffer":0,
			"byteLength":32,
			"byteOffset":412452
		},
		{
			"buffer":0,
			"byteLength":24,
			"byteOffset":412484
		},
		{
			"buffer":0,
			"byteLength":552,
			"byteOffset":412508
		},
		{
			"buffer":0,
			"byteLength":32,
			"byteOffset":413060
		},
		{
			"buffer":0,
			"byteLength":24,
			"byteOffset":413092
		},
		{
			"buffer":0,
			"byteLength":552,
			"byteOffset":413116
		},
		{
			"buffer":0,
			"byteLength":32,
			"byteOffset":413668
		},
		{
			"buffer":0,
			"byteLength":24,
			"byteOffset":413700
		},
		{
			"buffer":0,
			"byteLength":552,
			"byteOffset":413724
		},
		{
			"buffer":0,
			"byteLength":32,
			"byteOffset":414276
		},
		{
			"buffer":0,
			"byteLength":24,
			"byteOffset":414308
		},
		{
			"buffer":0,
			"byteLength":552,
			"byteOffset":414332
		},
		{
			"buffer":0,
			"byteLength":32,
			"byteOffset":414884
		},
		{
			"buffer":0,
			"byteLength":24,
			"byteOffset":414916
		},
		{
			"buffer":0,
			"byteLength":552,
			"byteOffset":414940
		},
		{
			"buffer":0,
			"byteLength":32,
			"byteOffset":415492
		},
		{
			"buffer":0,
			"byteLength":24,
			"byteOffset":415524
		},
		{
			"buffer":0,
			"byteLength":552,
			"byteOffset":415548
		},
		{
			"buffer":0,
			"byteLength":32,
			"byteOffset":416100
		},
		{
			"buffer":0,
			"byteLength":24,
			"byteOffset":416132
		},
		{
			"buffer":0,
			"byteLength":552,
			"byteOffset":416156
		},
		{
			"buffer":0,
			"byteLength":32,
			"byteOffset":416708
		},
		{
			"buffer":0,
			"byteLength":24,
			"byteOffset":416740
		},
		{
			"buffer":0,
			"byteLength":552,
			"byteOffset":416764
		},
		{
			"buffer":0,
			"byteLength":32,
			"byteOffset":417316
		},
		{
			"buffer":0,
			"byteLength":24,
			"byteOffset":417348
		},
		{
			"buffer":0,
			"byteLength":552,
			"byteOffset":417372
		},
		{
			"buffer":0,
			"byteLength":32,
			"byteOffset":417924
		},
		{
			"buffer":0,
			"byteLength":24,
			"byteOffset":417956
		},
		{
			"buffer":0,
			"byteLength":552,
			"byteOffset":417980
		},
		{
			"buffer":0,
			"byteLength":32,
			"byteOffset":418532
		},
		{
			"buffer":0,
			"byteLength":24,
			"byteOffset":418564
		},
		{
			"buffer":0,
			"byteLength":552,
			"byteOffset":418588
		},
		{
			"buffer":0,
			"byteLength":32,
			"byteOffset":419140
		},
		{
			"buffer":0,
			"byteLength":24,
			"byteOffset":419172
		},
		{
			"buffer":0,
			"byteLength":552,
			"byteOffset":419196
		},
		{
			"buffer":0,
			"byteLength":32,
			"byteOffset":419748
		},
		{
			"buffer":0,
			"byteLength":24,
			"byteOffset":419780
		},
		{
			"buffer":0,
			"byteLength":552,
			"byteOffset":419804
		},
		{
			"buffer":0,
			"byteLength":736,
			"byteOffset":420356
		},
		{
			"buffer":0,
			"byteLength":24,
			"byteOffset":421092
		},
		{
			"buffer":0,
			"byteLength":552,
			"byteOffset":421116
		},
		{
			"buffer":0,
			"byteLength":736,
			"byteOffset":421668
		},
		{
			"buffer":0,
			"byteLength":24,
			"byteOffset":422404
		},
		{
			"buffer":0,
			"byteLength":552,
			"byteOffset":422428
		},
		{
			"buffer":0,
			"byteLength":736,
			"byteOffset":422980
		},
		{
			"buffer":0,
			"byteLength":24,
			"byteOffset":423716
		},
		{
			"buffer":0,
			"byteLength":552,
			"byteOffset":423740
		},
		{
			"buffer":0,
			"byteLength":736,
			"byteOffset":424292
		},
		{
			"buffer":0,
			"byteLength":24,
			"byteOffset":425028
		},
		{
			"buffer":0,
			"byteLength":552,
			"byteOffset":425052
		},
		{
			"buffer":0,
			"byteLength":32,
			"byteOffset":425604
		},
		{
			"buffer":0,
			"byteLength":24,
			"byteOffset":425636
		},
		{
			"buffer":0,
			"byteLength":552,
			"byteOffset":425660
		},
		{
			"buffer":0,
			"byteLength":736,
			"byteOffset":426212
		},
		{
			"buffer":0,
			"byteLength":24,
			"byteOffset":426948
		},
		{
			"buffer":0,
			"byteLength":552,
			"byteOffset":426972
		},
		{
			"buffer":0,
			"byteLength":736,
			"byteOffset":427524
		},
		{
			"buffer":0,
			"byteLength":24,
			"byteOffset":428260
		},
		{
			"buffer":0,
			"byteLength":552,
			"byteOffset":428284
		},
		{
			"buffer":0,
			"byteLength":736,
			"byteOffset":428836
		},
		{
			"buffer":0,
			"byteLength":24,
			"byteOffset":429572
		},
		{
			"buffer":0,
			"byteLength":552,
			"byteOffset":429596
		},
		{
			"buffer":0,
			"byteLength":736,
			"byteOffset":430148
		},
		{
			"buffer":0,
			"byteLength":24,
			"byteOffset":430884
		},
		{
			"buffer":0,
			"byteLength":552,
			"byteOffset":430908
		},
		{
			"buffer":0,
			"byteLength":32,
			"byteOffset":431460
		},
		{
			"buffer":0,
			"byteLength":24,
			"byteOffset":431492
		}
	],
	"samplers":[
		{
			"magFilter":9729,
			"minFilter":9987
		}
	],
	"buffers":[
		{
			"byteLength":431516,
			"uri":"enemy_jumpscare.bin"
		}
	]
}
